<?xml version="1.0" encoding="UTF-8" standalone="no"?><!-- Generator: Gravit.io --><svg xmlns="http://www.w3.org/2000/svg" xmlns:xlink="http://www.w3.org/1999/xlink" style="isolation:isolate" viewBox="0 0 656.43 256" width="656.43pt" height="256pt"><path d=" M 34.398 165.327 L 46.791 176 L 139.683 256 L 232.575 176 L 247.658 163.011 L 247.636 163.011 C 267.042 145.946 279.297 120.938 279.297 93.091 C 279.297 41.713 237.581 0 186.198 0 C 169.246 0 153.347 4.54 139.648 12.467 C 125.95 4.54 110.051 0 93.099 0 C 41.716 0 0 41.713 0 93.091 C 0 122.226 13.414 148.252 34.398 165.327 Z " fill="rgb(26,28,34)"/><path d=" M 332.971 247.113 L 332.971 247.113 L 332.971 247.113 Q 332.471 246.613 332.096 245.926 L 332.096 245.926 L 332.096 245.926 Q 331.721 245.238 331.471 244.113 L 331.471 244.113 L 331.471 244.113 Q 329.721 241.988 328.721 239.238 L 328.721 239.238 L 328.721 239.238 Q 327.721 236.488 327.346 233.551 L 327.346 233.551 L 327.346 233.551 Q 326.971 230.613 327.221 227.613 L 327.221 227.613 L 327.221 227.613 Q 327.471 224.613 328.096 221.988 L 328.096 221.988 L 328.096 221.988 Q 328.471 220.738 328.721 219.363 L 328.721 219.363 L 328.721 219.363 Q 329.346 216.988 329.971 214.676 L 329.971 214.676 L 329.971 214.676 Q 330.596 212.363 331.846 210.863 L 331.846 210.863 L 331.846 210.863 Q 331.346 209.488 331.971 207.863 L 331.971 207.863 L 331.971 207.863 Q 332.596 206.238 333.221 204.863 L 333.221 204.863 L 333.221 204.863 Q 333.471 204.488 333.596 204.176 L 333.596 204.176 L 333.596 204.176 Q 333.721 203.863 333.846 203.613 L 333.846 203.613 L 333.846 203.613 Q 335.346 199.238 336.784 195.176 L 336.784 195.176 L 336.784 195.176 Q 338.221 191.113 339.596 187.363 L 339.596 187.363 L 339.596 187.363 Q 342.096 180.488 344.409 173.863 L 344.409 173.863 L 344.409 173.863 Q 346.721 167.238 348.596 159.738 L 348.596 159.738 L 348.596 159.738 Q 349.596 158.988 350.346 158.738 L 350.346 158.738 L 350.346 158.738 Q 350.596 158.613 350.971 158.488 L 350.971 158.488 L 350.971 158.488 Q 351.346 158.363 351.846 158.363 L 351.846 158.363 L 351.846 158.363 Q 354.471 159.738 358.034 160.926 L 358.034 160.926 L 358.034 160.926 Q 361.596 162.113 364.096 162.113 L 364.096 162.113 L 366.221 163.988 L 366.221 163.988 Q 367.846 165.863 369.034 167.926 L 369.034 167.926 L 369.034 167.926 Q 370.221 169.988 369.721 173.238 L 369.721 173.238 L 369.721 173.238 Q 368.971 174.363 368.471 174.613 L 368.471 174.613 L 368.471 174.613 Q 367.721 177.488 366.846 179.676 L 366.846 179.676 L 366.846 179.676 Q 365.971 181.863 365.096 183.863 L 365.096 183.863 L 365.096 183.863 Q 364.096 186.113 363.221 188.363 L 363.221 188.363 L 363.221 188.363 Q 362.346 190.613 361.721 193.863 L 361.721 193.863 L 361.721 193.863 Q 360.971 194.738 360.784 195.363 L 360.784 195.363 L 360.784 195.363 Q 360.596 195.988 360.346 196.613 L 360.346 196.613 L 360.346 196.613 Q 360.096 197.363 359.721 198.176 L 359.721 198.176 L 359.721 198.176 Q 359.346 198.988 358.596 199.613 L 358.596 199.613 L 358.596 199.613 Q 358.096 203.488 357.096 205.926 L 357.096 205.926 L 357.096 205.926 Q 356.096 208.363 355.096 210.738 L 355.096 210.738 L 355.096 210.738 Q 353.346 215.113 351.846 219.426 L 351.846 219.426 L 351.846 219.426 Q 350.346 223.738 350.096 229.238 L 350.096 229.238 L 350.096 229.238 Q 351.596 228.863 352.846 228.863 L 352.846 228.863 L 352.846 228.863 Q 354.471 228.863 355.971 229.363 L 355.971 229.363 L 355.971 229.363 Q 360.471 227.113 365.784 226.613 L 365.784 226.613 L 365.784 226.613 Q 371.096 226.113 376.346 225.988 L 376.346 225.988 L 376.346 225.988 Q 380.721 225.988 384.471 225.613 L 384.471 225.613 L 384.471 225.613 Q 385.721 226.488 386.096 226.551 L 386.096 226.551 L 386.096 226.551 Q 386.471 226.613 387.346 226.613 L 387.346 226.613 L 387.346 226.613 Q 387.721 226.613 388.096 226.613 L 388.096 226.613 L 388.096 226.613 Q 388.471 226.613 389.096 226.738 L 389.096 226.738 L 389.096 226.738 Q 390.846 228.488 392.471 229.176 L 392.471 229.176 L 392.471 229.176 Q 394.096 229.863 395.971 230.488 L 395.971 230.488 L 395.971 230.488 Q 397.596 231.113 399.159 231.801 L 399.159 231.801 L 399.159 231.801 Q 400.721 232.488 402.221 233.613 L 402.221 233.613 L 403.346 239.988 L 403.346 239.988 Q 404.346 241.363 404.221 241.863 L 404.221 241.863 L 404.221 241.863 Q 404.221 242.863 403.721 243.613 L 403.721 243.613 L 403.971 245.238 L 403.971 245.238 Q 401.596 245.738 400.846 246.301 L 400.846 246.301 L 400.846 246.301 Q 400.096 246.863 399.221 247.738 L 399.221 247.738 L 399.221 247.738 Q 397.846 247.863 396.596 247.863 L 396.596 247.863 L 396.596 247.863 Q 394.096 247.863 391.471 248.613 L 391.471 248.613 L 391.471 248.613 Q 387.721 247.238 383.221 247.238 L 383.221 247.238 L 383.221 247.238 Q 381.471 247.238 379.659 247.363 L 379.659 247.363 L 379.659 247.363 Q 377.846 247.488 376.096 247.738 L 376.096 247.738 L 376.096 247.738 Q 374.221 247.988 372.346 248.176 L 372.346 248.176 L 372.346 248.176 Q 370.471 248.363 368.596 248.363 L 368.596 248.363 L 368.596 248.363 Q 367.096 248.613 366.471 248.738 L 366.471 248.738 L 366.471 248.738 Q 365.846 248.863 365.221 249.113 L 365.221 249.113 L 365.221 249.113 Q 360.971 250.488 356.034 251.863 L 356.034 251.863 L 356.034 251.863 Q 351.096 253.238 346.096 253.238 L 346.096 253.238 L 346.096 253.238 Q 338.721 253.238 334.221 249.488 L 334.221 249.488 L 334.221 249.488 Q 333.721 248.363 333.471 247.988 L 333.471 247.988 L 333.471 247.988 Q 333.221 247.613 332.971 247.113 Z  M 436.971 252.238 L 436.971 252.238 L 436.971 252.238 Q 431.471 252.988 426.971 251.738 L 426.971 251.738 L 426.971 251.738 Q 422.471 250.488 418.909 247.863 L 418.909 247.863 L 418.909 247.863 Q 415.346 245.238 412.784 241.613 L 412.784 241.613 L 412.784 241.613 Q 410.221 237.988 408.596 233.863 L 408.596 233.863 L 408.596 233.863 Q 407.471 225.363 409.221 218.426 L 409.221 218.426 L 409.221 218.426 Q 410.971 211.488 414.346 205.613 L 414.346 205.613 L 414.346 205.613 Q 417.721 199.738 422.034 194.613 L 422.034 194.613 L 422.034 194.613 Q 426.346 189.488 430.346 184.738 L 430.346 184.738 L 430.346 184.738 Q 431.221 185.113 431.784 184.738 L 431.784 184.738 L 431.784 184.738 Q 432.346 184.363 432.784 183.738 L 432.784 183.738 L 432.784 183.738 Q 433.221 183.113 433.784 182.488 L 433.784 182.488 L 433.784 182.488 Q 434.346 181.863 435.096 181.613 L 435.096 181.613 L 435.096 181.613 Q 435.596 180.488 436.409 179.738 L 436.409 179.738 L 436.409 179.738 Q 437.221 178.988 438.159 178.301 L 438.159 178.301 L 438.159 178.301 Q 439.096 177.613 439.909 176.863 L 439.909 176.863 L 439.909 176.863 Q 440.721 176.113 441.346 174.988 L 441.346 174.988 L 441.346 174.988 Q 442.596 174.738 443.534 174.113 L 443.534 174.113 L 443.534 174.113 Q 444.471 173.488 445.284 172.738 L 445.284 172.738 L 445.284 172.738 Q 446.096 171.988 446.971 171.363 L 446.971 171.363 L 446.971 171.363 Q 447.846 170.738 449.096 170.363 L 449.096 170.363 L 449.096 168.738 L 449.096 168.738 Q 451.846 167.488 453.096 165.988 L 453.096 165.988 L 453.096 165.988 Q 454.346 164.488 456.096 162.113 L 456.096 162.113 L 456.096 162.113 Q 457.471 161.988 458.284 161.988 L 458.284 161.988 L 458.284 161.988 Q 459.096 161.988 460.846 161.738 L 460.846 161.738 L 460.846 161.738 Q 461.971 159.613 462.971 158.613 L 462.971 158.613 L 462.971 158.613 Q 463.971 157.613 465.846 156.363 L 465.846 156.363 L 465.846 156.363 Q 467.721 157.363 469.846 157.551 L 469.846 157.551 L 469.846 157.551 Q 471.971 157.738 473.721 159.488 L 473.721 159.488 L 473.721 159.488 Q 473.846 160.988 474.596 161.801 L 474.596 161.801 L 474.596 161.801 Q 475.346 162.613 476.221 163.301 L 476.221 163.301 L 476.221 163.301 Q 477.096 163.988 477.971 164.738 L 477.971 164.738 L 477.971 164.738 Q 478.846 165.488 479.096 166.863 L 479.096 166.863 L 479.096 166.863 Q 479.721 166.863 479.909 166.613 L 479.909 166.613 L 479.909 166.613 Q 480.096 166.363 480.721 166.488 L 480.721 166.488 L 480.721 166.488 Q 480.971 167.488 481.221 168.113 L 481.221 168.113 L 481.221 168.113 Q 481.471 168.738 481.784 169.238 L 481.784 169.238 L 481.784 169.238 Q 482.096 169.738 482.409 170.363 L 482.409 170.363 L 482.409 170.363 Q 482.721 170.988 482.971 171.863 L 482.971 171.863 L 482.971 171.863 Q 482.346 173.363 481.846 175.051 L 481.846 175.051 L 481.846 175.051 Q 481.346 176.738 479.846 177.363 L 479.846 177.363 L 479.846 177.363 Q 479.846 178.363 480.596 178.426 L 480.596 178.426 L 480.596 178.426 Q 481.346 178.488 481.471 179.363 L 481.471 179.363 L 481.471 179.363 Q 481.596 180.488 481.096 181.238 L 481.096 181.238 L 481.096 181.238 Q 484.596 187.113 487.471 193.551 L 487.471 193.551 L 487.471 193.551 Q 490.346 199.988 493.971 205.863 L 493.971 205.863 L 493.971 205.863 Q 493.721 207.613 494.159 209.301 L 494.159 209.301 L 494.159 209.301 Q 494.596 210.988 495.284 212.613 L 495.284 212.613 L 495.284 212.613 Q 495.971 214.238 496.596 215.863 L 496.596 215.863 L 496.596 215.863 Q 497.221 217.488 497.471 219.113 L 497.471 219.113 L 497.471 219.113 Q 497.721 221.238 497.471 223.676 L 497.471 223.676 L 497.471 223.676 Q 497.221 226.113 496.471 228.363 L 496.471 228.363 L 496.471 228.363 Q 495.721 230.613 494.471 232.551 L 494.471 232.551 L 494.471 232.551 Q 493.221 234.488 491.596 235.488 L 491.596 235.488 L 491.596 235.488 Q 489.596 237.988 486.596 239.551 L 486.596 239.551 L 486.596 239.551 Q 483.596 241.113 481.096 243.238 L 481.096 243.238 L 481.096 243.238 Q 479.346 244.238 477.346 244.676 L 477.346 244.676 L 477.346 244.676 Q 475.346 245.113 473.221 245.613 L 473.221 245.613 L 473.221 245.613 Q 471.596 246.613 469.346 247.551 L 469.346 247.551 L 469.346 247.551 Q 467.096 248.488 464.721 249.238 L 464.721 249.238 L 464.721 249.238 Q 462.346 249.988 459.971 250.426 L 459.971 250.426 L 459.971 250.426 Q 457.596 250.863 455.721 250.613 L 455.721 250.613 L 455.721 250.613 Q 451.221 252.238 446.971 252.863 L 446.971 252.863 L 446.971 252.863 Q 442.721 253.488 436.971 252.238 Z  M 438.596 206.738 L 438.596 206.738 L 438.596 206.738 Q 437.346 209.613 435.659 211.926 L 435.659 211.926 L 435.659 211.926 Q 433.971 214.238 432.346 216.613 L 432.346 216.613 L 432.346 216.613 Q 430.721 218.988 429.534 221.676 L 429.534 221.676 L 429.534 221.676 Q 428.346 224.363 428.221 227.988 L 428.221 227.988 L 428.221 227.988 Q 430.721 230.113 434.159 230.551 L 434.159 230.551 L 434.159 230.551 Q 437.596 230.988 441.221 230.676 L 441.221 230.676 L 441.221 230.676 Q 444.846 230.363 448.471 229.738 L 448.471 229.738 L 448.471 229.738 Q 452.096 229.113 454.971 229.113 L 454.971 229.113 L 454.971 229.113 Q 454.971 227.988 455.971 227.988 L 455.971 227.988 L 455.971 227.988 Q 461.221 227.488 465.721 225.051 L 465.721 225.051 L 465.721 225.051 Q 470.221 222.613 475.096 220.113 L 475.096 220.113 L 475.096 220.113 Q 475.721 218.613 476.721 217.488 L 476.721 217.488 L 476.721 217.488 Q 477.721 216.363 477.846 214.238 L 477.846 214.238 L 477.846 214.238 Q 477.221 213.113 477.034 212.363 L 477.034 212.363 L 477.034 212.363 Q 476.846 211.613 476.846 210.113 L 476.846 210.113 L 476.846 210.113 Q 473.596 205.613 471.221 200.301 L 471.221 200.301 L 471.221 200.301 Q 468.846 194.988 465.721 190.238 L 465.721 190.238 L 465.721 190.238 Q 465.471 190.863 464.721 191.488 L 464.721 191.488 L 464.721 191.488 Q 463.971 192.113 463.096 191.238 L 463.096 191.238 L 463.096 191.238 Q 462.721 192.488 461.971 192.926 L 461.971 192.926 L 461.971 192.926 Q 461.221 193.363 460.284 193.363 L 460.284 193.363 L 460.284 193.363 Q 459.346 193.363 458.409 192.988 L 458.409 192.988 L 458.409 192.988 Q 457.471 192.613 456.721 191.988 L 456.721 191.988 L 456.721 191.988 Q 452.346 195.488 448.034 198.738 L 448.034 198.738 L 448.034 198.738 Q 443.721 201.988 440.221 206.363 L 440.221 206.363 L 440.221 206.363 Q 439.596 206.738 439.471 206.613 L 439.471 206.613 L 439.471 206.613 Q 439.346 206.488 438.596 206.738 Z  M 508.096 204.738 L 508.096 204.738 L 508.096 204.738 Q 507.471 201.238 507.721 197.488 L 507.721 197.488 L 507.721 197.488 Q 507.971 193.738 507.971 190.238 L 507.971 190.238 L 507.971 190.238 Q 507.971 186.863 507.534 183.051 L 507.534 183.051 L 507.534 183.051 Q 507.096 179.238 506.784 175.738 L 506.784 175.738 L 506.784 175.738 Q 506.471 172.238 506.534 169.301 L 506.534 169.301 L 506.534 169.301 Q 506.596 166.363 507.346 164.738 L 507.346 164.738 L 507.346 164.738 Q 508.346 162.863 509.846 161.801 L 509.846 161.801 L 509.846 161.801 Q 511.346 160.738 512.721 159.363 L 512.721 159.363 L 512.721 159.363 Q 514.346 159.613 515.659 160.301 L 515.659 160.301 L 515.659 160.301 Q 516.971 160.988 517.909 162.051 L 517.909 162.051 L 517.909 162.051 Q 518.846 163.113 519.284 164.238 L 519.284 164.238 L 519.284 164.238 Q 519.721 165.363 519.471 166.488 L 519.471 166.488 L 519.471 166.488 Q 522.596 168.363 524.534 171.551 L 524.534 171.551 L 524.534 171.551 Q 526.471 174.738 527.534 178.551 L 527.534 178.551 L 527.534 178.551 Q 528.596 182.363 529.034 186.613 L 529.034 186.613 L 529.034 186.613 Q 529.471 190.863 529.784 194.988 L 529.784 194.988 L 529.784 194.988 Q 530.096 199.113 530.409 202.801 L 530.409 202.801 L 530.409 202.801 Q 530.721 206.488 531.596 209.238 L 531.596 209.238 L 531.596 209.238 Q 537.096 201.238 540.909 195.051 L 540.909 195.051 L 540.909 195.051 Q 544.721 188.863 548.596 183.176 L 548.596 183.176 L 548.596 183.176 Q 552.471 177.488 557.284 171.613 L 557.284 171.613 L 557.284 171.613 Q 562.096 165.738 569.596 158.363 L 569.596 158.363 L 569.596 158.363 Q 571.221 158.613 572.096 158.988 L 572.096 158.988 L 572.096 158.988 Q 572.971 159.363 573.846 159.738 L 573.846 159.738 L 573.846 159.738 Q 574.721 160.113 575.721 160.301 L 575.721 160.301 L 575.721 160.301 Q 576.721 160.488 578.471 160.238 L 578.471 160.238 L 578.471 160.238 Q 579.096 161.738 579.409 162.426 L 579.409 162.426 L 579.409 162.426 Q 579.721 163.113 579.971 163.738 L 579.971 163.738 L 579.971 163.738 Q 580.221 164.363 580.596 165.363 L 580.596 165.363 L 580.596 165.363 Q 580.971 166.363 581.721 168.363 L 581.721 168.363 L 581.721 168.363 Q 582.096 168.863 582.034 169.676 L 582.034 169.676 L 582.034 169.676 Q 581.971 170.488 581.846 171.113 L 581.846 171.113 L 581.846 171.113 Q 581.721 171.738 581.784 172.113 L 581.784 172.113 L 581.784 172.113 Q 581.846 172.488 582.596 172.113 L 582.596 172.113 L 582.596 172.113 Q 582.096 174.238 580.971 175.926 L 580.971 175.926 L 580.971 175.926 Q 579.846 177.613 579.971 179.988 L 579.971 179.988 L 579.971 179.988 Q 576.596 184.488 572.471 189.238 L 572.471 189.238 L 572.471 189.238 Q 568.346 193.988 564.221 199.176 L 564.221 199.176 L 564.221 199.176 Q 560.096 204.363 556.284 209.926 L 556.284 209.926 L 556.284 209.926 Q 552.471 215.488 549.846 221.738 L 549.846 221.738 L 549.846 221.738 Q 549.096 221.738 548.721 222.113 L 548.721 222.113 L 548.721 222.113 Q 548.346 222.488 548.034 222.988 L 548.034 222.988 L 548.034 222.988 Q 547.721 223.488 547.409 223.988 L 547.409 223.988 L 547.409 223.988 Q 547.096 224.488 546.346 224.488 L 546.346 224.488 L 546.346 224.488 Q 546.096 228.488 543.409 232.051 L 543.409 232.051 L 543.409 232.051 Q 540.721 235.613 537.971 238.113 L 537.971 238.113 L 537.971 238.113 Q 538.221 239.113 538.221 239.738 L 538.221 239.738 L 538.221 239.738 Q 538.221 240.363 538.096 240.988 L 538.096 240.988 L 538.096 240.988 Q 537.971 241.613 537.909 242.301 L 537.909 242.301 L 537.909 242.301 Q 537.846 242.988 537.971 243.988 L 537.971 243.988 L 537.971 243.988 Q 536.846 246.988 535.034 248.988 L 535.034 248.988 L 535.034 248.988 Q 533.221 250.988 531.096 251.988 L 531.096 251.988 L 531.096 251.988 Q 528.971 252.988 526.721 252.801 L 526.721 252.801 L 526.721 252.801 Q 524.471 252.613 522.471 251.238 L 522.471 251.238 L 522.471 251.238 Q 521.596 250.738 520.971 249.863 L 520.971 249.863 L 520.971 249.863 Q 520.346 248.988 519.659 248.176 L 519.659 248.176 L 519.659 248.176 Q 518.971 247.363 518.284 246.676 L 518.284 246.676 L 518.284 246.676 Q 517.596 245.988 516.596 245.738 L 516.596 245.738 L 516.596 245.738 Q 516.846 244.488 516.659 243.113 L 516.659 243.113 L 516.659 243.113 Q 516.471 241.738 516.096 240.613 L 516.096 240.613 L 516.096 240.613 Q 515.721 239.488 515.221 238.738 L 515.221 238.738 L 515.221 238.738 Q 514.721 237.988 514.221 237.988 L 514.221 237.988 L 514.221 237.988 Q 513.721 234.863 512.909 231.176 L 512.909 231.176 L 512.909 231.176 Q 512.096 227.488 511.284 223.863 L 511.284 223.863 L 511.284 223.863 Q 510.471 220.238 509.971 216.738 L 509.971 216.738 L 509.971 216.738 Q 509.471 213.238 509.596 210.238 L 509.596 210.238 L 509.596 210.238 Q 509.721 208.738 509.034 207.551 L 509.034 207.551 L 509.034 207.551 Q 508.346 206.363 508.096 204.738 Z  M 579.971 247.488 L 579.971 247.488 L 579.971 247.488 Q 578.971 246.488 578.534 245.113 L 578.534 245.113 L 578.534 245.113 Q 578.096 243.738 576.471 242.863 L 576.471 242.863 L 576.471 242.863 Q 576.221 240.988 575.784 238.551 L 575.784 238.551 L 575.784 238.551 Q 575.346 236.113 574.909 233.551 L 574.909 233.551 L 574.909 233.551 Q 574.471 230.988 574.284 228.426 L 574.284 228.426 L 574.284 228.426 Q 574.096 225.863 574.471 223.738 L 574.471 223.738 L 574.471 223.738 Q 574.721 222.613 575.284 221.613 L 575.284 221.613 L 575.284 221.613 Q 575.846 220.613 576.409 219.676 L 576.409 219.676 L 576.409 219.676 Q 576.971 218.738 577.284 217.738 L 577.284 217.738 L 577.284 217.738 Q 577.596 216.738 577.346 215.738 L 577.346 215.738 L 577.346 215.738 Q 578.096 215.613 578.284 214.926 L 578.284 214.926 L 578.284 214.926 Q 578.471 214.238 579.471 214.488 L 579.471 214.488 L 579.471 214.488 Q 580.346 211.738 581.346 209.363 L 581.346 209.363 L 581.346 209.363 Q 582.346 206.988 583.471 204.738 L 583.471 204.738 L 583.471 204.738 Q 584.596 202.488 585.784 200.176 L 585.784 200.176 L 585.784 200.176 Q 586.971 197.863 587.971 194.988 L 587.971 194.988 L 587.971 194.988 Q 585.846 192.988 584.909 190.676 L 584.909 190.676 L 584.909 190.676 Q 583.971 188.363 583.471 185.988 L 583.471 185.988 L 583.471 185.988 Q 582.971 183.613 582.721 181.176 L 582.721 181.176 L 582.721 181.176 Q 582.471 178.738 581.721 176.238 L 581.721 176.238 L 581.721 176.238 Q 583.221 173.988 585.346 172.551 L 585.346 172.551 L 585.346 172.551 Q 587.471 171.113 590.034 170.176 L 590.034 170.176 L 590.034 170.176 Q 592.596 169.238 595.596 168.676 L 595.596 168.676 L 595.596 168.676 Q 598.596 168.113 601.971 167.363 L 601.971 167.363 L 601.971 167.363 Q 607.971 165.488 612.721 164.426 L 612.721 164.426 L 612.721 164.426 Q 617.471 163.363 621.971 162.676 L 621.971 162.676 L 621.971 162.676 Q 626.471 161.988 631.346 161.426 L 631.346 161.426 L 631.346 161.426 Q 636.221 160.863 642.596 159.738 L 642.596 159.738 L 642.596 159.738 Q 642.721 160.113 643.034 160.113 L 643.034 160.113 L 643.034 160.113 Q 643.346 160.113 643.846 160.113 L 643.846 160.113 L 643.846 160.113 Q 644.221 160.988 645.221 160.988 L 645.221 160.988 L 645.221 160.988 Q 645.221 160.613 645.159 160.301 L 645.159 160.301 L 645.159 160.301 Q 645.096 159.988 645.096 159.738 L 645.096 159.738 L 645.096 159.738 Q 645.346 159.738 645.784 159.863 L 645.784 159.863 L 645.784 159.863 Q 646.221 159.988 646.534 160.113 L 646.534 160.113 L 646.534 160.113 Q 646.846 160.238 647.096 160.051 L 647.096 160.051 L 647.096 160.051 Q 647.346 159.863 647.221 159.238 L 647.221 159.238 L 647.221 159.238 Q 648.721 161.863 651.096 163.551 L 651.096 163.551 L 651.096 163.551 Q 653.471 165.238 656.346 166.488 L 656.346 166.488 L 656.346 166.488 Q 656.471 167.613 656.409 168.113 L 656.409 168.113 L 656.409 168.113 Q 656.346 168.613 656.221 169.051 L 656.221 169.051 L 656.221 169.051 Q 656.096 169.488 656.096 170.051 L 656.096 170.051 L 656.096 170.051 Q 656.096 170.613 656.346 171.613 L 656.346 171.613 L 656.346 171.613 Q 654.346 174.988 651.784 176.863 L 651.784 176.863 L 651.784 176.863 Q 649.221 178.738 646.346 179.738 L 646.346 179.738 L 646.346 179.738 Q 643.471 180.738 640.284 181.238 L 640.284 181.238 L 640.284 181.238 Q 637.096 181.738 633.784 182.301 L 633.784 182.301 L 633.784 182.301 Q 630.471 182.863 627.096 183.863 L 627.096 183.863 L 627.096 183.863 Q 623.721 184.863 620.471 186.863 L 620.471 186.863 L 620.471 186.863 Q 619.471 186.488 618.659 186.551 L 618.659 186.551 L 618.659 186.551 Q 617.846 186.613 616.971 186.863 L 616.971 186.863 L 616.971 186.863 Q 616.096 187.113 615.034 187.363 L 615.034 187.363 L 615.034 187.363 Q 613.971 187.613 612.471 187.363 L 612.471 187.363 L 612.471 187.363 Q 611.471 188.238 610.159 188.613 L 610.159 188.613 L 610.159 188.613 Q 608.846 188.988 607.471 189.363 L 607.471 189.363 L 607.471 189.363 Q 608.096 190.738 608.034 192.113 L 608.034 192.113 L 608.034 192.113 Q 607.971 193.488 608.346 194.488 L 608.346 194.488 L 608.346 194.488 Q 613.596 194.988 619.971 194.426 L 619.971 194.426 L 619.971 194.426 Q 626.346 193.863 632.471 193.613 L 632.471 193.613 L 632.471 193.613 Q 632.596 194.238 632.346 194.488 L 632.346 194.488 L 632.346 194.488 Q 632.096 194.738 632.096 195.363 L 632.096 195.363 L 632.096 195.363 Q 633.221 196.113 634.221 197.238 L 634.221 197.238 L 634.221 197.238 Q 635.221 198.363 636.284 199.426 L 636.284 199.426 L 636.284 199.426 Q 637.346 200.488 638.471 201.176 L 638.471 201.176 L 638.471 201.176 Q 639.596 201.863 641.096 201.738 L 641.096 201.738 L 641.096 201.738 Q 641.721 202.988 641.971 204.363 L 641.971 204.363 L 641.971 204.363 Q 642.221 205.738 641.596 207.238 L 641.596 207.238 L 641.596 207.238 Q 639.096 208.863 636.721 210.551 L 636.721 210.551 L 636.721 210.551 Q 634.346 212.238 631.784 213.613 L 631.784 213.613 L 631.784 213.613 Q 629.221 214.988 626.221 215.863 L 626.221 215.863 L 626.221 215.863 Q 623.221 216.738 619.721 216.613 L 619.721 216.613 L 619.721 216.613 Q 619.096 216.613 618.659 216.613 L 618.659 216.613 L 618.659 216.613 Q 618.221 216.613 617.596 216.113 L 617.596 216.113 L 617.596 216.113 Q 616.346 216.738 614.284 216.551 L 614.284 216.551 L 614.284 216.551 Q 612.221 216.363 610.846 216.988 L 610.846 216.988 L 610.846 216.988 Q 609.096 216.363 606.784 216.363 L 606.784 216.363 L 606.784 216.363 Q 604.471 216.363 602.721 215.738 L 602.721 215.738 L 602.721 215.738 Q 600.471 218.988 598.471 222.551 L 598.471 222.551 L 598.471 222.551 Q 596.471 226.113 594.971 230.113 L 594.971 230.113 L 594.971 230.113 Q 600.096 230.863 603.471 230.738 L 603.471 230.738 L 603.471 230.738 Q 606.846 230.613 609.846 230.238 L 609.846 230.238 L 609.846 230.238 Q 612.846 229.863 616.034 229.488 L 616.034 229.488 L 616.034 229.488 Q 619.221 229.113 623.846 229.238 L 623.846 229.238 L 623.846 229.238 Q 626.971 227.738 631.034 227.176 L 631.034 227.176 L 631.034 227.176 Q 635.096 226.613 638.596 225.488 L 638.596 225.488 L 638.596 225.488 Q 639.846 225.863 640.721 226.926 L 640.721 226.926 L 640.721 226.926 Q 641.596 227.988 642.409 229.051 L 642.409 229.051 L 642.409 229.051 Q 643.221 230.113 644.096 230.863 L 644.096 230.863 L 644.096 230.863 Q 644.971 231.613 646.346 231.363 L 646.346 231.363 L 646.346 231.363 Q 646.971 231.988 647.159 232.863 L 647.159 232.863 L 647.159 232.863 Q 647.346 233.738 647.534 234.488 L 647.534 234.488 L 647.534 234.488 Q 647.721 235.238 648.096 235.676 L 648.096 235.676 L 648.096 235.676 Q 648.471 236.113 649.471 235.988 L 649.471 235.988 L 649.471 235.988 Q 647.096 240.863 644.159 243.488 L 644.159 243.488 L 644.159 243.488 Q 641.221 246.113 637.534 247.551 L 637.534 247.551 L 637.534 247.551 Q 633.846 248.988 629.284 249.676 L 629.284 249.676 L 629.284 249.676 Q 624.721 250.363 619.096 251.363 L 619.096 251.363 L 619.096 251.363 Q 617.721 251.613 616.784 251.301 L 616.784 251.301 L 616.784 251.301 Q 615.846 250.988 614.846 250.988 L 614.846 250.988 L 614.846 250.988 Q 611.346 251.613 606.534 252.238 L 606.534 252.238 L 606.534 252.238 Q 601.721 252.863 596.846 252.738 L 596.846 252.738 L 596.846 252.738 Q 591.971 252.613 587.471 251.488 L 587.471 251.488 L 587.471 251.488 Q 582.971 250.363 579.971 247.488 Z  M 355.971 106.138 L 355.971 106.138 L 355.971 106.138 Q 350.471 106.888 345.971 105.638 L 345.971 105.638 L 345.971 105.638 Q 341.471 104.388 337.909 101.763 L 337.909 101.763 L 337.909 101.763 Q 334.346 99.138 331.784 95.513 L 331.784 95.513 L 331.784 95.513 Q 329.221 91.888 327.596 87.763 L 327.596 87.763 L 327.596 87.763 Q 326.471 79.263 328.221 72.326 L 328.221 72.326 L 328.221 72.326 Q 329.971 65.388 333.346 59.513 L 333.346 59.513 L 333.346 59.513 Q 336.721 53.638 341.034 48.513 L 341.034 48.513 L 341.034 48.513 Q 345.346 43.388 349.346 38.638 L 349.346 38.638 L 349.346 38.638 Q 350.221 39.013 350.784 38.638 L 350.784 38.638 L 350.784 38.638 Q 351.346 38.263 351.784 37.638 L 351.784 37.638 L 351.784 37.638 Q 352.221 37.013 352.784 36.388 L 352.784 36.388 L 352.784 36.388 Q 353.346 35.763 354.096 35.513 L 354.096 35.513 L 354.096 35.513 Q 354.596 34.388 355.409 33.638 L 355.409 33.638 L 355.409 33.638 Q 356.221 32.888 357.159 32.201 L 357.159 32.201 L 357.159 32.201 Q 358.096 31.513 358.909 30.763 L 358.909 30.763 L 358.909 30.763 Q 359.721 30.013 360.346 28.888 L 360.346 28.888 L 360.346 28.888 Q 361.596 28.638 362.534 28.013 L 362.534 28.013 L 362.534 28.013 Q 363.471 27.388 364.284 26.638 L 364.284 26.638 L 364.284 26.638 Q 365.096 25.888 365.971 25.263 L 365.971 25.263 L 365.971 25.263 Q 366.846 24.638 368.096 24.263 L 368.096 24.263 L 368.096 22.638 L 368.096 22.638 Q 370.846 21.388 372.096 19.888 L 372.096 19.888 L 372.096 19.888 Q 373.346 18.388 375.096 16.013 L 375.096 16.013 L 375.096 16.013 Q 376.471 15.888 377.284 15.888 L 377.284 15.888 L 377.284 15.888 Q 378.096 15.888 379.846 15.638 L 379.846 15.638 L 379.846 15.638 Q 380.971 13.513 381.971 12.513 L 381.971 12.513 L 381.971 12.513 Q 382.971 11.513 384.846 10.263 L 384.846 10.263 L 384.846 10.263 Q 386.721 11.263 388.846 11.451 L 388.846 11.451 L 388.846 11.451 Q 390.971 11.638 392.721 13.388 L 392.721 13.388 L 392.721 13.388 Q 392.846 14.888 393.596 15.701 L 393.596 15.701 L 393.596 15.701 Q 394.346 16.513 395.221 17.201 L 395.221 17.201 L 395.221 17.201 Q 396.096 17.888 396.971 18.638 L 396.971 18.638 L 396.971 18.638 Q 397.846 19.388 398.096 20.763 L 398.096 20.763 L 398.096 20.763 Q 398.721 20.763 398.909 20.513 L 398.909 20.513 L 398.909 20.513 Q 399.096 20.263 399.721 20.388 L 399.721 20.388 L 399.721 20.388 Q 399.971 21.388 400.221 22.013 L 400.221 22.013 L 400.221 22.013 Q 400.471 22.638 400.784 23.138 L 400.784 23.138 L 400.784 23.138 Q 401.096 23.638 401.409 24.263 L 401.409 24.263 L 401.409 24.263 Q 401.721 24.888 401.971 25.763 L 401.971 25.763 L 401.971 25.763 Q 401.346 27.263 400.846 28.951 L 400.846 28.951 L 400.846 28.951 Q 400.346 30.638 398.846 31.263 L 398.846 31.263 L 398.846 31.263 Q 398.846 32.263 399.596 32.326 L 399.596 32.326 L 399.596 32.326 Q 400.346 32.388 400.471 33.263 L 400.471 33.263 L 400.471 33.263 Q 400.596 34.388 400.096 35.138 L 400.096 35.138 L 400.096 35.138 Q 403.596 41.013 406.471 47.451 L 406.471 47.451 L 406.471 47.451 Q 409.346 53.888 412.971 59.763 L 412.971 59.763 L 412.971 59.763 Q 412.721 61.513 413.159 63.201 L 413.159 63.201 L 413.159 63.201 Q 413.596 64.888 414.284 66.513 L 414.284 66.513 L 414.284 66.513 Q 414.971 68.138 415.596 69.763 L 415.596 69.763 L 415.596 69.763 Q 416.221 71.388 416.471 73.013 L 416.471 73.013 L 416.471 73.013 Q 416.721 75.138 416.471 77.576 L 416.471 77.576 L 416.471 77.576 Q 416.221 80.013 415.471 82.263 L 415.471 82.263 L 415.471 82.263 Q 414.721 84.513 413.471 86.451 L 413.471 86.451 L 413.471 86.451 Q 412.221 88.388 410.596 89.388 L 410.596 89.388 L 410.596 89.388 Q 408.596 91.888 405.596 93.451 L 405.596 93.451 L 405.596 93.451 Q 402.596 95.013 400.096 97.138 L 400.096 97.138 L 400.096 97.138 Q 398.346 98.138 396.346 98.576 L 396.346 98.576 L 396.346 98.576 Q 394.346 99.013 392.221 99.513 L 392.221 99.513 L 392.221 99.513 Q 390.596 100.513 388.346 101.451 L 388.346 101.451 L 388.346 101.451 Q 386.096 102.388 383.721 103.138 L 383.721 103.138 L 383.721 103.138 Q 381.346 103.888 378.971 104.326 L 378.971 104.326 L 378.971 104.326 Q 376.596 104.763 374.721 104.513 L 374.721 104.513 L 374.721 104.513 Q 370.221 106.138 365.971 106.763 L 365.971 106.763 L 365.971 106.763 Q 361.721 107.388 355.971 106.138 Z  M 357.596 60.638 L 357.596 60.638 L 357.596 60.638 Q 356.346 63.513 354.659 65.826 L 354.659 65.826 L 354.659 65.826 Q 352.971 68.138 351.346 70.513 L 351.346 70.513 L 351.346 70.513 Q 349.721 72.888 348.534 75.576 L 348.534 75.576 L 348.534 75.576 Q 347.346 78.263 347.221 81.888 L 347.221 81.888 L 347.221 81.888 Q 349.721 84.013 353.159 84.451 L 353.159 84.451 L 353.159 84.451 Q 356.596 84.888 360.221 84.576 L 360.221 84.576 L 360.221 84.576 Q 363.846 84.263 367.471 83.638 L 367.471 83.638 L 367.471 83.638 Q 371.096 83.013 373.971 83.013 L 373.971 83.013 L 373.971 83.013 Q 373.971 81.888 374.971 81.888 L 374.971 81.888 L 374.971 81.888 Q 380.221 81.388 384.721 78.951 L 384.721 78.951 L 384.721 78.951 Q 389.221 76.513 394.096 74.013 L 394.096 74.013 L 394.096 74.013 Q 394.721 72.513 395.721 71.388 L 395.721 71.388 L 395.721 71.388 Q 396.721 70.263 396.846 68.138 L 396.846 68.138 L 396.846 68.138 Q 396.221 67.013 396.034 66.263 L 396.034 66.263 L 396.034 66.263 Q 395.846 65.513 395.846 64.013 L 395.846 64.013 L 395.846 64.013 Q 392.596 59.513 390.221 54.201 L 390.221 54.201 L 390.221 54.201 Q 387.846 48.888 384.721 44.138 L 384.721 44.138 L 384.721 44.138 Q 384.471 44.763 383.721 45.388 L 383.721 45.388 L 383.721 45.388 Q 382.971 46.013 382.096 45.138 L 382.096 45.138 L 382.096 45.138 Q 381.721 46.388 380.971 46.826 L 380.971 46.826 L 380.971 46.826 Q 380.221 47.263 379.284 47.263 L 379.284 47.263 L 379.284 47.263 Q 378.346 47.263 377.409 46.888 L 377.409 46.888 L 377.409 46.888 Q 376.471 46.513 375.721 45.888 L 375.721 45.888 L 375.721 45.888 Q 371.346 49.388 367.034 52.638 L 367.034 52.638 L 367.034 52.638 Q 362.721 55.888 359.221 60.263 L 359.221 60.263 L 359.221 60.263 Q 358.596 60.638 358.471 60.513 L 358.471 60.513 L 358.471 60.513 Q 358.346 60.388 357.596 60.638 Z  M 443.721 93.888 L 443.721 93.888 L 443.721 93.888 Q 442.471 94.888 442.221 96.451 L 442.221 96.451 L 442.221 96.451 Q 441.971 98.013 441.596 99.513 L 441.596 99.513 L 441.596 99.513 Q 441.221 101.013 440.284 102.076 L 440.284 102.076 L 440.284 102.076 Q 439.346 103.138 436.971 103.013 L 436.971 103.013 L 436.971 103.013 Q 436.471 103.638 436.784 103.763 L 436.784 103.763 L 436.784 103.763 Q 437.096 103.888 437.346 104.888 L 437.346 104.888 L 437.346 104.888 Q 435.596 104.638 434.846 105.138 L 434.846 105.138 L 434.846 105.138 Q 434.096 105.638 432.971 105.888 L 432.971 105.888 L 432.971 105.888 Q 430.096 105.013 428.159 102.701 L 428.159 102.701 L 428.159 102.701 Q 426.221 100.388 424.784 97.638 L 424.784 97.638 L 424.784 97.638 Q 423.346 94.888 422.284 92.013 L 422.284 92.013 L 422.284 92.013 Q 421.221 89.138 420.096 87.013 L 420.096 87.013 L 420.096 87.013 Q 420.096 86.513 420.534 86.576 L 420.534 86.576 L 420.534 86.576 Q 420.971 86.638 421.346 86.638 L 421.346 86.638 L 421.346 86.638 Q 420.721 85.388 420.409 83.826 L 420.409 83.826 L 420.409 83.826 Q 420.096 82.263 419.221 81.263 L 419.221 81.263 L 419.221 81.263 Q 422.846 73.513 426.971 65.076 L 426.971 65.076 L 426.971 65.076 Q 431.096 56.638 435.284 47.951 L 435.284 47.951 L 435.284 47.951 Q 439.471 39.263 443.659 30.451 L 443.659 30.451 L 443.659 30.451 Q 447.846 21.638 451.721 13.138 L 451.721 13.138 L 451.721 13.138 Q 455.221 14.388 458.534 16.076 L 458.534 16.076 L 458.534 16.076 Q 461.846 17.763 464.596 20.013 L 464.596 20.013 L 464.596 20.013 Q 467.346 22.263 469.284 25.201 L 469.284 25.201 L 469.284 25.201 Q 471.221 28.138 471.846 31.888 L 471.846 31.888 L 471.846 31.888 Q 471.596 32.638 471.221 32.388 L 471.221 32.388 L 471.221 32.388 Q 470.846 32.138 470.596 32.638 L 470.596 32.638 L 470.596 32.638 Q 471.221 33.388 471.284 33.701 L 471.284 33.701 L 471.284 33.701 Q 471.346 34.013 471.221 34.326 L 471.221 34.326 L 471.221 34.326 Q 471.096 34.638 471.096 35.138 L 471.096 35.138 L 471.096 35.138 Q 471.096 35.638 471.721 36.513 L 471.721 36.513 L 471.721 36.513 Q 471.096 36.388 470.846 36.701 L 470.846 36.701 L 470.846 36.701 Q 470.596 37.013 469.971 36.763 L 469.971 36.763 L 469.971 36.763 Q 470.596 38.513 470.346 39.513 L 470.346 39.513 L 470.346 39.513 Q 470.096 40.513 469.596 41.326 L 469.596 41.326 L 469.596 41.326 Q 469.096 42.138 468.784 43.076 L 468.784 43.076 L 468.784 43.076 Q 468.471 44.013 468.971 45.638 L 468.971 45.638 L 468.971 45.638 Q 468.471 45.638 468.284 45.826 L 468.284 45.826 L 468.284 45.826 Q 468.096 46.013 467.971 46.263 L 467.971 46.263 L 467.971 46.263 Q 467.846 46.513 467.659 46.701 L 467.659 46.701 L 467.659 46.701 Q 467.471 46.888 466.971 46.763 L 466.971 46.763 L 466.971 46.763 Q 467.346 50.013 467.221 53.326 L 467.221 53.326 L 467.221 53.326 Q 467.096 56.638 466.971 60.076 L 466.971 60.076 L 466.971 60.076 Q 466.846 63.513 466.971 67.138 L 466.971 67.138 L 466.971 67.138 Q 467.096 70.763 467.971 74.638 L 467.971 74.638 L 467.971 74.638 Q 473.346 71.513 476.659 66.513 L 476.659 66.513 L 476.659 66.513 Q 479.971 61.513 481.909 55.388 L 481.909 55.388 L 481.909 55.388 Q 483.846 49.263 484.909 42.263 L 484.909 42.263 L 484.909 42.263 Q 485.971 35.263 487.096 28.013 L 487.096 28.013 L 487.096 28.013 Q 488.471 26.638 489.284 24.638 L 489.284 24.638 L 489.284 24.638 Q 490.096 22.638 490.659 20.513 L 490.659 20.513 L 490.659 20.513 Q 491.221 18.388 491.784 16.201 L 491.784 16.201 L 491.784 16.201 Q 492.346 14.013 493.346 12.263 L 493.346 12.263 L 493.346 12.263 Q 495.596 12.513 497.159 13.576 L 497.159 13.576 L 497.159 13.576 Q 498.721 14.638 500.096 15.951 L 500.096 15.951 L 500.096 15.951 Q 501.471 17.263 502.971 18.388 L 502.971 18.388 L 502.971 18.388 Q 504.471 19.513 506.721 19.888 L 506.721 19.888 L 506.721 19.888 Q 508.471 22.388 509.971 24.701 L 509.971 24.701 L 509.971 24.701 Q 511.471 27.013 511.971 29.888 L 511.971 29.888 L 511.971 29.888 Q 511.221 31.138 510.846 32.638 L 510.846 32.638 L 510.846 32.638 Q 510.471 34.138 510.034 35.638 L 510.034 35.638 L 510.034 35.638 Q 509.596 37.138 508.846 38.388 L 508.846 38.388 L 508.846 38.388 Q 508.096 39.638 506.721 40.513 L 506.721 40.513 L 506.721 40.513 Q 506.346 44.263 505.596 47.513 L 505.596 47.513 L 505.596 47.513 Q 504.846 50.763 504.221 53.888 L 504.221 53.888 L 504.221 53.888 Q 503.596 57.013 503.096 60.388 L 503.096 60.388 L 503.096 60.388 Q 502.596 63.763 502.721 67.763 L 502.721 67.763 L 502.721 67.763 Q 501.596 71.388 500.221 75.201 L 500.221 75.201 L 500.221 75.201 Q 498.846 79.013 498.221 82.263 L 498.221 82.263 L 498.221 82.263 Q 495.846 84.138 494.471 86.888 L 494.471 86.888 L 494.471 86.888 Q 493.096 89.638 491.596 92.388 L 491.596 92.388 L 491.596 92.388 Q 490.971 92.888 490.846 92.576 L 490.846 92.576 L 490.846 92.576 Q 490.721 92.263 489.721 92.138 L 489.721 92.138 L 489.721 92.138 Q 489.846 93.263 489.284 93.576 L 489.284 93.576 L 489.284 93.576 Q 488.721 93.888 489.346 95.388 L 489.346 95.388 L 489.346 95.388 Q 487.221 96.388 485.596 98.013 L 485.596 98.013 L 485.596 98.013 Q 483.971 99.638 482.034 101.013 L 482.034 101.013 L 482.034 101.013 Q 480.096 102.388 477.534 102.826 L 477.534 102.826 L 477.534 102.826 Q 474.971 103.263 470.846 101.763 L 470.846 101.763 L 470.846 101.763 Q 464.721 97.263 459.846 91.388 L 459.846 91.388 L 459.846 91.388 Q 454.971 85.513 452.096 77.513 L 452.096 77.513 L 452.096 77.513 Q 450.846 77.888 450.221 79.138 L 450.221 79.138 L 450.221 79.138 Q 449.596 80.388 449.096 81.763 L 449.096 81.763 L 449.096 81.763 Q 448.596 83.138 448.096 84.263 L 448.096 84.263 L 448.096 84.263 Q 447.596 85.388 446.596 85.388 L 446.596 85.388 L 446.596 85.388 Q 446.346 86.513 445.659 87.451 L 445.659 87.451 L 445.659 87.451 Q 444.971 88.388 444.346 89.326 L 444.346 89.326 L 444.346 89.326 Q 443.721 90.263 443.409 91.388 L 443.409 91.388 L 443.409 91.388 Q 443.096 92.513 443.721 93.888 Z  M 515.721 101.388 L 515.721 101.388 L 515.721 101.388 Q 514.721 100.388 514.284 99.013 L 514.284 99.013 L 514.284 99.013 Q 513.846 97.638 512.221 96.763 L 512.221 96.763 L 512.221 96.763 Q 511.971 94.888 511.534 92.451 L 511.534 92.451 L 511.534 92.451 Q 511.096 90.013 510.659 87.451 L 510.659 87.451 L 510.659 87.451 Q 510.221 84.888 510.034 82.326 L 510.034 82.326 L 510.034 82.326 Q 509.846 79.763 510.221 77.638 L 510.221 77.638 L 510.221 77.638 Q 510.471 76.513 511.034 75.513 L 511.034 75.513 L 511.034 75.513 Q 511.596 74.513 512.159 73.576 L 512.159 73.576 L 512.159 73.576 Q 512.721 72.638 513.034 71.638 L 513.034 71.638 L 513.034 71.638 Q 513.346 70.638 513.096 69.638 L 513.096 69.638 L 513.096 69.638 Q 513.846 69.513 514.034 68.826 L 514.034 68.826 L 514.034 68.826 Q 514.221 68.138 515.221 68.388 L 515.221 68.388 L 515.221 68.388 Q 516.096 65.638 517.096 63.263 L 517.096 63.263 L 517.096 63.263 Q 518.096 60.888 519.221 58.638 L 519.221 58.638 L 519.221 58.638 Q 520.346 56.388 521.534 54.076 L 521.534 54.076 L 521.534 54.076 Q 522.721 51.763 523.721 48.888 L 523.721 48.888 L 523.721 48.888 Q 521.596 46.888 520.659 44.576 L 520.659 44.576 L 520.659 44.576 Q 519.721 42.263 519.221 39.888 L 519.221 39.888 L 519.221 39.888 Q 518.721 37.513 518.471 35.076 L 518.471 35.076 L 518.471 35.076 Q 518.221 32.638 517.471 30.138 L 517.471 30.138 L 517.471 30.138 Q 518.971 27.888 521.096 26.451 L 521.096 26.451 L 521.096 26.451 Q 523.221 25.013 525.784 24.076 L 525.784 24.076 L 525.784 24.076 Q 528.346 23.138 531.346 22.576 L 531.346 22.576 L 531.346 22.576 Q 534.346 22.013 537.721 21.263 L 537.721 21.263 L 537.721 21.263 Q 543.721 19.388 548.471 18.326 L 548.471 18.326 L 548.471 18.326 Q 553.221 17.263 557.721 16.576 L 557.721 16.576 L 557.721 16.576 Q 562.221 15.888 567.096 15.326 L 567.096 15.326 L 567.096 15.326 Q 571.971 14.763 578.346 13.638 L 578.346 13.638 L 578.346 13.638 Q 578.471 14.013 578.784 14.013 L 578.784 14.013 L 578.784 14.013 Q 579.096 14.013 579.596 14.013 L 579.596 14.013 L 579.596 14.013 Q 579.971 14.888 580.971 14.888 L 580.971 14.888 L 580.971 14.888 Q 580.971 14.513 580.909 14.201 L 580.909 14.201 L 580.909 14.201 Q 580.846 13.888 580.846 13.638 L 580.846 13.638 L 580.846 13.638 Q 581.096 13.638 581.534 13.763 L 581.534 13.763 L 581.534 13.763 Q 581.971 13.888 582.284 14.013 L 582.284 14.013 L 582.284 14.013 Q 582.596 14.138 582.846 13.951 L 582.846 13.951 L 582.846 13.951 Q 583.096 13.763 582.971 13.138 L 582.971 13.138 L 582.971 13.138 Q 584.471 15.763 586.846 17.451 L 586.846 17.451 L 586.846 17.451 Q 589.221 19.138 592.096 20.388 L 592.096 20.388 L 592.096 20.388 Q 592.221 21.513 592.159 22.013 L 592.159 22.013 L 592.159 22.013 Q 592.096 22.513 591.971 22.951 L 591.971 22.951 L 591.971 22.951 Q 591.846 23.388 591.846 23.951 L 591.846 23.951 L 591.846 23.951 Q 591.846 24.513 592.096 25.513 L 592.096 25.513 L 592.096 25.513 Q 590.096 28.888 587.534 30.763 L 587.534 30.763 L 587.534 30.763 Q 584.971 32.638 582.096 33.638 L 582.096 33.638 L 582.096 33.638 Q 579.221 34.638 576.034 35.138 L 576.034 35.138 L 576.034 35.138 Q 572.846 35.638 569.534 36.201 L 569.534 36.201 L 569.534 36.201 Q 566.221 36.763 562.846 37.763 L 562.846 37.763 L 562.846 37.763 Q 559.471 38.763 556.221 40.763 L 556.221 40.763 L 556.221 40.763 Q 555.221 40.388 554.409 40.451 L 554.409 40.451 L 554.409 40.451 Q 553.596 40.513 552.721 40.763 L 552.721 40.763 L 552.721 40.763 Q 551.846 41.013 550.784 41.263 L 550.784 41.263 L 550.784 41.263 Q 549.721 41.513 548.221 41.263 L 548.221 41.263 L 548.221 41.263 Q 547.221 42.138 545.909 42.513 L 545.909 42.513 L 545.909 42.513 Q 544.596 42.888 543.221 43.263 L 543.221 43.263 L 543.221 43.263 Q 543.846 44.638 543.784 46.013 L 543.784 46.013 L 543.784 46.013 Q 543.721 47.388 544.096 48.388 L 544.096 48.388 L 544.096 48.388 Q 549.346 48.888 555.721 48.326 L 555.721 48.326 L 555.721 48.326 Q 562.096 47.763 568.221 47.513 L 568.221 47.513 L 568.221 47.513 Q 568.346 48.138 568.096 48.388 L 568.096 48.388 L 568.096 48.388 Q 567.846 48.638 567.846 49.263 L 567.846 49.263 L 567.846 49.263 Q 568.971 50.013 569.971 51.138 L 569.971 51.138 L 569.971 51.138 Q 570.971 52.263 572.034 53.326 L 572.034 53.326 L 572.034 53.326 Q 573.096 54.388 574.221 55.076 L 574.221 55.076 L 574.221 55.076 Q 575.346 55.763 576.846 55.638 L 576.846 55.638 L 576.846 55.638 Q 577.471 56.888 577.721 58.263 L 577.721 58.263 L 577.721 58.263 Q 577.971 59.638 577.346 61.138 L 577.346 61.138 L 577.346 61.138 Q 574.846 62.763 572.471 64.451 L 572.471 64.451 L 572.471 64.451 Q 570.096 66.138 567.534 67.513 L 567.534 67.513 L 567.534 67.513 Q 564.971 68.888 561.971 69.763 L 561.971 69.763 L 561.971 69.763 Q 558.971 70.638 555.471 70.513 L 555.471 70.513 L 555.471 70.513 Q 554.846 70.513 554.409 70.513 L 554.409 70.513 L 554.409 70.513 Q 553.971 70.513 553.346 70.013 L 553.346 70.013 L 553.346 70.013 Q 552.096 70.638 550.034 70.451 L 550.034 70.451 L 550.034 70.451 Q 547.971 70.263 546.596 70.888 L 546.596 70.888 L 546.596 70.888 Q 544.846 70.263 542.534 70.263 L 542.534 70.263 L 542.534 70.263 Q 540.221 70.263 538.471 69.638 L 538.471 69.638 L 538.471 69.638 Q 536.221 72.888 534.221 76.451 L 534.221 76.451 L 534.221 76.451 Q 532.221 80.013 530.721 84.013 L 530.721 84.013 L 530.721 84.013 Q 535.846 84.763 539.221 84.638 L 539.221 84.638 L 539.221 84.638 Q 542.596 84.513 545.596 84.138 L 545.596 84.138 L 545.596 84.138 Q 548.596 83.763 551.784 83.388 L 551.784 83.388 L 551.784 83.388 Q 554.971 83.013 559.596 83.138 L 559.596 83.138 L 559.596 83.138 Q 562.721 81.638 566.784 81.076 L 566.784 81.076 L 566.784 81.076 Q 570.846 80.513 574.346 79.388 L 574.346 79.388 L 574.346 79.388 Q 575.596 79.763 576.471 80.826 L 576.471 80.826 L 576.471 80.826 Q 577.346 81.888 578.159 82.951 L 578.159 82.951 L 578.159 82.951 Q 578.971 84.013 579.846 84.763 L 579.846 84.763 L 579.846 84.763 Q 580.721 85.513 582.096 85.263 L 582.096 85.263 L 582.096 85.263 Q 582.721 85.888 582.909 86.763 L 582.909 86.763 L 582.909 86.763 Q 583.096 87.638 583.284 88.388 L 583.284 88.388 L 583.284 88.388 Q 583.471 89.138 583.846 89.576 L 583.846 89.576 L 583.846 89.576 Q 584.221 90.013 585.221 89.888 L 585.221 89.888 L 585.221 89.888 Q 582.846 94.763 579.909 97.388 L 579.909 97.388 L 579.909 97.388 Q 576.971 100.013 573.284 101.451 L 573.284 101.451 L 573.284 101.451 Q 569.596 102.888 565.034 103.576 L 565.034 103.576 L 565.034 103.576 Q 560.471 104.263 554.846 105.263 L 554.846 105.263 L 554.846 105.263 Q 553.471 105.513 552.534 105.201 L 552.534 105.201 L 552.534 105.201 Q 551.596 104.888 550.596 104.888 L 550.596 104.888 L 550.596 104.888 Q 547.096 105.513 542.284 106.138 L 542.284 106.138 L 542.284 106.138 Q 537.471 106.763 532.596 106.638 L 532.596 106.638 L 532.596 106.638 Q 527.721 106.513 523.221 105.388 L 523.221 105.388 L 523.221 105.388 Q 518.721 104.263 515.721 101.388 Z " fill="rgb(26,28,34)"/></svg>