<?xml version="1.0" encoding="UTF-8" standalone="no"?><!-- Generator: Gravit.io --><svg xmlns="http://www.w3.org/2000/svg" xmlns:xlink="http://www.w3.org/1999/xlink" style="isolation:isolate" viewBox="0 0 512 328.183" width="512pt" height="328.183pt"><ellipse vector-effect="non-scaling-stroke" cx="261.3297853158159" cy="164.32184827539277" rx="152.71109929370976" ry="157.33288388762622" fill="rgb(46,126,169)"/><path d=" M 415.582 199.755 L 441.772 211.117 L 505.128 261.187 L 507.632 278.711 L 450.245 287.184 L 365.897 280.059 L 216.267 231.915 L 88.784 166.44 L 26.582 105.202 L 5.399 79.204 L 5.592 63.413 L 31.204 57.058 L 107.078 67.265 L 133.846 73.62 L 117.477 108.861 L 194.507 153.538 L 268.84 188.201 L 403.449 230.182 L 415.582 199.755 Z " fill="rgb(147,182,75)"/><path d=" M 269.067 0.002 C 272.72 0.029 276.376 0.304 279.982 0.893 C 282.376 1.284 284.771 1.67 287.178 1.973 C 289.587 2.277 292.01 2.488 294.429 2.693 C 295.171 2.756 295.863 2.968 296.489 3.285 C 296.53 3.293 296.571 3.3 296.612 3.307 C 297.244 3.426 297.877 3.547 298.514 3.64 C 299.125 3.73 299.732 3.846 300.333 3.987 C 301.209 4.191 302.063 4.493 302.901 4.816 C 303.734 5.136 304.564 5.505 305.312 5.998 C 305.452 6.083 305.589 6.175 305.722 6.276 C 305.868 6.388 306.022 6.488 306.182 6.578 C 306.511 6.764 306.848 6.934 307.187 7.099 C 307.729 7.361 308.264 7.635 308.791 7.925 C 308.913 7.992 309.03 8.049 309.162 8.094 C 309.183 8.101 309.203 8.112 309.225 8.119 C 309.901 8.344 310.546 8.661 311.165 9.012 C 311.386 9.137 311.612 9.255 311.837 9.373 C 312.788 9.684 313.745 9.978 314.688 10.312 C 316.646 11.005 318.56 11.816 320.437 12.704 C 320.438 12.705 320.44 12.705 320.442 12.706 C 320.443 12.706 320.445 12.707 320.445 12.707 C 320.452 12.711 320.457 12.716 320.464 12.719 C 322.357 13.615 324.222 14.569 326.054 15.583 C 326.058 15.585 326.063 15.585 326.068 15.588 C 326.08 15.595 326.093 15.601 326.105 15.608 C 327.481 16.37 328.874 17.1 330.296 17.774 C 330.443 17.83 330.591 17.88 330.738 17.937 C 331.16 18.102 331.588 18.276 332.024 18.402 C 332.601 18.568 333.168 18.771 333.726 18.994 C 333.741 19 333.757 19.001 333.773 19.007 C 333.789 19.013 333.807 19.021 333.823 19.028 C 334.07 19.127 334.306 19.164 334.57 19.255 C 334.58 19.258 334.589 19.265 334.599 19.268 C 335.112 19.422 335.616 19.604 336.107 19.816 C 336.122 19.819 336.137 19.825 336.152 19.828 C 336.98 20.01 337.697 20.393 338.327 20.877 C 338.331 20.879 338.335 20.879 338.339 20.881 C 338.385 20.903 338.429 20.925 338.474 20.949 C 338.878 21.162 339.288 21.373 339.711 21.545 C 340.421 21.832 341.111 22.17 341.778 22.548 C 341.782 22.55 341.785 22.554 341.79 22.557 C 341.968 22.658 342.14 22.771 342.315 22.879 C 343.194 22.947 344.067 23.154 344.864 23.657 C 345.853 24.28 346.812 24.951 347.762 25.631 C 349.045 26.55 350.309 27.495 351.568 28.447 C 351.569 28.447 351.571 28.448 351.572 28.448 C 351.604 28.471 351.636 28.496 351.667 28.52 C 352.839 29.406 354.019 30.284 355.221 31.129 C 355.851 31.571 356.484 32.021 357.155 32.4 C 357.637 32.673 357.995 33.061 358.358 33.443 C 358.649 33.638 358.943 33.829 359.228 34.033 C 359.237 34.039 359.245 34.044 359.253 34.05 C 359.269 34.061 359.284 34.072 359.3 34.082 C 359.674 34.353 360.047 34.633 360.443 34.872 C 360.448 34.876 360.453 34.879 360.458 34.883 C 361.084 35.26 361.744 35.589 362.39 35.93 C 363.467 36.5 364.546 37.091 365.533 37.811 C 365.544 37.819 365.557 37.826 365.568 37.835 C 366.321 38.387 367.053 38.966 367.782 39.549 C 368.361 40.014 368.944 40.476 369.517 40.949 C 369.684 41.086 369.839 41.233 369.986 41.385 C 370.46 41.829 370.908 42.3 371.334 42.788 C 371.594 43.086 371.856 43.39 372.15 43.657 C 372.774 44.224 373.342 44.852 373.881 45.499 C 374.043 45.693 374.206 45.886 374.371 46.076 C 374.374 46.079 374.376 46.082 374.378 46.085 C 374.934 46.325 375.468 46.637 375.941 47.068 C 377.887 48.841 379.823 50.626 381.715 52.456 C 382.908 53.609 384.109 54.771 385.182 56.038 C 387.059 58.252 388.789 60.594 390.508 62.931 C 390.993 63.591 391.454 64.274 391.929 64.944 C 392.366 65.295 392.748 65.73 393.035 66.251 C 393.088 66.348 393.137 66.446 393.183 66.547 C 393.302 66.807 393.442 67.058 393.564 67.318 C 394.361 68.534 395.133 69.766 395.823 71.044 C 396.285 71.901 396.661 72.802 397.094 73.674 C 397.111 73.698 397.123 73.725 397.14 73.749 C 397.77 74.669 398.255 75.685 398.58 76.748 C 398.968 77.585 399.407 78.396 399.783 79.236 C 401.445 82.945 403.045 86.683 404.615 90.431 C 405.341 92.165 406.064 93.9 406.769 95.642 C 407.196 96.699 407.624 97.758 408.007 98.831 C 408.508 100.232 408.96 101.649 409.367 103.08 C 409.957 105.153 410.393 107.271 410.816 109.383 C 411.243 111.515 411.655 113.659 411.898 115.821 C 412.075 117.402 412.213 118.987 412.321 120.575 C 412.435 122.241 412.594 123.905 412.78 125.565 C 412.963 127.2 413.211 128.826 413.546 130.437 L 413.546 130.439 L 413.546 130.44 C 413.986 132.555 414.449 134.664 414.918 136.772 C 415.698 140.284 416.098 143.879 416.397 147.459 C 416.723 151.352 417.076 155.244 417.464 159.132 C 417.864 163.14 418.21 167.154 418.515 171.171 C 418.813 175.109 418.999 179.061 418.987 183.011 C 418.978 185.987 418.93 188.967 418.73 191.937 C 418.677 192.717 418.684 193.501 418.648 194.283 C 418.911 194.398 419.175 194.511 419.436 194.629 C 419.975 194.873 420.501 195.14 421.02 195.424 C 421.033 195.431 421.046 195.436 421.059 195.443 C 421.621 195.753 422.173 196.083 422.716 196.424 C 423.484 196.907 424.267 197.365 425.048 197.825 C 426.038 198.409 427.034 198.983 428.038 199.543 C 429.256 200.224 430.481 200.893 431.706 201.56 C 432.638 202.068 433.575 202.567 434.496 203.094 C 434.507 203.1 434.519 203.105 434.53 203.111 C 434.909 203.329 435.274 203.571 435.607 203.85 C 435.659 203.893 435.713 203.936 435.764 203.981 C 435.798 204.013 435.831 204.045 435.864 204.077 C 435.932 204.142 435.997 204.21 436.061 204.28 C 437.09 204.858 438.123 205.429 439.13 206.043 C 439.138 206.047 439.146 206.049 439.154 206.053 C 439.17 206.062 439.186 206.072 439.202 206.082 C 440.019 206.581 440.818 207.109 441.597 207.665 C 442.808 208.529 443.944 209.501 445.075 210.465 C 446.164 211.394 447.252 212.324 448.348 213.245 C 449.096 213.874 449.857 214.487 450.629 215.088 C 450.631 215.089 450.635 215.091 450.638 215.093 C 451.434 215.713 452.249 216.308 453.081 216.879 C 454.383 217.775 455.734 218.601 457.081 219.427 C 458.434 220.257 459.792 221.083 461.121 221.952 C 461.874 222.444 462.602 222.976 463.332 223.502 C 464.657 224.454 465.973 225.419 467.288 226.385 C 469.712 228.166 472.139 229.946 474.509 231.799 C 475.905 232.891 477.318 233.965 478.752 235.007 C 480.251 236.097 481.799 237.115 483.368 238.101 C 484.498 238.81 485.643 239.508 486.743 240.264 C 486.751 240.269 486.761 240.272 486.77 240.278 C 486.809 240.303 486.846 240.328 486.884 240.355 C 487.326 240.662 487.761 240.979 488.186 241.31 C 488.804 241.791 489.38 242.327 489.947 242.865 C 490.58 243.464 491.248 244.031 491.926 244.578 C 491.93 244.578 491.932 244.586 491.935 244.586 C 492.719 245.218 493.501 245.854 494.273 246.501 C 495.494 247.524 496.635 248.648 497.776 249.758 C 498.857 250.81 499.939 251.864 501.062 252.872 L 501.062 252.872 C 502.025 253.736 502.95 254.64 503.859 255.559 C 504.786 256.498 505.695 257.47 506.478 258.535 C 507.039 259.298 507.564 260.089 508.031 260.914 C 508.696 262.089 509.249 263.33 509.803 264.56 C 510.329 265.726 510.874 266.895 511.305 268.101 C 511.656 269.084 511.858 270.117 511.943 271.157 C 512.019 272.086 512.022 273.023 511.933 273.952 C 511.835 274.962 511.618 275.969 511.211 276.902 C 511.208 276.91 511.204 276.914 511.201 276.921 C 510.918 277.567 510.586 278.192 510.232 278.801 C 509.838 279.478 509.413 280.144 508.894 280.733 C 508.163 281.564 507.221 282.205 506.314 282.828 C 505.548 283.354 504.776 283.886 503.954 284.321 C 503.943 284.33 503.935 284.336 503.924 284.342 C 503.914 284.351 503.906 284.351 503.896 284.356 C 503.4 284.615 502.891 284.853 502.376 285.073 C 502.372 285.073 502.369 285.073 502.366 285.081 L 502.364 285.081 C 501.348 285.513 500.251 285.755 499.175 285.982 C 497.861 286.259 496.538 286.487 495.209 286.687 L 495.208 286.687 L 495.206 286.687 C 493.628 286.925 492.045 287.123 490.459 287.298 C 489.847 287.365 489.231 287.404 488.618 287.463 C 487.696 287.709 486.77 287.937 485.837 288.134 C 482.436 288.85 478.996 289.38 475.563 289.914 C 472.044 290.46 468.514 291.002 464.967 291.337 C 462.476 291.572 459.975 291.709 457.473 291.755 C 454.89 291.802 452.306 291.819 449.723 291.812 C 447.016 291.803 444.309 291.757 441.603 291.672 L 441.601 291.672 C 438.971 291.59 436.339 291.512 433.708 291.437 L 433.704 291.437 L 433.703 291.437 C 430.013 291.331 426.325 291.188 422.637 291.044 L 422.634 291.044 C 419.011 290.903 415.385 290.763 411.768 290.512 L 411.766 290.512 C 409.373 290.346 406.983 290.158 404.593 289.947 C 402.157 289.732 399.722 289.482 397.292 289.2 C 394.879 288.92 392.47 288.606 390.066 288.255 C 387.744 287.915 385.429 287.533 383.12 287.12 C 382.777 287.135 382.435 287.141 382.094 287.17 L 382.092 287.17 C 381.294 287.235 380.491 287.263 379.69 287.24 L 379.688 287.24 C 378.979 287.219 378.27 287.169 377.565 287.088 C 376.489 286.963 375.425 286.72 374.371 286.473 C 373.727 286.323 373.086 286.155 372.445 285.991 C 372.422 286.029 372.402 286.069 372.377 286.107 C 372.376 286.107 372.374 286.107 372.373 286.115 C 372.357 286.14 372.339 286.162 372.322 286.185 C 372.147 286.433 371.939 286.659 371.723 286.871 C 371.665 286.928 371.602 286.986 371.551 287.049 C 371.332 287.316 371.077 287.553 370.79 287.746 C 370.766 287.763 370.745 287.782 370.72 287.798 L 370.718 287.798 C 370.666 287.831 370.613 287.858 370.559 287.887 C 370.395 288.049 370.231 288.211 370.066 288.373 C 369.832 288.603 369.594 288.829 369.355 289.054 C 369.12 289.274 368.888 289.496 368.659 289.721 C 368.452 289.924 368.244 290.127 368.024 290.315 C 367.762 290.538 367.473 290.731 367.184 290.919 L 367.183 290.919 C 367.176 290.928 367.169 290.928 367.162 290.933 C 366.959 291.065 366.756 291.199 366.551 291.329 C 366.632 291.278 366.478 291.393 366.459 291.411 C 366.319 291.534 366.179 291.658 366.041 291.783 C 365.964 291.853 365.886 291.923 365.809 291.993 C 365.791 292.008 365.772 292.021 365.754 292.037 C 365.735 292.054 365.718 292.071 365.698 292.087 C 365.686 292.097 365.673 292.105 365.66 292.114 C 365.628 292.139 365.595 292.161 365.562 292.184 C 365.555 292.193 365.549 292.194 365.543 292.198 C 365.526 292.209 365.51 292.222 365.493 292.232 C 365.447 292.262 365.399 292.288 365.352 292.314 C 365.351 292.315 365.349 292.314 365.348 292.314 C 365.331 292.323 365.314 292.332 365.297 292.339 C 365.254 292.361 365.211 292.382 365.167 292.401 C 365.129 292.417 365.09 292.432 365.051 292.447 C 365.027 292.456 365.004 292.464 364.98 292.472 C 364.964 292.481 364.95 292.485 364.935 292.489 C 364.933 292.49 364.931 292.489 364.928 292.489 C 364.898 292.498 364.868 292.505 364.838 292.512 C 364.816 292.521 364.795 292.525 364.773 292.529 C 364.766 292.529 364.758 292.529 364.751 292.538 C 364.603 292.696 364.454 292.853 364.302 293.007 C 364.29 293.019 364.278 293.032 364.266 293.045 L 364.266 293.045 C 364.259 293.053 364.251 293.058 364.244 293.065 C 364.028 293.282 363.802 293.493 363.55 293.667 C 363.487 293.711 363.423 293.752 363.357 293.79 L 363.355 293.79 C 363.348 293.79 363.34 293.799 363.333 293.8 C 363.323 293.809 363.312 293.812 363.302 293.817 C 363.224 293.889 363.163 293.972 363.08 294.041 C 361.913 295 360.697 295.901 359.441 296.742 C 357.893 297.778 356.302 298.749 354.706 299.707 C 353.134 300.65 351.576 301.621 350.06 302.652 C 348.548 303.68 347.01 304.669 345.453 305.626 C 343.973 306.536 342.565 307.559 341.207 308.641 C 339.637 309.893 337.999 311.129 336.184 312.008 C 335.347 312.413 334.485 312.767 333.623 313.115 C 332.356 313.627 331.079 314.115 329.801 314.598 C 327.166 315.593 324.524 316.572 321.868 317.51 C 319.388 318.387 316.896 319.234 314.398 320.061 C 311.673 320.964 308.921 321.782 306.141 322.5 C 303.515 323.179 300.866 323.771 298.195 324.25 C 297.208 324.428 296.221 324.613 295.24 324.825 C 294.638 324.956 294.036 325.092 293.445 325.266 C 292.424 325.566 291.411 325.892 290.409 326.25 C 289.141 326.703 287.85 327.095 286.545 327.429 C 284.978 327.83 283.369 328.057 281.753 328.129 C 280.241 328.196 278.726 328.197 277.213 328.154 C 274.703 328.084 272.196 327.825 269.7 327.572 C 266.448 327.242 263.194 326.943 259.937 326.671 C 255.654 326.314 251.389 325.737 247.14 325.103 C 243.433 324.551 239.721 324.001 235.994 323.605 C 233.081 323.296 230.188 322.803 227.331 322.155 C 225.389 321.714 223.444 321.268 221.484 320.913 C 220.013 320.646 218.552 320.329 217.102 319.966 C 214.953 319.427 212.83 318.779 210.712 318.133 C 208.505 317.46 206.297 316.775 204.132 315.971 C 202.587 315.397 201.056 314.78 199.544 314.122 C 197.439 313.205 195.375 312.191 193.318 311.171 C 191.225 310.134 189.132 309.079 187.123 307.887 C 185.213 306.754 183.347 305.548 181.488 304.334 C 179.294 302.902 177.069 301.516 174.813 300.183 C 172.327 298.714 169.888 297.167 167.488 295.561 C 165.42 294.176 163.361 292.753 161.453 291.151 C 159.929 289.873 158.467 288.522 157.047 287.13 C 155.331 285.446 153.701 283.674 152.12 281.862 C 150.788 280.337 149.495 278.778 148.2 277.221 C 146.007 274.583 143.829 271.931 141.655 269.277 C 139.493 266.637 137.333 263.995 135.183 261.346 C 133.943 259.818 132.7 258.29 131.484 256.742 C 130.005 254.861 128.55 252.96 127.124 251.038 C 125.26 248.525 123.551 245.896 121.876 243.254 L 121.876 243.254 C 120.967 241.822 120.074 240.379 119.222 238.912 C 118.571 237.788 117.938 236.651 117.378 235.479 C 116.662 233.981 115.97 232.461 115.441 230.885 C 115.081 229.811 114.659 228.758 114.223 227.713 C 113.406 225.756 112.652 223.772 111.906 221.787 C 111.169 219.827 110.437 217.861 109.807 215.863 C 109.365 214.462 108.962 213.047 108.602 211.623 C 108.008 209.269 107.501 206.892 106.985 204.52 C 106.415 201.9 105.852 199.276 105.388 196.635 C 104.996 194.402 104.633 192.165 104.279 189.926 C 103.917 187.64 103.578 185.35 103.308 183.051 C 103.172 181.896 103.487 180.833 103.984 179.872 C 103.879 179.433 103.802 178.985 103.792 178.535 C 103.79 178.503 103.789 178.473 103.789 178.441 C 103.789 178.42 103.792 178.4 103.792 178.379 C 103.252 178.036 102.719 177.68 102.18 177.333 C 101.172 176.738 100.164 176.139 99.148 175.557 C 97.911 174.849 96.677 174.137 95.461 173.394 C 95.459 173.393 95.456 173.393 95.454 173.392 C 95.449 173.39 95.446 173.386 95.442 173.383 L 95.44 173.383 C 94.657 172.904 93.868 172.436 93.073 171.977 C 92.254 171.504 91.426 171.049 90.589 170.607 L 90.587 170.607 L 90.587 170.605 C 89.704 170.139 88.816 169.682 87.925 169.232 C 87.923 169.231 87.923 169.227 87.92 169.226 C 86.649 168.584 85.374 167.95 84.1 167.314 C 81.955 166.243 79.889 165.019 77.856 163.751 C 77.853 163.748 77.849 163.748 77.844 163.746 C 77.832 163.738 77.819 163.73 77.807 163.722 L 77.805 163.722 C 76.851 163.126 75.899 162.526 74.956 161.912 C 74.335 161.507 73.713 161.1 73.118 160.657 C 72.349 160.086 71.607 159.479 70.898 158.835 L 70.896 158.835 C 70.234 158.233 69.597 157.601 68.99 156.943 C 68.989 156.941 68.986 156.94 68.983 156.938 C 68.976 156.928 68.966 156.919 68.958 156.91 C 68.219 156.106 67.505 155.282 66.791 154.457 C 66.767 154.43 66.743 154.404 66.719 154.376 C 65.859 153.383 65.017 152.375 64.201 151.346 C 64.198 151.343 64.195 151.343 64.192 151.339 C 64.163 151.305 64.136 151.27 64.108 151.235 L 64.108 151.233 C 63.422 150.365 62.74 149.495 62.066 148.617 C 61.746 148.202 61.417 147.795 61.093 147.382 C 57.516 144.55 53.992 141.647 50.564 138.636 L 50.56 138.632 C 47.015 135.519 43.638 132.214 40.469 128.719 C 37.346 125.273 34.314 121.746 31.368 118.148 C 30.913 117.593 30.79 116.896 30.917 116.242 C 30.571 115.9 30.217 115.564 29.889 115.205 C 29.327 114.591 28.779 113.965 28.244 113.328 C 27.274 112.174 26.266 111.051 25.265 109.924 C 24.051 108.558 22.863 107.17 21.688 105.771 C 21.326 105.473 20.971 105.17 20.608 104.873 C 20.604 104.87 20.598 104.865 20.593 104.861 C 19.607 104.055 18.62 103.247 17.605 102.476 C 16.864 101.913 16.131 101.34 15.406 100.758 C 14.645 100.147 13.902 99.514 13.186 98.852 C 12.459 98.18 11.768 97.467 11.123 96.715 C 10.55 96.048 9.998 95.364 9.466 94.664 L 9.464 94.664 C 8.95 93.988 8.455 93.297 7.98 92.593 C 7.978 92.59 7.975 92.589 7.973 92.586 C 7.966 92.576 7.958 92.563 7.951 92.552 C 7.476 91.848 7.024 91.132 6.594 90.4 C 6.59 90.393 6.587 90.387 6.582 90.38 C 6.178 89.69 5.797 88.985 5.444 88.267 C 5.442 88.264 5.439 88.262 5.437 88.259 C 5.423 88.232 5.409 88.206 5.396 88.179 C 5.042 87.452 4.722 86.708 4.454 85.945 C 4.172 85.14 3.911 84.324 3.654 83.51 C 3.653 83.508 3.653 83.506 3.652 83.503 C 3.462 82.903 3.274 82.296 3.024 81.717 C 2.814 81.228 2.592 80.744 2.364 80.263 C 2.055 79.613 1.775 78.949 1.519 78.277 C 1.518 78.272 1.512 78.27 1.511 78.265 C 1.504 78.247 1.497 78.228 1.49 78.21 C 1.243 77.555 1.052 76.881 0.89 76.2 C 0.883 76.177 0.865 76.162 0.859 76.139 C 0.84 76.068 0.823 75.998 0.808 75.927 C 0.611 75.023 0.478 74.104 0.342 73.189 C 0.329 73.122 0.318 73.056 0.308 72.989 C 0.113 71.681 -0.019 70.358 0.002 69.034 C 0.023 67.7 0.202 66.343 0.765 65.121 L 0.765 65.12 C 0.766 65.118 0.768 65.116 0.768 65.114 C 1.171 64.243 1.703 63.433 2.354 62.727 C 2.995 62.031 3.746 61.441 4.553 60.949 C 5.413 60.425 6.334 60.004 7.257 59.606 C 8.264 59.173 9.285 58.776 10.315 58.403 C 10.318 58.403 10.319 58.401 10.322 58.4 C 10.36 58.386 10.397 58.371 10.435 58.357 C 11.059 58.134 11.691 57.911 12.291 57.629 C 12.988 57.301 13.689 56.978 14.39 56.658 C 14.409 56.648 14.43 56.64 14.45 56.631 C 15.027 56.366 15.608 56.098 16.159 55.781 C 16.848 55.384 17.563 55.032 18.299 54.731 C 19.083 54.411 19.891 54.151 20.708 53.928 C 22.073 53.555 23.507 53.467 24.916 53.471 C 26.106 53.473 27.297 53.506 28.486 53.578 C 28.488 53.578 28.491 53.576 28.494 53.576 C 28.533 53.577 28.572 53.579 28.61 53.582 C 29.789 53.656 30.965 53.758 32.141 53.87 C 32.143 53.87 32.146 53.868 32.149 53.868 C 32.185 53.871 32.219 53.875 32.255 53.878 C 33.325 53.981 34.394 54.096 35.458 54.249 C 35.464 54.249 35.469 54.246 35.475 54.247 C 35.519 54.253 35.564 54.258 35.608 54.264 C 36.777 54.436 37.951 54.585 39.123 54.735 C 39.126 54.735 39.128 54.737 39.132 54.738 C 40.892 54.964 42.649 55.231 44.399 55.527 C 44.444 55.533 44.489 55.54 44.534 55.547 C 46.48 55.877 48.425 56.218 50.368 56.567 C 50.37 56.568 50.372 56.57 50.375 56.571 C 51.872 56.84 53.37 57.106 54.876 57.323 C 54.878 57.324 54.881 57.323 54.885 57.323 C 56.062 57.493 57.242 57.654 58.422 57.81 C 59.681 57.976 60.943 58.116 62.208 58.233 C 63.553 58.357 64.9 58.472 66.247 58.578 C 67.629 58.686 69.012 58.809 70.391 58.948 C 72.294 59.139 74.199 59.308 76.104 59.475 C 78.083 59.649 80.062 59.826 82.038 60.033 C 84.26 60.266 86.475 60.561 88.69 60.854 C 88.691 60.854 88.693 60.854 88.695 60.854 C 88.715 60.856 88.735 60.858 88.754 60.861 C 91.621 61.239 94.482 61.666 97.332 62.151 C 97.381 62.158 97.43 62.165 97.479 62.173 C 100.136 62.627 102.786 63.131 105.425 63.68 C 105.481 63.689 105.537 63.699 105.592 63.71 C 108.27 64.269 110.948 64.826 113.627 65.377 C 115.611 65.786 117.594 66.196 119.582 66.585 C 120.734 66.811 121.883 67.055 123.022 67.343 C 123.243 67.399 123.46 67.472 123.681 67.531 C 123.85 67.47 124.028 67.429 124.215 67.415 C 124.284 67.409 124.355 67.406 124.426 67.408 C 124.525 67.409 124.623 67.412 124.721 67.413 C 124.969 67.416 125.217 67.43 125.462 67.464 C 125.602 67.484 125.826 67.487 125.991 67.493 C 126.379 67.507 126.767 67.534 127.153 67.575 C 127.6 67.623 128.044 67.696 128.485 67.776 C 128.935 67.858 129.384 67.949 129.827 68.063 C 130.05 68.121 130.275 68.175 130.499 68.232 C 130.862 67.371 131.248 66.52 131.68 65.693 C 132.362 64.385 133.093 63.101 133.841 61.83 C 134.543 60.639 135.253 59.453 135.993 58.286 C 136.509 57.471 137.036 56.656 137.635 55.899 C 138.551 54.741 139.508 53.614 140.467 52.491 C 141.674 51.079 142.845 49.635 143.991 48.173 C 145.086 46.773 146.202 45.379 147.434 44.096 C 149.095 42.366 150.848 40.72 152.578 39.059 C 154.524 37.193 156.475 35.315 158.547 33.587 C 159.454 32.831 160.401 32.126 161.357 31.434 C 162.65 30.497 163.965 29.59 165.287 28.694 C 166.563 27.829 167.847 26.972 169.158 26.16 C 170.087 25.584 171.032 25.012 172.033 24.57 C 173.551 23.9 175.107 23.317 176.663 22.742 C 178.492 22.066 180.337 21.425 182.201 20.852 C 183.818 20.354 185.398 19.74 186.955 19.079 C 188.279 18.516 189.631 18.018 190.989 17.541 C 192.784 16.911 194.593 16.322 196.408 15.75 C 199.76 14.692 203.123 13.658 206.516 12.735 C 207.497 12.468 208.476 12.185 209.437 11.851 C 209.881 11.697 210.342 11.543 210.758 11.32 C 211.553 10.894 212.398 10.566 213.237 10.228 C 213.571 10.039 213.926 9.879 214.307 9.757 C 215.082 9.51 215.881 9.333 216.675 9.16 C 217.867 8.9 219.064 8.665 220.262 8.433 C 222.69 7.964 225.102 7.388 227.462 6.647 C 227.509 6.632 227.557 6.622 227.604 6.607 C 227.847 6.504 228.085 6.387 228.332 6.295 C 229.039 6.032 229.746 5.772 230.457 5.521 C 231.348 5.206 232.269 4.958 233.212 4.872 C 233.278 4.866 233.409 4.852 233.448 4.843 C 233.787 4.766 234.124 4.665 234.458 4.569 C 234.962 4.423 235.472 4.297 235.985 4.185 C 236.016 4.177 236.043 4.161 236.074 4.154 C 236.154 4.135 236.232 4.118 236.313 4.103 C 236.712 4.025 237.108 3.919 237.502 3.819 C 238.125 3.661 238.75 3.515 239.382 3.4 C 239.395 3.397 239.407 3.392 239.42 3.389 C 239.45 3.383 239.479 3.377 239.509 3.372 C 240.149 3.261 240.798 3.184 241.444 3.11 C 241.45 3.109 241.455 3.107 241.461 3.106 C 241.498 3.102 241.537 3.097 241.575 3.092 C 242.28 3.012 242.982 2.92 243.684 2.818 C 243.691 2.817 243.698 2.815 243.704 2.814 C 244.386 2.715 245.069 2.621 245.755 2.56 L 245.757 2.56 C 246.249 2.517 246.74 2.468 247.231 2.418 C 248.104 2.331 248.983 2.31 249.861 2.306 C 250.367 2.137 250.878 2.042 251.39 2.021 C 252.182 1.511 253.06 1.125 254.068 1.07 C 255.953 0.968 257.831 0.765 259.697 0.494 C 262.793 0.044 265.943 -0.019 269.067 0.004 L 269.067 0.002 Z  M 263.266 13.03 C 262.07 13.029 260.873 13.014 259.677 13.037 C 259.333 13.044 258.988 13.061 258.645 13.085 C 257.662 13.153 256.673 13.164 255.688 13.182 C 254.773 13.199 253.857 13.215 252.943 13.247 C 252.719 13.255 252.496 13.252 252.272 13.257 C 251.528 13.446 250.775 13.601 250.027 13.735 C 248.193 14.062 246.348 14.324 244.503 14.576 C 242.693 14.823 240.883 15.078 239.077 15.361 C 238.082 15.517 237.084 15.671 236.1 15.886 C 234.319 16.275 232.567 16.809 230.829 17.356 C 228.063 18.225 225.238 18.905 222.392 19.454 C 221.282 19.669 220.173 19.887 219.069 20.128 C 218.624 20.225 218.145 20.315 217.72 20.451 C 217.14 20.636 216.588 20.933 216.054 21.219 C 215.117 21.72 214.122 22.108 213.12 22.456 C 211.916 22.873 210.692 23.23 209.463 23.565 C 206.644 24.332 203.853 25.2 201.065 26.073 C 201.261 26.19 201.453 26.313 201.65 26.43 C 203.072 27.275 204.525 28.068 205.98 28.852 C 208.121 30.007 210.318 31.055 212.533 32.06 C 215.365 33.347 218.226 34.567 221.102 35.753 C 221.102 35.753 221.106 35.754 221.107 35.754 C 224.344 37.089 227.61 38.352 230.899 39.554 C 234.082 40.718 237.278 41.85 240.489 42.935 C 240.491 42.935 240.493 42.935 240.496 42.936 C 243.276 43.875 246.061 44.799 248.855 45.699 C 251.167 46.443 253.479 47.184 255.794 47.919 C 257.599 48.491 259.396 49.091 261.164 49.77 C 261.938 50.067 262.696 50.44 263.356 50.946 C 263.64 51.163 263.908 51.405 264.129 51.686 C 264.288 51.887 264.436 52.118 264.496 52.37 C 264.535 52.533 264.489 52.703 264.373 52.824 C 264.17 53.036 263.881 53.163 263.606 53.251 C 263.279 53.355 262.936 53.405 262.594 53.425 C 261.744 53.474 260.89 53.335 260.072 53.113 C 258.267 52.623 256.47 52.104 254.677 51.577 C 252.328 50.886 249.992 50.157 247.662 49.407 C 244.853 48.502 242.049 47.579 239.25 46.646 C 236 45.562 232.768 44.423 229.55 43.247 C 226.211 42.026 222.898 40.736 219.617 39.365 C 219.615 39.364 219.611 39.362 219.609 39.362 C 216.695 38.143 213.796 36.888 210.929 35.563 C 208.646 34.509 206.385 33.399 204.196 32.161 C 204.184 32.155 204.173 32.149 204.162 32.142 C 202.641 31.281 201.124 30.39 199.713 29.356 C 198.864 28.733 198.019 28.095 197.243 27.382 C 197.22 27.36 197.196 27.34 197.173 27.318 C 196.351 27.589 195.525 27.846 194.709 28.132 C 193.577 28.53 192.447 28.942 191.342 29.41 C 189.431 30.222 187.489 30.968 185.503 31.579 C 183.838 32.092 182.191 32.666 180.557 33.27 C 179.219 33.765 177.875 34.26 176.569 34.836 C 176.415 34.904 176.259 34.996 176.11 35.08 C 175.76 35.278 175.417 35.488 175.074 35.7 C 173.894 36.432 172.737 37.205 171.587 37.985 C 170.361 38.815 169.141 39.655 167.942 40.523 C 167.193 41.066 166.446 41.615 165.736 42.208 C 163.864 43.768 162.108 45.473 160.351 47.159 C 158.732 48.713 157.087 50.251 155.532 51.87 C 154.562 52.881 153.692 53.992 152.83 55.093 C 151.585 56.682 150.314 58.248 149.002 59.782 C 148.135 60.798 147.267 61.815 146.438 62.862 C 146.083 63.311 145.781 63.811 145.475 64.294 C 144.801 65.359 144.155 66.441 143.515 67.527 C 142.864 68.632 142.226 69.746 141.633 70.883 C 141.294 71.532 140.958 72.189 140.694 72.873 C 140.135 74.325 139.631 75.797 139.152 77.277 C 138.605 78.967 138.01 80.647 137.301 82.276 C 136.41 84.322 135.362 86.302 134.321 88.274 C 132.951 90.87 131.631 93.493 130.349 96.133 C 128.624 99.689 126.766 103.18 124.87 106.647 C 124.71 106.941 124.516 107.205 124.314 107.458 C 124.833 107.781 125.361 108.092 125.841 108.47 C 126.362 108.879 126.834 109.344 127.295 109.819 C 127.358 109.876 127.429 109.919 127.489 109.98 C 127.541 110.032 127.592 110.086 127.641 110.14 C 127.902 110.429 128.184 110.696 128.477 110.951 C 128.388 110.873 128.61 111.045 128.631 111.06 C 128.839 111.205 129.052 111.343 129.266 111.48 C 130.05 111.983 130.849 112.462 131.651 112.937 C 132.19 113.255 132.726 113.579 133.265 113.897 C 134.831 114.576 136.381 115.288 137.877 116.104 C 139.663 117.077 141.404 118.142 143.059 119.325 C 144.523 120.371 145.965 121.446 147.385 122.552 C 147.387 122.553 147.389 122.553 147.392 122.555 C 147.396 122.559 147.401 122.564 147.405 122.567 C 148.804 123.657 150.244 124.693 151.71 125.69 C 153.458 126.877 155.259 127.983 157.082 129.049 C 159.326 130.362 161.611 131.604 163.919 132.8 C 166.572 134.175 169.246 135.509 171.933 136.815 C 171.934 136.815 171.936 136.815 171.937 136.816 C 171.939 136.817 171.94 136.819 171.942 136.82 C 175.999 138.791 180.011 140.855 184.019 142.923 C 184.02 142.924 184.022 142.924 184.023 142.925 C 184.024 142.926 184.027 142.927 184.028 142.927 C 187.974 144.963 191.922 146.998 195.882 149.008 C 195.885 149.009 195.888 149.012 195.89 149.013 C 198.844 150.512 201.778 152.049 204.7 153.61 L 204.707 153.613 C 207.767 155.248 210.855 156.83 213.952 158.395 C 214.505 158.595 215.063 158.783 215.608 159.004 C 215.617 159.007 215.626 159.007 215.634 159.011 C 215.642 159.014 215.649 159.018 215.656 159.021 C 216.442 159.341 217.215 159.693 217.985 160.048 C 217.987 160.049 217.99 160.049 217.992 160.05 C 218 160.053 218.009 160.059 218.018 160.062 C 218.932 160.483 219.849 160.895 220.772 161.297 C 220.773 161.298 220.777 161.298 220.779 161.299 C 222.281 161.954 223.763 162.654 225.244 163.355 C 226.768 164.076 228.296 164.791 229.841 165.466 C 229.843 165.467 229.845 165.466 229.848 165.467 L 229.85 165.469 C 231.138 166.031 232.411 166.633 233.655 167.29 C 234.671 167.827 235.692 168.355 236.719 168.871 C 236.722 168.873 236.725 168.873 236.728 168.875 C 236.74 168.881 236.75 168.888 236.762 168.894 C 237.708 169.37 238.657 169.839 239.611 170.298 C 239.619 170.301 239.629 170.306 239.637 170.31 C 240.313 170.635 240.972 170.989 241.635 171.339 C 246.205 173.331 250.801 175.259 255.432 177.103 C 255.435 177.104 255.437 177.105 255.439 177.106 C 262.748 180.016 270.154 182.686 277.556 185.346 C 281.759 186.856 285.966 188.355 290.184 189.822 C 293.036 190.813 295.893 191.794 298.767 192.719 C 303.051 194.097 307.33 195.489 311.603 196.901 C 315.415 198.16 319.219 199.444 323.008 200.769 C 323.703 201.012 324.405 201.232 325.1 201.472 C 325.248 201.502 325.398 201.526 325.546 201.557 C 326.516 201.766 327.464 202.079 328.405 202.388 C 329.492 202.745 330.585 203.08 331.683 203.4 C 331.686 203.401 331.687 203.401 331.69 203.402 C 331.694 203.403 331.695 203.404 331.699 203.405 C 333.058 203.801 334.402 204.247 335.729 204.738 C 335.734 204.74 335.739 204.743 335.744 204.745 C 336.902 205.173 338.059 205.604 339.213 206.04 C 340.244 206.429 341.275 206.813 342.309 207.194 C 343.466 207.619 344.631 208.027 345.798 208.427 C 347.012 208.843 348.222 209.276 349.407 209.772 C 350.044 210.038 350.676 210.316 351.299 210.616 C 351.316 210.624 351.334 210.626 351.352 210.633 C 351.423 210.665 351.493 210.699 351.563 210.734 C 351.698 210.802 351.916 210.882 352.079 210.946 C 352.469 211.098 352.863 211.24 353.258 211.381 C 353.472 211.457 353.672 211.569 353.884 211.65 C 355.962 212.424 358.053 213.171 360.12 213.973 C 360.127 213.975 360.132 213.977 360.137 213.98 C 363.276 215.197 366.441 216.342 369.623 217.442 C 370.143 217.559 370.667 217.661 371.191 217.759 C 372.479 218.001 373.765 218.255 375.044 218.544 C 375.948 218.748 376.856 218.94 377.767 219.112 C 379.001 219.346 380.223 219.646 381.437 219.965 C 382.814 220.327 384.2 220.652 385.59 220.957 C 386.787 221.218 387.989 221.475 389.172 221.798 C 389.884 221.992 390.59 222.206 391.291 222.441 C 392.074 222.703 392.879 222.908 393.678 223.115 C 394.329 223.284 394.992 223.482 395.659 223.576 C 396.126 223.641 396.596 223.68 397.067 223.712 L 397.068 223.712 C 397.896 223.769 398.721 223.864 399.534 224.026 C 399.545 224.028 399.556 224.026 399.566 224.028 C 399.574 224.022 399.583 224.017 399.59 224.011 C 399.623 223.986 399.655 223.96 399.689 223.937 L 399.691 223.936 C 399.738 223.905 399.786 223.877 399.836 223.85 L 399.836 223.849 L 399.838 223.849 C 399.843 223.84 399.848 223.832 399.853 223.823 C 400.012 223.549 400.178 223.28 400.363 223.023 C 400.369 223.016 400.374 223.009 400.379 223.002 C 400.608 222.61 400.829 222.211 401.025 221.801 C 401.245 221.342 401.486 220.893 401.742 220.453 C 401.748 220.442 401.751 220.431 401.757 220.421 C 401.76 220.416 401.764 220.413 401.766 220.407 C 401.908 220.165 402.052 219.923 402.191 219.68 C 402.217 219.635 402.243 219.589 402.27 219.544 C 402.276 219.532 402.283 219.522 402.29 219.511 C 402.305 219.486 402.321 219.461 402.338 219.436 C 402.352 219.415 402.367 219.395 402.382 219.375 C 402.387 219.37 402.39 219.363 402.394 219.358 C 403.403 217.328 404.41 215.289 405.273 213.193 C 405.835 211.826 406.287 210.414 406.612 208.972 C 406.814 208.076 406.888 207.148 406.96 206.235 C 407.074 204.79 407.114 203.339 407.146 201.891 C 406.855 201.954 406.559 202.004 406.262 202.029 C 405.115 202.126 403.961 202.145 402.81 202.153 C 402.804 202.153 402.798 202.155 402.792 202.155 L 402.792 202.153 C 400.931 202.166 399.07 201.913 397.241 201.592 C 394.778 201.159 392.33 200.643 389.89 200.097 C 387.014 199.453 384.15 198.758 381.296 198.019 C 378.275 197.237 375.273 196.388 372.288 195.48 C 369.2 194.54 366.12 193.57 363.05 192.569 C 360.005 191.576 356.965 190.568 353.93 189.542 C 350.821 188.491 347.707 187.45 344.59 186.42 C 342.958 185.88 341.325 185.344 339.69 184.812 C 338.842 184.537 337.994 184.262 337.146 183.988 C 336.396 183.746 335.588 183.545 334.849 183.246 C 334.833 183.241 334.816 183.241 334.799 183.236 C 331.508 182.183 328.22 181.118 324.935 180.043 C 324.933 180.042 324.929 180.041 324.927 180.04 C 321.784 179.011 318.645 177.972 315.511 176.917 L 315.51 176.917 C 312.839 176.018 310.184 175.071 307.562 174.037 C 307.539 174.029 307.519 174.022 307.497 174.013 C 305.289 173.141 303.098 172.223 300.938 171.239 C 299.077 170.391 297.233 169.508 295.416 168.57 L 295.415 168.57 C 295.397 168.561 295.379 168.552 295.362 168.543 C 295.355 168.539 295.35 168.534 295.343 168.531 C 294.094 167.895 292.857 167.155 291.85 166.169 C 291.443 165.771 291.068 165.324 290.808 164.815 C 290.626 164.458 290.48 164.038 290.536 163.632 C 290.573 163.369 290.8 163.177 291.065 163.185 C 291.408 163.196 291.753 163.279 292.082 163.368 C 292.515 163.484 292.938 163.629 293.359 163.784 C 294.583 164.235 295.776 164.774 296.954 165.333 C 296.955 165.334 296.957 165.336 296.959 165.337 C 298.758 166.172 300.592 166.929 302.445 167.637 C 304.616 168.466 306.798 169.268 308.987 170.049 C 311.615 170.988 314.255 171.894 316.9 172.783 C 320.021 173.832 323.15 174.858 326.283 175.87 C 329.568 176.93 332.854 177.986 336.142 179.038 C 339.424 180.089 342.701 181.159 345.97 182.248 C 345.971 182.248 345.975 182.25 345.976 182.25 C 349.1 183.29 352.22 184.339 355.336 185.401 C 358.352 186.428 361.376 187.436 364.404 188.426 C 367.451 189.423 370.503 190.403 373.561 191.366 C 376.481 192.286 379.418 193.151 382.373 193.953 C 385.175 194.713 387.989 195.436 390.814 196.11 C 393.192 196.677 395.577 197.222 397.975 197.705 C 399.586 198.03 401.221 198.312 402.865 198.388 C 403.955 198.438 405.046 198.484 406.138 198.499 C 406.519 198.504 406.899 198.469 407.276 198.41 C 407.285 198.046 407.304 197.682 407.313 197.318 C 407.264 197.285 407.216 197.248 407.167 197.215 C 406.997 197.105 406.949 196.879 407.059 196.709 C 407.124 196.609 407.229 196.568 407.341 196.56 C 407.395 194.767 407.411 192.972 407.532 191.182 C 407.716 188.452 407.756 185.713 407.764 182.978 C 407.776 179.322 407.6 175.666 407.324 172.02 C 407.026 168.093 406.688 164.168 406.296 160.249 C 405.902 156.301 405.542 152.35 405.211 148.397 C 404.954 145.322 404.631 142.225 403.961 139.208 C 403.481 137.049 403.006 134.888 402.556 132.723 C 402.151 130.77 401.847 128.799 401.625 126.817 C 401.463 125.371 401.34 123.919 401.225 122.468 C 400.408 122.589 399.579 122.648 398.767 122.688 C 396.662 122.792 394.547 122.666 392.452 122.47 C 390.775 122.313 389.107 122.057 387.445 121.791 C 384.926 121.386 382.415 120.93 379.907 120.46 C 377.379 119.985 374.85 119.524 372.314 119.096 C 370.574 118.803 368.831 118.521 367.081 118.296 C 364.81 118.005 362.528 117.756 360.239 117.673 C 360.238 117.673 360.236 117.673 360.235 117.673 C 358.12 117.597 355.898 116.931 354.296 115.499 C 354.031 115.263 354.008 114.858 354.244 114.593 C 354.303 114.527 354.375 114.473 354.456 114.436 C 356.292 113.596 358.383 113.321 360.387 113.39 C 362.806 113.474 365.22 113.723 367.622 114.022 C 369.432 114.247 371.234 114.538 373.032 114.843 C 375.594 115.276 378.148 115.747 380.7 116.233 C 380.702 116.233 380.706 116.235 380.707 116.235 C 383.179 116.706 385.654 117.162 388.137 117.576 C 389.701 117.837 391.269 118.091 392.846 118.262 C 392.855 118.263 392.865 118.265 392.875 118.265 C 394.784 118.471 396.71 118.627 398.632 118.595 C 399.301 118.583 399.968 118.561 400.635 118.506 C 400.713 118.5 400.791 118.491 400.869 118.484 C 400.824 118.014 400.797 117.543 400.744 117.074 C 400.537 115.232 400.173 113.404 399.809 111.587 C 399.445 109.767 399.078 107.939 398.57 106.153 C 398.231 104.96 397.856 103.778 397.439 102.61 C 397.107 101.682 396.732 100.767 396.363 99.853 C 395.675 98.153 394.97 96.46 394.262 94.768 C 392.728 91.104 391.165 87.452 389.541 83.827 C 388.414 81.312 387.255 78.804 385.946 76.378 C 384.658 73.993 383.07 71.765 381.467 69.585 C 380.768 68.635 380.017 67.722 379.305 66.78 C 379.292 66.77 379.28 66.759 379.267 66.749 C 379.218 66.711 379.17 66.672 379.122 66.631 C 379.029 66.553 378.939 66.471 378.851 66.386 C 378.819 66.355 378.784 66.33 378.754 66.299 C 378.737 66.282 378.724 66.264 378.708 66.247 C 378.628 66.166 378.552 66.079 378.477 65.991 C 378.434 65.941 378.389 65.891 378.348 65.84 C 378.334 65.823 378.318 65.808 378.305 65.79 C 378.231 65.695 378.157 65.599 378.083 65.503 C 378.038 65.455 377.992 65.407 377.945 65.36 C 377.808 65.224 377.678 65.083 377.558 64.937 C 377.31 64.674 377.055 64.415 376.822 64.138 C 376.79 64.1 376.758 64.062 376.723 64.026 C 376.125 63.522 375.594 62.938 375.077 62.354 C 374.545 61.754 374.025 61.141 373.548 60.497 C 373.374 60.263 373.143 60.058 372.93 59.859 C 372.497 59.453 372.054 59.056 371.596 58.678 C 371.04 58.22 370.493 57.745 369.99 57.228 C 369.674 56.903 369.337 56.597 369.002 56.291 C 368.619 55.94 368.231 55.594 367.827 55.267 C 367.364 54.893 366.905 54.51 366.487 54.085 C 366.052 53.642 365.655 53.162 365.259 52.686 C 365.053 52.439 364.845 52.187 364.607 51.971 C 363.989 51.41 363.421 50.794 362.873 50.166 C 362.729 50 362.583 49.835 362.431 49.676 C 362.399 49.642 362.366 49.608 362.332 49.575 C 361.816 49.15 361.291 48.734 360.769 48.316 C 360.162 47.83 359.553 47.346 358.927 46.886 C 358.322 46.442 357.654 46.073 357.005 45.7 C 356.249 45.265 355.488 44.834 354.75 44.368 C 354.739 44.362 354.729 44.357 354.719 44.351 C 354.676 44.325 354.633 44.298 354.591 44.27 C 354.002 43.892 353.43 43.489 352.859 43.085 C 351.936 42.431 351.016 41.772 350.096 41.112 C 349.171 40.448 348.247 39.78 347.346 39.083 C 347.33 39.071 347.314 39.06 347.298 39.047 C 346.905 38.743 346.502 38.453 346.099 38.162 C 345.758 37.919 345.409 37.689 345.07 37.444 C 345.037 37.42 345.002 37.398 344.969 37.374 C 344.693 37.187 344.421 36.995 344.138 36.819 L 344.136 36.819 C 343.686 36.54 343.234 36.266 342.778 35.997 C 342.213 35.663 341.649 35.325 341.087 34.986 C 340.521 34.645 339.965 34.279 339.439 33.877 C 339.4 33.85 339.361 33.827 339.323 33.799 C 339.251 33.746 339.18 33.691 339.111 33.633 C 338.789 33.366 338.451 33.119 338.113 32.872 C 338.058 32.832 338.001 32.793 337.946 32.753 C 337.757 32.626 337.577 32.488 337.395 32.354 C 337.294 32.287 337.196 32.216 337.101 32.142 C 337.157 32.186 337.085 32.134 337.065 32.122 C 336.988 32.071 336.91 32.022 336.83 31.975 C 336.558 31.813 336.28 31.663 336.001 31.514 C 335.815 31.415 335.631 31.314 335.446 31.214 C 335.129 31.091 334.813 30.963 334.503 30.823 C 334.256 30.803 334.01 30.791 333.762 30.736 C 333.717 30.727 333.672 30.716 333.627 30.705 C 332.472 30.422 331.329 30.096 330.194 29.741 C 328.675 29.266 327.2 28.653 325.756 27.984 C 324.428 27.368 323.134 26.682 321.84 25.996 C 321.619 25.902 321.402 25.798 321.175 25.72 C 320.78 25.584 320.386 25.45 319.991 25.317 C 319.493 25.15 319.001 24.964 318.515 24.764 C 318.131 24.606 317.719 24.503 317.32 24.39 C 316.552 24.174 315.78 23.949 315.039 23.65 C 314.632 23.486 314.227 23.318 313.824 23.147 C 313.439 22.983 313.05 22.831 312.659 22.684 C 312.01 22.441 311.358 22.206 310.705 21.974 C 309.901 21.688 309.099 21.391 308.314 21.053 C 307.959 20.9 307.601 20.75 307.236 20.62 C 306.555 20.376 305.861 20.164 305.172 19.946 C 304.364 19.69 303.557 19.434 302.754 19.167 C 302.264 19.005 301.776 18.838 301.29 18.664 C 300.692 18.45 300.102 18.213 299.519 17.963 C 299.138 17.799 298.749 17.655 298.355 17.528 C 297.517 17.257 296.641 17.08 295.783 16.886 C 294.54 16.606 293.296 16.328 292.05 16.055 C 290.896 15.802 289.744 15.535 288.595 15.258 C 287.619 15.024 286.641 14.802 285.657 14.608 C 284.853 14.45 284.047 14.306 283.237 14.18 C 282.405 14.051 281.568 13.952 280.731 13.868 C 280.102 13.805 279.471 13.734 278.84 13.704 C 278.01 13.665 277.186 13.546 276.366 13.416 C 275.908 13.343 275.448 13.262 274.987 13.213 C 274.789 13.191 274.586 13.195 274.387 13.194 C 273.674 13.189 272.961 13.16 272.249 13.131 C 272.203 13.13 272.156 13.128 272.11 13.127 C 271.214 13.09 270.315 13.077 269.418 13.078 C 268.587 13.078 267.757 13.079 266.927 13.054 C 265.709 13.017 264.487 13.033 263.268 13.032 L 263.266 13.03 Z  M 158.278 52.201 C 158.478 52.195 158.669 52.258 158.856 52.333 C 158.932 52.35 159.006 52.374 159.075 52.411 C 159.427 52.603 159.749 52.846 160.04 53.121 C 160.06 53.136 160.08 53.15 160.098 53.167 C 160.101 53.17 160.104 53.173 160.107 53.176 C 160.109 53.177 160.111 53.179 160.112 53.181 C 160.114 53.183 160.115 53.185 160.118 53.188 C 160.584 53.634 160.75 54.27 160.786 54.906 C 161.247 55.252 161.727 55.575 162.203 55.887 C 163.66 56.845 165.196 57.685 166.741 58.491 C 168.935 59.635 171.174 60.693 173.427 61.714 C 176.42 63.071 179.459 64.324 182.514 65.531 C 186.477 67.097 190.425 68.703 194.364 70.328 C 198.984 72.232 203.601 74.142 208.216 76.057 C 208.222 76.06 208.228 76.062 208.233 76.064 C 212.763 77.944 217.307 79.791 221.872 81.588 C 221.887 81.594 221.904 81.6 221.919 81.606 C 225.849 83.153 229.811 84.625 233.812 85.976 C 233.817 85.977 233.822 85.98 233.826 85.981 C 237.526 87.23 241.163 88.669 244.712 90.3 C 244.884 90.379 244.958 90.584 244.879 90.756 C 244.815 90.895 244.667 90.974 244.516 90.95 C 240.641 90.346 236.816 89.427 233.085 88.218 C 229.034 86.905 225.001 85.53 220.983 84.12 C 216.31 82.48 211.682 80.716 207.087 78.873 C 202.44 77.009 197.801 75.128 193.172 73.22 C 189.246 71.602 185.317 69.994 181.378 68.41 C 181.375 68.409 181.372 68.407 181.369 68.406 C 178.277 67.163 175.204 65.864 172.189 64.441 C 172.182 64.438 172.176 64.433 172.169 64.431 C 169.89 63.354 167.631 62.234 165.426 61.013 C 165.416 61.008 165.405 61.001 165.395 60.996 L 165.393 60.996 C 163.798 60.112 162.22 59.181 160.74 58.112 C 160.723 58.101 160.707 58.09 160.691 58.078 C 159.758 57.402 158.813 56.68 158.054 55.804 C 158.026 55.776 157.999 55.748 157.974 55.718 C 157.433 55.075 156.916 54.241 157.066 53.362 C 157.154 52.851 157.483 52.386 158 52.243 C 158.092 52.217 158.185 52.205 158.278 52.202 L 158.278 52.201 Z  M 43.717 64.734 C 42.685 64.776 41.652 64.814 40.62 64.86 C 38.798 64.941 36.976 65.017 35.154 65.089 C 33.364 65.159 31.574 65.227 29.784 65.29 C 28.082 65.351 26.38 65.429 24.68 65.532 C 23.219 65.621 21.758 65.737 20.304 65.903 C 19.164 66.032 18.027 66.215 16.912 66.486 C 16.037 66.699 15.171 66.965 14.345 67.327 C 13.685 67.617 13.038 67.945 12.434 68.341 C 11.871 68.711 11.318 69.098 10.784 69.51 C 10.427 69.785 10.093 70.09 9.767 70.402 C 9.81 70.723 9.813 71.048 9.873 71.363 C 10.018 72.119 10.152 72.882 10.349 73.627 C 10.443 73.983 10.563 74.333 10.697 74.676 L 10.699 74.678 C 10.866 75.107 11.054 75.526 11.259 75.937 C 11.547 76.518 11.828 77.102 12.096 77.692 L 12.096 77.693 C 12.097 77.694 12.097 77.696 12.098 77.697 C 12.511 78.603 12.83 79.551 13.131 80.498 C 13.359 81.217 13.589 81.937 13.839 82.648 C 13.969 83.02 14.134 83.381 14.313 83.732 C 14.585 84.265 14.876 84.787 15.181 85.302 C 15.511 85.856 15.86 86.398 16.224 86.929 C 16.613 87.497 17.016 88.056 17.432 88.603 C 17.846 89.147 18.276 89.679 18.72 90.197 C 19.126 90.67 19.558 91.119 20.01 91.547 C 20.537 92.044 21.088 92.516 21.653 92.97 C 22.288 93.479 22.932 93.975 23.588 94.456 C 24.73 95.293 25.832 96.185 26.931 97.077 C 28.009 97.951 29.088 98.829 30.135 99.74 C 30.147 99.751 30.16 99.759 30.171 99.769 C 30.853 100.363 31.525 100.968 32.185 101.587 C 32.854 102.213 33.498 102.867 34.106 103.554 C 34.672 104.193 35.21 104.856 35.717 105.543 C 36.117 106.086 36.519 106.628 36.923 107.168 C 37.442 107.861 38.015 108.515 38.585 109.166 C 38.586 109.167 38.588 109.167 38.588 109.168 L 38.59 109.169 L 38.59 109.171 C 39.122 109.779 39.652 110.401 40.235 110.961 C 40.99 111.686 41.693 112.467 42.388 113.247 C 43.008 113.943 43.628 114.637 44.258 115.322 C 44.259 115.323 44.261 115.325 44.262 115.326 C 44.263 115.327 44.263 115.329 44.264 115.329 C 44.934 116.058 45.648 116.748 46.356 117.44 C 46.357 117.441 46.36 117.443 46.361 117.443 C 47.687 118.739 49.038 120.01 50.393 121.276 C 51.536 122.343 52.69 123.402 53.8 124.504 C 54.494 125.193 55.228 125.841 55.959 126.49 C 56.8 127.237 57.64 127.984 58.474 128.739 C 59.098 129.304 59.712 129.884 60.31 130.478 C 60.312 130.48 60.312 130.482 60.315 130.485 C 61.329 131.493 62.274 132.573 63.221 133.643 C 64.62 135.224 65.971 136.848 67.287 138.499 C 68.29 139.758 69.294 141.017 70.264 142.301 C 70.266 142.303 70.268 142.304 70.27 142.306 C 70.279 142.319 70.289 142.332 70.299 142.345 C 70.902 143.144 71.526 143.926 72.167 144.695 C 72.945 145.628 73.747 146.542 74.561 147.444 C 75.263 148.222 75.967 149 76.682 149.768 C 77.093 150.209 77.525 150.631 77.972 151.037 C 78.428 151.452 78.907 151.843 79.402 152.211 C 79.811 152.516 80.247 152.789 80.676 153.064 C 81.565 153.634 82.464 154.188 83.364 154.74 C 85.149 155.833 86.958 156.896 88.832 157.832 C 90.125 158.477 91.416 159.122 92.704 159.777 C 92.707 159.778 92.711 159.779 92.714 159.782 C 93.655 160.26 94.593 160.746 95.526 161.238 C 96.466 161.733 97.402 162.24 98.328 162.761 C 99.218 163.262 100.101 163.778 100.974 164.309 C 102.113 165.001 103.27 165.662 104.428 166.322 C 105.974 167.205 107.513 168.098 109.045 169.005 C 109.046 169.005 109.049 169.005 109.05 169.006 C 110.14 169.652 111.23 170.298 112.328 170.929 C 113.063 171.351 113.808 171.756 114.56 172.146 C 115.355 172.559 116.157 172.958 116.966 173.344 C 118.242 173.952 119.505 174.586 120.767 175.222 C 122.367 176.029 123.949 176.872 125.504 177.761 C 126.849 178.529 128.203 179.279 129.568 180.008 L 129.57 180.008 C 129.572 180.009 129.572 180.011 129.574 180.012 C 131.31 180.939 133.04 181.879 134.768 182.822 C 136.067 183.532 137.362 184.248 138.672 184.94 C 139.543 185.4 140.41 185.87 141.275 186.341 C 142.309 186.902 143.348 187.452 144.395 187.989 C 145.566 188.59 146.717 189.232 147.843 189.914 C 148.917 190.564 149.982 191.228 151.041 191.903 C 151.042 191.904 151.044 191.904 151.046 191.905 C 151.056 191.912 151.066 191.919 151.077 191.925 C 152.216 192.652 153.352 193.384 154.486 194.12 C 155.705 194.911 156.937 195.682 158.176 196.44 L 158.178 196.442 L 158.18 196.444 C 159.73 197.392 161.296 198.313 162.869 199.223 C 164.043 199.903 165.213 200.593 166.408 201.237 C 166.411 201.239 166.415 201.239 166.418 201.242 C 167.334 201.735 168.271 202.189 169.206 202.646 C 169.218 202.652 169.229 202.657 169.24 202.663 C 170.607 203.331 171.989 203.968 173.381 204.581 C 174.584 205.11 175.786 205.641 176.968 206.216 C 178.585 207.002 180.157 207.887 181.734 208.751 C 181.738 208.754 181.741 208.756 181.745 208.758 C 183.267 209.592 184.797 210.417 186.293 211.297 C 186.295 211.298 186.296 211.298 186.298 211.299 C 186.321 211.312 186.344 211.325 186.366 211.338 C 187.448 211.977 188.515 212.637 189.583 213.299 C 189.584 213.3 189.585 213.302 189.588 213.304 C 190.603 213.933 191.62 214.56 192.645 215.172 C 193.271 215.545 193.905 215.902 194.55 216.24 C 195.566 216.774 196.624 217.234 197.672 217.699 L 197.674 217.701 C 199.687 218.594 201.72 219.443 203.755 220.284 C 205.934 221.185 208.121 222.071 210.321 222.919 C 211.793 223.486 213.265 224.054 214.733 224.63 C 216.28 225.237 217.817 225.871 219.352 226.505 C 220.783 227.096 222.214 227.687 223.662 228.234 C 224.574 228.578 225.49 228.909 226.411 229.225 C 228.256 229.858 230.13 230.412 231.994 230.983 C 233.961 231.585 235.93 232.182 237.89 232.807 L 237.89 232.809 C 238.91 233.134 239.926 233.479 240.934 233.843 C 240.936 233.843 240.938 233.843 240.941 233.844 C 240.981 233.858 241.022 233.872 241.062 233.887 C 242.444 234.387 243.842 234.84 245.24 235.293 C 246.645 235.748 248.051 236.207 249.434 236.723 C 249.44 236.725 249.445 236.723 249.45 236.725 C 249.513 236.746 249.574 236.768 249.636 236.791 C 250.546 237.135 251.455 237.487 252.361 237.842 C 253.847 238.425 255.304 239.082 256.758 239.74 C 258.131 240.36 259.505 240.981 260.884 241.589 C 261.778 241.984 262.677 242.372 263.578 242.753 C 263.584 242.753 263.59 242.762 263.597 242.762 C 264.905 243.314 266.204 243.886 267.502 244.461 C 268.671 244.979 269.841 245.498 271.021 245.988 C 271.022 245.989 271.023 245.988 271.024 245.988 C 271.785 246.304 272.55 246.615 273.316 246.918 C 274.381 247.34 275.47 247.702 276.556 248.065 C 276.56 248.065 276.563 248.065 276.568 248.074 C 277.945 248.534 279.327 248.979 280.718 249.398 C 282.16 249.831 283.622 250.198 285.088 250.543 C 286.771 250.938 288.448 251.371 290.102 251.879 C 290.108 251.879 290.115 251.879 290.121 251.879 C 290.149 251.887 290.177 251.895 290.205 251.904 C 291.587 252.331 292.969 252.76 294.351 253.189 C 294.354 253.19 294.357 253.189 294.36 253.189 C 295.884 253.662 297.402 254.16 298.912 254.675 C 300.526 255.225 302.138 255.78 303.749 256.335 C 305.469 256.928 307.193 257.508 308.919 258.081 C 310.631 258.648 312.348 259.2 314.071 259.732 C 315.34 260.125 316.609 260.515 317.884 260.884 C 319.249 261.279 320.609 261.689 321.969 262.099 C 323.652 262.606 325.336 263.107 327.023 263.597 C 328.142 263.922 329.261 264.249 330.386 264.549 C 330.98 264.708 331.578 264.853 332.18 264.981 C 333.678 265.299 335.172 265.635 336.667 265.967 C 338.572 266.391 340.477 266.815 342.382 267.242 C 342.416 267.251 342.451 267.256 342.486 267.264 C 343.566 267.506 344.65 267.741 345.724 268.011 C 346.255 268.145 346.784 268.283 347.313 268.426 C 348.224 268.672 349.121 268.973 350.015 269.274 C 351.607 269.809 353.226 270.264 354.841 270.721 L 354.878 270.731 C 356.602 271.219 358.327 271.706 360.048 272.202 C 360.938 272.459 361.827 272.721 362.705 273.012 C 362.71 273.012 362.715 273.013 362.721 273.012 C 362.743 273.021 362.766 273.029 362.789 273.036 C 363.547 273.29 364.321 273.498 365.092 273.708 C 365.097 273.708 365.101 273.708 365.106 273.708 C 366.124 273.986 367.148 274.244 368.179 274.471 C 368.98 274.648 369.783 274.81 370.586 274.973 C 371.611 274.318 372.895 274.115 374.119 274.164 C 374.224 274.164 374.326 274.15 374.432 274.155 C 375.496 274.209 376.558 274.29 377.618 274.396 C 379.452 274.578 381.265 275.04 383.044 275.505 C 384.401 275.859 385.769 276.234 387.156 276.455 C 387.88 276.571 388.611 276.654 389.344 276.686 C 390.208 276.722 391.073 276.753 391.937 276.779 C 392.892 276.809 393.844 276.85 394.797 276.899 L 394.799 276.899 C 395.838 276.952 396.876 277.022 397.913 277.105 C 398.999 277.193 400.085 277.275 401.172 277.353 C 402.279 277.432 403.388 277.49 404.497 277.528 C 405.703 277.569 406.909 277.619 408.115 277.673 C 409.301 277.728 410.488 277.795 411.672 277.877 C 411.701 277.877 411.73 277.877 411.759 277.885 C 412.965 277.969 414.17 278.068 415.373 278.182 C 417.262 278.361 419.151 278.545 421.04 278.73 C 422.832 278.905 424.629 279.091 426.428 279.174 C 427.487 279.222 428.547 279.257 429.607 279.274 C 430.717 279.292 431.827 279.335 432.934 279.397 C 432.94 279.397 432.946 279.397 432.951 279.397 C 432.968 279.398 432.986 279.397 433.003 279.397 C 434.116 279.46 435.229 279.537 436.34 279.629 C 436.36 279.629 436.381 279.629 436.402 279.638 C 437.459 279.726 438.519 279.798 439.579 279.855 C 441.115 279.936 442.658 279.923 444.196 279.91 C 445.706 279.898 447.221 279.89 448.728 279.781 C 449.784 279.704 450.841 279.622 451.896 279.533 C 451.899 279.533 451.902 279.533 451.905 279.533 C 451.909 279.533 451.913 279.534 451.917 279.533 C 452.872 279.453 453.834 279.433 454.792 279.416 C 456.269 279.389 457.745 279.388 459.222 279.392 L 459.223 279.392 C 459.235 279.392 459.246 279.392 459.258 279.392 C 461.589 279.401 463.922 279.418 466.253 279.37 C 467.347 279.348 468.439 279.294 469.529 279.205 C 471.13 279.074 472.728 278.887 474.322 278.698 C 475.953 278.505 477.585 278.312 479.219 278.157 C 479.226 278.156 479.231 278.157 479.236 278.157 C 479.241 278.157 479.246 278.157 479.25 278.157 C 480.823 278.009 482.4 277.899 483.977 277.79 C 483.983 277.79 483.989 277.79 483.995 277.79 C 485.786 277.667 487.575 277.521 489.36 277.335 C 489.369 277.335 489.379 277.335 489.389 277.335 C 490.859 277.181 492.327 277.012 493.791 276.812 C 494.972 276.651 496.151 276.477 497.327 276.277 C 497.684 276.215 498.042 276.151 498.396 276.072 C 498.494 276.05 498.593 276.026 498.69 276 C 498.748 275.985 498.711 276 498.68 276.009 C 498.905 275.922 499.125 275.824 499.338 275.71 C 499.931 275.396 500.504 275.041 501.079 274.695 C 501.409 274.496 501.739 274.296 502.063 274.086 C 502.11 274.056 502.157 274.023 502.203 273.992 C 502.267 273.912 502.331 273.832 502.391 273.748 L 502.391 273.748 C 502.53 273.554 502.668 273.352 502.776 273.137 C 502.795 273.06 502.808 272.981 502.819 272.902 C 502.87 272.532 502.873 272.157 502.853 271.784 C 502.838 271.5 502.808 271.213 502.725 270.94 C 502.419 269.926 502.023 268.934 501.65 267.943 C 501.414 267.317 501.172 266.692 500.908 266.077 C 500.781 265.78 500.655 265.478 500.495 265.196 C 500.175 264.631 499.821 264.083 499.453 263.548 C 498.926 262.784 498.304 262.082 497.685 261.393 C 496.978 260.606 496.249 259.834 495.467 259.12 C 495.46 259.111 495.453 259.108 495.446 259.101 C 494.254 258.016 493.118 256.868 491.986 255.721 C 491.966 255.702 491.946 255.681 491.926 255.661 C 490.887 254.608 489.848 253.555 488.799 252.512 C 488.177 251.894 487.521 251.311 486.852 250.746 C 486.05 250.069 485.274 249.359 484.541 248.608 C 484.537 248.608 484.532 248.599 484.528 248.597 C 484.483 248.554 484.439 248.51 484.396 248.466 C 484.018 248.072 483.638 247.671 483.228 247.309 L 483.226 247.309 C 483.021 247.129 482.798 246.969 482.569 246.821 C 481.478 246.119 480.359 245.457 479.25 244.784 C 477.52 243.733 475.811 242.644 474.15 241.487 C 472.638 240.434 471.137 239.365 469.644 238.286 C 467.229 236.542 464.828 234.778 462.428 233.014 C 461.132 232.062 459.837 231.111 458.534 230.169 C 457.907 229.716 457.281 229.256 456.638 228.823 C 456.624 228.814 456.61 228.803 456.596 228.794 C 455.357 227.962 454.099 227.16 452.842 226.356 C 452.819 226.342 452.798 226.328 452.775 226.313 C 451.349 225.399 449.921 224.482 448.539 223.501 C 448.521 223.489 448.503 223.478 448.486 223.465 C 447.56 222.807 446.656 222.116 445.773 221.401 C 445.767 221.395 445.759 221.394 445.752 221.389 C 445.73 221.371 445.706 221.354 445.684 221.336 C 444.868 220.672 444.061 219.996 443.265 219.309 C 443.25 219.297 443.236 219.285 443.222 219.273 C 442.138 218.336 441.073 217.377 440.009 216.418 C 439.982 216.396 439.957 216.372 439.931 216.348 C 439.01 215.518 438.086 214.668 437.083 213.936 C 436.484 213.498 435.863 213.09 435.225 212.712 C 434.258 212.141 433.287 211.576 432.317 211.011 C 432.08 210.972 431.846 210.916 431.614 210.851 C 431.601 210.847 431.588 210.845 431.575 210.842 L 431.575 210.84 C 431.133 210.713 430.695 210.567 430.263 210.412 C 429.793 210.243 429.326 210.064 428.86 209.886 C 428.857 209.886 428.853 209.887 428.85 209.886 C 428.842 209.886 428.834 209.886 428.826 209.885 C 428.781 209.882 428.735 209.882 428.69 209.878 C 428.689 209.878 428.687 209.878 428.686 209.878 C 428.645 209.874 428.605 209.866 428.565 209.861 C 428.494 209.851 428.424 209.842 428.353 209.828 C 428.313 209.82 428.274 209.812 428.234 209.803 C 428.174 209.789 428.115 209.773 428.056 209.757 C 428 209.74 427.945 209.723 427.889 209.704 C 427.85 209.69 427.811 209.676 427.771 209.661 C 427.716 209.64 427.661 209.618 427.608 209.594 C 427.559 209.573 427.512 209.55 427.464 209.526 C 427.415 209.502 427.365 209.478 427.318 209.451 C 427.311 209.448 427.305 209.444 427.299 209.441 C 427.134 209.347 426.968 209.253 426.802 209.159 C 426.569 209.027 426.34 208.887 426.11 208.751 C 425.974 208.687 425.838 208.624 425.703 208.557 C 425.104 208.257 424.504 207.956 423.905 207.656 C 423.298 207.352 422.693 207.041 422.093 206.723 C 421.542 206.43 420.996 206.128 420.455 205.818 C 420.126 205.63 419.788 205.455 419.441 205.303 C 419.059 205.136 418.675 204.973 418.288 204.817 C 418.28 204.813 418.272 204.812 418.264 204.808 C 418.26 204.806 418.256 204.805 418.252 204.803 C 418.216 205.577 418.212 206.352 418.151 207.125 C 418.037 208.576 417.884 210.034 417.563 211.456 C 417.098 213.513 416.456 215.527 415.653 217.477 L 415.653 217.479 C 414.646 219.926 413.481 222.308 412.302 224.676 C 412.059 225.164 411.738 225.581 411.386 225.963 C 411.558 226.003 411.731 226.035 411.903 226.077 C 412.269 226.165 412.638 226.244 413.009 226.314 C 413.771 226.045 414.586 225.91 415.404 225.944 C 415.846 225.962 416.263 226.051 416.669 226.171 C 416.877 226.228 417.072 226.307 417.273 226.387 C 417.386 226.437 417.494 226.491 417.602 226.548 C 417.84 226.663 418.094 226.745 418.314 226.894 C 419.311 227.57 420.066 228.573 420.441 229.718 C 420.7 230.507 420.713 231.327 420.622 232.141 C 420.598 232.577 420.537 233.015 420.397 233.45 C 420.396 233.452 420.394 233.457 420.393 233.46 L 420.393 233.462 L 420.393 233.463 C 420.258 233.881 420.062 234.259 419.839 234.615 C 419.715 234.825 419.572 235.012 419.423 235.204 C 419.387 235.246 419.35 235.287 419.313 235.328 C 418.456 236.367 417.279 237.13 415.899 237.297 C 414.945 237.413 414.014 237.179 413.157 236.767 C 413.077 236.762 412.999 236.774 412.918 236.765 C 411.768 236.639 410.631 236.362 409.507 236.096 C 408.496 235.857 407.483 235.623 406.462 235.431 C 405.78 235.302 405.092 235.213 404.4 235.156 C 403.204 235.059 402.014 234.849 400.867 234.491 C 400.623 234.415 400.37 234.351 400.114 234.34 C 399.251 234.306 398.387 234.219 397.539 234.05 C 397.123 233.967 396.701 233.917 396.278 233.878 C 396.269 233.877 396.26 233.877 396.251 233.876 L 396.251 233.875 C 395.59 233.814 394.93 233.739 394.274 233.639 C 394.264 233.638 394.255 233.639 394.246 233.637 C 394.219 233.634 394.192 233.629 394.164 233.625 C 393.137 233.464 392.124 233.193 391.119 232.929 C 390.099 232.661 389.077 232.387 388.076 232.052 C 387.537 231.872 386.994 231.702 386.447 231.545 C 385.454 231.261 384.444 231.035 383.439 230.801 C 383.425 230.799 383.411 230.794 383.398 230.791 C 383.39 230.789 383.382 230.788 383.374 230.786 L 383.372 230.786 C 381.872 230.437 380.376 230.063 378.891 229.65 C 378.867 229.643 378.842 229.638 378.818 229.631 C 377.873 229.367 376.92 229.117 375.953 228.943 C 374.911 228.756 373.875 228.54 372.843 228.305 C 372.839 228.304 372.836 228.304 372.832 228.303 C 371.677 228.04 370.516 227.811 369.352 227.593 C 368.211 227.38 367.055 227.177 365.942 226.841 L 365.941 226.841 C 365.132 226.597 364.339 226.308 363.547 226.015 C 362.612 225.67 361.656 225.381 360.697 225.113 C 359.781 224.856 358.861 224.605 357.957 224.309 C 357.441 224.14 356.929 223.962 356.42 223.777 C 355.284 223.363 354.196 222.807 353.114 222.273 C 353.114 222.272 353.11 222.273 353.109 222.272 C 352.048 221.748 350.966 221.255 349.854 220.85 L 349.852 220.85 C 348.986 220.535 348.112 220.226 347.269 219.852 C 346.686 219.593 346.096 219.347 345.508 219.101 C 344.528 218.691 343.528 218.328 342.527 217.975 C 342.514 217.971 342.501 217.966 342.488 217.961 C 341.268 217.532 340.05 217.097 338.838 216.648 L 338.836 216.648 C 338.832 216.646 338.828 216.644 338.824 216.642 C 337.769 216.251 336.715 215.852 335.664 215.448 L 335.635 215.438 C 334.51 215.005 333.383 214.58 332.253 214.16 C 332.25 214.159 332.245 214.157 332.243 214.156 C 331.144 213.748 330.03 213.374 328.904 213.049 L 328.904 213.051 C 327.687 212.699 326.478 212.328 325.274 211.933 C 325.27 211.931 325.267 211.929 325.262 211.928 C 324.662 211.73 324.053 211.511 323.433 211.377 L 323.426 211.375 C 322.699 211.217 321.964 211.086 321.232 210.952 C 320.315 210.783 319.399 210.61 318.492 210.397 C 317.467 210.156 316.455 209.854 315.446 209.553 C 314.393 209.238 313.339 208.918 312.31 208.532 C 311.52 208.236 310.723 207.962 309.924 207.689 C 309.909 207.685 309.895 207.68 309.88 207.674 C 308.739 207.285 307.592 206.913 306.442 206.553 C 305.433 206.237 304.425 205.92 303.42 205.591 C 302.676 205.346 301.936 205.091 301.2 204.823 L 301.198 204.823 C 300.485 204.563 299.774 204.291 299.071 204.005 C 298.188 203.647 297.294 203.311 296.402 202.976 C 295.505 202.64 294.608 202.305 293.699 202 C 293.089 201.796 292.474 201.598 291.858 201.412 C 291.163 201.201 290.471 200.98 289.783 200.746 C 289.778 200.745 289.773 200.741 289.768 200.739 C 288.839 200.423 287.914 200.094 286.99 199.763 C 286.989 199.763 286.988 199.762 286.987 199.762 C 285.947 199.39 284.9 199.037 283.845 198.712 C 282.689 198.357 281.531 198.007 280.371 197.661 C 280.362 197.659 280.352 197.655 280.342 197.652 C 279.194 197.31 278.049 196.952 276.921 196.545 C 276.913 196.542 276.906 196.539 276.899 196.536 C 276.881 196.53 276.862 196.526 276.844 196.519 L 276.844 196.518 C 275.959 196.196 275.067 195.894 274.172 195.6 C 272.973 195.205 271.789 194.765 270.618 194.293 C 269.383 193.794 268.155 193.278 266.933 192.748 C 266.929 192.747 266.926 192.746 266.922 192.743 C 265.62 192.179 264.327 191.594 263.041 190.992 C 263.037 190.991 263.033 190.991 263.029 190.989 C 263.013 190.982 262.998 190.974 262.982 190.967 L 262.981 190.967 C 262.061 190.536 261.14 190.105 260.203 189.713 C 259.532 189.432 258.856 189.163 258.176 188.906 C 257.012 188.465 255.852 188.011 254.693 187.558 C 252.75 186.797 250.816 186.008 248.887 185.213 C 248.877 185.21 248.868 185.205 248.858 185.201 C 247.242 184.536 245.627 183.866 243.995 183.241 C 242.946 182.839 241.909 182.409 240.884 181.947 C 240.88 181.946 240.875 181.944 240.871 181.942 C 240.855 181.935 240.84 181.929 240.825 181.922 C 239.798 181.457 238.788 180.953 237.801 180.408 C 237.798 180.406 237.793 180.404 237.789 180.401 C 237.02 179.976 236.235 179.58 235.438 179.21 C 234.406 178.732 233.383 178.239 232.363 177.736 C 231.247 177.185 230.14 176.618 229.041 176.035 C 229.038 176.034 229.035 176.031 229.032 176.03 L 229.03 176.03 C 228.009 175.487 226.963 174.992 225.903 174.53 C 224.262 173.814 222.638 173.056 221.021 172.289 C 221.02 172.289 221.019 172.289 221.018 172.288 L 221.016 172.288 C 219.603 171.617 218.19 170.946 216.767 170.296 C 215.827 169.867 214.886 169.437 213.945 169.01 C 213.94 169.007 213.935 169.007 213.93 169.005 L 213.93 169.003 C 213.283 168.709 212.634 168.414 211.974 168.15 L 211.972 168.15 C 210.959 167.743 209.922 167.39 208.893 167.025 C 208.888 167.023 208.884 167.023 208.879 167.022 L 208.879 167.02 C 207.387 166.491 205.9 165.94 204.449 165.305 C 203.086 164.708 201.722 164.107 200.359 163.507 C 200.354 163.504 200.349 163.504 200.344 163.501 L 200.344 163.5 C 198.914 162.869 197.486 162.23 196.075 161.558 C 194.946 161.02 193.828 160.463 192.717 159.889 C 192.712 159.887 192.707 159.885 192.702 159.882 C 192.68 159.871 192.659 159.859 192.637 159.848 C 191.471 159.245 190.277 158.696 189.074 158.172 L 189.072 158.172 C 187.52 157.498 185.979 156.797 184.445 156.082 C 184.44 156.08 184.433 156.08 184.428 156.077 C 184.409 156.069 184.39 156.058 184.371 156.05 C 183.169 155.489 181.964 154.929 180.773 154.343 L 180.766 154.34 C 180.094 154.01 179.418 153.685 178.737 153.373 C 178.734 153.371 178.729 153.371 178.725 153.369 L 178.725 153.367 C 177.806 152.945 176.882 152.532 175.959 152.12 C 174.893 151.643 173.812 151.198 172.717 150.791 C 171.817 150.456 170.916 150.117 170.033 149.735 C 170.02 149.729 170.007 149.728 169.994 149.723 C 169.978 149.716 169.962 149.707 169.946 149.7 C 169.359 149.444 168.778 149.172 168.204 148.888 C 168.202 148.887 168.2 148.886 168.197 148.885 C 168.18 148.876 168.163 148.869 168.146 148.861 C 168.142 148.859 168.138 148.857 168.134 148.854 C 167.43 148.505 166.719 148.17 166.008 147.837 C 164.902 147.318 163.787 146.816 162.67 146.32 C 161.385 145.749 160.121 145.117 158.917 144.387 C 158.881 144.367 158.843 144.357 158.807 144.336 C 158.796 144.329 158.785 144.321 158.773 144.313 C 157.631 143.61 156.527 142.843 155.436 142.063 C 155.431 142.06 155.426 142.058 155.422 142.056 C 155.38 142.028 155.337 141.999 155.296 141.969 C 154.3 141.255 153.301 140.546 152.288 139.858 C 151.109 139.058 149.95 138.228 148.793 137.396 C 148.789 137.392 148.783 137.391 148.778 137.386 C 147.653 136.577 146.506 135.77 145.476 134.84 C 145.149 134.544 144.815 134.256 144.483 133.965 C 143.45 133.479 142.417 132.994 141.393 132.49 C 140.094 131.851 138.834 131.123 137.574 130.41 C 136.341 129.714 135.111 129.01 133.849 128.365 C 132.82 127.838 131.782 127.326 130.744 126.815 C 129.748 126.325 128.728 125.845 127.794 125.24 C 127.383 124.974 126.989 124.679 126.598 124.386 C 125.99 123.93 125.389 123.465 124.789 122.998 C 123.773 122.207 122.751 121.421 121.764 120.592 C 120.984 119.938 120.223 119.262 119.462 118.586 C 118.865 118.055 118.273 117.518 117.659 117.008 C 117.04 116.495 116.362 116.043 115.708 115.578 C 114.714 114.869 113.727 114.147 112.796 113.356 C 112.174 112.829 111.561 112.292 110.96 111.742 C 110.311 111.149 109.591 110.629 108.881 110.112 C 108.4 109.762 107.92 109.408 107.451 109.041 C 107.078 108.748 106.708 108.448 106.375 108.109 L 106.373 108.109 C 105.888 107.616 105.453 107.071 105.032 106.522 L 105.032 106.521 C 104.665 106.043 104.268 105.587 103.855 105.149 C 103.286 104.546 102.737 103.923 102.23 103.267 C 101.932 102.88 101.662 102.468 101.454 102.025 C 101.005 101.068 100.882 99.969 101.235 98.958 C 101.276 98.844 101.322 98.732 101.374 98.622 L 101.372 98.622 C 101.435 98.488 101.506 98.357 101.585 98.231 C 101.705 98.072 101.825 97.911 101.945 97.752 C 101.997 97.694 102.059 97.648 102.114 97.593 C 102.139 97.569 102.16 97.542 102.186 97.518 L 102.223 97.489 C 102.37 97.357 102.526 97.238 102.693 97.133 L 102.749 97.09 C 102.763 97.081 102.779 97.075 102.793 97.066 C 102.881 97.014 102.971 96.969 103.063 96.925 C 103.129 96.893 103.198 96.865 103.266 96.838 C 103.359 96.8 103.451 96.76 103.547 96.73 C 103.688 96.687 103.832 96.654 103.977 96.629 C 104.009 96.624 104.038 96.612 104.07 96.607 C 104.131 96.598 104.191 96.605 104.252 96.598 C 104.305 96.594 104.356 96.584 104.409 96.581 C 104.443 96.58 104.476 96.588 104.51 96.587 C 104.69 96.583 104.869 96.593 105.046 96.616 C 105.09 96.622 105.133 96.628 105.177 96.636 C 105.731 96.729 106.265 96.927 106.754 97.221 C 107.067 97.41 107.364 97.624 107.653 97.848 C 108.368 98.4 109.027 99.022 109.647 99.678 L 109.647 99.68 C 109.679 99.714 109.707 99.75 109.738 99.784 C 110.144 100.221 110.529 100.676 110.884 101.154 L 110.886 101.154 C 110.995 101.116 111.107 101.089 111.221 101.073 C 111.246 101.069 111.272 101.066 111.297 101.064 C 111.338 101.059 111.379 101.055 111.42 101.054 C 111.426 101.053 111.433 101.054 111.439 101.054 C 111.484 101.053 111.529 101.053 111.574 101.055 C 111.593 101.056 111.611 101.057 111.63 101.059 C 111.667 101.061 111.703 101.066 111.739 101.071 C 111.759 101.073 111.779 101.078 111.799 101.081 C 111.832 101.087 111.865 101.092 111.898 101.1 C 111.924 101.106 111.951 101.113 111.977 101.12 C 112.006 101.129 112.036 101.138 112.065 101.147 C 112.085 101.155 112.105 101.161 112.125 101.168 C 112.169 101.184 112.212 101.204 112.255 101.224 C 112.259 101.226 112.264 101.229 112.268 101.231 C 112.308 101.25 112.349 101.27 112.388 101.293 C 112.404 101.302 112.42 101.312 112.436 101.322 C 112.472 101.344 112.508 101.368 112.543 101.393 C 112.554 101.401 112.565 101.409 112.575 101.417 C 112.587 101.426 112.6 101.433 112.611 101.443 C 112.626 101.454 112.641 101.467 112.656 101.478 C 113.414 101.076 114.284 100.947 115.142 101.038 C 116.907 97.806 118.642 94.554 120.25 91.241 C 121.587 88.486 122.964 85.752 124.393 83.044 C 125.303 81.32 126.23 79.592 127.009 77.804 C 127.283 77.175 127.484 76.518 127.719 75.874 C 126.834 75.815 125.95 75.707 125.084 75.562 C 123.873 75.359 122.662 75.157 121.45 74.961 C 120.376 74.788 119.302 74.623 118.227 74.463 C 116.171 74.156 114.124 73.779 112.079 73.407 C 112.076 73.406 112.074 73.407 112.07 73.407 L 112.07 73.405 C 109.395 72.917 106.717 72.449 104.035 72.001 C 101.415 71.563 98.79 71.166 96.157 70.808 C 93.324 70.423 90.486 70.066 87.646 69.73 C 85.466 69.471 83.285 69.211 81.101 68.982 C 79.175 68.78 77.247 68.59 75.32 68.402 L 75.278 68.399 C 73.417 68.217 71.555 68.037 69.688 67.931 C 68.337 67.855 66.985 67.78 65.634 67.704 C 64.209 67.624 62.787 67.518 61.366 67.387 C 59.983 67.259 58.602 67.101 57.227 66.909 C 57.226 66.909 57.224 66.909 57.223 66.909 C 57.211 66.907 57.198 66.905 57.186 66.904 C 55.984 66.735 54.785 66.558 53.587 66.368 C 53.586 66.368 53.584 66.368 53.584 66.368 C 53.562 66.364 53.54 66.361 53.519 66.358 C 51.931 66.106 50.348 65.827 48.765 65.546 C 47.088 65.248 45.404 64.986 43.718 64.744 L 43.717 64.734 Z  M 295.82 69.37 C 295.915 69.362 296.011 69.388 296.093 69.448 C 296.939 70.072 297.828 70.639 298.76 71.126 C 299.548 71.517 300.366 71.849 301.185 72.17 C 302.419 72.654 303.675 73.085 304.935 73.497 C 306.571 74.033 308.224 74.519 309.883 74.98 C 311.918 75.545 313.96 76.083 316.005 76.606 C 318.427 77.226 320.849 77.839 323.273 78.449 C 326.04 79.146 328.796 79.895 331.54 80.679 C 334.473 81.518 337.408 82.347 340.347 83.163 C 343.115 83.933 345.886 84.694 348.66 85.44 C 350.995 86.068 353.328 86.702 355.658 87.347 C 357.723 87.92 359.738 88.7 361.618 89.733 C 361.778 89.821 361.837 90.021 361.749 90.181 C 361.692 90.286 361.582 90.353 361.463 90.354 C 359.321 90.376 357.179 90.127 355.086 89.68 C 352.712 89.172 350.348 88.615 347.992 88.033 C 345.186 87.34 342.393 86.598 339.609 85.824 C 336.652 85.002 333.707 84.135 330.779 83.22 C 328.09 82.379 325.392 81.567 322.682 80.797 C 322.67 80.794 322.66 80.79 322.648 80.787 L 322.646 80.787 C 320.237 80.102 317.83 79.407 315.429 78.695 C 313.403 78.094 311.383 77.471 309.375 76.813 C 309.361 76.809 309.346 76.804 309.332 76.799 C 307.683 76.258 306.044 75.683 304.427 75.054 C 304.412 75.049 304.396 75.044 304.382 75.038 C 303.132 74.55 301.889 74.042 300.673 73.475 C 300.659 73.469 300.645 73.464 300.632 73.458 C 299.792 73.066 298.955 72.649 298.178 72.141 L 298.176 72.141 C 298.174 72.139 298.17 72.137 298.168 72.136 C 298.166 72.134 298.165 72.132 298.162 72.13 C 297.225 71.54 296.361 70.839 295.569 70.066 C 295.408 69.909 295.405 69.651 295.562 69.491 C 295.633 69.418 295.725 69.377 295.82 69.37 L 295.82 69.37 Z  M 107.301 86.221 C 107.307 86.221 107.313 86.223 107.319 86.223 C 108.729 86.214 110.198 86.273 111.553 86.701 C 111.766 86.768 111.885 86.996 111.817 87.209 C 111.757 87.4 111.566 87.518 111.368 87.487 C 110.06 87.284 108.697 87.419 107.394 87.591 C 105.784 87.805 104.182 88.082 102.598 88.443 C 101.095 88.786 99.603 89.18 98.128 89.625 C 96.828 90.018 95.551 90.495 94.341 91.113 C 93.439 91.574 92.551 92.101 91.789 92.773 C 91.354 93.157 90.997 93.638 90.867 94.212 C 90.715 94.886 90.697 95.583 90.78 96.268 C 90.868 96.988 91.069 97.693 91.379 98.35 C 92.064 99.767 92.745 101.187 93.423 102.607 C 93.521 102.811 93.435 103.055 93.231 103.153 C 93.116 103.207 92.982 103.206 92.869 103.149 C 91.28 102.349 89.732 101.211 88.883 99.609 C 88.383 98.68 88.064 97.661 87.936 96.614 C 87.813 95.606 87.869 94.579 88.13 93.596 C 88.135 93.574 88.14 93.552 88.146 93.531 C 88.45 92.428 89.133 91.48 90.007 90.755 C 90.02 90.743 90.033 90.732 90.047 90.721 C 90.992 89.949 92.083 89.366 93.198 88.878 C 93.222 88.866 93.245 88.854 93.27 88.844 C 94.649 88.246 96.097 87.81 97.561 87.477 C 99.112 87.124 100.677 86.832 102.25 86.596 C 103.921 86.347 105.611 86.232 107.301 86.221 L 107.301 86.221 Z  M 184.696 109.657 C 184.749 109.64 184.807 109.64 184.862 109.661 C 188.422 110.999 191.901 112.549 195.33 114.194 C 195.332 114.195 195.333 114.197 195.335 114.198 C 197.987 115.438 200.582 116.8 203.123 118.255 C 205.719 119.742 208.334 121.194 210.97 122.608 C 213.502 123.967 216.064 125.272 218.655 126.514 C 221.062 127.667 223.496 128.761 225.965 129.776 C 225.967 129.777 225.969 129.777 225.972 129.778 C 225.976 129.78 225.981 129.783 225.985 129.785 C 228.205 130.698 230.425 131.613 232.643 132.53 C 232.656 132.535 232.67 132.54 232.682 132.546 C 234.726 133.391 236.754 134.272 238.765 135.192 C 241.023 136.225 243.231 137.368 245.408 138.56 C 246.408 139.107 247.412 139.646 248.437 140.146 C 249.026 140.433 249.628 140.729 250.256 140.924 C 250.379 140.962 250.447 141.092 250.409 141.215 C 250.371 141.339 250.241 141.407 250.117 141.369 C 249.471 141.169 248.836 140.933 248.201 140.698 C 247.125 140.3 246.053 139.886 244.983 139.47 C 242.685 138.575 240.387 137.676 238.093 136.77 C 236.054 135.965 234.004 135.187 231.945 134.433 C 229.671 133.599 227.41 132.73 225.158 131.839 C 222.633 130.841 220.133 129.78 217.655 128.671 C 214.989 127.477 212.37 126.18 209.796 124.799 C 207.14 123.374 204.528 121.865 201.964 120.279 C 201.952 120.272 201.941 120.266 201.93 120.259 C 199.481 118.743 196.994 117.289 194.462 115.918 C 191.096 114.14 187.787 112.239 184.632 110.106 C 184.516 110.028 184.485 109.872 184.563 109.757 C 184.596 109.708 184.644 109.674 184.696 109.658 L 184.696 109.657 Z  M 70.472 121.009 C 70.574 121.025 70.666 121.079 70.73 121.161 C 71.038 121.555 71.387 121.919 71.735 122.279 C 72.245 122.806 72.768 123.32 73.298 123.828 C 75.017 125.478 76.785 127.077 78.56 128.667 C 81.369 131.18 84.348 133.498 87.429 135.668 C 90.928 138.131 94.411 140.618 97.884 143.119 C 97.884 143.12 97.886 143.12 97.887 143.121 C 97.894 143.125 97.901 143.131 97.908 143.136 C 101.562 145.769 105.252 148.351 108.976 150.883 L 108.978 150.885 C 108.984 150.889 108.99 150.894 108.997 150.898 C 112.708 153.421 116.443 155.908 120.202 158.36 C 120.205 158.361 120.205 158.362 120.207 158.363 C 123.997 160.835 127.717 163.413 131.365 166.089 C 134.715 168.548 138.115 170.944 141.589 173.227 C 144.542 175.167 147.509 177.086 150.496 178.974 C 152.897 180.491 155.261 182.08 157.495 183.838 L 157.496 183.84 C 157.501 183.843 157.506 183.848 157.51 183.85 C 157.511 183.851 157.512 183.853 157.514 183.854 C 158.815 184.855 160.113 185.859 161.399 186.881 C 162.205 187.521 163.008 188.164 163.786 188.838 C 163.929 188.962 163.944 189.179 163.82 189.322 C 163.696 189.466 163.48 189.481 163.337 189.356 L 163.337 189.358 C 162.57 188.693 161.757 188.077 160.945 187.468 C 159.637 186.485 158.309 185.528 156.976 184.579 C 154.663 182.971 152.257 181.499 149.823 180.081 C 146.764 178.298 143.719 176.492 140.681 174.672 C 137.08 172.515 133.586 170.18 130.165 167.75 C 126.506 165.15 122.789 162.634 119.015 160.205 C 115.231 157.77 111.456 155.323 107.687 152.868 C 103.887 150.392 100.12 147.866 96.389 145.288 C 92.861 142.85 89.344 140.399 85.837 137.931 C 82.669 135.7 79.609 133.306 76.733 130.708 L 76.729 130.706 L 76.729 130.704 L 76.727 130.704 C 74.892 129.049 73.078 127.303 71.615 125.301 C 71.101 124.596 70.621 123.845 70.296 123.031 C 70.088 122.508 69.921 121.916 70.008 121.349 C 70.042 121.127 70.25 120.975 70.472 121.009 L 70.472 121.009 Z  M 275.955 124.565 C 282.525 126.628 289.113 128.633 295.711 130.605 C 300.64 132.064 305.579 133.493 310.525 134.897 C 315.623 136.343 320.686 137.916 325.706 139.616 C 330.417 141.212 335.115 142.845 339.795 144.532 C 343.786 145.971 347.773 147.424 351.749 148.905 C 354.859 150.064 357.975 151.206 361.104 152.313 C 363.387 153.119 365.681 153.899 368 154.597 C 369.49 155.046 370.989 155.487 372.511 155.816 C 372.52 155.817 372.529 155.819 372.538 155.821 C 373.365 155.999 374.216 156.163 375.065 156.169 C 375.591 156.173 376.122 156.171 376.645 156.114 C 377.333 156.042 378.032 156.171 378.695 156.345 C 379.296 156.503 379.936 156.725 380.401 157.157 C 380.569 157.313 380.58 157.577 380.423 157.746 C 380.317 157.86 380.155 157.904 380.005 157.862 C 379.573 157.739 379.075 157.83 378.645 157.914 C 378.243 157.994 377.794 158.09 377.447 158.322 C 376.762 158.783 375.904 158.925 375.094 158.947 C 374.054 158.975 373.009 158.83 371.987 158.652 C 370.348 158.366 368.739 157.906 367.148 157.427 L 367.146 157.427 C 364.79 156.717 362.453 155.948 360.122 155.161 C 356.96 154.092 353.812 152.984 350.67 151.859 C 346.68 150.43 342.691 148.995 338.704 147.557 C 334.044 145.877 329.379 144.208 324.713 142.546 C 324.705 142.543 324.698 142.54 324.69 142.537 C 319.742 140.775 314.753 139.128 309.73 137.592 C 304.81 136.088 299.896 134.566 294.987 133.026 C 294.983 133.025 294.98 133.024 294.975 133.023 C 288.349 130.964 281.824 128.468 275.679 125.229 C 275.503 125.136 275.436 124.917 275.529 124.741 C 275.61 124.586 275.789 124.512 275.955 124.565 L 275.955 124.565 Z  M 139.932 144.256 C 140.019 144.244 140.109 144.266 140.184 144.324 C 140.785 144.785 141.435 145.185 142.075 145.588 C 143.243 146.324 144.427 147.033 145.614 147.738 C 148.367 149.375 151.173 150.926 154.041 152.354 C 157.095 153.874 160.185 155.324 163.291 156.737 C 167.189 158.51 171.014 160.444 174.795 162.455 C 179.216 164.807 183.643 167.149 188.073 169.485 C 192.749 171.95 197.467 174.336 202.222 176.646 C 206.678 178.812 211.136 180.976 215.595 183.135 C 219.451 185.001 223.302 186.875 227.147 188.762 C 230.28 190.3 233.425 191.815 236.596 193.272 C 239.038 194.394 241.481 195.517 243.922 196.642 C 244.919 197.102 245.899 197.602 246.838 198.173 C 247.571 198.619 248.286 199.109 248.924 199.684 C 249.042 199.79 249.051 199.971 248.945 200.089 C 248.883 200.158 248.791 200.192 248.699 200.181 C 247.849 200.08 247.013 199.878 246.193 199.64 C 245.142 199.335 244.112 198.96 243.097 198.551 C 240.589 197.541 238.113 196.449 235.656 195.32 C 232.468 193.855 229.324 192.29 226.203 190.685 C 226.197 190.683 226.191 190.678 226.185 190.675 C 222.385 188.721 218.58 186.774 214.775 184.831 C 214.769 184.829 214.762 184.824 214.756 184.821 C 210.347 182.57 205.914 180.371 201.464 178.204 C 196.695 175.882 191.962 173.483 187.269 171.01 C 182.837 168.674 178.419 166.306 174.027 163.897 C 174.024 163.896 174.021 163.894 174.018 163.893 L 174.018 163.891 C 170.294 161.849 166.528 159.879 162.688 158.063 C 162.685 158.062 162.68 158.058 162.678 158.057 C 159.582 156.593 156.506 155.084 153.474 153.491 C 153.471 153.489 153.466 153.487 153.462 153.486 C 150.604 151.984 147.833 150.316 145.139 148.536 C 145.133 148.533 145.126 148.528 145.12 148.524 C 143.964 147.76 142.809 146.994 141.665 146.212 C 141.025 145.775 140.381 145.34 139.766 144.868 C 139.615 144.752 139.587 144.537 139.703 144.387 C 139.76 144.311 139.844 144.267 139.931 144.255 L 139.932 144.256 Z  M 114.95 185.23 C 115.092 186.21 115.212 187.193 115.366 188.17 C 115.71 190.346 116.063 192.519 116.445 194.688 C 116.883 197.181 117.417 199.657 117.955 202.13 C 118.444 204.38 118.923 206.638 119.487 208.871 C 119.793 210.084 120.137 211.288 120.514 212.482 C 121.084 214.287 121.749 216.064 122.415 217.836 C 122.442 217.909 122.473 217.981 122.5 218.054 C 122.866 218.489 123.244 218.915 123.63 219.332 C 124.6 220.382 125.646 221.358 126.737 222.281 C 128.04 223.384 129.405 224.414 130.8 225.398 C 132.56 226.641 134.394 227.778 136.253 228.867 C 138.554 230.216 140.925 231.445 143.329 232.6 C 145.851 233.812 148.387 234.995 150.942 236.136 C 150.945 236.137 150.947 236.137 150.949 236.138 L 150.951 236.139 C 153.28 237.18 155.607 238.228 157.928 239.286 C 157.939 239.29 157.948 239.295 157.959 239.299 C 157.962 239.3 157.965 239.301 157.968 239.303 C 157.969 239.303 157.97 239.304 157.971 239.305 C 161.034 240.677 164.059 242.143 166.991 243.779 C 167.179 243.884 167.246 244.122 167.141 244.311 C 167.064 244.447 166.916 244.525 166.76 244.509 C 163.352 244.155 160.027 243.14 156.876 241.821 C 156.873 241.821 156.87 241.819 156.867 241.818 L 156.865 241.818 C 154.487 240.84 152.125 239.822 149.776 238.777 C 147.191 237.628 144.625 236.436 142.075 235.211 C 139.6 234.023 137.162 232.749 134.801 231.346 C 134.799 231.346 134.796 231.342 134.792 231.341 C 132.875 230.202 130.997 228.984 129.235 227.615 C 129.218 227.602 129.201 227.589 129.184 227.575 C 127.793 226.491 126.443 225.354 125.169 224.134 C 125.149 224.117 125.131 224.1 125.113 224.083 C 124.97 223.945 124.83 223.804 124.689 223.665 C 125.188 224.867 125.671 226.077 126.085 227.311 C 126.468 228.452 126.99 229.551 127.508 230.635 C 127.939 231.537 128.432 232.409 128.933 233.273 C 129.711 234.613 130.528 235.931 131.358 237.24 C 132.886 239.651 134.441 242.054 136.142 244.348 C 137.506 246.187 138.896 248.004 140.311 249.803 C 141.491 251.305 142.697 252.789 143.901 254.272 C 146.04 256.908 148.189 259.537 150.34 262.164 C 152.497 264.797 154.657 267.426 156.833 270.043 C 158.069 271.531 159.306 273.021 160.578 274.478 L 160.576 274.478 C 161.967 276.071 163.398 277.633 164.908 279.114 C 166.121 280.303 167.368 281.458 168.669 282.55 L 168.669 282.55 C 168.671 282.55 168.673 282.55 168.674 282.55 C 170.27 283.889 172.003 285.067 173.732 286.224 C 173.735 286.224 173.737 286.233 173.74 286.233 C 175.963 287.72 178.222 289.152 180.525 290.512 C 182.925 291.93 185.292 293.404 187.626 294.928 C 189.35 296.054 191.08 297.176 192.851 298.226 C 194.619 299.275 196.465 300.195 198.306 301.108 C 200.196 302.046 202.092 302.982 204.027 303.825 C 205.35 304.401 206.69 304.941 208.042 305.444 C 209.997 306.17 211.994 306.782 213.988 307.391 C 215.926 307.982 217.867 308.579 219.832 309.071 C 221.042 309.375 222.262 309.64 223.489 309.863 C 225.609 310.248 227.713 310.724 229.814 311.201 C 232.244 311.752 234.703 312.173 237.18 312.436 C 241.064 312.849 244.933 313.418 248.795 313.994 C 252.804 314.592 256.828 315.142 260.869 315.479 C 264.193 315.756 267.515 316.062 270.833 316.398 C 273.057 316.624 275.291 316.866 277.527 316.929 C 278.77 316.964 280.015 316.964 281.257 316.908 C 282.101 316.87 282.943 316.758 283.762 316.548 C 284.255 316.422 284.743 316.285 285.229 316.137 C 285.477 316.062 285.723 315.984 285.968 315.903 C 286.147 315.844 286.33 315.794 286.509 315.732 C 286.553 315.716 286.589 315.689 286.634 315.673 C 287.83 315.245 289.041 314.856 290.26 314.497 C 290.267 314.497 290.273 314.488 290.28 314.488 C 292.22 313.918 294.223 313.552 296.211 313.195 C 298.604 312.765 300.979 312.232 303.333 311.624 C 305.869 310.968 308.383 310.222 310.87 309.399 C 313.297 308.595 315.718 307.773 318.128 306.921 C 320.709 306.009 323.274 305.057 325.834 304.09 C 327.032 303.638 328.228 303.181 329.416 302.701 C 330.046 302.447 330.682 302.192 331.294 301.896 C 331.651 301.723 331.984 301.498 332.311 301.275 C 332.964 300.831 333.593 300.349 334.21 299.857 C 335.925 298.49 337.706 297.205 339.575 296.057 C 340.839 295.28 342.085 294.47 343.317 293.641 C 341.039 292.959 338.768 292.259 336.51 291.513 C 334.013 290.688 331.533 289.808 329.066 288.896 C 326.225 287.846 323.383 286.799 320.539 285.756 C 317.438 284.619 314.351 283.442 311.279 282.228 C 308.43 281.101 305.563 280.016 302.671 279.004 C 302.669 279.004 302.667 279.004 302.664 279.004 C 300.245 278.158 297.806 277.364 295.339 276.667 C 292.136 275.763 288.971 274.47 286.256 272.517 C 286.031 272.355 285.98 272.041 286.142 271.816 C 286.244 271.674 286.413 271.595 286.587 271.608 C 289.86 271.856 293.096 272.552 296.25 273.442 C 298.781 274.156 301.286 274.961 303.771 275.819 C 306.714 276.834 309.629 277.926 312.526 279.064 C 315.576 280.262 318.639 281.427 321.715 282.555 C 324.56 283.599 327.403 284.647 330.243 285.705 C 330.244 285.706 330.246 285.705 330.246 285.705 C 330.247 285.706 330.25 285.705 330.252 285.705 C 332.685 286.612 335.126 287.496 337.58 288.343 C 340.208 289.25 342.821 290.2 345.427 291.167 C 345.8 291.305 346.17 291.449 346.542 291.588 C 347.339 291.087 348.121 290.56 348.929 290.075 C 350.367 289.212 351.803 288.34 353.198 287.406 C 354.149 286.77 355.068 286.087 355.952 285.361 C 356.015 285.309 356.087 285.276 356.151 285.227 C 356.177 285.159 356.205 285.092 356.237 285.026 C 356.254 284.99 356.276 284.957 356.295 284.922 C 356.296 284.922 356.296 284.922 356.297 284.913 C 356.297 284.913 356.299 284.905 356.3 284.905 C 356.307 284.892 356.313 284.879 356.32 284.867 C 356.327 284.856 356.333 284.844 356.339 284.833 L 356.341 284.833 C 356.358 284.804 356.376 284.776 356.394 284.747 C 356.413 284.718 356.435 284.69 356.455 284.66 C 356.478 284.628 356.5 284.598 356.524 284.568 C 356.554 284.529 356.586 284.492 356.619 284.455 C 356.632 284.441 356.643 284.425 356.657 284.411 C 356.664 284.402 356.67 284.397 356.677 284.391 C 356.69 284.377 356.701 284.363 356.715 284.349 C 356.751 284.313 356.788 284.279 356.827 284.245 C 356.831 284.245 356.834 284.237 356.838 284.237 C 356.889 284.192 356.944 284.15 357 284.11 C 357.009 284.102 357.019 284.096 357.029 284.089 C 357.112 284.03 357.194 283.968 357.278 283.909 C 357.404 283.818 357.526 283.718 357.645 283.617 C 357.902 283.398 358.162 283.182 358.423 282.967 C 358.552 282.86 358.681 282.753 358.813 282.649 C 358.268 282.483 357.721 282.316 357.174 282.156 C 357.169 282.156 357.164 282.156 357.16 282.156 C 355.473 281.665 353.778 281.199 352.084 280.733 C 350.283 280.238 348.476 279.74 346.709 279.133 C 346.705 279.133 346.701 279.132 346.697 279.133 C 346.684 279.124 346.671 279.123 346.658 279.119 C 346.575 279.09 346.492 279.064 346.409 279.035 C 346.371 279.025 346.332 279.017 346.294 279.008 C 343.935 278.401 341.572 277.811 339.205 277.237 C 338.911 277.165 338.618 277.088 338.324 277.017 C 337.016 276.73 335.707 276.449 334.405 276.138 C 334.377 276.129 334.349 276.126 334.321 276.119 C 332.936 275.787 331.549 275.426 330.148 275.165 C 329.391 275.024 328.637 274.868 327.887 274.699 C 326.615 274.412 325.359 274.048 324.106 273.689 C 324.103 273.688 324.101 273.689 324.099 273.689 C 322.375 273.194 320.656 272.685 318.939 272.167 C 318.936 272.166 318.935 272.167 318.932 272.167 L 318.93 272.167 C 317.608 271.768 316.285 271.369 314.958 270.984 C 313.642 270.603 312.327 270.214 311.013 269.824 C 309.199 269.286 307.394 268.719 305.597 268.126 C 303.827 267.543 302.061 266.944 300.303 266.326 C 300.293 266.326 300.283 266.317 300.274 266.316 C 298.716 265.768 297.152 265.239 295.58 264.734 C 294.826 264.492 294.069 264.259 293.314 264.021 C 292.949 263.917 292.588 263.801 292.23 263.678 C 291.89 263.572 291.55 263.462 291.21 263.357 C 289.853 262.938 288.495 262.53 287.132 262.134 C 285.646 261.701 284.144 261.325 282.637 260.972 C 280.962 260.578 279.293 260.153 277.647 259.653 C 277.641 259.653 277.636 259.652 277.631 259.653 C 277.625 259.653 277.622 259.653 277.616 259.644 C 276.133 259.193 274.656 258.717 273.185 258.229 C 271.904 257.805 270.621 257.375 269.366 256.878 C 268.525 256.545 267.688 256.201 266.856 255.844 C 266.853 255.844 266.852 255.844 266.849 255.835 C 265.619 255.308 264.399 254.759 263.179 254.209 C 263.168 254.2 263.158 254.2 263.148 254.195 C 261.926 253.645 260.703 253.096 259.466 252.579 C 258.498 252.175 257.535 251.76 256.575 251.337 C 255.41 250.823 254.255 250.286 253.1 249.749 C 252.962 249.7 252.823 249.651 252.685 249.602 C 252.09 249.388 251.498 249.166 250.909 248.936 C 250.137 248.636 249.377 248.304 248.621 247.965 C 248.059 247.714 247.498 247.457 246.926 247.228 C 246.44 247.034 245.952 246.843 245.464 246.653 C 244.997 246.472 244.529 246.29 244.056 246.123 C 243.549 245.944 243.033 245.788 242.519 245.63 C 241.896 245.437 241.273 245.242 240.657 245.027 C 240.243 244.882 239.831 244.733 239.42 244.58 C 239.343 244.551 239.266 244.519 239.188 244.49 C 238.64 244.313 238.089 244.146 237.543 243.963 C 236.575 243.638 235.606 243.319 234.632 243.009 C 232.704 242.394 230.769 241.796 228.836 241.193 C 226.87 240.58 224.895 239.982 222.951 239.301 C 222.94 239.297 222.928 239.292 222.917 239.289 C 221.908 238.935 220.903 238.567 219.904 238.187 C 219.898 238.184 219.892 238.182 219.887 238.18 C 218.346 237.592 216.823 236.956 215.302 236.32 C 215.299 236.319 215.296 236.319 215.293 236.318 C 215.286 236.316 215.28 236.312 215.273 236.309 L 215.273 236.308 C 213.797 235.691 212.321 235.075 210.835 234.484 C 209.398 233.912 207.957 233.344 206.518 232.777 C 206.505 232.773 206.492 232.767 206.48 232.762 C 204.216 231.87 201.964 230.947 199.716 230.011 C 197.603 229.132 195.493 228.243 193.403 227.31 C 193.4 227.309 193.394 227.306 193.391 227.305 C 192.138 226.746 190.881 226.183 189.665 225.546 C 188.858 225.123 188.061 224.679 187.276 224.217 C 186.194 223.58 185.123 222.925 184.053 222.27 L 184.053 222.272 C 183.059 221.664 182.066 221.055 181.055 220.478 C 180.92 220.401 180.782 220.331 180.647 220.255 C 174.47 217.5 168.341 214.64 162.308 211.585 C 155.408 208.091 148.585 204.441 141.86 200.62 C 135.532 197.026 129.204 193.432 122.877 189.837 C 120.219 188.326 117.579 186.783 114.95 185.223 L 114.95 185.23 Z  M 206.096 201.891 C 212.263 203.929 218.231 206.544 224.033 209.453 C 228.432 211.659 232.872 213.784 237.339 215.85 C 242.189 218.093 247.119 220.167 252.103 222.095 C 257.315 224.11 262.521 226.137 267.723 228.178 C 272.746 230.148 277.804 232.032 282.902 233.802 C 282.903 233.802 282.905 233.803 282.907 233.803 C 287.43 235.374 291.978 236.877 296.559 238.267 L 296.561 238.269 C 300.489 239.461 304.413 240.67 308.329 241.905 C 308.335 241.908 308.342 241.908 308.348 241.91 C 311.762 242.987 315.161 244.113 318.534 245.311 C 321.409 246.332 324.256 247.447 327.028 248.722 C 327.039 248.73 327.049 248.73 327.059 248.736 C 329.38 249.804 331.664 250.956 333.879 252.232 C 333.88 252.232 333.882 252.232 333.883 252.232 C 333.892 252.24 333.902 252.241 333.912 252.247 C 336.638 253.76 339.412 255.202 342.278 256.436 C 342.46 256.514 342.545 256.726 342.467 256.908 C 342.388 257.091 342.177 257.176 341.994 257.098 C 339.114 255.857 336.267 254.537 333.436 253.189 C 333.433 253.189 333.429 253.189 333.427 253.189 L 333.425 253.189 C 331.116 252.135 328.782 251.137 326.434 250.173 C 323.643 249.028 320.8 248.014 317.934 247.073 C 314.553 245.964 311.153 244.915 307.74 243.908 C 303.801 242.746 299.857 241.595 295.912 240.449 L 295.911 240.449 C 291.28 239.105 286.69 237.624 282.129 236.061 C 276.991 234.3 271.896 232.413 266.84 230.43 C 261.642 228.391 256.447 226.343 251.255 224.287 C 251.253 224.287 251.25 224.285 251.246 224.284 C 246.239 222.301 241.27 220.218 236.354 218.017 C 231.835 215.993 227.352 213.885 222.925 211.666 C 217.146 208.768 211.418 205.762 205.796 202.568 C 205.618 202.467 205.557 202.241 205.658 202.063 C 205.745 201.909 205.929 201.839 206.096 201.894 L 206.096 201.891 Z  M 420.487 219.233 C 420.976 219.239 421.464 219.29 421.944 219.389 C 422.732 219.543 423.507 219.771 424.273 220.011 C 425.535 220.407 426.779 220.858 428.02 221.315 C 429.995 222.042 431.912 222.927 433.804 223.845 C 436.373 225.092 438.867 226.491 441.314 227.961 C 443.92 229.527 446.451 231.221 448.864 233.073 C 450.793 234.554 452.693 236.106 454.38 237.863 C 454.99 238.497 455.576 239.158 456.092 239.871 C 456.503 240.439 456.877 241.048 457.112 241.712 C 457.319 242.295 457.426 242.924 457.322 243.539 C 457.212 244.189 456.863 244.771 456.35 245.183 C 455.693 245.708 454.779 245.866 453.971 245.991 C 452.737 246.183 451.484 246.254 450.238 246.305 C 450.234 246.306 450.231 246.305 450.227 246.305 C 450.22 246.306 450.214 246.305 450.207 246.305 C 447.907 246.4 445.605 246.492 443.303 246.542 C 443.299 246.543 443.295 246.542 443.291 246.542 C 442.19 246.6 441.086 246.649 439.983 246.631 C 439.627 246.622 439.272 246.614 438.918 246.574 C 438.721 246.551 438.495 246.529 438.317 246.432 C 438.218 246.378 438.161 246.267 438.174 246.154 C 438.207 245.862 438.502 245.642 438.73 245.499 C 439.041 245.303 439.389 245.164 439.735 245.046 C 440.804 244.683 441.934 244.498 443.049 244.343 C 443.06 244.343 443.071 244.343 443.081 244.335 C 443.082 244.334 443.084 244.335 443.085 244.335 C 445.392 243.946 447.744 243.801 450.077 243.669 C 451.234 243.604 452.399 243.525 453.543 243.333 C 453.86 243.28 454.181 243.219 454.488 243.12 C 454.513 243.111 454.622 243.058 454.662 243.046 C 454.674 243.016 454.668 242.957 454.666 242.934 C 454.653 242.812 454.619 242.693 454.58 242.577 C 454.434 242.14 454.187 241.733 453.935 241.35 C 453.514 240.71 453.033 240.111 452.534 239.53 C 451.041 237.788 449.296 236.263 447.523 234.815 C 447.514 234.808 447.506 234.801 447.497 234.795 C 445.21 232.929 442.795 231.22 440.299 229.645 C 440.292 229.642 440.286 229.638 440.28 229.633 C 437.918 228.143 435.511 226.719 433.03 225.436 C 433.023 225.432 433.016 225.429 433.009 225.425 C 431.186 224.483 429.343 223.566 427.445 222.781 C 426.242 222.282 425.036 221.788 423.818 221.329 L 423.816 221.329 C 423.109 221.062 422.395 220.801 421.664 220.607 L 421.662 220.607 C 420.819 220.393 419.951 220.29 419.083 220.269 C 418.822 220.263 418.617 220.046 418.624 219.786 C 418.63 219.558 418.797 219.367 419.023 219.332 C 419.507 219.258 419.997 219.22 420.487 219.226 L 420.487 219.233 Z  M 326.793 222.683 C 328.3 222.7 329.805 222.836 331.301 223.02 C 333.226 223.256 335.139 223.579 337.044 223.943 C 341.44 224.783 345.817 225.72 350.176 226.733 C 350.176 226.733 350.179 226.734 350.181 226.734 C 354.897 227.83 359.595 228.996 364.28 230.219 C 364.283 230.219 364.285 230.22 364.287 230.22 C 368.914 231.428 373.531 232.677 378.132 233.981 C 378.134 233.982 378.136 233.984 378.139 233.984 C 382.321 235.17 386.51 236.327 390.709 237.45 C 394.424 238.443 398.153 239.388 401.901 240.253 C 401.902 240.254 401.904 240.253 401.906 240.253 C 401.912 240.254 401.916 240.256 401.921 240.257 C 405.02 240.972 408.131 241.636 411.263 242.187 C 413.707 242.617 416.157 243.022 418.614 243.371 C 420.392 243.624 422.182 243.839 423.978 243.91 C 424.965 243.936 425.953 243.944 426.939 243.886 C 427.56 243.85 428.197 243.799 428.8 243.634 C 429.003 243.579 429.212 243.698 429.268 243.9 C 429.32 244.089 429.219 244.286 429.036 244.356 C 428.393 244.599 427.698 244.704 427.019 244.784 C 426.01 244.903 424.989 244.945 423.973 244.961 C 423.971 244.961 423.969 244.961 423.966 244.961 C 422.127 245.014 420.282 244.883 418.453 244.7 C 415.963 244.451 413.481 244.106 411.009 243.719 C 407.838 243.223 404.687 242.614 401.547 241.95 C 397.756 241.148 393.983 240.256 390.226 239.307 C 386.001 238.239 381.784 237.141 377.572 236.02 L 377.571 236.02 C 372.961 234.794 368.343 233.595 363.721 232.417 C 359.046 231.225 354.358 230.085 349.656 229.011 C 345.321 228.021 340.969 227.099 336.601 226.267 C 334.685 225.903 332.779 225.474 330.907 224.928 C 329.452 224.503 328.007 224.011 326.636 223.36 C 326.459 223.275 326.383 223.063 326.467 222.885 C 326.527 222.76 326.654 222.682 326.793 222.684 L 326.793 222.683 Z  M 378.034 260.133 C 379.376 260.156 380.717 260.25 382.054 260.355 C 383.391 260.425 384.724 260.571 386.052 260.729 C 388.067 260.968 390.075 261.249 392.082 261.544 C 395.74 262.081 399.4 262.614 403.067 263.09 C 405.947 263.464 408.828 263.818 411.711 264.162 C 414.91 264.543 418.114 264.893 421.319 265.214 C 424.719 265.556 428.121 265.875 431.525 266.175 C 434.86 266.469 438.202 266.711 441.546 266.885 C 444.636 267.046 447.729 267.142 450.823 267.156 C 453.704 267.17 456.586 267.156 459.467 267.105 C 463.212 267.038 466.955 266.86 470.696 266.67 C 470.708 266.669 470.72 266.669 470.732 266.67 C 474.035 266.501 477.341 266.315 480.649 266.246 C 482.256 266.213 483.864 266.166 485.469 266.088 C 486.716 266.027 487.963 265.963 489.209 265.888 C 490.072 265.836 490.935 265.777 491.794 265.687 C 492.225 265.641 492.678 265.595 493.093 265.458 C 493.141 265.434 493.169 265.362 493.185 265.317 C 493.287 265.031 493.271 264.699 493.248 264.402 C 493.227 264.134 493.429 263.899 493.697 263.878 C 493.922 263.861 494.127 264 494.197 264.214 C 494.338 264.649 494.448 265.112 494.419 265.572 C 494.39 266.02 494.195 266.441 493.837 266.716 C 493.827 266.724 493.821 266.735 493.811 266.743 C 493.806 266.743 493.801 266.752 493.796 266.753 C 493.791 266.753 493.787 266.762 493.782 266.765 C 493.777 266.765 493.77 266.765 493.765 266.774 C 493.286 267.122 492.694 267.312 492.13 267.467 C 491.255 267.708 490.361 267.884 489.467 268.044 C 488.213 268.268 486.95 268.445 485.686 268.603 C 484.06 268.807 482.43 268.964 480.797 269.1 C 477.51 269.373 474.22 269.611 470.93 269.852 C 467.135 270.131 463.331 270.389 459.525 270.456 C 456.621 270.508 453.716 270.527 450.811 270.521 C 447.664 270.512 444.517 270.425 441.373 270.27 C 437.987 270.103 434.603 269.863 431.226 269.565 C 427.809 269.264 424.394 268.939 420.982 268.588 C 420.981 268.588 420.977 268.588 420.976 268.588 C 417.752 268.255 414.53 267.9 411.312 267.516 C 408.417 267.171 405.526 266.799 402.639 266.39 C 402.632 266.389 402.627 266.389 402.62 266.39 C 398.947 265.869 395.283 265.282 391.621 264.689 C 391.613 264.689 391.607 264.689 391.599 264.689 C 388.31 264.157 385.018 263.633 381.742 263.029 C 380.371 262.813 378.983 262.552 377.676 262.076 C 377.213 261.908 376.752 261.71 376.343 261.433 C 376.082 261.257 375.797 261.026 375.688 260.718 C 375.624 260.539 375.718 260.34 375.898 260.276 C 375.902 260.276 375.907 260.276 375.911 260.276 C 376.188 260.192 376.49 260.176 376.777 260.16 C 377.196 260.138 377.615 260.138 378.034 260.145 L 378.034 260.133 Z  M 207.311 290.879 C 207.379 290.879 207.446 290.892 207.508 290.923 C 210.344 292.369 213.188 293.807 216.029 295.244 C 216.031 295.244 216.032 295.244 216.034 295.244 C 218.537 296.506 221.061 297.728 223.598 298.921 C 223.602 298.921 223.607 298.921 223.612 298.929 C 226.254 300.171 228.927 301.348 231.63 302.451 C 234.051 303.439 236.506 304.351 239.006 305.12 C 241.102 305.765 243.196 306.417 245.287 307.08 C 247.013 307.629 248.73 308.211 250.426 308.848 C 250.447 308.857 250.468 308.862 250.489 308.87 C 251.794 309.361 253.104 309.842 254.426 310.288 C 255.449 310.633 256.477 310.961 257.514 311.262 C 258.382 311.515 259.246 311.792 260.092 312.112 C 260.113 312.121 260.135 312.126 260.155 312.134 L 260.155 312.134 C 260.158 312.134 260.16 312.134 260.162 312.143 C 260.821 312.394 261.476 312.661 262.113 312.967 C 262.113 312.967 262.115 312.967 262.116 312.967 C 263.049 313.395 263.951 313.889 264.834 314.41 C 265.058 314.542 265.134 314.833 265.001 315.057 C 264.883 315.258 264.634 315.341 264.418 315.253 C 263.485 314.875 262.549 314.506 261.606 314.156 L 261.604 314.156 C 260.972 313.935 260.329 313.741 259.685 313.559 C 258.83 313.317 257.965 313.113 257.096 312.927 C 256.015 312.696 254.94 312.439 253.87 312.161 C 252.492 311.804 251.128 311.398 249.769 310.977 C 248.052 310.446 246.321 309.959 244.584 309.498 C 242.459 308.933 240.342 308.339 238.23 307.728 C 235.631 306.977 233.084 306.049 230.58 305.027 C 227.833 303.906 225.119 302.703 222.441 301.424 C 222.439 301.424 222.437 301.424 222.434 301.424 C 219.878 300.202 217.333 298.95 214.811 297.659 L 214.809 297.659 L 214.807 297.659 L 214.805 297.659 C 213.099 296.789 211.433 295.808 209.926 294.621 C 208.806 293.739 207.731 292.726 206.984 291.501 C 206.869 291.312 206.928 291.066 207.117 290.95 C 207.176 290.914 207.244 290.893 207.311 290.891 L 207.311 290.879 Z " fill="rgb(12,12,14)"/></svg>