<?xml version="1.0" encoding="UTF-8" standalone="no"?><!-- Generator: Gravit.io --><svg xmlns="http://www.w3.org/2000/svg" xmlns:xlink="http://www.w3.org/1999/xlink" style="isolation:isolate" viewBox="0 0 142.03 256" width="142.03pt" height="256pt"><g><path d=" M 27.956 244.641 L 12.235 166.416 L 60.984 178 L 95.928 180 L 125 180 L 102.354 250.397 L 71 253 L 27.956 244.641 Z " fill="rgb(113,34,21)"/><path d=" M 139.707 172.394 L 121.79 180 L 63.764 178 L 10.835 165 L 3.628 158.484 L 3.628 137 L 67.559 158.484 L 139.707 155.819 L 139.707 172.394 Z " fill="rgb(69,12,3)"/><path d=" M 5.06 137 L 75.357 138.367 L 132.804 145.805 L 139.707 155.819 L 84.538 158.863 L 26 146.161 L 5.06 137 Z " fill="rgb(142,70,35)"/><path d=" M 75.553 112 Q 94.25 93.625 97 93 Q 99.75 92.375 129 83 L 111.379 103.031 L 78.943 116.958 L 75.553 112 Z " fill="rgb(34,68,41)"/><path d=" M 69 17.727 L 89 3 L 98 9 L 101.904 20 L 119 29 L 112 54.86 L 109.087 70 L 97 77.223 L 82.444 66 L 64.198 76 L 52.216 67 L 55.739 27 L 69 17.727 Z " fill="rgb(93,38,106)"/><path d=" M 90.834 0.028 C 81.419 0.904 73.913 7.626 67.559 14.082 C 57.729 15.532 50.473 26.809 49.392 36.201 C 49.413 42.981 48.744 50.339 52.216 56.46 C 45.437 64.015 50.397 78.479 60.984 78.79 C 66.698 80.441 75.483 73.415 77.472 75.206 C 76.429 95.37 69.931 115.093 71.882 135.412 C 52.015 134.583 32.111 133.548 12.235 133.788 C 7.186 133.562 -3.177 136.466 5.06 139.909 C 23.121 150.814 44.454 153.504 64.606 158.484 C 86.967 162.394 109.908 162.076 132.42 159.867 C 141.462 155.305 134.679 167.1 137.098 172.394 C 127.359 174.463 117.764 178.017 107.618 177.014 C 92.962 177.03 78.392 175.157 63.764 174.554 C 51.635 172.728 39.56 170.44 27.956 166.416 C 19.944 165.112 8.509 162.165 5.96 154.162 C 4.927 150.017 6.304 144.397 3.628 140.777 C 0.301 139.506 0.751 145.4 0.376 146.973 C -1.065 155.727 1.475 164.361 10.835 167.193 C 11.808 167.546 9.367 167.894 10.015 169.006 C 12.796 194.156 19.986 218.593 24.81 243.296 C 26.344 247.354 31.307 247.166 34.43 249.54 C 54.067 256.619 75.353 256.432 95.928 255.593 C 107.252 257.374 106.883 246.876 109.087 239.411 C 115.14 221.223 118.892 202.244 126.975 184.776 C 126.823 177.343 135.319 178.294 139.707 173.85 C 143.832 170.838 140.666 163.628 141.371 158.863 C 143.552 152.859 140.076 148.985 134.491 153.083 C 120.802 155.982 106.594 155.374 92.655 155.819 C 72.662 155.519 53.075 150.91 33.758 146.161 C 26.923 143.776 11.535 140.247 9.693 138.367 C 30.506 137.773 51.332 139.129 72.127 140.027 C 70.611 147.169 78.155 150.114 77.496 141.159 C 84.695 139.516 95.366 141.467 103.728 142.738 C 113.591 144.717 123.56 146.551 133.511 147.721 C 138.578 141.42 121.326 141.786 116.789 140.321 C 103.983 137.458 90.959 135.757 77.827 135.671 C 78.548 127.15 75.108 116.141 87.223 116.958 C 97.358 113.545 106.447 107.599 115.794 102.519 C 123.019 97.312 131.288 90.687 132.804 81.587 C 126.808 77.251 117.833 83.173 110.969 84.635 C 99.245 87.753 88.559 94.05 80.356 103.031 C 81.812 92.582 83.808 82.204 84.538 71.664 C 89.881 77.653 98.228 85.543 105.803 77.223 C 112.692 71.698 117.849 63.269 116.129 54.164 C 109.699 44.28 125.848 40.718 121.79 30.014 C 119.576 20.959 107.034 18.956 102.354 15.251 C 103.623 7.996 99.135 -0.548 90.834 0.028 L 90.834 0.028 Z  M 91.008 6.674 C 96.686 6.549 97.397 14.991 93.436 17.727 C 91.836 21.149 95.962 23.31 98.858 22.738 C 107.425 22.564 122.25 32.104 111.379 40.069 C 101.043 41.866 109.929 49.669 109.537 55.74 C 111.651 63.943 99.097 81.11 92.429 69.732 C 87.023 66.868 85.946 64.055 84.933 59.233 C 83.051 57.511 80.751 59.389 78.943 59.75 C 76.229 61.574 73.146 65.127 76.119 67.8 C 70.907 72.563 56.246 76.309 55.739 65.714 C 53.14 56.977 68.51 65.316 64.198 54.86 C 59.92 52.311 54.688 53.165 56.082 45.602 C 54.259 36.876 58.039 26.684 64.696 22.184 C 64.366 27.253 72.887 27.708 72.054 22.276 C 72.031 13.94 83.989 8.826 91.007 6.677 L 91.008 6.674 Z  M 124.164 86.725 C 116.785 97.796 103.344 102.361 92.355 108.959 C 87.976 110.59 73.289 117.932 82.444 108.609 C 90.82 99.357 101.751 92.633 113.922 89.761 C 117.315 88.681 120.718 87.617 124.164 86.725 L 124.164 86.725 Z  M 75.357 145.805 L 75.553 145.92 L 75.357 145.805 Z  M 12.622 168.36 C 20.134 172.092 28.928 172.003 36.632 175.408 C 51.562 179.127 66.854 181.413 82.26 181.468 C 95.298 182.733 108.555 183.507 121.563 181.669 C 114.442 202.459 107.372 223.334 101.904 244.641 C 99.815 253.836 84.889 248.654 77.657 250.397 C 62.054 250.687 45.626 248.537 31.266 243.366 C 25.99 222.889 20.284 202.475 16.155 181.704 C 14.988 177.271 14.463 172.576 12.622 168.36 L 12.622 168.36 Z " fill="rgb(12,12,14)"/></g></svg>