<?xml version="1.0" encoding="UTF-8" standalone="no"?><!-- Generator: Gravit.io --><svg xmlns="http://www.w3.org/2000/svg" xmlns:xlink="http://www.w3.org/1999/xlink" style="isolation:isolate" viewBox="0 0 493.047 512" width="493.047pt" height="512pt"><ellipse vector-effect="non-scaling-stroke" cx="249.47638714965512" cy="253.05469244927738" rx="238.1187136727408" ry="247.60293895867477" fill="rgb(224,189,242)"/><path d=" M 259.155 0.006 C 264.854 0.047 270.557 0.476 276.184 1.395 C 279.918 2.006 283.655 2.607 287.409 3.08 C 291.168 3.554 294.948 3.883 298.723 4.204 C 299.88 4.302 300.96 4.632 301.936 5.127 C 301.999 5.14 302.064 5.15 302.127 5.162 C 303.114 5.347 304.102 5.533 305.096 5.678 C 306.044 5.817 306.984 6.001 307.917 6.219 C 307.923 6.22 307.931 6.22 307.936 6.222 C 309.303 6.541 310.631 7.012 311.94 7.515 C 313.244 8.018 314.546 8.593 315.717 9.368 C 315.93 9.498 316.138 9.639 316.34 9.794 C 316.568 9.968 316.809 10.124 317.059 10.265 C 317.571 10.555 318.097 10.818 318.627 11.074 C 319.471 11.483 320.307 11.913 321.129 12.365 C 321.319 12.47 321.501 12.559 321.706 12.629 C 321.74 12.64 321.771 12.657 321.805 12.669 C 322.86 13.02 323.866 13.514 324.832 14.061 C 325.179 14.258 325.535 14.44 325.888 14.626 C 327.37 15.11 328.86 15.569 330.329 16.09 C 333.383 17.171 336.369 18.437 339.297 19.822 C 339.3 19.823 339.302 19.823 339.305 19.824 C 339.306 19.825 339.309 19.826 339.311 19.827 C 342.3 21.241 345.247 22.747 348.14 24.35 C 348.146 24.353 348.151 24.357 348.156 24.361 C 350.297 25.547 352.466 26.683 354.678 27.731 C 354.816 27.784 354.956 27.832 355.093 27.885 C 355.185 27.917 355.277 27.951 355.368 27.986 C 356.027 28.243 356.694 28.514 357.375 28.71 C 358.275 28.97 359.158 29.287 360.029 29.634 C 360.053 29.644 360.079 29.646 360.103 29.655 C 360.129 29.666 360.155 29.677 360.18 29.687 C 360.565 29.843 360.934 29.899 361.346 30.041 C 361.363 30.047 361.376 30.057 361.392 30.063 C 362.192 30.302 362.979 30.587 363.745 30.917 C 363.768 30.923 363.791 30.931 363.814 30.936 C 365.107 31.219 366.227 31.817 367.211 32.573 C 367.216 32.576 367.222 32.576 367.227 32.578 C 367.297 32.613 367.367 32.648 367.437 32.685 C 368.067 33.017 368.706 33.346 369.367 33.614 C 370.454 34.055 371.51 34.571 372.532 35.147 C 372.551 35.158 372.572 35.166 372.591 35.176 C 372.878 35.339 373.152 35.522 373.432 35.696 C 374.802 35.802 376.163 36.123 377.406 36.907 C 378.949 37.879 380.444 38.928 381.926 39.989 C 383.98 41.46 386.005 42.97 388.02 44.493 L 388.02 44.496 C 388.022 44.497 388.025 44.499 388.028 44.502 C 389.854 45.882 391.691 47.25 393.565 48.566 C 394.547 49.256 395.535 49.958 396.581 50.55 C 397.332 50.974 397.889 51.579 398.455 52.173 C 398.911 52.48 399.371 52.779 399.818 53.1 C 399.83 53.108 399.843 53.115 399.855 53.124 C 399.879 53.141 399.903 53.157 399.927 53.174 C 400.511 53.597 401.093 54.033 401.71 54.407 C 402.694 55.001 403.732 55.521 404.748 56.057 C 406.448 56.956 408.154 57.888 409.707 59.028 C 410.881 59.89 412.022 60.793 413.159 61.703 C 414.064 62.428 414.973 63.149 415.867 63.886 C 416.127 64.101 416.37 64.33 416.599 64.568 C 417.338 65.26 418.038 65.994 418.702 66.756 C 419.107 67.221 419.516 67.695 419.974 68.111 C 420.949 68.995 421.835 69.975 422.676 70.986 C 422.928 71.288 423.182 71.588 423.44 71.885 C 423.443 71.89 423.447 71.892 423.451 71.896 C 424.319 72.271 425.151 72.757 425.889 73.43 C 428.924 76.197 431.948 78.981 434.9 81.836 C 436.761 83.635 438.632 85.45 440.307 87.426 C 443.235 90.881 445.935 94.535 448.617 98.181 L 448.615 98.181 C 449.372 99.211 450.091 100.276 450.832 101.322 C 451.513 101.869 452.11 102.546 452.557 103.358 C 452.64 103.509 452.717 103.665 452.789 103.822 C 452.975 104.23 453.194 104.623 453.385 105.03 C 454.628 106.926 455.832 108.846 456.907 110.839 C 457.629 112.177 458.216 113.584 458.893 114.946 C 458.917 114.982 458.937 115.022 458.962 115.058 C 459.942 116.49 460.699 118.071 461.206 119.727 C 461.812 121.035 462.499 122.304 463.088 123.619 C 465.68 129.405 468.175 135.236 470.624 141.084 C 471.757 143.789 472.884 146.496 473.984 149.214 C 474.65 150.863 475.318 152.514 475.916 154.189 C 476.019 154.476 476.096 154.772 476.196 155.06 C 476.558 155.135 476.853 155.424 476.898 155.813 C 476.929 156.077 476.829 156.323 476.659 156.508 C 477.132 157.94 477.625 159.366 478.038 160.817 C 478.958 164.052 479.638 167.356 480.298 170.651 C 480.963 173.977 481.607 177.322 481.985 180.694 C 482.262 183.161 482.477 185.635 482.646 188.111 C 482.823 190.711 483.071 193.307 483.362 195.897 C 483.647 198.447 484.035 200.985 484.557 203.497 C 485.243 206.797 485.966 210.091 486.697 213.381 C 487.914 218.859 488.538 224.467 489.005 230.053 C 489.514 236.127 490.066 242.198 490.671 248.264 C 491.296 254.517 491.834 260.78 492.309 267.047 C 492.774 273.191 493.064 279.352 493.046 285.516 C 493.031 290.158 492.956 294.81 492.644 299.443 C 492.314 304.346 492.216 309.266 492.128 314.177 C 492.074 317.16 491.975 320.144 491.742 323.119 C 491.564 325.382 491.321 327.658 490.821 329.875 C 490.096 333.084 489.094 336.227 487.842 339.269 C 486.27 343.087 484.455 346.806 482.616 350.5 C 480.995 353.758 479.374 357.038 478.027 360.421 C 477.424 361.936 476.9 363.482 476.387 365.029 C 475.578 367.471 474.818 369.928 474.074 372.39 C 473.307 374.927 472.527 377.463 471.71 379.984 C 471.163 381.672 470.606 383.358 469.972 385.015 C 469.968 385.026 469.965 385.038 469.961 385.05 C 469.061 387.4 468.036 389.707 466.838 391.921 C 465.736 393.959 464.514 395.931 463.186 397.83 C 461.306 400.519 459.255 403.093 457.213 405.659 C 454.49 409.08 451.773 412.504 449.059 415.932 C 446.804 418.781 444.533 421.636 442.071 424.312 C 439.553 427.049 436.87 429.641 434.197 432.226 C 430.54 435.763 426.812 439.228 423.03 442.632 C 419.691 445.637 416.398 448.698 413.21 451.863 C 410.828 454.229 408.421 456.597 405.826 458.731 C 404.004 460.229 402.107 461.636 400.148 462.948 C 397.733 464.564 395.252 466.079 392.761 467.574 C 390.308 469.046 387.877 470.558 385.512 472.166 C 383.154 473.77 380.755 475.315 378.325 476.809 C 376.016 478.228 373.819 479.824 371.702 481.513 C 369.252 483.466 366.696 485.394 363.865 486.765 C 362.559 487.397 361.214 487.949 359.869 488.492 C 357.892 489.291 355.901 490.052 353.906 490.806 C 349.796 492.358 345.673 493.885 341.531 495.35 C 337.66 496.718 333.776 498.038 329.879 499.329 C 325.628 500.737 321.331 502.01 316.995 503.131 C 312.897 504.19 308.765 505.116 304.598 505.864 C 303.058 506.141 301.518 506.431 299.988 506.761 C 299.048 506.965 298.109 507.177 297.187 507.448 C 295.595 507.916 294.014 508.426 292.452 508.984 C 290.472 509.691 288.458 510.303 286.422 510.824 C 283.978 511.449 281.467 511.803 278.947 511.915 C 276.588 512.02 274.227 512.021 271.866 511.955 C 267.951 511.846 264.037 511.442 260.143 511.047 C 255.07 510.533 249.993 510.065 244.911 509.642 C 238.23 509.085 231.576 508.184 224.946 507.195 C 219.164 506.333 213.375 505.476 207.561 504.858 C 203.015 504.376 198.5 503.604 194.043 502.593 C 191.013 501.906 187.979 501.213 184.921 500.658 C 182.626 500.241 180.346 499.747 178.084 499.18 C 174.732 498.34 171.42 497.329 168.115 496.321 C 164.672 495.271 161.227 494.203 157.851 492.949 C 155.439 492.053 153.051 491.09 150.693 490.063 C 147.408 488.632 144.188 487.052 140.979 485.46 C 137.714 483.841 134.449 482.196 131.313 480.336 C 128.335 478.569 125.423 476.684 122.524 474.791 C 119.1 472.556 115.63 470.397 112.11 468.317 C 108.231 466.025 104.426 463.611 100.682 461.106 C 97.455 458.946 94.244 456.726 91.266 454.227 C 88.889 452.232 86.608 450.125 84.393 447.953 C 81.715 445.326 79.172 442.561 76.705 439.735 C 74.628 437.356 72.61 434.924 70.591 432.495 C 67.169 428.379 63.771 424.241 60.379 420.101 C 57.006 415.982 53.637 411.861 50.282 407.728 C 48.347 405.343 46.409 402.96 44.511 400.546 C 42.204 397.61 39.934 394.645 37.71 391.647 C 34.801 387.725 32.135 383.621 29.521 379.5 C 28.104 377.264 26.714 375.015 25.385 372.725 C 24.368 370.973 23.379 369.198 22.505 367.369 L 22.505 367.366 C 21.388 365.03 20.308 362.661 19.483 360.203 C 18.921 358.528 18.263 356.885 17.583 355.254 C 16.308 352.201 15.131 349.106 13.967 346.009 C 12.819 342.951 11.676 339.881 10.693 336.764 C 10.003 334.579 9.375 332.374 8.814 330.152 C 7.886 326.479 7.096 322.771 6.29 319.07 C 5.401 314.983 4.523 310.89 3.799 306.769 C 3.187 303.286 2.621 299.795 2.069 296.302 C 1.505 292.736 0.975 289.163 0.554 285.577 L 0.554 285.574 C 0.162 282.238 -0.006 278.878 0 275.52 C 0 272.474 0.056 269.429 0.178 266.386 C 0.305 263.225 0.52 260.066 0.78 256.912 C 1.121 252.775 1.722 248.661 2.441 244.574 C 3.019 241.293 3.576 237.999 3.956 234.687 C 4.484 230.08 4.912 225.462 5.356 220.845 C 5.939 214.782 6.291 208.69 6.298 202.597 C 6.298 199.972 6.326 197.346 6.421 194.723 C 6.488 192.872 6.577 191.013 6.818 189.175 C 7.239 185.967 8.063 182.818 9.016 179.731 C 9.906 176.852 10.861 173.986 12.03 171.207 C 12.78 169.422 13.669 167.694 14.556 165.974 C 15.941 163.29 17.378 160.632 18.826 157.982 C 21.647 152.821 24.416 147.625 26.985 142.332 C 29.071 138.035 31.22 133.769 33.451 129.544 C 34.87 126.856 36.314 124.159 37.529 121.369 C 38.408 119.351 39.133 117.266 39.811 115.172 C 40.656 112.557 41.55 109.956 42.539 107.391 C 43.188 105.709 43.984 104.085 44.818 102.488 C 45.882 100.447 47.025 98.444 48.193 96.461 C 49.287 94.603 50.393 92.753 51.547 90.932 C 52.352 89.661 53.174 88.389 54.108 87.208 C 55.538 85.401 57.03 83.643 58.527 81.892 C 60.41 79.689 62.237 77.436 64.024 75.154 C 65.733 72.971 67.474 70.797 69.396 68.795 C 71.988 66.095 74.722 63.527 77.422 60.937 C 80.457 58.025 83.501 55.095 86.733 52.4 C 88.148 51.22 89.626 50.118 91.118 49.038 C 93.135 47.576 95.186 46.163 97.248 44.765 C 99.24 43.415 101.243 42.08 103.288 40.812 C 104.737 39.914 106.211 39.021 107.774 38.331 C 110.141 37.286 112.569 36.377 114.996 35.48 C 117.85 34.425 120.728 33.426 123.637 32.531 C 126.16 31.754 128.624 30.793 131.053 29.762 L 131.053 29.762 C 133.119 28.885 135.226 28.11 137.343 27.366 C 140.144 26.383 142.969 25.464 145.8 24.571 C 151.031 22.921 156.274 21.307 161.567 19.868 C 163.098 19.451 164.628 19.009 166.127 18.489 C 166.82 18.248 167.536 18.008 168.185 17.661 C 169.426 16.997 170.744 16.484 172.053 15.957 C 172.573 15.661 173.129 15.412 173.722 15.222 C 174.931 14.836 176.177 14.561 177.417 14.291 C 179.277 13.885 181.146 13.518 183.015 13.157 C 186.803 12.425 190.564 11.527 194.246 10.37 C 194.321 10.346 194.399 10.329 194.475 10.306 C 194.828 10.155 195.173 9.988 195.532 9.853 C 195.557 9.844 195.578 9.828 195.603 9.819 C 196.705 9.408 197.809 9.004 198.918 8.613 C 200.308 8.122 201.747 7.735 203.219 7.601 C 203.321 7.592 203.521 7.57 203.584 7.556 L 203.587 7.556 C 204.115 7.435 204.639 7.277 205.16 7.127 C 205.944 6.902 206.739 6.707 207.537 6.531 C 207.587 6.517 207.63 6.493 207.681 6.48 C 207.805 6.451 207.931 6.425 208.056 6.401 C 208.679 6.28 209.294 6.115 209.909 5.959 C 210.87 5.715 211.835 5.491 212.811 5.312 C 212.842 5.305 212.869 5.291 212.901 5.285 C 212.947 5.276 212.994 5.269 213.039 5.261 L 213.042 5.261 L 213.045 5.261 C 214.044 5.088 215.051 4.967 216.058 4.851 C 216.068 4.85 216.076 4.847 216.085 4.846 C 216.144 4.839 216.204 4.83 216.263 4.825 C 217.363 4.699 218.459 4.556 219.553 4.396 C 219.564 4.395 219.575 4.392 219.585 4.391 C 220.649 4.235 221.717 4.088 222.788 3.994 C 223.555 3.926 224.321 3.85 225.088 3.773 C 226.449 3.636 227.821 3.603 229.19 3.597 C 229.979 3.335 230.778 3.186 231.575 3.153 C 232.811 2.357 234.181 1.755 235.754 1.67 C 238.694 1.511 241.624 1.194 244.536 0.77 C 249.366 0.068 254.28 -0.029 259.153 0.006 L 259.155 0.006 Z  M 250.104 20.33 C 248.238 20.329 246.372 20.305 244.506 20.341 C 243.969 20.352 243.431 20.378 242.896 20.416 C 241.361 20.523 239.819 20.539 238.282 20.567 C 236.856 20.594 235.425 20.619 233.999 20.668 C 233.65 20.681 233.302 20.677 232.953 20.684 C 231.793 20.98 230.617 21.221 229.45 21.43 C 226.59 21.941 223.711 22.349 220.833 22.742 C 218.009 23.128 215.184 23.525 212.368 23.967 C 210.816 24.21 209.258 24.451 207.723 24.787 C 204.944 25.393 202.211 26.226 199.5 27.078 C 195.184 28.435 190.777 29.495 186.336 30.353 C 184.606 30.687 182.876 31.028 181.153 31.404 C 180.459 31.556 179.711 31.693 179.048 31.905 C 178.146 32.192 177.289 32.655 176.458 33.1 C 176.458 33.101 176.458 33.101 176.458 33.103 L 176.458 33.103 C 174.996 33.885 173.443 34.492 171.879 35.035 C 170.001 35.687 168.092 36.244 166.174 36.765 C 161.107 38.144 156.086 39.695 151.078 41.275 C 148.426 42.112 145.78 42.97 143.156 43.892 C 141.39 44.512 139.63 45.154 137.907 45.885 C 134.924 47.152 131.893 48.316 128.795 49.269 C 126.196 50.069 123.627 50.964 121.077 51.907 C 118.99 52.679 116.893 53.451 114.856 54.351 C 114.616 54.457 114.373 54.6 114.14 54.731 C 113.594 55.04 113.058 55.367 112.525 55.698 C 110.682 56.84 108.878 58.046 107.083 59.262 C 105.172 60.558 103.268 61.868 101.397 63.223 C 100.229 64.069 99.064 64.927 97.956 65.85 C 95.035 68.285 92.296 70.945 89.554 73.575 C 87.028 75.999 84.465 78.399 82.039 80.925 L 82.039 80.925 C 82.039 80.928 82.039 80.931 82.039 80.933 C 80.529 82.508 79.172 84.238 77.828 85.954 C 75.887 88.433 73.903 90.876 71.857 93.269 C 70.504 94.853 69.149 96.44 67.856 98.074 C 67.302 98.775 66.835 99.552 66.358 100.305 C 65.305 101.966 64.295 103.657 63.296 105.352 C 62.281 107.076 61.288 108.814 60.363 110.588 C 59.835 111.6 59.307 112.625 58.896 113.692 C 58.023 115.956 57.237 118.254 56.49 120.562 C 56.2 121.458 55.821 122.322 55.51 123.211 C 55.753 123.377 55.992 123.548 56.226 123.725 C 57.799 124.913 59.235 126.285 60.626 127.678 C 63.739 130.794 66.922 133.841 70.202 136.782 C 73.696 139.916 77.444 142.763 81.273 145.473 C 86.016 148.831 90.863 152.04 95.77 155.152 C 101.117 158.543 106.565 161.774 112.099 164.85 L 112.099 164.853 C 112.099 164.854 112.099 164.854 112.112 164.855 C 119.809 169.178 127.365 173.796 134.516 178.98 C 134.829 179.207 134.897 179.643 134.67 179.957 C 134.487 180.209 134.16 180.313 133.866 180.207 C 125.534 177.211 117.59 173.175 109.953 168.715 C 109.94 168.707 109.927 168.699 109.914 168.691 L 109.914 168.689 C 109.914 168.688 109.914 168.687 109.914 168.686 C 104.397 165.43 98.954 162.047 93.601 158.528 C 88.7 155.305 83.881 151.953 79.205 148.409 C 79.189 148.399 79.175 148.387 79.16 148.375 C 75.335 145.475 71.604 142.418 68.166 139.063 C 68.15 139.049 68.136 139.033 68.121 139.018 L 68.121 139.018 C 64.946 135.915 61.921 132.659 59.001 129.315 C 58.982 129.296 58.966 129.276 58.948 129.256 C 57.709 127.836 56.439 126.428 55.051 125.152 C 54.991 125.096 54.925 125.044 54.865 124.989 C 54.444 126.113 54.095 127.263 53.616 128.362 C 52.226 131.553 50.592 134.643 48.968 137.719 C 46.83 141.769 44.771 145.86 42.771 149.98 C 40.079 155.527 37.18 160.974 34.224 166.383 C 32.842 168.91 31.471 171.442 30.151 174.002 C 29.474 175.314 28.777 176.632 28.205 177.995 C 27.259 180.243 26.498 182.569 25.78 184.897 C 25.119 187.038 24.504 189.227 24.212 191.454 C 24.042 192.744 24 194.057 23.954 195.356 C 23.866 197.776 23.844 200.2 23.842 202.621 C 23.828 209.255 23.456 215.885 22.822 222.487 C 22.821 222.498 22.823 222.508 22.822 222.519 C 22.821 222.529 22.822 222.537 22.822 222.546 C 22.369 227.259 21.929 231.979 21.39 236.684 C 21.39 236.685 21.39 236.686 21.39 236.689 C 20.971 240.346 20.364 243.984 19.726 247.608 C 19.1 251.166 18.569 254.748 18.273 258.35 C 18.033 261.258 17.833 264.171 17.716 267.086 C 17.603 269.906 17.559 272.729 17.554 275.551 C 17.554 278.217 17.674 280.884 17.985 283.532 C 18.379 286.887 18.879 290.231 19.407 293.568 C 19.943 296.962 20.492 300.352 21.086 303.736 C 21.77 307.625 22.603 311.488 23.442 315.345 C 24.206 318.857 24.952 322.379 25.833 325.863 C 26.311 327.756 26.848 329.634 27.435 331.496 C 28.324 334.313 29.362 337.084 30.401 339.849 C 31.49 342.748 32.588 345.647 33.781 348.506 C 34.624 350.523 35.431 352.558 36.127 354.631 C 36.724 356.411 37.539 358.126 38.347 359.817 C 39.019 361.224 39.787 362.584 40.57 363.932 C 41.783 366.023 43.057 368.08 44.352 370.121 C 46.737 373.882 49.162 377.632 51.816 381.211 C 53.944 384.079 56.113 386.914 58.32 389.721 C 60.161 392.064 62.043 394.377 63.921 396.69 C 67.258 400.804 70.611 404.904 73.967 409.002 C 77.331 413.11 80.701 417.215 84.096 421.298 C 86.025 423.619 87.954 425.943 89.939 428.216 C 92.109 430.702 94.342 433.138 96.698 435.449 C 96.698 435.452 96.698 435.456 96.711 435.46 C 98.599 437.312 100.541 439.11 102.567 440.811 C 105.059 442.901 107.766 444.743 110.466 446.55 C 110.558 446.612 110.655 446.666 110.748 446.728 C 110.858 446.364 111.058 446.032 111.371 445.788 C 111.893 445.382 112.577 445.255 113.224 445.243 C 114.322 445.222 115.437 445.701 116.423 446.132 C 118.097 446.863 119.702 447.758 121.279 448.677 C 124.94 450.809 128.612 452.923 132.297 455.015 C 136.394 457.341 140.639 459.409 144.925 461.364 C 148.19 462.853 151.531 464.178 154.876 465.477 C 159.923 467.435 165.008 469.3 170.102 471.133 C 178.908 474.303 187.719 477.48 196.626 480.357 C 196.63 480.358 196.633 480.358 196.637 480.36 C 196.639 480.36 196.641 480.363 196.643 480.363 C 205.367 483.145 214.033 486.114 222.65 489.211 C 224.289 489.449 225.935 489.627 227.572 489.871 C 233.827 490.804 240.104 491.662 246.408 492.187 C 251.594 492.619 256.778 493.097 261.955 493.622 C 265.424 493.974 268.909 494.35 272.397 494.447 C 274.336 494.501 276.279 494.504 278.217 494.418 C 279.534 494.359 280.846 494.183 282.124 493.856 C 282.893 493.66 283.658 493.446 284.416 493.215 C 284.802 493.097 285.184 492.977 285.566 492.85 C 285.845 492.757 286.13 492.68 286.41 492.584 C 286.478 492.557 286.535 492.515 286.605 492.49 C 288.482 491.82 290.38 491.205 292.293 490.643 C 295.32 489.754 298.445 489.182 301.546 488.625 C 305.28 487.955 308.985 487.123 312.657 486.174 C 316.614 485.151 320.536 483.987 324.415 482.702 C 328.202 481.448 331.979 480.166 335.74 478.837 C 339.765 477.414 343.767 475.929 347.761 474.421 C 349.63 473.715 351.499 473 353.351 472.251 C 354.335 471.854 355.324 471.46 356.279 470.998 C 356.836 470.728 357.359 470.376 357.869 470.029 C 358.887 469.335 359.865 468.584 360.829 467.817 C 363.503 465.684 366.283 463.677 369.198 461.886 C 371.398 460.534 373.571 459.137 375.707 457.685 C 378.345 455.89 381.055 454.2 383.791 452.558 C 386.035 451.211 388.276 449.848 390.451 448.392 C 391.935 447.399 393.369 446.337 394.748 445.203 C 396.92 443.418 398.923 441.413 400.916 439.434 C 404.307 436.067 407.807 432.811 411.359 429.614 C 414.985 426.351 418.558 423.029 422.065 419.637 C 424.493 417.289 426.938 414.942 429.226 412.455 C 431.394 410.099 433.384 407.572 435.37 405.063 C 438.093 401.622 440.822 398.183 443.555 394.75 C 445.368 392.473 447.197 390.194 448.866 387.808 C 448.869 387.804 448.871 387.798 448.874 387.794 C 449.82 386.441 450.692 385.037 451.478 383.586 C 452.314 382.039 453.021 380.424 453.65 378.783 C 454.179 377.402 454.637 375.992 455.093 374.585 C 455.874 372.173 456.619 369.75 457.353 367.323 C 458.142 364.714 458.949 362.107 459.807 359.518 C 460.428 357.645 461.068 355.776 461.798 353.942 L 461.798 353.939 C 463.325 350.106 465.141 346.386 466.978 342.695 C 468.631 339.374 470.277 336.035 471.69 332.603 C 472.568 330.471 473.272 328.267 473.78 326.017 C 474.095 324.621 474.211 323.172 474.323 321.747 C 474.529 319.124 474.613 316.49 474.661 313.86 C 474.755 308.661 474.865 303.453 475.215 298.263 C 475.502 294.005 475.564 289.732 475.577 285.465 C 475.595 279.76 475.321 274.056 474.89 268.369 C 474.426 262.242 473.898 256.119 473.287 250.004 C 472.672 243.846 472.111 237.681 471.594 231.514 C 471.193 226.717 470.689 221.885 469.643 217.179 C 468.895 213.811 468.154 210.44 467.452 207.061 C 466.819 204.015 466.345 200.939 465.999 197.848 C 465.68 195.005 465.411 192.154 465.216 189.3 C 465.065 187.079 464.874 184.86 464.625 182.648 C 464.302 179.773 463.736 176.921 463.169 174.087 C 462.601 171.248 462.026 168.395 461.234 165.608 C 460.705 163.748 460.12 161.904 459.469 160.082 C 459.288 159.577 459.077 159.082 458.883 158.581 C 458.157 158.58 457.429 158.596 456.703 158.57 C 453.698 158.463 450.704 158.053 447.738 157.582 C 443.439 156.9 439.183 155.96 434.955 154.934 C 429.412 153.588 423.947 151.931 418.538 150.126 C 418.534 150.125 418.53 150.125 418.525 150.123 L 418.525 150.121 C 411.817 147.882 405.194 145.395 398.624 142.782 C 390.999 139.748 383.403 136.639 375.832 133.475 L 375.829 133.475 C 367.803 130.122 359.754 126.822 351.685 123.575 C 343.517 120.289 335.254 117.24 326.912 114.426 C 318.752 111.674 310.606 108.879 302.478 106.033 L 302.475 106.033 L 302.472 106.03 C 297.037 104.138 291.597 102.15 286.402 99.66 C 284.66 98.825 282.932 97.931 281.325 96.854 C 280.38 96.221 279.388 95.505 278.722 94.565 C 278.497 94.247 278.572 93.808 278.89 93.583 C 279.058 93.464 279.271 93.423 279.47 93.473 C 280.608 93.759 281.73 94.105 282.851 94.45 C 284.523 94.965 286.19 95.5 287.853 96.042 C 293.267 97.808 298.658 99.643 304.046 101.489 C 312.187 104.26 320.334 107.021 328.483 109.77 C 336.914 112.614 345.264 115.702 353.513 119.039 C 361.595 122.309 369.656 125.634 377.692 129.016 C 377.693 129.017 377.696 129.019 377.698 129.019 C 385.24 132.194 392.8 135.332 400.38 138.416 C 406.841 141.045 413.352 143.557 419.943 145.84 C 419.947 145.841 419.95 145.841 419.954 145.843 C 419.961 145.844 419.971 145.85 419.978 145.854 C 425.27 147.686 430.603 149.405 436.003 150.89 C 440.101 152.017 444.224 153.07 448.395 153.893 C 451.194 154.445 454.021 154.951 456.868 155.179 C 456.879 155.179 456.89 155.178 456.9 155.179 C 457.119 155.196 457.338 155.203 457.557 155.219 C 456.557 152.755 455.539 150.3 454.512 147.848 C 452.119 142.132 449.68 136.434 447.146 130.779 C 445.389 126.855 443.581 122.942 441.538 119.157 C 439.529 115.436 437.051 111.957 434.55 108.557 C 433.461 107.076 432.29 105.655 431.18 104.186 C 431.157 104.168 431.136 104.15 431.113 104.132 C 431.043 104.077 430.974 104.022 430.906 103.965 C 430.753 103.837 430.606 103.702 430.461 103.563 C 430.414 103.518 430.363 103.478 430.317 103.432 C 430.292 103.407 430.271 103.378 430.246 103.352 C 430.131 103.234 430.022 103.109 429.913 102.982 C 429.831 102.888 429.745 102.795 429.668 102.698 C 429.652 102.678 429.636 102.659 429.62 102.639 C 429.504 102.489 429.387 102.339 429.271 102.189 L 429.269 102.186 C 429.199 102.111 429.128 102.04 429.056 101.968 C 428.443 101.36 427.86 100.721 427.304 100.062 C 427.254 100.002 427.204 99.943 427.15 99.886 C 426.216 99.1 425.388 98.189 424.581 97.278 C 423.752 96.342 422.94 95.386 422.196 94.381 C 421.925 94.016 421.564 93.696 421.232 93.386 C 420.556 92.753 419.865 92.133 419.15 91.544 C 418.283 90.828 417.43 90.088 416.645 89.281 C 416.152 88.774 415.626 88.297 415.104 87.82 C 414.506 87.272 413.901 86.732 413.27 86.222 C 412.548 85.639 411.831 85.041 411.18 84.378 C 410.502 83.687 409.883 82.938 409.264 82.195 L 409.264 82.192 C 408.943 81.808 408.618 81.417 408.247 81.079 C 407.298 80.218 406.427 79.273 405.585 78.308 C 405.571 78.293 405.556 78.279 405.542 78.263 C 405.317 78.004 405.09 77.747 404.853 77.499 C 404.802 77.446 404.751 77.393 404.698 77.342 C 403.893 76.679 403.075 76.029 402.26 75.377 C 401.314 74.62 400.365 73.864 399.388 73.147 L 399.385 73.147 C 398.442 72.454 397.403 71.878 396.39 71.297 C 395.21 70.618 394.02 69.945 392.868 69.218 C 392.853 69.208 392.836 69.2 392.82 69.191 C 392.754 69.15 392.687 69.108 392.621 69.066 C 391.702 68.476 390.81 67.847 389.919 67.216 C 388.478 66.196 387.043 65.168 385.609 64.138 C 384.185 63.116 382.767 62.085 381.379 61.013 C 381.36 60.999 381.34 60.988 381.321 60.973 C 381.296 60.954 381.271 60.934 381.246 60.915 C 380.644 60.448 380.024 60.006 379.407 59.56 C 378.864 59.173 378.307 58.806 377.767 58.415 C 377.711 58.375 377.653 58.336 377.596 58.295 C 377.171 58.008 376.75 57.712 376.313 57.441 C 375.611 57.005 374.904 56.578 374.192 56.158 C 373.31 55.637 372.431 55.111 371.554 54.582 C 370.67 54.049 369.803 53.479 368.982 52.852 C 368.922 52.81 368.86 52.773 368.801 52.729 C 368.689 52.646 368.579 52.56 368.471 52.471 C 367.968 52.055 367.441 51.669 366.914 51.284 C 366.829 51.222 366.74 51.159 366.656 51.097 C 366.361 50.9 366.079 50.685 365.793 50.475 C 365.637 50.37 365.484 50.26 365.335 50.144 C 365.422 50.212 365.313 50.132 365.282 50.113 C 365.161 50.034 365.036 49.958 364.912 49.884 C 364.488 49.632 364.054 49.394 363.618 49.162 C 363.332 49.009 363.047 48.853 362.761 48.699 C 362.263 48.506 361.768 48.306 361.281 48.087 C 360.896 48.055 360.513 48.036 360.126 47.951 C 360.056 47.936 359.985 47.92 359.916 47.903 C 358.114 47.461 356.33 46.953 354.56 46.399 C 352.189 45.657 349.888 44.701 347.636 43.657 C 345.559 42.694 343.535 41.624 341.513 40.551 C 341.172 40.406 340.838 40.245 340.488 40.125 C 339.873 39.913 339.258 39.704 338.641 39.496 C 337.864 39.235 337.096 38.946 336.338 38.634 C 335.74 38.388 335.097 38.226 334.475 38.051 C 333.276 37.713 332.075 37.362 330.918 36.896 L 330.916 36.896 C 330.282 36.64 329.652 36.378 329.023 36.11 C 328.423 35.855 327.813 35.618 327.202 35.389 C 326.19 35.009 325.173 34.644 324.154 34.282 C 322.9 33.835 321.651 33.371 320.428 32.844 C 319.872 32.605 319.312 32.371 318.742 32.168 C 317.679 31.788 316.598 31.455 315.521 31.114 C 314.263 30.715 313.003 30.318 311.749 29.903 C 310.985 29.649 310.224 29.388 309.465 29.117 C 308.532 28.784 307.613 28.411 306.702 28.021 C 306.108 27.766 305.502 27.543 304.887 27.345 C 303.58 26.922 302.213 26.646 300.875 26.344 C 298.935 25.906 296.994 25.473 295.051 25.047 C 293.25 24.653 291.453 24.235 289.66 23.804 C 288.138 23.438 286.613 23.092 285.076 22.79 C 283.822 22.543 282.564 22.318 281.302 22.122 C 280.004 21.92 278.698 21.766 277.391 21.635 C 276.411 21.536 275.429 21.425 274.444 21.379 C 273.15 21.318 271.861 21.132 270.582 20.929 C 269.867 20.816 269.15 20.69 268.431 20.612 C 268.122 20.579 267.804 20.583 267.494 20.58 C 266.382 20.572 265.27 20.53 264.158 20.485 C 264.087 20.483 264.014 20.481 263.943 20.479 C 262.544 20.421 261.145 20.401 259.745 20.402 C 258.449 20.403 257.151 20.403 255.856 20.365 C 253.955 20.307 252.049 20.332 250.148 20.33 L 250.104 20.33 Z  M 121.732 63.425 C 122.113 63.374 122.504 63.548 122.712 63.899 C 122.963 64.324 122.862 64.871 122.475 65.177 C 121.063 66.292 119.69 67.503 118.567 68.917 C 117.916 69.737 117.293 70.676 117.066 71.714 C 116.851 72.995 116.844 74.304 117.041 75.588 C 117.157 76.337 117.426 77.063 117.715 77.76 C 118.178 78.878 118.742 79.955 119.336 81.007 C 121.072 84.081 123.153 86.958 125.31 89.747 C 128.086 93.337 131.134 96.713 134.334 99.929 C 138.377 103.993 142.79 107.684 147.308 111.205 C 153.394 115.948 159.686 120.43 166.049 124.792 C 173.722 130.052 181.694 134.867 189.839 139.358 C 198.378 144.067 207.154 148.349 216.137 152.144 C 224.781 155.796 233.579 159.087 242.52 161.94 C 250.65 164.534 258.849 166.92 267.132 168.976 C 274.741 170.864 282.327 172.853 289.882 174.949 C 289.9 174.953 289.917 174.96 289.935 174.965 C 289.94 174.966 289.946 174.966 289.951 174.968 C 289.958 174.97 289.965 174.973 289.972 174.976 C 295.24 176.411 300.473 177.996 305.611 179.845 C 309.734 181.328 313.809 182.976 317.718 184.961 C 318.147 185.179 318.319 185.704 318.101 186.132 C 317.937 186.456 317.587 186.642 317.226 186.601 C 312.893 186.107 308.589 185.369 304.312 184.522 C 298.972 183.464 293.671 182.226 288.394 180.891 C 288.389 180.89 288.384 180.889 288.38 180.888 C 288.379 180.888 288.377 180.885 288.375 180.885 C 280.777 179.003 273.18 177.127 265.58 175.255 C 257.153 173.18 248.813 170.759 240.547 168.121 C 231.419 165.209 222.437 161.847 213.615 158.112 L 213.612 158.109 C 204.426 154.221 195.451 149.84 186.716 145.023 C 178.388 140.431 170.246 135.49 162.428 130.073 C 162.428 130.069 162.414 130.067 162.414 130.062 C 155.971 125.598 149.606 121.012 143.455 116.151 C 143.455 116.147 143.442 116.141 143.439 116.137 C 138.753 112.434 134.188 108.539 130.02 104.254 C 130.02 104.249 130.006 104.245 130.001 104.238 C 129.987 104.229 129.986 104.221 129.978 104.212 C 126.653 100.79 123.539 97.144 120.804 93.231 C 120.774 93.193 120.747 93.153 120.72 93.114 C 118.55 89.994 116.489 86.762 114.863 83.32 C 114.254 82.029 113.699 80.707 113.288 79.338 C 112.99 78.347 112.79 77.316 112.745 76.279 C 112.745 76.27 112.731 76.263 112.731 76.253 C 112.715 76.144 112.708 76.033 112.706 75.923 C 112.706 74.165 113.061 72.421 113.755 70.806 C 113.755 70.792 113.769 70.778 113.769 70.764 C 113.769 70.753 113.783 70.743 113.785 70.732 C 113.785 70.722 113.785 70.712 113.799 70.703 C 113.799 70.697 113.812 70.693 113.812 70.687 C 114.394 69.265 115.412 68.057 116.53 67.024 C 117.989 65.676 119.66 64.561 121.365 63.553 C 121.482 63.483 121.608 63.442 121.735 63.425 L 121.732 63.425 Z  M 141.152 207.622 C 141.269 207.582 141.402 207.585 141.522 207.644 C 144.076 208.892 146.67 210.055 149.273 211.197 C 152.895 212.786 156.542 214.322 160.196 215.835 C 160.196 215.835 160.196 215.836 160.196 215.837 C 165.254 217.9 170.317 219.953 175.385 221.994 C 182.77 224.969 190.247 227.719 197.716 230.473 C 207.735 234.167 217.617 238.227 227.331 242.659 C 236.741 246.953 246.204 251.134 255.721 255.187 C 262.177 257.936 268.633 260.688 275.084 263.45 C 278.243 264.802 281.408 266.146 284.553 267.53 C 284.746 267.615 284.832 267.84 284.747 268.034 C 284.683 268.179 284.536 268.271 284.377 268.262 C 283.009 268.186 281.643 267.786 280.334 267.408 C 278.301 266.82 276.301 266.126 274.312 265.406 C 267.696 263.01 261.195 260.291 254.723 257.535 C 245.185 253.473 235.712 249.264 226.298 244.925 L 226.295 244.922 C 216.653 240.477 206.873 236.321 196.987 232.448 C 196.98 232.447 196.976 232.441 196.968 232.44 C 189.545 229.532 182.114 226.625 174.78 223.495 C 174.78 223.494 174.767 223.491 174.764 223.49 C 169.737 221.345 164.723 219.164 159.724 216.955 C 159.724 216.954 159.724 216.954 159.71 216.952 L 159.71 216.949 L 159.71 216.949 C 153.464 214.23 147.21 211.501 141.087 208.511 C 140.847 208.394 140.749 208.104 140.866 207.864 C 140.925 207.744 141.026 207.662 141.143 207.622 L 141.152 207.622 Z  M 164.279 284.226 C 164.417 284.196 164.566 284.214 164.697 284.288 C 179.607 292.666 194.77 300.598 210.052 308.275 C 210.053 308.276 210.056 308.276 210.057 308.277 C 221.279 313.9 232.689 319.147 244.245 324.044 C 256.127 329.08 268.197 333.666 280.414 337.82 C 292.022 341.767 303.751 345.375 315.616 348.471 C 325.959 351.171 336.36 353.661 346.83 355.818 C 355.697 357.644 364.622 359.229 373.602 360.389 C 373.606 360.389 373.611 360.391 373.616 360.391 C 380.972 361.341 388.363 362.073 395.777 362.372 L 395.779 362.372 C 401.507 362.602 407.252 362.685 412.978 362.375 C 417.387 362.136 421.792 361.648 426.115 360.737 C 426.125 360.736 426.135 360.736 426.145 360.732 C 429.669 359.988 433.184 359.192 436.668 358.278 C 436.672 358.277 436.674 358.278 436.678 358.278 C 439.347 357.577 442.007 356.839 444.643 356.026 C 446.299 355.515 448.043 354.904 449.437 353.843 C 450.168 353.287 450.966 352.609 451.317 351.732 C 451.708 350.754 451.753 349.636 451.737 348.596 C 451.661 346.461 451.121 344.369 450.204 342.441 C 450.058 342.136 450.19 341.77 450.497 341.624 C 450.782 341.488 451.122 341.59 451.285 341.861 C 452.487 343.868 453.279 346.105 453.558 348.431 C 453.559 348.434 453.564 348.435 453.564 348.439 C 453.744 349.738 453.845 351.087 453.617 352.387 C 453.361 353.842 452.414 355.082 451.383 356.092 C 449.838 357.607 447.793 358.575 445.799 359.348 C 443.161 360.37 440.479 361.278 437.783 362.132 C 434.265 363.247 430.683 364.15 427.085 364.962 C 427.079 364.963 427.077 364.966 427.071 364.967 L 427.071 364.965 C 422.533 365.989 417.902 366.582 413.263 366.913 C 407.392 367.333 401.493 367.326 395.612 367.153 C 388.048 366.93 380.503 366.239 372.995 365.311 C 363.876 364.183 354.815 362.594 345.817 360.74 C 335.261 358.567 324.782 356.024 314.368 353.257 C 314.364 353.256 314.358 353.256 314.354 353.255 C 302.393 350.076 290.578 346.363 278.891 342.295 L 278.875 342.29 C 266.588 338.013 254.459 333.282 242.534 328.08 C 242.527 328.076 242.519 328.073 242.513 328.069 C 230.93 323.015 219.488 317.641 208.223 311.914 C 208.222 311.913 208.221 311.909 208.218 311.908 C 192.883 304.132 177.946 295.442 164.056 285.286 C 163.791 285.092 163.734 284.72 163.927 284.455 C 164.016 284.334 164.141 284.256 164.279 284.226 L 164.279 284.226 Z  M 31.02 297.64 C 31.209 297.676 31.384 297.782 31.504 297.952 C 36.046 304.367 40.573 310.797 44.947 317.328 L 44.947 317.331 C 44.949 317.332 44.947 317.335 44.947 317.336 C 47.272 320.758 49.926 323.947 52.766 326.952 C 56.1 330.48 59.872 333.578 63.826 336.386 C 68.411 339.642 73.328 342.415 78.414 344.805 C 83.935 347.4 89.521 349.858 95.16 352.185 C 100.804 354.513 106.47 356.781 112.163 358.986 C 112.176 358.989 112.176 358.994 112.184 358.997 C 120.656 362.283 129.05 365.772 137.353 369.461 C 137.597 369.569 137.707 369.856 137.598 370.1 C 137.503 370.316 137.262 370.431 137.034 370.371 C 128.205 368.084 119.508 365.282 111.008 361.973 L 111.008 361.973 L 111.008 361.973 C 105.3 359.748 99.617 357.456 93.96 355.105 L 93.96 355.102 C 88.286 352.743 82.664 350.258 77.105 347.641 C 77.105 347.639 77.091 347.64 77.091 347.638 L 77.091 347.635 C 71.841 345.163 66.778 342.273 62.077 338.864 C 62.077 338.86 62.064 338.857 62.064 338.853 C 57.99 335.898 54.134 332.598 50.796 328.823 C 50.782 328.812 50.774 328.8 50.763 328.788 C 47.945 325.596 45.333 322.207 43.086 318.587 C 43.086 318.578 43.072 318.57 43.069 318.561 C 43.068 318.558 43.069 318.558 43.069 318.555 C 43.069 318.553 43.068 318.55 43.069 318.547 C 38.894 311.909 34.577 305.36 30.247 298.822 C 30.012 298.468 30.109 297.989 30.462 297.754 C 30.635 297.64 30.84 297.604 31.029 297.64 L 31.02 297.64 Z  M 186.275 401.575 C 192.016 403.207 197.733 404.922 203.447 406.643 C 212.461 409.358 221.459 412.119 230.456 414.887 C 230.46 414.889 230.466 414.886 230.47 414.887 L 230.47 414.89 C 239.432 417.648 248.393 420.413 257.345 423.204 C 262.935 424.946 268.524 426.688 274.097 428.485 C 281.311 430.811 288.537 433.096 295.784 435.316 C 302.16 437.268 308.58 439.083 315.046 440.714 C 320.523 442.096 326.029 443.374 331.58 444.42 C 331.584 444.42 331.587 444.424 331.591 444.425 C 335.849 445.227 340.12 445.973 344.411 446.581 C 347.595 447.033 350.798 447.396 354.013 447.529 C 357.961 447.692 361.91 447.843 365.859 447.995 C 368.047 448.079 370.239 448.125 372.428 448.069 C 373.958 448.03 375.497 447.952 377.01 447.715 C 377.454 447.646 377.869 447.949 377.939 448.394 C 378.001 448.793 377.763 449.179 377.377 449.299 C 375.825 449.784 374.206 450.051 372.596 450.258 C 370.362 450.544 368.111 450.691 365.861 450.782 C 361.901 450.943 357.939 451.095 353.976 451.144 C 353.971 451.144 353.967 451.147 353.962 451.147 L 353.962 451.144 C 350.616 451.185 347.268 450.962 343.94 450.633 C 343.934 450.632 343.929 450.636 343.924 450.636 L 343.924 450.633 C 339.525 450.198 335.15 449.54 330.795 448.793 C 325.129 447.822 319.511 446.578 313.928 445.213 C 307.369 443.609 300.864 441.791 294.408 439.815 L 294.405 439.815 C 287.138 437.589 279.886 435.303 272.649 432.984 C 258.163 428.342 243.61 423.911 229.069 419.445 C 220.027 416.668 211.015 413.748 202.175 410.373 C 198.842 409.1 195.532 407.759 192.289 406.271 C 190.047 405.242 187.829 404.147 185.711 402.879 C 185.371 402.676 185.26 402.237 185.463 401.897 C 185.63 401.619 185.963 401.486 186.275 401.575 L 186.275 401.575 Z  M 112.743 447.066 C 112.387 447.044 112.008 447.094 111.926 447.481 C 111.925 447.486 111.926 447.489 111.926 447.494 C 114.92 449.468 117.937 451.412 121.024 453.236 C 124.769 455.449 128.462 457.748 132.104 460.126 C 134.793 461.882 137.491 463.632 140.255 465.271 C 143.013 466.908 145.896 468.343 148.768 469.767 C 151.717 471.23 154.672 472.69 157.691 474.005 C 159.755 474.904 161.844 475.748 163.954 476.531 C 167.004 477.664 170.12 478.62 173.231 479.569 C 176.254 480.491 179.283 481.422 182.349 482.191 C 184.236 482.664 186.139 483.079 188.053 483.426 C 191.361 484.026 194.643 484.77 197.921 485.513 C 201.711 486.372 205.548 487.03 209.413 487.44 C 210.22 487.526 211.021 487.671 211.827 487.765 C 206.41 486.419 201.021 484.963 195.677 483.349 C 191.945 482.236 188.251 480.996 184.569 479.728 C 179.35 477.931 174.157 476.058 168.975 474.157 C 168.975 474.156 168.961 474.156 168.961 474.154 C 163.854 472.28 158.758 470.371 153.7 468.367 C 150.313 467.025 146.93 465.657 143.627 464.116 C 143.627 464.115 143.627 464.112 143.613 464.11 C 139.27 462.084 134.974 459.927 130.849 457.482 C 130.835 457.478 130.835 457.475 130.827 457.471 L 130.827 457.468 C 127.18 455.306 123.576 453.069 120.012 450.774 C 119.995 450.764 119.982 450.754 119.967 450.744 C 118.497 449.798 117.009 448.865 115.457 448.058 C 114.957 447.798 114.445 447.548 113.919 447.345 C 113.648 447.241 113.366 447.137 113.077 447.1 C 112.976 447.086 112.861 447.073 112.742 447.065 L 112.743 447.066 Z " fill="rgb(12,12,14)"/></svg>