<?xml version="1.0" encoding="UTF-8" standalone="no"?><!-- Generator: Gravit.io --><svg xmlns="http://www.w3.org/2000/svg" xmlns:xlink="http://www.w3.org/1999/xlink" style="isolation:isolate" viewBox="0 0 493.044 512" width="493.044pt" height="512pt"><ellipse vector-effect="non-scaling-stroke" cx="246.5221362688492" cy="256.0000000000001" rx="238.1187136727408" ry="247.60293895867477" fill="rgb(228,212,65)"/><path d=" M 233.892 0.006 C 228.191 0.048 222.492 0.476 216.866 1.396 C 213.131 2.006 209.392 2.607 205.637 3.081 C 201.878 3.555 198.101 3.884 194.327 4.204 C 193.17 4.302 192.091 4.631 191.116 5.125 C 191.051 5.137 190.984 5.15 190.919 5.162 C 189.933 5.348 188.948 5.533 187.954 5.679 C 187 5.818 186.051 6.003 185.114 6.222 C 183.747 6.541 182.418 7.012 181.11 7.516 C 179.802 8.019 178.497 8.597 177.325 9.374 C 177.115 9.502 176.909 9.642 176.71 9.794 C 176.481 9.969 176.242 10.124 175.991 10.265 C 175.479 10.555 174.949 10.818 174.42 11.075 C 173.575 11.484 172.739 11.913 171.918 12.366 C 171.727 12.47 171.547 12.559 171.343 12.629 C 171.31 12.64 171.28 12.655 171.248 12.667 C 170.191 13.018 169.184 13.513 168.218 14.062 C 167.873 14.257 167.521 14.438 167.17 14.623 C 165.686 15.108 164.192 15.566 162.721 16.087 C 159.667 17.169 156.679 18.437 153.75 19.822 C 153.75 19.823 153.75 19.823 153.737 19.825 C 153.737 19.826 153.737 19.828 153.737 19.828 C 150.778 21.227 147.864 22.718 145 24.302 C 144.986 24.309 144.977 24.312 144.966 24.318 C 144.947 24.329 144.929 24.339 144.91 24.35 C 142.76 25.542 140.579 26.684 138.356 27.736 C 138.132 27.823 137.904 27.899 137.68 27.986 C 137.02 28.244 136.357 28.514 135.676 28.71 C 134.779 28.969 133.899 29.287 133.032 29.632 C 133.004 29.642 132.974 29.644 132.945 29.656 C 132.921 29.665 132.896 29.677 132.87 29.687 C 132.485 29.843 132.114 29.899 131.702 30.041 C 131.685 30.047 131.673 30.057 131.657 30.063 C 130.853 30.303 130.064 30.588 129.295 30.92 C 129.275 30.924 129.255 30.931 129.234 30.936 C 127.943 31.219 126.826 31.815 125.843 32.57 C 125.843 32.573 125.829 32.576 125.824 32.578 C 125.753 32.613 125.68 32.648 125.611 32.685 C 124.981 33.017 124.344 33.343 123.683 33.611 C 122.576 34.06 121.499 34.587 120.46 35.177 C 120.173 35.339 119.901 35.522 119.621 35.696 C 118.249 35.802 116.886 36.122 115.641 36.907 C 114.099 37.879 112.606 38.928 111.124 39.989 C 109.121 41.424 107.146 42.896 105.18 44.382 L 105.18 44.384 C 105.131 44.42 105.082 44.457 105.033 44.494 C 103.205 45.876 101.365 47.249 99.489 48.566 C 98.507 49.256 97.518 49.958 96.472 50.55 C 95.722 50.974 95.164 51.58 94.598 52.173 C 94.153 52.473 93.703 52.766 93.267 53.079 C 93.244 53.095 93.218 53.107 93.195 53.124 C 93.172 53.14 93.149 53.157 93.126 53.174 C 92.542 53.597 91.957 54.034 91.339 54.407 C 90.356 55.001 89.32 55.518 88.305 56.055 C 86.604 56.953 84.899 57.888 83.346 59.028 C 82.171 59.89 81.027 60.793 79.89 61.703 C 78.985 62.428 78.08 63.149 77.186 63.886 C 76.924 64.102 76.681 64.332 76.451 64.57 C 75.713 65.262 75.011 65.995 74.348 66.756 C 73.943 67.221 73.533 67.695 73.076 68.111 C 72.101 68.995 71.215 69.975 70.374 70.986 C 70.122 71.288 69.87 71.588 69.612 71.885 C 69.612 71.89 69.599 71.892 69.599 71.896 C 68.73 72.271 67.896 72.757 67.158 73.43 C 64.123 76.197 61.102 78.981 58.149 81.836 C 56.289 83.635 54.415 85.45 52.74 87.426 C 49.812 90.881 47.114 94.535 44.432 98.181 C 43.677 99.207 42.961 100.269 42.223 101.311 C 41.538 101.86 40.942 102.542 40.493 103.358 C 40.409 103.509 40.332 103.665 40.261 103.822 C 40.074 104.23 39.855 104.623 39.665 105.03 C 38.422 106.926 37.215 108.846 36.14 110.839 C 35.416 112.181 34.828 113.593 34.149 114.959 C 34.127 114.991 34.109 115.026 34.088 115.058 C 33.106 116.493 32.345 118.076 31.838 119.735 C 31.233 121.04 30.549 122.307 29.962 123.619 C 27.369 129.405 24.875 135.236 22.425 141.084 C 21.293 143.789 20.166 146.495 19.066 149.214 C 18.399 150.862 17.729 152.514 17.131 154.189 C 16.35 156.374 15.647 158.585 15.012 160.817 C 14.092 164.052 13.411 167.356 12.752 170.651 C 12.086 173.976 11.44 177.322 11.061 180.695 C 10.785 183.161 10.573 185.634 10.404 188.111 C 10.227 190.711 9.978 193.307 9.688 195.897 C 9.402 198.447 9.012 200.985 8.49 203.497 C 7.804 206.797 7.083 210.091 6.352 213.381 C 5.135 218.859 4.512 224.467 4.044 230.053 C 3.536 236.127 2.984 242.199 2.378 248.264 C 1.753 254.517 1.213 260.78 0.738 267.047 C 0.273 273.192 -0.018 279.352 0.001 285.516 C 0.016 290.157 0.091 294.811 0.403 299.443 C 0.733 304.345 0.831 309.267 0.919 314.177 C 0.974 317.16 1.074 320.144 1.308 323.119 C 1.486 325.382 1.728 327.658 2.229 329.875 C 2.953 333.084 3.956 336.227 5.208 339.269 C 6.779 343.087 8.595 346.806 10.433 350.5 C 12.055 353.758 13.675 357.038 15.022 360.421 C 15.626 361.936 16.149 363.482 16.662 365.029 C 17.471 367.471 18.231 369.927 18.976 372.39 C 19.743 374.927 20.522 377.463 21.339 379.984 C 21.89 381.684 22.449 383.382 23.088 385.05 C 23.989 387.4 25.013 389.707 26.211 391.921 C 27.313 393.959 28.535 395.931 29.863 397.83 C 31.743 400.519 33.791 403.093 35.834 405.659 C 38.557 409.08 41.277 412.503 43.99 415.932 C 46.246 418.781 48.516 421.636 50.978 424.312 C 53.497 427.049 56.179 429.641 58.852 432.226 C 62.51 435.763 66.237 439.228 70.019 442.632 C 73.358 445.637 76.648 448.698 79.837 451.863 C 82.219 454.229 84.625 456.597 87.221 458.731 C 89.043 460.229 90.939 461.636 92.899 462.948 C 95.314 464.564 97.798 466.079 100.289 467.574 C 102.741 469.046 105.169 470.558 107.535 472.166 C 109.893 473.77 112.292 475.315 114.722 476.809 C 117.03 478.227 119.227 479.824 121.345 481.513 C 123.795 483.466 126.353 485.392 129.184 486.762 C 130.49 487.394 131.836 487.946 133.18 488.49 C 135.157 489.289 137.148 490.052 139.143 490.806 C 143.254 492.358 147.373 493.885 151.516 495.35 L 151.516 495.35 C 155.385 496.717 159.272 498.039 163.168 499.329 C 167.418 500.737 171.715 502.01 176.052 503.131 C 180.149 504.19 184.281 505.116 188.448 505.864 C 189.989 506.141 191.526 506.431 193.056 506.761 C 193.996 506.964 194.938 507.177 195.859 507.448 C 197.451 507.916 199.03 508.426 200.592 508.984 L 200.592 508.984 C 200.592 508.986 200.606 508.986 200.606 508.987 C 202.582 509.692 204.591 510.304 206.625 510.824 C 209.068 511.449 211.58 511.803 214.1 511.915 C 216.459 512.02 218.821 512.021 221.18 511.955 C 225.097 511.846 229.01 511.442 232.904 511.047 C 237.976 510.533 243.055 510.065 248.136 509.642 C 254.818 509.085 261.471 508.184 268.101 507.195 C 273.881 506.333 279.671 505.476 285.486 504.858 C 290.031 504.376 294.544 503.603 299.001 502.593 C 302.03 501.906 305.067 501.213 308.124 500.658 C 310.419 500.241 312.702 499.747 314.963 499.18 C 318.315 498.34 321.625 497.329 324.929 496.321 C 328.372 495.271 331.82 494.202 335.196 492.949 C 337.608 492.053 339.993 491.09 342.352 490.063 C 345.637 488.632 348.856 487.052 352.065 485.46 C 355.331 483.841 358.596 482.196 361.731 480.336 C 364.711 478.569 367.62 476.684 370.521 474.791 C 373.945 472.556 377.417 470.397 380.937 468.317 C 384.815 466.026 388.619 463.611 392.362 461.106 C 395.59 458.946 398.804 456.726 401.781 454.227 C 404.157 452.233 406.439 450.126 408.654 447.953 C 411.332 445.325 413.873 442.561 416.339 439.735 C 418.416 437.356 420.437 434.924 422.456 432.495 C 425.878 428.379 429.277 424.242 432.667 420.101 C 436.04 415.982 439.407 411.861 442.762 407.728 C 444.697 405.343 446.636 402.96 448.533 400.546 C 450.841 397.61 453.11 394.645 455.334 391.647 C 458.244 387.725 460.909 383.621 463.523 379.5 C 464.94 377.265 466.332 375.012 467.662 372.722 C 468.678 370.97 469.665 369.195 470.54 367.367 C 471.657 365.03 472.739 362.658 473.563 360.2 C 474.125 358.525 474.783 356.882 475.464 355.252 C 476.738 352.199 477.913 349.106 479.077 346.009 L 479.077 346.007 C 480.227 342.948 481.368 339.881 482.351 336.764 C 483.041 334.578 483.669 332.374 484.23 330.152 C 485.159 326.479 485.949 322.771 486.754 319.07 C 487.642 314.983 488.523 310.89 489.248 306.769 C 489.859 303.286 490.426 299.795 490.979 296.302 C 491.542 292.736 492.073 289.16 492.493 285.574 C 492.885 282.238 493.051 278.878 493.044 275.52 C 493.044 272.486 492.988 269.453 492.866 266.421 C 492.865 266.409 492.866 266.398 492.866 266.387 C 492.739 263.225 492.524 260.066 492.264 256.913 C 491.922 252.775 491.323 248.661 490.603 244.574 C 490.025 241.293 489.468 237.999 489.088 234.688 C 488.561 230.081 488.129 225.461 487.685 220.845 L 487.685 220.843 L 487.685 220.84 C 487.102 214.778 486.753 208.688 486.746 202.597 C 486.746 199.972 486.718 197.346 486.623 194.723 C 486.556 192.872 486.468 191.013 486.227 189.175 C 485.805 185.967 484.98 182.818 484.028 179.731 C 483.137 176.852 482.183 173.986 481.014 171.207 C 480.264 169.422 479.375 167.693 478.488 165.974 C 477.103 163.29 475.667 160.632 474.218 157.982 C 471.396 152.821 468.626 147.625 466.057 142.332 C 463.972 138.035 461.823 133.766 459.593 129.542 C 458.174 126.853 456.729 124.159 455.515 121.369 C 454.636 119.351 453.912 117.266 453.234 115.172 C 452.387 112.558 451.491 109.956 450.503 107.391 C 449.854 105.709 449.058 104.086 448.224 102.488 C 447.159 100.447 446.02 98.444 444.851 96.461 C 443.757 94.603 442.648 92.754 441.494 90.932 C 440.689 89.661 439.87 88.389 438.934 87.208 C 437.505 85.401 436.013 83.643 434.517 81.892 C 432.633 79.689 430.807 77.436 429.02 75.155 C 427.312 72.972 425.569 70.797 423.646 68.795 C 421.055 66.095 418.323 63.527 415.623 60.937 C 412.588 58.025 409.544 55.095 406.311 52.4 C 404.897 51.22 403.416 50.118 401.924 49.038 C 399.907 47.577 397.857 46.163 395.796 44.765 C 393.804 43.415 391.798 42.08 389.753 40.812 C 388.305 39.914 386.834 39.021 385.271 38.331 C 382.903 37.286 380.472 36.377 378.046 35.48 C 375.193 34.425 372.317 33.426 369.408 32.531 C 366.886 31.754 364.418 30.793 361.989 29.762 C 359.922 28.885 357.815 28.11 355.696 27.367 C 352.896 26.383 350.073 25.464 347.241 24.571 C 342.011 22.922 336.766 21.305 331.472 19.865 C 329.942 19.449 328.416 19.009 326.914 18.489 C 326.222 18.248 325.503 18.008 324.854 17.661 C 323.611 16.996 322.293 16.482 320.984 15.955 C 320.464 15.66 319.911 15.409 319.32 15.22 C 318.11 14.834 316.862 14.561 315.625 14.291 C 313.764 13.885 311.897 13.518 310.027 13.157 C 306.241 12.426 302.478 11.526 298.796 10.37 L 298.796 10.37 C 298.728 10.348 298.657 10.333 298.588 10.311 C 298.205 10.147 297.831 9.964 297.441 9.819 C 296.34 9.408 295.235 9.004 294.127 8.613 C 292.737 8.122 291.297 7.735 289.825 7.601 C 289.723 7.592 289.518 7.57 289.457 7.556 C 288.929 7.435 288.406 7.278 287.884 7.127 C 287.1 6.902 286.305 6.707 285.507 6.531 C 285.457 6.517 285.415 6.493 285.364 6.481 C 285.24 6.451 285.113 6.425 284.988 6.401 C 284.365 6.28 283.75 6.115 283.135 5.959 L 283.135 5.959 C 283.135 5.958 283.135 5.959 283.135 5.959 C 282.18 5.716 281.22 5.493 280.25 5.315 C 280.216 5.308 280.186 5.292 280.152 5.285 C 280.104 5.276 280.058 5.269 280.011 5.261 C 279.012 5.087 278.004 4.967 276.995 4.851 C 276.981 4.85 276.977 4.847 276.967 4.846 C 276.907 4.839 276.849 4.83 276.789 4.825 C 275.691 4.699 274.592 4.556 273.496 4.396 C 273.478 4.395 273.476 4.392 273.465 4.391 C 272.402 4.235 271.336 4.086 270.265 3.991 C 270.252 3.991 270.249 3.992 270.241 3.991 C 269.533 3.929 268.829 3.86 268.122 3.789 C 268.069 3.782 268.017 3.778 267.962 3.773 C 266.601 3.636 265.23 3.603 263.86 3.597 C 263.071 3.335 262.274 3.186 261.477 3.153 C 260.241 2.357 258.871 1.755 257.298 1.67 L 257.298 1.67 C 254.36 1.511 251.432 1.194 248.519 0.77 C 243.689 0.068 238.771 -0.029 233.899 0.006 L 233.892 0.006 Z  M 242.919 20.328 C 242.932 20.328 242.935 20.331 242.943 20.331 L 242.943 20.328 C 244.809 20.326 246.678 20.305 248.544 20.341 C 249.08 20.352 249.616 20.378 250.152 20.416 C 251.686 20.523 253.23 20.539 254.768 20.568 C 256.194 20.594 257.622 20.62 259.048 20.669 C 259.4 20.681 259.751 20.674 260.102 20.682 C 261.261 20.977 262.435 21.222 263.6 21.431 C 266.461 21.941 269.339 22.35 272.217 22.743 C 275.041 23.128 277.865 23.526 280.68 23.967 C 282.232 24.211 283.792 24.449 285.327 24.785 C 288.106 25.392 290.839 26.227 293.55 27.079 C 297.866 28.436 302.272 29.496 306.714 30.354 C 308.444 30.688 310.176 31.026 311.897 31.402 C 312.591 31.554 313.336 31.694 314 31.905 C 314.905 32.194 315.764 32.657 316.598 33.103 C 318.059 33.886 319.614 34.493 321.179 35.036 C 323.056 35.688 324.964 36.245 326.881 36.766 C 331.947 38.145 336.972 39.696 341.98 41.276 C 344.631 42.112 347.278 42.971 349.902 43.892 C 351.666 44.512 353.429 45.155 355.151 45.886 C 358.133 47.152 361.165 48.316 364.263 49.27 C 366.862 50.069 369.431 50.965 371.981 51.908 C 374.069 52.679 376.162 53.452 378.199 54.351 C 378.439 54.458 378.682 54.601 378.915 54.732 C 379.462 55.041 379.999 55.367 380.533 55.698 C 382.376 56.841 384.181 58.046 385.975 59.263 C 387.886 60.559 389.788 61.869 391.658 63.224 C 392.826 64.07 393.991 64.927 395.1 65.851 C 398.02 68.286 400.763 70.946 403.504 73.576 C 406.03 76 408.592 78.4 411.019 80.926 C 412.532 82.502 413.891 84.233 415.238 85.952 C 417.179 88.431 419.162 90.876 421.209 93.27 C 422.562 94.853 423.916 96.44 425.21 98.074 C 425.764 98.775 426.232 99.552 426.708 100.305 C 427.762 101.967 428.769 103.658 429.767 105.352 C 430.783 107.076 431.778 108.814 432.703 110.588 C 433.232 111.601 433.757 112.626 434.17 113.692 C 435.042 115.957 435.829 118.254 436.576 120.563 C 437.43 123.2 438.356 125.82 439.465 128.363 C 440.855 131.554 442.489 134.643 444.112 137.719 C 446.251 141.769 448.31 145.861 450.309 149.981 C 453.001 155.527 455.9 160.974 458.857 166.384 C 460.238 168.911 461.611 171.443 462.93 174.002 C 463.608 175.315 464.303 176.633 464.876 177.995 C 465.821 180.243 466.579 182.569 467.298 184.898 C 467.96 187.039 468.576 189.228 468.869 191.454 C 469.038 192.745 469.08 194.057 469.127 195.357 C 469.214 197.776 469.235 200.201 469.239 202.621 C 469.239 209.265 469.624 215.907 470.258 222.52 C 470.713 227.242 471.154 231.971 471.693 236.684 C 471.693 236.686 471.693 236.687 471.693 236.69 C 472.113 240.347 472.72 243.985 473.357 247.609 C 473.984 251.167 474.515 254.748 474.813 258.35 C 475.051 261.258 475.25 264.171 475.367 267.087 C 475.481 269.907 475.526 272.73 475.532 275.552 C 475.532 278.217 475.409 280.885 475.098 283.533 C 474.705 286.888 474.206 290.229 473.679 293.566 C 473.143 296.96 472.593 300.353 471.999 303.737 C 471.316 307.626 470.48 311.489 469.641 315.346 C 468.878 318.857 468.13 322.377 467.25 325.861 L 467.25 325.864 L 467.25 325.866 C 466.773 327.758 466.237 329.636 465.651 331.497 C 464.762 334.314 463.722 337.085 462.682 339.85 C 461.594 342.749 460.496 345.648 459.302 348.507 C 458.458 350.524 457.655 352.559 456.959 354.632 C 456.363 356.412 455.548 358.126 454.739 359.817 C 454.067 361.224 453.298 362.585 452.516 363.933 C 451.302 366.024 450.027 368.08 448.734 370.122 C 446.347 373.883 443.924 377.633 441.269 381.212 C 439.143 384.08 436.97 386.915 434.763 389.722 C 432.923 392.065 431.042 394.377 429.163 396.691 C 425.826 400.804 422.475 404.905 419.119 409.003 C 415.753 413.111 412.382 417.216 408.987 421.299 C 407.057 423.62 405.131 425.943 403.147 428.217 C 400.975 430.703 398.745 433.139 396.388 435.45 C 394.496 437.305 392.551 439.108 390.521 440.811 C 388.03 442.902 385.322 444.744 382.623 446.55 C 379.152 448.874 375.625 451.112 372.028 453.237 C 368.283 455.45 364.588 457.749 360.947 460.126 C 358.257 461.882 355.56 463.633 352.798 465.272 C 350.04 466.909 347.156 468.344 344.285 469.768 C 341.336 471.231 338.378 472.691 335.359 474.006 C 333.295 474.905 331.208 475.749 329.098 476.532 C 326.047 477.665 322.93 478.621 319.819 479.57 C 316.797 480.492 313.767 481.423 310.701 482.192 C 308.815 482.665 306.912 483.079 304.997 483.427 C 301.689 484.027 298.408 484.771 295.132 485.514 C 291.341 486.373 287.5 487.031 283.637 487.441 C 277.577 488.085 271.543 488.973 265.517 489.872 C 259.262 490.804 252.985 491.662 246.68 492.187 C 241.496 492.62 236.313 493.097 231.137 493.622 C 227.668 493.974 224.181 494.35 220.692 494.447 C 218.753 494.502 216.812 494.504 214.875 494.418 C 213.558 494.36 212.245 494.184 210.967 493.857 C 210.199 493.66 209.433 493.446 208.675 493.215 C 208.288 493.098 207.907 492.977 207.525 492.85 C 207.244 492.757 206.956 492.679 206.674 492.581 C 206.607 492.556 206.552 492.515 206.485 492.491 C 204.607 491.82 202.71 491.206 200.798 490.644 L 200.798 490.644 C 197.774 489.754 194.649 489.183 191.548 488.626 L 191.548 488.626 C 187.816 487.955 184.11 487.123 180.437 486.174 C 176.481 485.151 172.562 483.988 168.682 482.703 C 164.896 481.449 161.118 480.167 157.358 478.838 C 153.332 477.415 149.327 475.93 145.333 474.421 C 143.465 473.716 141.599 473.001 139.746 472.252 C 138.763 471.854 137.773 471.46 136.818 470.998 C 136.261 470.729 135.739 470.376 135.229 470.029 C 134.21 469.336 133.232 468.585 132.269 467.817 C 129.594 465.685 126.812 463.678 123.897 461.886 C 121.697 460.534 119.523 459.138 117.388 457.685 C 114.749 455.891 112.042 454.201 109.306 452.558 C 107.062 451.211 104.821 449.849 102.646 448.392 C 101.163 447.4 99.728 446.337 98.35 445.203 C 96.177 443.418 94.174 441.413 92.182 439.435 C 88.79 436.068 85.29 432.811 81.739 429.615 C 78.112 426.351 74.539 423.027 71.032 419.635 C 68.604 417.287 66.159 414.939 63.871 412.453 C 61.703 410.097 59.711 407.572 57.725 405.063 C 55.001 401.622 52.275 398.184 49.542 394.751 C 47.726 392.47 45.892 390.186 44.22 387.795 C 43.274 386.442 42.405 385.038 41.62 383.586 C 40.783 382.04 40.076 380.425 39.448 378.784 C 38.918 377.403 38.461 375.993 38.005 374.586 C 37.223 372.174 36.478 369.751 35.745 367.324 C 34.956 364.714 34.149 362.107 33.291 359.519 C 32.669 357.645 32.027 355.774 31.297 353.94 C 29.77 350.107 27.954 346.387 26.116 342.696 C 24.464 339.374 22.82 336.036 21.407 332.604 C 20.53 330.472 19.826 328.268 19.318 326.018 C 19.002 324.621 18.884 323.172 18.772 321.748 C 18.566 319.125 18.484 316.491 18.437 313.861 C 18.343 308.662 18.233 303.454 17.883 298.264 C 17.596 294.006 17.534 289.733 17.521 285.465 C 17.503 279.761 17.777 274.057 18.208 268.37 C 18.672 262.243 19.2 256.12 19.81 250.005 C 20.425 243.847 20.984 237.682 21.501 231.515 C 21.902 226.717 22.409 221.887 23.454 217.18 C 24.203 213.811 24.94 210.441 25.643 207.062 C 26.276 204.017 26.75 200.939 27.096 197.849 L 27.096 197.846 C 27.414 195.004 27.687 192.154 27.881 189.301 C 28.033 187.08 28.224 184.861 28.472 182.649 C 28.795 179.774 29.361 176.922 29.928 174.088 C 30.496 171.249 31.068 168.396 31.861 165.609 C 32.39 163.748 32.978 161.902 33.628 160.08 C 34.146 158.632 34.729 157.207 35.306 155.781 C 36.378 153.129 37.48 150.488 38.585 147.849 C 40.976 142.139 43.41 136.448 45.94 130.799 C 45.94 130.792 45.954 130.786 45.954 130.78 C 47.712 126.856 49.519 122.943 51.563 119.158 C 51.563 119.154 51.563 119.148 51.563 119.144 C 53.57 115.428 56.044 111.953 58.542 108.557 C 59.63 107.079 60.799 105.659 61.907 104.192 C 61.932 104.172 61.957 104.152 61.982 104.133 C 62.052 104.078 62.121 104.022 62.19 103.965 C 62.342 103.838 62.49 103.703 62.634 103.563 C 62.681 103.518 62.732 103.479 62.778 103.433 C 62.804 103.407 62.824 103.379 62.85 103.353 C 62.965 103.234 63.074 103.109 63.183 102.983 C 63.264 102.889 63.346 102.797 63.423 102.701 C 63.439 102.679 63.459 102.661 63.476 102.64 C 63.592 102.49 63.708 102.339 63.825 102.19 L 63.825 102.187 C 63.894 102.112 63.965 102.041 64.038 101.969 C 64.65 101.361 65.23 100.722 65.787 100.063 C 65.837 100.003 65.889 99.943 65.944 99.887 C 66.876 99.101 67.706 98.19 68.512 97.278 C 69.341 96.342 70.15 95.387 70.895 94.382 C 71.166 94.017 71.53 93.697 71.861 93.386 C 72.538 92.754 73.228 92.134 73.943 91.544 C 74.81 90.829 75.661 90.088 76.445 89.282 C 76.938 88.774 77.467 88.298 77.989 87.82 C 78.588 87.273 79.193 86.733 79.823 86.223 C 80.545 85.64 81.26 85.041 81.91 84.378 L 81.91 84.378 C 82.589 83.688 83.208 82.936 83.827 82.193 C 84.147 81.808 84.472 81.417 84.844 81.08 L 84.844 81.077 C 85.807 80.203 86.691 79.244 87.546 78.264 C 87.771 78.005 88 77.748 88.238 77.5 C 88.288 77.447 88.34 77.394 88.392 77.343 C 89.198 76.68 90.013 76.03 90.828 75.378 C 91.775 74.62 92.725 73.865 93.703 73.147 C 94.646 72.455 95.688 71.879 96.7 71.297 C 97.88 70.619 99.068 69.945 100.219 69.218 C 100.236 69.209 100.252 69.201 100.267 69.192 C 100.334 69.151 100.401 69.109 100.467 69.067 C 101.386 68.477 102.278 67.847 103.169 67.216 C 104.609 66.196 106.044 65.168 107.478 64.139 C 108.903 63.117 110.323 62.085 111.711 61.014 C 111.73 61 111.751 60.989 111.77 60.974 C 111.794 60.955 111.82 60.935 111.845 60.915 C 112.462 60.437 113.098 59.983 113.732 59.526 C 114.258 59.151 114.798 58.794 115.321 58.416 L 115.321 58.416 C 115.358 58.389 115.396 58.363 115.433 58.336 C 115.878 58.034 116.318 57.725 116.775 57.442 C 117.477 57.006 118.184 56.579 118.896 56.158 C 119.778 55.638 120.657 55.111 121.534 54.583 C 122.415 54.052 123.276 53.482 124.095 52.858 C 124.158 52.814 124.225 52.776 124.287 52.73 C 124.399 52.647 124.507 52.561 124.614 52.472 C 125.117 52.055 125.647 51.67 126.174 51.284 C 126.258 51.223 126.345 51.163 126.429 51.101 C 126.431 51.1 126.429 51.099 126.429 51.098 C 126.724 50.9 127.007 50.686 127.292 50.475 C 127.449 50.371 127.602 50.261 127.75 50.145 C 127.663 50.213 127.772 50.133 127.803 50.113 C 127.924 50.034 128.049 49.958 128.173 49.884 C 128.597 49.632 129.029 49.395 129.464 49.163 C 129.75 49.01 130.035 48.854 130.321 48.7 C 130.82 48.506 131.316 48.305 131.804 48.085 C 132.188 48.053 132.573 48.037 132.959 47.952 C 133.029 47.937 133.097 47.921 133.167 47.904 C 134.968 47.462 136.753 46.953 138.523 46.4 C 140.894 45.658 143.197 44.702 145.449 43.658 C 147.523 42.697 149.542 41.625 151.561 40.554 C 151.905 40.409 152.242 40.246 152.594 40.125 C 153.21 39.914 153.827 39.705 154.444 39.497 C 155.221 39.236 155.989 38.946 156.747 38.635 C 157.345 38.388 157.986 38.227 158.607 38.052 C 159.807 37.714 161.011 37.363 162.167 36.896 C 162.801 36.641 163.433 36.376 164.062 36.108 C 164.662 35.853 165.269 35.619 165.88 35.39 C 166.892 35.01 167.911 34.644 168.931 34.282 C 170.185 33.836 171.435 33.369 172.658 32.842 C 173.214 32.603 173.771 32.372 174.34 32.169 C 175.405 31.789 176.488 31.456 177.564 31.115 C 178.822 30.716 180.08 30.319 181.333 29.903 L 181.333 29.903 C 182.097 29.65 182.857 29.386 183.614 29.115 C 184.548 28.782 185.47 28.412 186.38 28.021 C 186.972 27.766 187.579 27.541 188.195 27.343 C 189.501 26.92 190.868 26.646 192.204 26.344 L 192.204 26.344 C 194.143 25.907 196.086 25.473 198.029 25.048 C 199.829 24.654 201.624 24.236 203.417 23.805 L 203.417 23.805 C 204.938 23.439 206.464 23.093 208.001 22.791 C 209.255 22.544 210.513 22.318 211.776 22.122 C 213.073 21.921 214.377 21.766 215.683 21.635 C 216.665 21.537 217.648 21.426 218.633 21.38 C 219.927 21.319 221.216 21.133 222.496 20.93 C 223.21 20.816 223.924 20.688 224.644 20.61 C 224.955 20.577 225.273 20.583 225.583 20.581 C 226.696 20.573 227.808 20.531 228.919 20.485 C 228.99 20.484 229.062 20.481 229.135 20.48 C 230.532 20.422 231.931 20.402 233.332 20.403 C 234.628 20.404 235.926 20.404 237.222 20.365 C 239.114 20.308 241.009 20.33 242.902 20.328 L 242.919 20.328 Z " fill="rgb(26,28,34)"/></svg>