<?xml version="1.0" encoding="UTF-8" standalone="no"?><!-- Generator: Gravit.io --><svg xmlns="http://www.w3.org/2000/svg" xmlns:xlink="http://www.w3.org/1999/xlink" style="isolation:isolate" viewBox="0 0 1024 263.856" width="1024pt" height="263.856pt"><g><path d=" M 91.118 59.84 L 152.993 42.232 L 252.222 24.624 L 417.439 7.181 L 510.908 1.75 L 631.036 1.75 L 757.253 11.295 L 873.596 22.649 L 940.242 31.865 L 940.407 178.816 L 944.85 211.234 L 881.166 196.259 L 740.632 165.486 L 631.365 154.79 L 468.287 154.461 L 371.527 159.069 L 249.918 172.727 L 106.422 198.398 L 96.713 199.715 L 92.6 148.208 L 91.118 59.84 Z " fill="rgb(252,233,223)"/><path d=" M 2.75 246.943 L 25.13 231.365 L 60.675 225.66 L 96.22 232.462 L 106.093 240.58 L 90.515 260.547 L 47.949 261.424 L 2.75 246.943 Z " fill="rgb(208,130,91)"/><path d=" M 89.199 52.764 L 53.434 40.038 L 23.594 43.109 L 5.822 56.055 C 11.496 94.514 14.899 140.839 16 195 L 3.189 246.504 L 22.059 232.242 L 60.017 225.221 L 88.321 230.487 L 105.216 237.508 L 96 192.968 L 91.612 78.874 L 89.199 52.764 Z " fill="rgb(240,205,186)"/><path d=" M 945.344 217.761 L 939.2 163.128 L 940.955 21.168 L 962.677 9.759 L 993.834 11.075 L 1005.901 14.147 L 1007.657 138.554 L 1012.045 182.217 L 1010.948 214.909 L 998.002 208.985 L 962.019 212.276 L 945.344 217.761 Z " fill="rgb(240,205,186)"/><path d=" M 1014.458 216.664 L 998.661 209.643 L 967.504 211.398 L 948.196 217.103 L 944.905 220.833 L 946.441 228.512 L 957.85 237.289 L 979.791 241.458 L 1001.952 233.778 L 1011.606 225.88 L 1014.458 216.664 Z " fill="rgb(208,130,91)"/></g><g><g><path d=" M 561.838 0.02 C 545.294 0.093 528.749 0.323 512.209 0.71 C 496.152 1.086 480.101 1.667 464.061 2.492 C 448.878 3.271 433.698 4.176 418.531 5.223 C 404.032 6.224 389.543 7.35 375.066 8.621 C 361.277 9.832 347.503 11.197 333.748 12.748 C 320.992 14.186 308.244 15.693 295.507 17.288 C 284.27 18.694 273.032 20.111 261.799 21.547 C 251.622 22.848 241.456 24.227 231.301 25.687 C 221.917 27.036 212.546 28.478 203.199 30.063 C 195.03 31.448 186.866 32.862 178.708 34.313 C 178.703 34.313 178.698 34.312 178.694 34.313 L 178.691 34.315 C 169.402 35.967 160.173 37.973 150.98 40.089 C 150.968 40.091 150.961 40.094 150.949 40.096 C 146.408 41.141 141.868 42.199 137.343 43.31 C 134.512 44.004 131.681 44.709 128.878 45.511 C 128.873 45.512 128.869 45.51 128.864 45.511 C 128.841 45.518 128.818 45.525 128.796 45.532 C 125.128 46.584 121.492 47.749 117.911 49.067 C 117.854 49.083 117.799 49.101 117.743 49.122 C 114.256 50.411 110.795 51.772 107.357 53.187 C 105.898 53.787 104.44 54.395 103.002 55.043 C 102.192 55.408 101.359 55.772 100.605 56.246 C 100.603 56.248 100.598 56.244 100.596 56.246 C 100.198 56.497 99.8 56.75 99.403 57.002 C 99.348 57.036 99.345 57.106 99.3 57.149 C 99.236 57.203 99.21 57.27 99.164 57.34 C 99.109 57.432 99.02 57.5 98.999 57.603 C 98.992 57.631 98.959 57.643 98.955 57.672 C 98.943 57.762 98.941 57.853 98.957 57.942 C 98.974 58.044 99.009 58.143 99.06 58.233 C 99.072 58.254 99.102 58.251 99.115 58.27 L 99.115 58.272 C 99.133 58.302 99.174 58.304 99.197 58.331 C 99.263 58.412 99.345 58.448 99.436 58.501 C 99.523 58.557 99.58 58.655 99.682 58.679 C 100.14 58.788 100.596 58.895 101.053 59.004 C 102.066 59.245 103.191 59.039 104.195 58.853 C 105.795 58.557 107.369 58.121 108.93 57.664 C 112.471 56.625 116.013 55.576 119.548 54.515 C 123.155 53.433 126.783 52.431 130.426 51.476 C 133.205 50.748 136.006 50.098 138.805 49.452 C 143.32 48.411 147.842 47.405 152.367 46.413 C 161.496 44.411 170.649 42.498 179.853 40.875 C 188.003 39.438 196.158 38.033 204.317 36.649 C 213.609 35.073 222.923 33.638 232.251 32.294 C 242.37 30.836 252.499 29.422 262.63 28.048 C 262.639 28.047 262.648 28.045 262.657 28.045 C 273.864 26.525 285.073 25.032 296.286 23.56 L 296.289 23.56 C 296.296 23.559 296.303 23.561 296.31 23.56 C 296.317 23.559 296.321 23.553 296.326 23.553 C 309.017 21.887 321.719 20.32 334.431 18.825 C 334.435 18.825 334.44 18.826 334.445 18.825 C 348.139 17.215 361.847 15.697 375.561 14.258 C 375.577 14.256 375.593 14.257 375.609 14.255 C 390.013 12.743 404.438 11.424 418.876 10.28 L 418.878 10.28 C 418.887 10.279 418.897 10.277 418.905 10.277 C 434.025 9.08 449.16 8.09 464.305 7.279 L 464.307 7.279 C 480.301 6.422 496.305 5.748 512.312 5.224 L 512.334 5.224 C 528.835 4.684 545.344 4.328 561.853 4.154 L 561.867 4.154 C 578.131 3.983 594.396 4.024 610.658 4.305 C 626.19 4.573 641.72 5.164 657.224 6.147 C 671.84 7.074 686.447 8.191 701.031 9.535 C 714.829 10.807 728.621 12.109 742.414 13.439 C 755.628 14.715 768.849 15.93 782.074 17.087 C 794.368 18.163 806.654 19.304 818.934 20.54 C 830.136 21.667 841.334 22.852 852.522 24.106 C 862.399 25.213 872.27 26.378 882.128 27.637 C 893.31 29.065 904.472 30.627 915.631 32.221 C 922.572 33.214 929.516 34.205 936.451 35.24 C 936.218 38.969 936.073 42.706 936.006 46.44 C 935.976 48.128 935.981 49.818 935.958 51.506 C 935.563 51.561 935.169 51.625 934.779 51.708 C 934.073 51.859 933.359 52.061 932.724 52.416 C 931.592 53.048 930.754 54.091 930.133 55.212 C 930.117 55.233 930.106 55.257 930.092 55.28 C 930.09 55.285 930.085 55.292 930.083 55.297 C 930.081 55.299 930.081 55.301 930.08 55.304 C 929.133 56.965 928.567 58.85 928.757 60.774 C 928.795 61.152 929.131 61.426 929.509 61.389 C 929.887 61.352 930.166 61.015 930.128 60.637 C 929.969 59.03 930.569 57.489 931.485 56.193 C 932.086 55.389 932.796 54.622 933.68 54.128 L 933.682 54.128 C 934.143 53.871 934.671 53.738 935.183 53.632 C 935.433 53.58 935.686 53.54 935.939 53.502 C 935.885 58.205 935.821 62.908 935.806 67.611 L 935.806 67.613 L 935.806 67.63 L 935.806 67.632 C 935.749 84.642 935.772 101.655 935.778 118.666 L 935.778 118.668 C 935.783 129.226 935.803 139.785 935.905 150.342 C 935.96 156.055 935.99 161.776 936.253 167.483 C 936.254 167.49 936.253 167.497 936.253 167.504 C 936.254 167.521 936.256 167.539 936.256 167.556 C 936.523 173.29 936.849 179.025 937.336 184.745 C 937.815 190.372 938.62 195.969 939.568 201.534 C 940.33 206.002 941.083 210.473 941.948 214.921 C 942.102 215.716 942.296 216.506 942.512 217.287 C 942.333 217.631 942.175 217.985 942.064 218.361 C 942.001 218.575 941.925 218.982 941.668 219.058 C 941.012 219.253 940.639 219.941 940.833 220.596 C 940.907 220.843 941.055 221.06 941.257 221.219 C 941.845 221.679 942.57 221.931 943.319 221.919 C 943.612 221.915 943.897 221.861 944.177 221.786 C 944.349 222.153 944.511 222.525 944.7 222.884 C 944.875 223.215 945.285 223.342 945.616 223.167 C 945.772 223.085 945.893 222.943 945.948 222.774 C 946.2 221.996 946.392 221.204 946.553 220.402 C 947.523 219.695 948.553 219.063 949.575 218.443 C 950.897 217.64 952.278 216.882 953.749 216.388 C 953.756 216.386 953.763 216.387 953.77 216.386 L 953.77 216.383 C 954.71 216.069 955.705 215.891 956.676 215.703 C 958.517 215.348 960.37 215.054 962.225 214.777 C 966.321 214.163 970.425 213.594 974.539 213.112 C 978.096 212.695 981.666 212.384 985.242 212.192 C 988.469 212.019 991.706 211.971 994.934 212.12 C 997.377 212.233 999.843 212.55 1002.172 213.324 C 1003.881 213.892 1005.578 214.53 1007.201 215.317 C 1007.169 216.364 1007.14 217.411 1007.132 218.458 C 1007.118 220.354 1007.199 222.317 1007.727 224.151 C 1007.728 224.155 1007.726 224.162 1007.727 224.167 C 1007.734 224.203 1007.746 224.238 1007.754 224.273 C 1006.768 225.442 1005.682 226.533 1004.493 227.497 C 1004.488 227.501 1004.484 227.506 1004.479 227.511 C 1002.88 228.805 1001.171 229.962 999.385 230.981 C 997.229 232.211 995.001 233.317 992.749 234.362 C 990.159 235.563 987.46 236.524 984.709 237.285 C 981.711 238.114 978.601 238.482 975.495 238.522 C 971.689 238.572 967.884 238.017 964.173 237.206 C 964.154 237.201 964.137 237.197 964.118 237.192 C 962.318 236.797 960.52 236.382 958.747 235.876 C 957.714 235.581 956.658 235.275 955.688 234.806 C 953.533 233.765 951.547 232.335 949.606 230.95 C 948.51 230.167 947.43 229.349 946.454 228.42 C 945.907 227.9 945.317 227.318 944.998 226.622 C 944.839 226.276 944.43 226.121 944.085 226.28 C 943.739 226.438 943.588 226.847 943.746 227.192 C 944.135 228.04 944.754 228.783 945.37 229.473 C 946.315 230.53 947.353 231.503 948.409 232.447 C 950.291 234.129 952.214 235.845 954.348 237.206 C 955.419 237.889 956.638 238.344 957.831 238.761 C 959.643 239.394 961.497 239.908 963.356 240.385 C 967.315 241.402 971.38 242.139 975.475 242.235 C 978.905 242.315 982.351 242.054 985.707 241.322 C 988.728 240.662 991.708 239.791 994.589 238.665 C 997.03 237.712 999.444 236.675 1001.778 235.479 C 1001.79 235.475 1001.802 235.472 1001.812 235.465 L 1001.812 235.463 C 1003.924 234.38 1005.934 233.102 1007.798 231.634 C 1009.775 230.077 1011.517 228.233 1013.029 226.226 L 1013.029 226.223 C 1013.527 225.562 1013.99 224.872 1014.434 224.172 C 1014.821 225.397 1015.333 226.601 1016.157 227.563 C 1017.113 228.679 1018.439 229.437 1019.907 229.567 C 1019.937 229.571 1019.966 229.578 1019.996 229.581 C 1020.017 229.583 1020.04 229.579 1020.061 229.581 C 1020.096 229.583 1020.129 229.59 1020.164 229.59 C 1020.207 229.592 1020.248 229.583 1020.29 229.583 C 1021.223 229.611 1022.17 229.356 1022.902 228.766 C 1023.609 228.197 1024.159 227.252 1023.958 226.318 C 1023.924 226.159 1023.868 226.006 1023.788 225.864 C 1023.331 225.051 1022.345 224.571 1021.48 224.24 C 1021.389 224.187 1021.323 224.129 1021.237 223.98 C 1021.073 223.693 1020.969 223.368 1020.865 223.057 C 1020.636 222.374 1020.453 221.675 1020.283 220.975 C 1019.849 219.183 1019.279 217.34 1018.225 215.806 C 1017.952 215.407 1017.649 215.033 1017.333 214.667 C 1017.231 214.161 1017.06 213.672 1016.776 213.252 C 1016.572 212.951 1016.181 212.842 1015.849 212.992 C 1015.807 213.011 1015.768 213.04 1015.726 213.061 C 1015.524 212.884 1015.323 212.705 1015.114 212.538 C 1013.996 211.639 1012.778 210.872 1011.521 210.179 C 1011.686 207.501 1011.943 204.83 1012.304 202.172 C 1012.727 199.066 1012.933 195.932 1012.957 192.798 C 1012.984 189.321 1012.95 185.844 1012.882 182.368 C 1012.831 179.732 1012.645 177.098 1012.441 174.471 C 1012.131 170.476 1011.747 166.488 1011.344 162.502 C 1010.593 155.095 1009.885 147.675 1009.487 140.24 C 1008.987 130.885 1008.803 121.512 1008.588 112.148 C 1008.588 112.134 1008.588 112.121 1008.588 112.107 C 1008.367 102.431 1008.152 92.751 1007.785 83.079 C 1007.785 83.065 1007.785 83.051 1007.785 83.038 C 1007.458 74.433 1007.152 65.83 1006.848 57.224 C 1006.689 52.705 1006.52 48.186 1006.318 43.669 C 1006.208 41.198 1006.108 38.723 1005.911 36.257 C 1005.911 36.243 1005.909 36.224 1005.909 36.209 C 1005.909 36.207 1005.909 36.202 1005.909 36.2 L 1005.909 36.198 C 1005.583 31.737 1005.317 27.274 1005.102 22.807 C 1005.074 22.221 1004.577 21.767 1003.991 21.795 C 1003.45 21.821 1003.013 22.249 1002.979 22.79 C 1002.697 27.317 1002.633 31.86 1002.832 36.392 C 1002.922 38.849 1002.947 41.308 1002.979 43.766 C 1003.039 48.279 1003.074 52.792 1003.106 57.304 C 1003.166 65.927 1003.235 74.549 1003.41 83.17 C 1003.606 92.839 1003.665 102.511 1003.728 112.181 C 1003.765 117.848 1003.821 123.513 1003.937 129.179 C 1004.014 132.959 1004.107 136.742 1004.309 140.518 C 1004.711 148.035 1005.449 155.535 1006.234 163.02 C 1006.234 163.022 1006.234 163.027 1006.234 163.029 C 1006.917 169.539 1007.634 176.054 1008.097 182.584 C 1008.339 185.993 1008.516 189.406 1008.579 192.823 C 1008.634 195.77 1008.507 198.722 1008.166 201.65 C 1007.908 203.86 1007.717 206.08 1007.56 208.299 C 1006.47 207.858 1005.362 207.456 1004.248 207.086 C 1001.345 206.121 998.283 205.696 995.236 205.558 C 991.78 205.401 988.316 205.469 984.864 205.688 C 981.165 205.922 977.47 206.284 973.794 206.761 C 973.78 206.763 973.767 206.766 973.753 206.768 C 969.592 207.309 965.441 207.926 961.295 208.58 C 961.286 208.581 961.279 208.581 961.271 208.582 C 959.332 208.888 957.395 209.211 955.47 209.601 C 954.244 209.85 953.003 210.108 951.819 210.517 C 951.816 210.518 951.814 210.52 951.812 210.52 C 951.798 210.524 951.784 210.529 951.771 210.534 C 950.032 211.142 948.408 212.049 946.865 213.053 C 946.742 211.597 946.577 210.142 946.383 208.694 C 946.02 205.987 945.59 203.29 945.138 200.596 C 944.231 195.183 943.458 189.739 942.998 184.268 C 942.525 178.635 942.275 172.985 942.11 167.335 C 941.943 161.659 941.931 155.978 941.901 150.3 C 941.845 139.758 941.844 129.213 941.853 118.671 C 941.867 101.671 941.839 84.67 942.003 67.671 C 942.048 63.068 942.12 58.465 942.184 53.863 C 942.206 53.867 942.225 53.872 942.246 53.877 C 942.34 53.896 942.438 53.874 942.516 53.819 C 942.856 53.577 942.959 53.098 942.903 52.708 C 942.838 52.258 942.573 51.864 942.215 51.596 C 942.241 49.914 942.25 48.23 942.28 46.547 C 942.33 43.765 942.414 40.984 942.482 38.202 C 942.666 39.605 942.789 41.021 942.625 42.411 C 942.581 42.788 942.85 43.129 943.227 43.173 C 943.604 43.217 943.945 42.949 943.989 42.571 C 944.234 40.49 944.137 38.366 943.999 36.277 C 945.046 36.422 946.086 36.62 947.137 36.684 C 948.477 36.767 949.939 36.391 950.751 35.238 L 950.751 35.236 C 951.001 34.881 951.171 34.475 951.243 34.046 C 951.537 32.303 950.285 30.791 948.785 30.104 C 947.837 29.671 946.807 29.413 945.794 29.185 C 945.173 29.045 944.543 28.957 943.917 28.843 C 943.917 28.836 943.917 28.829 943.917 28.822 C 943.931 26.59 943.944 24.36 943.954 22.128 C 943.955 21.958 943.947 21.789 943.947 21.619 C 943.991 21.598 944.034 21.575 944.077 21.554 C 947.298 20.003 950.519 18.453 953.762 16.949 C 955.825 15.993 957.978 15.231 960.179 14.662 C 962.387 14.091 964.659 13.771 966.938 13.691 C 968.52 13.635 970.105 13.677 971.686 13.732 C 974.091 13.817 976.492 13.958 978.893 14.118 C 983.277 14.411 987.663 14.709 992.041 15.082 C 992.053 15.084 992.062 15.089 992.072 15.089 L 992.072 15.087 C 994.828 15.323 997.581 15.661 1000.297 16.191 C 1002.223 16.568 1004.158 17.011 1005.993 17.719 C 1006 17.722 1006.007 17.726 1006.014 17.729 C 1007.009 18.114 1008.069 18.535 1008.916 19.199 C 1009.475 19.636 1010.023 20.101 1010.486 20.642 C 1010.502 20.66 1010.521 20.672 1010.537 20.689 C 1011.3 21.626 1012.451 22.583 1013.72 22.402 C 1014.037 22.357 1014.339 22.231 1014.591 22.033 C 1015.85 21.047 1015.622 19.147 1015.022 17.842 C 1015.015 17.828 1015.015 17.811 1015.008 17.797 C 1014.999 17.776 1014.987 17.759 1014.977 17.739 C 1014.966 17.716 1014.959 17.69 1014.946 17.667 C 1014.937 17.651 1014.923 17.639 1014.916 17.623 C 1014.409 16.549 1013.666 15.598 1012.827 14.765 C 1011.55 13.498 1009.879 12.676 1008.219 12.033 C 1006.042 11.191 1003.752 10.652 1001.463 10.218 C 1001.456 10.217 1001.452 10.216 1001.447 10.216 C 998.531 9.663 995.579 9.307 992.623 9.053 C 992.612 9.052 992.6 9.049 992.589 9.046 C 988.164 8.668 983.733 8.365 979.301 8.069 C 976.833 7.904 974.362 7.761 971.889 7.686 C 970.18 7.634 968.463 7.609 966.754 7.693 C 966.745 7.693 966.736 7.688 966.727 7.691 C 966.713 7.691 966.694 7.693 966.679 7.693 C 963.994 7.828 961.331 8.307 958.768 9.122 C 958.761 9.123 958.754 9.123 958.747 9.124 C 958.691 9.138 958.635 9.158 958.58 9.175 C 956.081 9.988 953.665 11.051 951.387 12.362 C 948.233 14.177 945.215 16.241 942.218 18.3 C 941.987 18.232 941.745 18.195 941.504 18.201 C 940.487 18.225 939.628 18.896 939.278 19.828 C 939.14 20.196 938.999 20.564 938.861 20.932 C 938.34 21.412 937.837 21.909 937.377 22.447 C 936.396 23.595 935.532 24.963 935.34 26.491 C 935.272 27.032 935.654 27.523 936.194 27.592 C 936.638 27.648 937.055 27.396 937.223 26.987 C 937.183 27.253 937.147 27.52 937.111 27.787 C 935.711 27.591 934.312 27.383 932.913 27.192 C 927.486 26.449 922.058 25.722 916.629 25.001 C 905.438 23.512 894.236 22.079 883.014 20.84 C 883.007 20.839 883.002 20.833 882.997 20.833 C 882.979 20.831 882.959 20.828 882.939 20.826 C 873.045 19.734 863.145 18.702 853.241 17.701 C 853.229 17.7 853.218 17.7 853.207 17.699 C 841.976 16.565 830.734 15.539 819.485 14.598 C 807.177 13.57 794.866 12.572 782.553 11.597 C 782.546 11.596 782.537 11.594 782.529 11.594 C 769.318 10.548 756.114 9.436 742.914 8.268 C 742.907 8.267 742.9 8.266 742.893 8.266 C 729.089 7.043 715.277 5.924 701.458 4.895 C 701.444 4.893 701.431 4.894 701.417 4.892 C 686.777 3.802 672.127 2.853 657.47 2.024 C 657.466 2.024 657.463 2.029 657.461 2.026 C 641.897 1.146 626.314 0.595 610.728 0.327 C 594.432 0.047 578.135 -0.049 561.837 0.023 L 561.838 0.02 Z  M 44.152 37.01 C 41.008 37.052 37.867 37.287 34.751 37.711 C 31.499 38.153 28.306 38.991 25.254 40.196 C 25.242 40.201 25.231 40.208 25.22 40.212 C 22.27 41.38 19.431 42.827 16.772 44.558 C 14.425 46.085 12.139 47.713 9.979 49.498 C 7.989 51.143 6.091 52.901 4.287 54.749 C 2.773 56.3 1.205 58.199 0.807 60.396 C 0.697 61.004 1.098 61.588 1.706 61.699 C 2.121 61.774 2.545 61.607 2.8 61.271 C 3.568 60.26 4.544 59.4 5.555 58.605 C 5.555 58.614 5.548 58.624 5.548 58.632 C 5.501 59.467 5.453 60.303 5.405 61.138 C 5.282 63.28 5.342 65.434 5.439 67.575 C 5.574 70.553 5.819 73.525 6.109 76.491 C 6.443 79.913 6.852 83.326 7.329 86.73 C 7.684 89.261 8.04 91.797 8.297 94.34 C 8.426 95.617 8.494 96.901 8.564 98.183 C 8.685 100.427 8.78 102.672 8.868 104.918 C 9.049 109.53 9.254 114.143 9.545 118.749 C 9.784 122.527 9.965 126.31 10.099 130.093 C 10.226 133.697 10.374 137.301 10.56 140.902 C 10.743 144.434 10.863 147.966 10.946 151.5 C 11.085 157.352 11.155 163.209 11.227 169.062 L 11.227 169.064 C 11.294 174.567 11.365 180.07 11.432 185.573 C 11.432 185.597 11.432 185.616 11.432 185.638 C 11.475 189.163 11.346 192.69 11.141 196.209 C 11.141 196.211 11.141 196.213 11.141 196.216 C 11.141 196.223 11.142 196.23 11.141 196.237 C 10.906 200.273 10.363 204.288 9.579 208.253 C 8.484 213.785 7.239 219.285 5.969 224.779 C 5.322 227.577 4.681 230.377 4.065 233.182 C 3.719 234.759 3.364 236.337 3.084 237.927 C 2.827 239.384 2.669 240.856 2.557 242.331 C 1.384 243.535 0.489 245.019 0.15 246.676 C -0.168 248.232 0.02 249.867 0.714 251.298 C 1.196 252.29 2.389 252.706 3.381 252.224 C 3.845 251.999 4.204 251.603 4.383 251.12 C 4.591 250.555 4.873 250.03 5.186 249.527 C 5.193 249.528 5.198 249.534 5.202 249.534 L 5.202 249.536 C 5.302 249.548 5.403 249.546 5.503 249.536 C 6.585 249.428 7.361 248.306 7.783 247.41 C 7.975 247.005 8.117 246.578 8.231 246.145 C 9.04 245.429 9.87 244.734 10.741 244.094 C 11.91 243.234 13.139 242.459 14.402 241.745 C 15.989 240.848 17.625 240.037 19.277 239.266 C 21.418 238.269 23.619 237.404 25.837 236.596 C 28.467 235.64 31.136 234.794 33.83 234.039 C 36.643 233.252 39.473 232.528 42.319 231.872 C 45.173 231.214 48.052 230.657 50.944 230.197 C 50.946 230.196 50.949 230.197 50.951 230.197 L 50.953 230.197 C 53.882 229.731 56.831 229.411 59.791 229.236 L 59.793 229.236 C 62.559 229.073 65.329 228.963 68.1 228.945 C 69.652 228.936 71.216 229.195 72.74 229.458 C 75.371 229.914 77.976 230.513 80.568 231.151 C 83.095 231.772 85.619 232.397 88.137 233.051 C 89.366 233.371 90.608 233.674 91.816 234.067 C 93.358 234.568 94.838 235.273 96.284 236.002 C 98.151 236.942 99.879 238.146 101.487 239.478 C 102.192 240.062 102.93 240.612 103.73 241.058 C 104.755 241.629 105.988 242.079 107.159 241.684 C 107.348 241.62 107.531 241.534 107.702 241.43 C 108.705 240.823 109.181 239.668 109.172 238.535 C 109.168 237.817 108.978 237.108 108.677 236.46 C 108.159 235.347 107.319 234.414 106.372 233.643 C 106.363 233.633 106.356 233.624 106.345 233.616 C 106.329 233.601 106.311 233.588 106.294 233.574 C 104.248 231.938 102.04 230.492 99.672 229.366 C 99.66 229.359 99.651 229.352 99.638 229.345 C 99.607 229.329 99.574 229.316 99.542 229.301 C 97.775 228.472 95.971 227.694 94.1 227.13 C 94.09 227.127 94.083 227.123 94.076 227.12 C 94.045 227.111 94.015 227.102 93.983 227.093 C 92.642 226.696 91.277 226.369 89.919 226.033 C 87.375 225.405 84.827 224.798 82.278 224.194 C 82.268 224.192 82.259 224.19 82.251 224.187 C 79.493 223.535 76.722 222.925 73.926 222.461 C 71.994 222.14 70.027 221.858 68.063 221.873 L 68.061 221.873 L 68.054 221.873 C 65.162 221.896 62.271 222.011 59.384 222.177 C 56.191 222.361 53.009 222.699 49.849 223.192 C 46.788 223.67 43.741 224.25 40.721 224.946 C 37.765 225.628 34.827 226.384 31.908 227.209 C 29.057 228.016 26.233 228.931 23.457 229.968 C 23.448 229.973 23.436 229.971 23.426 229.975 C 23.419 229.98 23.415 229.982 23.405 229.984 C 23.403 229.985 23.398 229.987 23.396 229.987 C 23.391 229.989 23.387 229.991 23.382 229.994 C 20.979 230.894 18.597 231.865 16.288 232.989 C 14.508 233.855 12.745 234.768 11.034 235.764 C 11.031 235.766 11.027 235.766 11.024 235.767 C 11.01 235.774 10.997 235.783 10.983 235.791 C 10.502 236.072 10.036 236.377 9.565 236.676 C 9.716 235.938 9.856 235.197 10.012 234.461 C 10.601 231.68 11.21 228.905 11.824 226.13 C 11.826 226.12 11.829 226.111 11.831 226.102 C 13.059 220.555 14.276 215.004 15.442 209.443 C 16.328 205.212 16.943 200.924 17.223 196.609 C 17.459 192.954 17.633 189.292 17.667 185.629 C 17.718 180.082 17.64 174.533 17.578 168.986 L 17.578 168.984 C 17.513 163.105 17.449 157.225 17.291 151.347 C 17.291 151.345 17.291 151.343 17.291 151.34 L 17.291 151.338 C 17.195 147.748 17.055 144.158 16.847 140.572 C 16.846 140.568 16.847 140.561 16.847 140.556 L 16.847 140.554 C 16.639 136.994 16.471 133.433 16.327 129.87 C 16.327 129.866 16.327 129.861 16.327 129.856 L 16.327 129.854 L 16.327 129.852 C 16.172 126.019 15.975 122.186 15.729 118.358 L 15.729 118.356 C 15.436 113.801 15.195 109.24 14.97 104.681 C 14.969 104.672 14.967 104.66 14.967 104.65 C 14.855 102.374 14.738 100.097 14.588 97.823 C 14.498 96.461 14.405 95.098 14.246 93.741 C 14.244 93.725 14.244 93.707 14.244 93.69 C 13.936 91.093 13.538 88.504 13.143 85.919 C 13.141 85.908 13.142 85.894 13.14 85.882 C 12.635 82.576 12.18 79.262 11.787 75.94 C 11.785 75.922 11.782 75.901 11.78 75.882 C 11.438 72.993 11.119 70.102 10.85 67.206 C 10.664 65.202 10.487 63.194 10.371 61.185 C 10.371 61.171 10.372 61.156 10.371 61.141 C 10.323 60.306 10.276 59.47 10.228 58.635 C 10.211 58.337 10.122 58.052 10.002 57.78 C 9.986 57.746 9.968 57.715 9.951 57.681 C 9.887 57.554 9.833 57.421 9.746 57.305 C 9.506 56.991 9.191 56.743 8.829 56.584 C 8.705 56.529 8.577 56.493 8.446 56.461 C 9.908 55.398 11.379 54.345 12.867 53.319 C 15.027 51.83 17.275 50.473 19.567 49.196 C 22.02 47.831 24.612 46.719 27.283 45.856 C 29.987 44.983 32.77 44.357 35.587 43.993 C 38.456 43.622 41.347 43.412 44.24 43.374 C 47.11 43.336 49.98 43.508 52.828 43.87 C 52.844 43.872 52.862 43.875 52.879 43.877 C 55.916 44.265 58.936 44.823 61.918 45.515 C 61.923 45.516 61.927 45.516 61.932 45.517 L 61.934 45.517 C 65.038 46.237 68.098 47.14 71.1 48.211 L 71.102 48.213 C 74.006 49.249 76.889 50.339 79.741 51.509 C 81.836 52.368 84.02 53.053 86.261 53.403 C 87.551 53.604 88.89 53.707 90.202 53.591 C 90.039 53.806 89.904 54.048 89.847 54.322 C 89.799 54.55 89.786 54.784 89.782 55.016 C 89.763 56.098 89.745 57.179 89.727 58.261 C 89.646 63.21 89.602 68.162 89.546 73.111 C 89.463 80.457 89.439 87.803 89.539 95.148 C 89.636 102.307 89.834 109.465 90.086 116.621 C 90.353 124.198 90.696 131.775 91.132 139.345 C 91.133 139.349 91.132 139.354 91.132 139.359 L 91.132 139.361 C 91.551 146.615 91.992 153.866 92.455 161.117 L 92.455 161.12 C 92.859 167.441 93.302 173.765 93.843 180.076 C 94.281 185.179 94.781 190.278 95.375 195.365 C 95.613 197.408 95.917 199.472 96.523 201.443 C 96.73 202.113 96.974 202.781 97.317 203.395 C 97.578 203.864 97.947 204.435 98.486 204.612 C 98.674 204.674 98.878 204.665 99.06 204.588 C 99.662 204.334 99.974 203.592 100.164 203.015 C 100.395 202.315 100.505 201.58 100.571 200.848 C 100.753 198.839 100.605 196.797 100.387 194.797 C 99.835 189.752 99.358 184.699 98.93 179.642 C 98.399 173.366 97.966 167.084 97.573 160.798 C 97.121 153.559 96.708 146.316 96.332 139.073 C 95.94 131.531 95.626 123.985 95.375 116.438 C 95.138 109.318 94.949 102.197 94.852 95.074 C 94.752 87.769 94.543 80.466 94.281 73.164 C 94.281 73.127 94.279 73.088 94.278 73.051 C 94.16 69.756 94.034 66.461 93.861 63.168 C 93.772 61.463 93.712 59.738 93.489 58.043 L 93.26 56.303 C 93.378 56.067 93.435 55.803 93.355 55.544 C 93.219 55.1 93.054 54.646 92.959 54.194 L 92.959 54.192 C 92.933 54.077 92.91 53.96 92.863 53.853 C 92.724 53.538 92.486 53.281 92.183 53.118 C 92.146 53.097 92.102 53.097 92.063 53.081 C 92.255 52.866 92.357 52.579 92.289 52.277 C 92.251 52.11 92.169 51.955 92.05 51.833 C 90.852 50.608 89.426 49.612 87.964 48.729 C 86.089 47.596 84.102 46.65 82.077 45.819 C 79.137 44.613 76.164 43.487 73.172 42.418 C 69.953 41.267 66.672 40.286 63.346 39.495 C 60.169 38.739 56.962 38.114 53.73 37.645 C 50.561 37.186 47.356 36.967 44.154 37.009 L 44.152 37.01 Z  M 563.578 151.71 C 537.24 151.653 510.9 151.857 484.566 152.346 C 465.674 152.697 446.774 153.037 427.888 153.648 C 416.169 154.028 404.451 154.534 392.744 155.18 C 381.062 155.825 369.386 156.62 357.723 157.549 C 346.278 158.461 334.843 159.501 323.424 160.697 C 312.686 161.823 301.958 163.027 291.24 164.321 C 281.027 165.555 270.83 166.939 260.66 168.495 C 251.171 169.948 241.686 171.419 232.203 172.916 C 223.828 174.238 215.459 175.632 207.117 177.151 L 207.115 177.151 C 199.823 178.48 192.536 179.837 185.256 181.227 C 185.251 181.228 185.244 181.225 185.239 181.227 L 185.237 181.229 C 176.756 182.847 168.283 184.494 159.809 186.152 C 153.024 187.479 146.238 188.825 139.437 190.07 C 139.425 190.072 139.414 190.074 139.403 190.076 C 134.868 190.907 130.352 191.831 125.841 192.781 C 121.737 193.645 117.634 194.509 113.534 195.393 C 110.893 195.962 108.26 196.576 105.647 197.263 C 104.879 197.465 104.419 198.252 104.621 199.02 C 104.761 199.552 105.192 199.956 105.732 200.062 C 108.566 200.622 111.495 200.617 114.354 200.264 C 118.568 199.745 122.753 198.959 126.921 198.162 C 131.406 197.304 135.896 196.463 140.398 195.697 C 147.257 194.529 154.085 193.18 160.916 191.861 C 169.387 190.226 177.859 188.597 186.334 186.983 C 193.607 185.597 200.888 184.248 208.173 182.928 C 212.147 182.208 216.125 181.517 220.107 180.846 C 222.317 180.474 224.527 180.105 226.74 179.745 C 228.788 179.412 231.002 179.238 233.026 178.72 C 233.059 178.715 233.089 178.729 233.122 178.722 C 242.595 177.227 252.073 175.752 261.552 174.295 L 261.554 174.295 C 271.66 172.742 281.79 171.34 291.936 170.073 C 291.941 170.072 291.945 170.073 291.95 170.073 C 302.629 168.739 313.319 167.494 324.017 166.326 C 324.022 166.325 324.024 166.326 324.026 166.326 L 324.029 166.326 C 335.392 165.085 346.774 164.016 358.168 163.092 L 358.17 163.092 C 369.787 162.149 381.411 161.308 393.044 160.576 C 393.051 160.575 393.056 160.576 393.06 160.576 L 393.062 160.576 C 404.714 159.843 416.38 159.317 428.049 158.983 C 446.917 158.442 465.793 158.103 484.666 157.752 C 510.964 157.262 537.263 156.974 563.565 156.866 L 563.579 156.866 C 575.255 156.819 586.931 156.808 598.607 156.89 C 606.866 156.949 615.126 157.046 623.382 157.294 C 635.935 157.669 648.482 158.355 660.994 159.441 C 672.759 160.461 684.509 161.691 696.227 163.15 C 707.546 164.559 718.843 166.143 730.11 167.922 C 740.822 169.615 751.514 171.462 762.166 173.498 L 762.169 173.498 C 772.197 175.417 782.222 177.345 792.246 179.286 C 801.389 181.057 810.514 182.929 819.606 184.947 C 831.195 187.521 842.74 190.303 854.275 193.108 C 864.533 195.602 874.791 198.133 885.111 200.362 C 890.813 201.594 896.522 202.779 902.246 203.907 C 907.164 204.877 912.074 205.892 916.963 207.001 C 916.97 207.003 916.979 207.006 916.987 207.008 C 916.994 207.01 917.001 207.01 917.008 207.011 C 922.638 208.341 928.386 209.519 934.176 209.824 C 934.567 209.845 934.901 209.544 934.922 209.154 C 934.936 208.893 934.803 208.647 934.58 208.512 C 932.346 207.162 929.957 206.073 927.531 205.12 C 924.503 203.931 921.394 202.955 918.256 202.102 C 918.249 202.1 918.242 202.097 918.235 202.094 L 918.232 202.094 C 913.339 200.717 908.408 199.475 903.46 198.307 C 897.801 196.97 892.14 195.635 886.48 194.3 C 876.235 191.883 866.011 189.387 855.784 186.902 C 844.208 184.09 832.618 181.312 820.964 178.841 C 820.955 178.839 820.943 178.836 820.934 178.834 C 811.774 176.892 802.59 175.069 793.389 173.33 C 793.382 173.328 793.375 173.331 793.368 173.33 C 783.341 171.434 773.306 169.581 763.263 167.764 C 763.254 167.762 763.245 167.759 763.236 167.757 C 752.511 165.816 741.756 164.04 730.981 162.396 C 730.976 162.396 730.972 162.394 730.967 162.394 C 719.636 160.666 708.274 159.145 696.89 157.81 C 696.883 157.809 696.88 157.807 696.873 157.807 C 685.087 156.426 673.27 155.32 661.435 154.457 C 661.433 154.457 661.431 154.455 661.428 154.455 C 661.417 154.454 661.405 154.455 661.394 154.455 C 648.791 153.536 636.165 152.894 623.536 152.465 C 615.245 152.184 606.95 152.047 598.655 151.942 C 586.962 151.795 575.269 151.735 563.576 151.71 L 563.578 151.71 Z  M 1011.226 217.803 C 1011.392 217.941 1011.552 218.086 1011.712 218.234 C 1011.554 218.56 1011.398 218.889 1011.226 219.208 C 1011.226 218.969 1011.21 218.728 1011.212 218.49 C 1011.214 218.261 1011.224 218.032 1011.226 217.803 L 1011.226 217.803 Z  M 9.866 248.612 C 9.625 248.619 9.385 248.635 9.145 248.667 C 8.622 248.735 8.253 249.217 8.321 249.74 C 8.377 250.169 8.716 250.504 9.145 250.56 C 10.661 250.759 12.07 251.611 13.306 252.461 C 15.332 253.856 17.506 255.031 19.743 256.051 C 22.748 257.422 25.878 258.52 29.014 259.545 C 33.03 260.857 37.159 261.807 41.328 262.475 C 44.435 262.972 47.592 263.163 50.73 263.329 C 55.628 263.589 60.537 263.702 65.44 263.77 C 70.103 263.835 74.767 263.882 79.43 263.839 C 80.973 263.825 82.516 263.8 84.058 263.739 C 84.985 263.703 85.916 263.662 86.838 263.551 C 89.59 263.222 92.359 261.955 94.044 259.692 C 94.305 259.342 94.234 258.844 93.884 258.584 C 93.786 258.511 93.672 258.462 93.552 258.441 C 91.273 258.027 88.962 257.797 86.65 257.668 C 84.245 257.534 81.83 257.542 79.423 257.524 C 74.8 257.491 70.177 257.499 65.553 257.515 C 65.544 257.515 65.535 257.513 65.526 257.513 C 65.51 257.512 65.492 257.512 65.475 257.513 C 60.64 257.527 55.803 257.51 50.969 257.379 C 48.004 257.3 45.025 257.211 42.074 256.894 C 38.142 256.471 34.235 255.801 30.406 254.805 C 27.34 254.008 24.277 253.173 21.271 252.169 C 19.084 251.439 16.916 250.644 14.789 249.749 C 13.255 249.103 11.555 248.569 9.867 248.614 L 9.866 248.612 Z " fill="rgb(12,12,14)"/></g><g><path d=" M 385.361 48.824 C 382.866 48.905 380.385 49.298 377.945 49.811 C 376.231 50.171 374.545 50.655 372.873 51.172 C 370.638 51.863 368.428 52.627 366.228 53.421 C 363.115 54.545 359.998 55.664 356.89 56.801 C 355.624 57.265 354.288 57.84 353.33 58.818 L 353.33 58.821 C 352.85 59.311 352.461 59.929 352.388 60.624 C 352.3 61.452 352.745 62.3 353.506 62.596 C 353.867 62.769 354.276 62.857 354.662 62.94 C 355.39 63.097 356.122 63.224 356.855 63.347 C 357.319 63.424 357.758 63.108 357.836 62.644 C 357.88 62.379 357.787 62.129 357.618 61.941 C 357.816 61.908 358.014 61.873 358.211 61.841 C 359.435 61.643 360.644 61.343 361.848 61.053 C 363.941 60.551 366.025 60.013 368.107 59.468 C 370.277 58.901 372.453 58.358 374.643 57.876 C 376.154 57.544 377.674 57.233 379.207 57.019 C 381.203 56.74 383.237 56.549 385.253 56.67 C 386.192 56.727 387.261 56.818 388.102 57.285 C 388.705 57.621 389.189 58.123 389.57 58.694 C 389.575 58.703 389.581 58.709 389.586 58.716 C 390.379 59.909 390.943 61.26 391.45 62.593 C 392.238 64.665 392.882 66.79 393.453 68.931 C 394.082 71.29 394.612 73.677 395.042 76.08 C 394.289 76.136 393.534 76.197 392.781 76.264 C 392.758 76.266 392.737 76.274 392.714 76.275 C 389.96 76.524 387.218 76.885 384.492 77.351 C 381.904 77.792 379.322 78.445 376.924 79.531 C 375.061 80.374 373.141 81.567 372.146 83.423 C 372.112 83.487 372.082 83.55 372.055 83.616 C 371.718 84.296 371.486 85.047 371.539 85.811 C 371.594 86.619 371.991 87.39 372.696 87.814 C 373.839 88.682 375.402 88.97 376.777 89.193 C 377.249 89.27 377.694 88.949 377.77 88.477 C 377.847 88.005 377.527 87.561 377.055 87.484 C 376.4 87.378 375.709 87.217 375.14 86.861 C 375.049 86.803 374.904 86.71 374.801 86.602 C 374.98 86.367 375.196 86.156 375.413 85.958 C 375.748 85.65 376.158 85.425 376.567 85.231 C 377.259 84.904 377.993 84.662 378.728 84.453 C 380.843 83.852 383.043 83.567 385.23 83.406 C 387.874 83.212 390.521 83.079 393.171 83.011 C 394.153 82.986 395.135 82.958 396.117 82.932 C 396.152 83.187 396.194 83.441 396.228 83.696 C 396.56 86.221 396.839 88.753 397.071 91.29 C 397.326 94.083 397.535 96.881 397.713 99.681 C 397.783 100.786 397.855 101.893 397.925 102.998 C 397.936 103.157 397.942 103.315 397.953 103.474 C 397.954 103.49 397.963 103.502 397.963 103.516 C 398.181 105.81 400.179 107.531 402.495 107.384 C 404.856 107.233 406.65 105.199 406.502 102.838 L 406.502 102.836 C 406.423 101.603 406.345 100.371 406.266 99.139 C 406.083 96.261 405.869 93.385 405.609 90.513 C 405.368 87.862 405.078 85.218 404.731 82.579 C 404.722 82.517 404.712 82.455 404.703 82.392 C 405.059 82.321 405.411 82.241 405.76 82.146 C 406.466 81.953 407.167 81.704 407.805 81.341 C 408.371 81.019 408.974 80.567 409.192 79.925 C 409.246 79.768 409.27 79.603 409.266 79.437 C 409.249 78.586 408.576 77.875 407.927 77.406 C 407.314 76.963 406.611 76.65 405.894 76.418 C 405.179 76.187 404.439 76.035 403.693 75.935 C 403.624 75.543 403.563 75.149 403.491 74.757 C 403.49 74.748 403.491 74.737 403.488 74.728 C 402.993 72.041 402.369 69.379 401.617 66.752 C 401.609 66.727 401.602 66.701 401.595 66.676 C 400.911 64.296 400.13 61.942 399.187 59.652 C 399.173 59.613 399.158 59.575 399.143 59.537 C 398.389 57.719 397.534 55.922 396.446 54.277 C 396.42 54.235 396.399 54.191 396.372 54.15 C 396.37 54.146 396.367 54.143 396.365 54.141 C 395.261 52.502 393.797 51.112 392.058 50.164 C 392.043 50.156 392.027 50.148 392.013 50.14 C 389.986 49.047 387.632 48.752 385.359 48.825 L 385.361 48.824 Z  M 438.26 50.456 C 437.471 50.45 436.671 50.655 435.959 51.084 C 434.958 51.688 434.273 52.646 433.836 53.711 C 433.759 53.875 433.688 54.045 433.631 54.223 C 433.587 54.359 433.548 54.501 433.519 54.638 C 433.039 56.305 432.834 58.065 432.642 59.779 C 432.351 62.374 432.207 64.987 432.15 67.597 C 432.15 67.606 432.149 67.617 432.149 67.626 C 432.149 67.635 432.15 67.644 432.149 67.652 C 432.089 70.467 432.096 73.284 432.167 76.098 C 432.167 76.101 432.168 76.105 432.168 76.107 C 432.168 76.118 432.168 76.131 432.168 76.143 C 432.242 79.014 432.344 81.883 432.474 84.752 C 432.611 87.755 432.967 90.752 433.582 93.695 C 434.113 96.236 434.768 98.76 435.663 101.198 C 436.446 103.33 437.47 105.41 438.936 107.159 C 440.426 108.937 442.407 110.245 444.635 110.899 C 445.51 111.157 446.428 111.256 447.334 111.331 C 448.395 111.419 449.461 111.461 450.525 111.49 C 453.932 111.581 457.341 111.536 460.748 111.473 C 464.527 111.404 468.382 111.141 472.044 110.147 C 473.455 109.764 474.864 109.265 476.117 108.5 C 476.977 107.973 477.914 107.254 478.279 106.274 C 478.475 105.746 478.322 105.149 477.895 104.782 C 477.155 104.146 476.132 103.832 475.208 103.583 C 473.998 103.257 472.753 103.062 471.51 102.916 C 467.891 102.49 464.22 102.476 460.582 102.557 C 460.578 102.557 460.571 102.557 460.567 102.558 C 457.289 102.632 454.008 102.694 450.729 102.631 C 449.77 102.613 448.809 102.587 447.852 102.513 C 447.64 102.497 447.063 102.44 446.998 102.423 C 446.402 102.265 445.89 101.94 445.478 101.483 C 444.654 100.566 444.103 99.403 443.647 98.266 C 443.636 98.231 443.62 98.198 443.606 98.164 C 442.813 96.165 442.24 94.081 441.765 91.986 L 441.751 91.922 C 441.191 89.444 440.861 86.914 440.718 84.378 C 440.718 84.365 440.718 84.35 440.717 84.337 C 440.563 81.548 440.458 78.758 440.411 75.965 C 440.365 73.261 440.379 70.557 440.453 67.853 C 440.519 65.467 440.654 63.081 440.921 60.708 C 441.021 59.815 441.132 58.921 441.279 58.034 C 441.325 57.761 441.374 57.484 441.432 57.211 C 441.99 56.65 442.358 55.904 442.466 55.112 C 442.575 54.309 442.419 53.494 442.057 52.776 C 441.956 52.57 441.834 52.37 441.693 52.18 C 441.615 52.075 441.534 51.975 441.447 51.88 C 440.621 50.957 439.452 50.465 438.261 50.456 L 438.26 50.456 Z  M 581.074 48.263 C 578.954 48.355 576.83 48.608 574.731 48.854 C 571.541 49.228 568.351 49.676 565.208 50.347 C 564.134 50.577 563.051 50.824 562.018 51.204 C 560.987 51.584 559.887 52.2 559.703 53.398 C 559.566 54.293 559.937 55.122 560.434 55.841 C 560.439 55.85 560.441 55.861 560.448 55.87 L 560.45 55.87 C 560.457 55.881 560.464 55.892 560.471 55.902 C 560.485 55.921 560.497 55.942 560.511 55.962 L 560.525 55.975 C 560.872 56.513 561.316 56.987 561.772 57.441 C 561.757 57.465 561.74 57.488 561.725 57.513 C 561.719 57.522 561.712 57.531 561.706 57.539 C 561.695 57.555 561.685 57.575 561.675 57.591 C 560.003 60.299 558.543 63.143 557.406 66.118 C 556.251 69.141 555.257 72.227 554.344 75.331 C 553.332 78.769 552.358 82.219 551.424 85.678 C 550.565 88.858 549.75 92.048 549.016 95.258 C 548.71 96.593 548.449 97.942 548.31 99.305 C 548.201 100.376 548.159 101.477 548.333 102.543 C 548.439 103.19 548.621 103.842 548.988 104.392 C 549.704 105.469 551.336 105.974 552.259 104.793 C 552.559 104.411 552.703 103.902 552.822 103.399 C 553.144 102.654 553.482 101.915 553.828 101.181 C 553.957 100.908 553.869 100.6 553.647 100.416 C 554.012 99.234 554.408 98.062 554.802 96.892 C 555.835 93.824 556.894 90.763 557.968 87.708 C 559.015 84.73 560.084 81.76 561.167 78.794 C 561.346 78.883 561.525 78.974 561.706 79.061 C 562.069 79.235 562.505 79.079 562.679 78.716 C 562.854 78.353 562.702 77.916 562.338 77.742 C 562.117 77.636 561.894 77.519 561.678 77.389 C 561.749 77.195 561.826 77.003 561.898 76.809 C 562.054 76.814 562.21 76.819 562.366 76.823 C 564.72 76.901 567.069 77.066 569.416 77.267 C 569.433 77.268 569.45 77.272 569.468 77.274 L 569.468 77.272 C 572.313 77.515 575.167 77.688 578.021 77.786 C 580.728 77.879 583.445 77.849 586.145 77.615 C 588.176 77.439 590.21 77.294 592.248 77.22 C 592.323 77.218 592.398 77.21 592.473 77.206 C 592.59 78.285 592.704 79.364 592.8 80.446 C 593.005 82.762 593.282 85.075 593.693 87.364 C 594.091 89.579 594.654 91.765 595.337 93.908 C 596.327 97.015 597.574 100.042 598.831 103.047 C 599.948 105.716 601.067 108.383 602.183 111.052 L 602.183 111.054 C 602.195 111.084 602.208 111.113 602.221 111.143 C 602.903 112.775 603.542 114.736 605.359 115.421 C 606.26 115.762 607.261 115.727 608.138 115.326 C 608.21 115.272 608.283 115.219 608.356 115.166 C 608.644 115.004 608.911 114.813 609.143 114.581 C 609.21 114.531 609.278 114.481 609.345 114.431 C 609.528 114.225 609.686 114 609.817 113.758 L 609.819 113.758 C 609.909 113.594 609.985 113.424 610.048 113.249 C 610.648 111.584 609.923 109.832 609.318 108.279 C 608.257 105.552 607.197 102.823 606.136 100.096 C 605.027 97.245 603.916 94.386 602.987 91.471 C 602.412 89.665 601.933 87.826 601.593 85.961 C 601.592 85.956 601.593 85.95 601.592 85.945 C 601.592 85.943 601.59 85.941 601.59 85.939 C 601.217 83.887 600.94 81.817 600.712 79.745 C 600.71 79.718 600.707 79.692 600.704 79.665 C 600.41 76.978 600.032 74.304 599.604 71.636 C 599.599 71.598 599.591 71.556 599.586 71.518 L 599.586 71.516 C 599.128 68.674 598.537 65.854 597.779 63.077 C 597.772 63.042 597.764 63.006 597.754 62.972 C 597.052 60.414 596.104 57.901 594.757 55.609 C 594.743 55.584 594.728 55.557 594.713 55.532 C 593.48 53.452 591.86 51.58 589.819 50.259 C 589.803 50.249 589.791 50.24 589.776 50.231 C 587.81 48.971 585.531 48.268 583.194 48.231 C 582.489 48.22 581.781 48.233 581.075 48.264 L 581.074 48.263 Z  M 492.527 52.739 C 492.327 52.762 492.127 52.824 491.938 52.922 C 491.482 53.162 491.186 53.585 491.027 54.061 C 490.991 54.153 490.961 54.248 490.941 54.347 C 490.596 56.036 490.249 57.725 489.904 59.415 C 489.369 62.032 488.847 64.653 488.334 67.274 C 487.814 69.934 487.21 72.577 486.556 75.207 C 485.782 78.32 485.096 81.454 484.475 84.601 C 483.846 87.79 483.357 91.01 483.065 94.248 C 483.061 94.278 483.053 94.306 483.052 94.335 C 482.82 96.929 482.654 99.541 482.737 102.146 L 482.739 102.146 C 482.821 104.684 483.584 107.222 485.341 109.091 C 485.452 109.221 485.568 109.348 485.696 109.468 C 485.808 109.573 485.923 109.668 486.042 109.759 C 487.848 111.292 490.15 112.082 492.493 112.313 C 494.718 112.532 496.957 112.602 499.191 112.602 C 501.79 112.602 504.39 112.466 506.977 112.224 C 509.591 111.98 512.195 111.651 514.786 111.227 C 517.145 110.841 519.492 110.358 521.801 109.735 C 521.866 109.72 521.93 109.702 521.993 109.685 C 523.944 109.151 525.882 108.581 527.804 107.95 C 527.819 107.945 527.833 107.941 527.849 107.936 C 528.979 107.564 530.048 106.96 530.901 106.125 C 531.896 105.152 532.652 103.782 532.511 102.351 C 532.452 101.757 532.228 101.191 531.862 100.718 C 531.043 99.66 529.684 99.163 528.389 99.043 C 527.284 98.94 526.161 99.095 525.106 99.429 C 523.354 99.983 521.575 100.447 519.784 100.854 C 517.635 101.342 515.468 101.748 513.293 102.103 C 510.905 102.494 508.504 102.805 506.096 103.043 C 503.747 103.274 501.39 103.44 499.031 103.524 C 497.102 103.592 495.167 103.602 493.242 103.466 C 492.712 103.429 492.017 103.364 491.573 103.017 C 491.514 102.946 491.469 102.868 491.424 102.721 C 491.325 102.401 491.284 102.062 491.262 101.729 C 491.112 99.452 491.17 97.159 491.27 94.881 C 491.404 91.835 491.663 88.796 492.005 85.767 C 492.353 82.682 492.747 79.603 493.21 76.534 C 493.631 73.75 493.998 70.957 494.283 68.156 C 494.566 65.373 494.624 62.568 494.499 59.774 C 494.484 59.431 494.468 59.088 494.452 58.744 C 494.585 58.911 494.788 59.019 495.016 58.997 C 495.373 58.961 495.633 58.642 495.597 58.286 C 495.482 57.124 495.171 55.989 494.774 54.894 C 494.595 54.399 494.416 53.867 494.101 53.439 C 493.729 52.934 493.124 52.671 492.526 52.739 L 492.527 52.739 Z  M 574.562 54.966 C 574.746 54.963 574.93 54.958 575.113 54.958 C 577.666 54.937 580.251 54.894 582.795 55.147 C 583.893 55.256 584.934 55.641 585.853 56.25 C 586.945 56.973 587.761 58.047 588.395 59.177 C 589.386 60.942 590.032 62.889 590.51 64.849 C 590.955 66.674 591.311 68.52 591.605 70.376 C 589.566 70.61 587.527 70.845 585.487 71.077 C 582.995 71.362 580.492 71.539 577.987 71.654 C 575.232 71.78 572.475 71.86 569.717 71.893 C 569.702 71.893 569.685 71.892 569.668 71.892 C 567.694 71.915 565.717 71.987 563.749 72.157 C 564.15 71.214 564.561 70.276 564.997 69.349 C 566.162 66.871 567.512 64.483 568.982 62.174 C 569.467 61.413 569.959 60.656 570.45 59.899 C 570.735 59.85 571.014 59.776 571.282 59.668 C 572.168 59.311 572.878 58.66 573.323 57.855 C 573.675 57.478 573.976 57.049 574.188 56.563 C 574.411 56.052 574.528 55.513 574.562 54.967 L 574.562 54.966 Z  M 285.711 63.401 C 283.822 63.471 281.941 63.64 280.067 63.884 C 277.445 64.226 274.846 64.777 272.311 65.534 C 269.943 66.242 267.623 67.237 265.633 68.722 C 263.914 70.006 262.483 71.692 261.739 73.723 C 261.094 75.483 260.936 77.394 261.364 79.224 C 261.724 80.765 262.331 82.247 263.17 83.589 C 263.172 83.591 263.172 83.595 263.173 83.598 C 263.184 83.615 263.193 83.632 263.203 83.648 C 264.161 85.361 265.248 87.018 266.571 88.472 C 266.848 88.775 267.317 88.795 267.62 88.518 C 267.924 88.242 267.946 87.773 267.67 87.47 C 266.468 86.148 265.703 84.477 265.179 82.785 C 264.859 81.491 264.701 80.162 264.692 78.83 C 264.684 77.67 265.025 76.55 265.612 75.554 C 266.263 74.447 267.289 73.622 268.4 73.006 C 270.037 72.099 271.874 71.58 273.703 71.23 C 275.977 70.796 278.283 70.543 280.596 70.47 C 282.8 70.399 285.011 70.46 287.203 70.7 C 288.693 70.863 290.221 71.151 291.582 71.803 C 292.198 72.098 292.85 72.482 293.227 73.072 C 293.562 73.596 293.769 74.186 293.82 74.806 C 293.852 75.202 293.819 75.607 293.628 75.962 C 293.248 76.665 292.679 77.261 292.08 77.781 C 290.91 78.799 289.752 79.828 288.603 80.87 C 287.175 82.165 285.911 83.637 284.847 85.244 C 283.783 86.852 282.933 88.612 282.441 90.48 C 281.953 92.335 281.826 94.292 282.22 96.177 C 282.831 99.098 285.203 101.156 287.657 102.613 C 290.468 104.281 293.43 105.7 296.389 107.083 C 300.406 108.96 304.477 110.724 308.575 112.417 C 312.704 114.123 316.849 115.787 321.02 117.389 C 324.198 118.61 327.385 119.82 330.591 120.967 C 331.683 121.358 332.778 121.738 333.888 122.07 C 334.618 122.289 335.361 122.48 336.116 122.599 C 336.202 122.616 336.288 122.641 336.375 122.653 C 336.402 122.657 336.429 122.656 336.456 122.66 C 336.467 122.661 336.48 122.663 336.492 122.665 C 336.511 122.669 336.53 122.665 336.55 122.666 C 337.345 122.752 338.157 122.671 338.911 122.398 C 340.576 121.796 341.834 120.294 342.009 118.501 C 342.098 117.597 341.907 116.687 341.461 115.895 C 340.834 114.783 339.773 114.062 338.592 113.663 C 338.53 113.64 338.474 113.607 338.41 113.587 C 336.859 113.102 335.334 112.531 333.805 111.984 C 330.668 110.861 327.551 109.679 324.441 108.484 C 320.345 106.91 316.274 105.274 312.218 103.599 C 308.253 101.961 304.312 100.258 300.423 98.445 L 300.421 98.443 C 297.746 97.196 295.062 95.928 292.498 94.46 C 292.478 94.448 292.46 94.438 292.44 94.427 L 292.437 94.427 C 292.043 94.2 291.648 93.95 291.299 93.654 C 291.283 93.301 291.332 92.943 291.404 92.604 C 291.588 91.73 291.988 90.911 292.461 90.159 C 293.071 89.19 293.805 88.303 294.642 87.521 C 294.655 87.509 294.664 87.498 294.676 87.488 C 295.754 86.488 296.836 85.493 297.924 84.505 C 297.948 84.485 297.973 84.461 297.996 84.439 C 299.327 83.232 300.482 81.821 301.312 80.224 C 301.329 80.197 301.35 80.176 301.365 80.148 C 301.391 80.1 301.414 80.05 301.438 80.002 C 302.337 78.18 302.65 76.134 302.438 74.123 C 302.438 74.114 302.438 74.107 302.438 74.1 C 302.435 74.043 302.428 73.987 302.42 73.93 C 302.186 72.018 301.486 70.192 300.414 68.594 C 300.396 68.566 300.388 68.536 300.37 68.508 C 300.336 68.455 300.3 68.402 300.263 68.35 C 298.888 66.4 296.828 65.078 294.583 64.341 C 292.339 63.605 289.955 63.365 287.602 63.367 C 286.973 63.368 286.341 63.378 285.712 63.401 L 285.711 63.401 Z  M 358.115 71.481 C 357.847 71.49 357.593 71.589 357.371 71.749 C 357.367 71.75 357.363 71.751 357.358 71.756 C 357.333 71.772 357.312 71.791 357.289 71.809 C 357.27 71.827 357.245 71.838 357.226 71.856 L 357.219 71.862 C 356.815 72.216 356.68 72.807 356.613 73.319 C 356.522 74.018 356.531 74.732 356.555 75.435 C 356.638 77.844 357.101 80.247 357.578 82.604 C 358.227 85.812 358.865 89.023 359.496 92.235 C 360.065 95.133 360.641 98.033 361.228 100.927 C 361.569 102.607 361.895 104.302 362.356 105.954 C 362.451 106.296 362.548 106.64 362.672 106.974 C 363.114 108.163 364.084 109.087 365.403 109.229 C 365.655 109.256 365.909 109.254 366.16 109.218 C 366.41 109.184 366.652 109.12 366.887 109.028 C 367.712 108.703 368.346 108.045 368.674 107.245 C 368.699 107.185 368.722 107.123 368.743 107.062 C 368.758 107.023 368.77 106.985 368.782 106.945 C 368.818 106.827 368.85 106.707 368.872 106.582 C 368.989 105.931 369.107 105.28 369.224 104.629 C 369.322 104.083 369.45 103.526 369.409 102.968 C 369.32 101.751 368.563 100.71 367.482 100.231 C 367.431 100.066 367.375 99.904 367.327 99.739 C 367.189 99.273 366.734 98.992 366.268 99.057 C 365.496 96.434 364.755 93.801 364.028 91.165 C 363.15 87.978 362.218 84.806 361.208 81.658 C 360.513 79.496 359.822 77.314 359.35 75.09 C 359.219 74.474 359.069 73.856 358.947 73.235 C 359.192 73.241 359.433 73.119 359.567 72.893 C 359.751 72.581 359.665 72.182 359.368 71.973 C 359.088 71.775 358.783 71.586 358.444 71.511 C 358.333 71.486 358.224 71.477 358.115 71.481 L 358.115 71.481 Z  M 671.414 63.608 C 669.788 63.672 668.283 64.625 667.189 65.833 C 667.185 65.837 667.18 65.839 667.176 65.842 C 667.077 65.951 666.973 66.058 666.882 66.172 C 666.341 66.841 665.538 67.349 664.833 67.821 C 662.709 69.242 660.754 70.92 658.848 72.618 C 656.033 75.128 653.594 78.043 651.361 81.074 C 650.988 81.58 650.621 82.093 650.26 82.608 C 648.01 80.479 645.712 78.393 643.321 76.424 C 643.292 76.4 643.264 76.376 643.235 76.352 C 640.671 74.247 637.891 72.4 634.938 70.884 C 633.46 70.126 631.981 69.365 630.502 68.606 C 629.613 68.15 628.646 67.946 627.669 68.339 C 627.434 68.433 627.211 68.556 627.008 68.707 C 626.196 69.312 625.755 70.294 625.839 71.303 C 625.926 72.35 626.532 73.091 627.319 73.685 C 628.646 74.686 629.973 75.686 631.3 76.687 C 631.576 76.896 631.848 77.109 632.122 77.32 C 632.641 78.142 633.055 79.023 633.265 79.962 C 633.364 80.404 633.803 80.683 634.245 80.584 C 634.632 80.497 634.9 80.148 634.884 79.752 C 634.88 79.66 634.868 79.57 634.861 79.478 C 635.992 80.399 637.106 81.34 638.206 82.298 C 640.86 84.608 643.39 87.063 645.863 89.565 C 645.375 90.42 644.895 91.281 644.432 92.151 C 642.618 95.564 640.921 99.06 639.6 102.697 C 639.111 104.044 638.664 105.414 638.348 106.813 C 638.105 107.885 637.924 108.997 637.992 110.1 C 638.071 111.372 638.297 112.922 639.289 113.833 C 639.309 113.855 639.325 113.877 639.345 113.896 C 639.374 113.923 639.408 113.942 639.438 113.968 C 639.455 113.981 639.467 113.999 639.484 114.012 C 639.495 114.02 639.506 114.022 639.516 114.031 C 640.632 114.946 642.267 115.124 643.647 115.231 C 644.238 115.277 644.752 114.838 644.798 114.247 C 644.836 113.757 644.536 113.304 644.07 113.148 C 643.552 112.974 643.035 112.774 642.564 112.494 C 642.392 112.392 642.225 112.286 642.103 112.139 C 642.104 112.02 642.112 111.883 642.12 111.787 C 642.162 111.313 642.245 110.844 642.334 110.377 C 642.471 109.66 642.744 108.964 643.021 108.293 C 643.498 107.137 644.055 106.015 644.631 104.906 C 646.303 101.683 648.212 98.582 650.186 95.537 C 650.386 95.228 650.597 94.927 650.801 94.621 C 652.117 95.986 653.43 97.354 654.734 98.731 C 657.404 101.55 660.163 104.297 663.109 106.829 C 665.078 108.523 667.065 110.208 669.151 111.757 C 670.238 112.563 671.363 113.409 672.591 114.006 C 672.725 114.082 672.864 114.151 673.006 114.211 C 673.296 114.336 673.586 114.461 673.876 114.585 C 673.953 114.618 674.032 114.641 674.11 114.669 C 674.135 114.677 674.157 114.691 674.182 114.7 C 674.195 114.704 674.208 114.703 674.221 114.708 C 674.404 114.768 674.587 114.814 674.772 114.848 C 674.788 114.852 674.804 114.851 674.821 114.853 C 675.218 114.92 675.618 114.928 676.007 114.88 C 676.06 114.874 676.11 114.864 676.162 114.856 C 676.236 114.843 676.31 114.835 676.383 114.818 C 676.457 114.803 676.531 114.784 676.604 114.764 C 676.606 114.764 676.608 114.762 676.61 114.762 C 676.619 114.76 676.628 114.762 676.636 114.761 C 676.641 114.76 676.645 114.759 676.649 114.758 C 676.669 114.754 676.688 114.746 676.707 114.742 C 677.072 114.634 677.415 114.478 677.729 114.28 C 677.752 114.266 677.773 114.251 677.796 114.236 C 677.952 114.134 678.105 114.024 678.245 113.902 C 678.271 113.879 678.294 113.853 678.32 113.829 C 678.438 113.721 678.548 113.606 678.653 113.486 C 678.668 113.468 678.688 113.454 678.703 113.436 C 678.712 113.425 678.718 113.411 678.728 113.4 C 678.858 113.241 678.977 113.072 679.082 112.894 C 679.093 112.876 679.109 112.86 679.119 112.842 C 679.132 112.819 679.14 112.793 679.153 112.77 C 679.333 112.442 679.469 112.089 679.554 111.715 C 679.56 111.691 679.566 111.666 679.572 111.641 C 679.611 111.452 679.637 111.256 679.65 111.059 C 679.65 111.054 679.65 111.05 679.65 111.045 C 679.651 111.03 679.651 111.012 679.651 110.997 C 679.651 110.995 679.65 110.993 679.651 110.99 C 679.655 110.89 679.661 110.789 679.658 110.687 C 679.656 110.621 679.648 110.556 679.644 110.491 C 679.642 110.46 679.638 110.429 679.635 110.398 C 679.633 110.375 679.632 110.352 679.631 110.33 C 679.629 110.308 679.631 110.287 679.629 110.266 C 679.61 110.119 679.584 109.974 679.55 109.833 L 679.55 109.83 C 679.543 109.8 679.529 109.774 679.522 109.744 C 679.503 109.671 679.485 109.599 679.462 109.527 C 679.443 109.466 679.421 109.407 679.399 109.348 C 679.375 109.284 679.35 109.222 679.323 109.16 C 679.309 109.127 679.297 109.093 679.282 109.061 C 679.243 108.976 679.2 108.895 679.156 108.813 C 679.102 108.712 679.041 108.615 678.978 108.518 C 678.921 108.431 678.867 108.344 678.803 108.261 C 678.781 108.232 678.763 108.199 678.74 108.169 C 678.64 108.046 678.535 107.932 678.425 107.823 C 678.404 107.802 678.38 107.784 678.359 107.764 C 678.177 107.592 677.984 107.436 677.779 107.302 C 677.534 107.136 677.29 106.971 677.044 106.806 C 676.111 106.177 675.214 105.492 674.311 104.821 C 672.39 103.395 670.543 101.864 668.708 100.33 C 668.693 100.317 668.677 100.302 668.662 100.289 C 665.919 97.996 663.331 95.517 660.817 92.976 C 660.796 92.955 660.775 92.935 660.754 92.913 C 659.083 91.223 657.398 89.546 655.704 87.879 C 656.252 87.195 656.807 86.517 657.375 85.85 C 659.448 83.421 661.683 81.079 664.229 79.138 C 665.865 77.891 667.555 76.628 669.405 75.709 C 670.308 75.261 671.188 74.762 672.011 74.178 C 672.919 73.533 673.839 72.755 674.469 71.819 C 675.014 71.074 675.435 70.237 675.645 69.336 C 675.979 67.9 675.77 66.315 674.833 65.138 C 674.283 64.449 673.521 63.958 672.666 63.742 C 672.247 63.636 671.829 63.597 671.418 63.613 L 671.414 63.608 Z  M 228.677 75.22 C 228.146 75.22 227.616 75.239 227.087 75.277 C 225.06 75.424 223.038 75.659 221.026 75.944 C 218.762 76.265 216.511 76.656 214.269 77.101 C 214.265 77.102 214.258 77.101 214.254 77.101 C 214.249 77.102 214.243 77.104 214.238 77.104 C 211.434 77.662 208.611 78.137 205.789 78.595 C 205.766 78.598 205.744 78.605 205.721 78.61 C 204.233 78.851 202.747 79.109 201.272 79.422 C 200.298 79.63 199.318 79.857 198.376 80.188 C 198.354 80.195 198.333 80.198 198.312 80.205 C 198.247 80.226 198.184 80.25 198.12 80.275 C 197.972 80.33 197.829 80.394 197.69 80.463 C 196.756 80.851 195.857 81.342 195.091 81.994 C 194.932 82.043 194.784 82.109 194.635 82.174 C 194.512 82.227 194.391 82.278 194.275 82.341 C 194.137 82.416 194.01 82.501 193.882 82.59 C 193.772 82.666 193.664 82.742 193.562 82.827 C 193.458 82.915 193.363 83.009 193.267 83.106 C 193.165 83.208 193.063 83.308 192.972 83.419 C 192.882 83.53 192.806 83.649 192.727 83.767 C 192.65 83.883 192.573 83.996 192.507 84.118 C 192.443 84.237 192.392 84.362 192.339 84.487 C 192.281 84.623 192.22 84.757 192.176 84.9 C 192.134 85.035 192.11 85.175 192.081 85.315 C 192.048 85.474 192.011 85.631 191.997 85.794 C 191.992 85.854 191.984 85.912 191.981 85.972 C 191.978 86.027 191.98 86.081 191.979 86.137 C 191.977 86.234 191.978 86.331 191.985 86.43 C 191.986 86.456 191.985 86.481 191.987 86.507 C 191.993 86.573 192.001 86.64 192.007 86.706 C 192.008 86.715 192.007 86.726 192.008 86.735 C 192.009 86.739 192.008 86.744 192.008 86.748 C 192.009 86.755 192.008 86.764 192.009 86.771 C 192.026 86.9 192.044 87.027 192.061 87.156 C 192.061 87.158 192.061 87.163 192.061 87.165 C 192.083 87.341 192.103 87.516 192.126 87.692 C 192.14 87.791 192.163 87.887 192.182 87.984 C 192.327 89.004 192.472 90.023 192.617 91.044 C 192.622 91.085 192.628 91.127 192.633 91.169 C 193.195 95.122 193.871 99.06 194.548 102.995 C 194.553 103.029 194.558 103.063 194.564 103.097 L 194.566 103.097 C 195.302 107.376 196.066 111.657 197.021 115.892 C 197.693 118.872 198.388 121.845 199.111 124.813 C 199.836 127.788 200.642 130.745 201.506 133.683 C 201.874 134.938 202.248 136.192 202.648 137.437 C 202.877 138.148 203.101 138.867 203.403 139.551 L 203.403 139.553 C 203.565 139.921 203.727 140.287 203.889 140.655 C 204.027 140.968 204.269 141.225 204.588 141.359 C 204.86 141.474 205.162 141.49 205.446 141.407 C 205.529 141.383 205.612 141.351 205.689 141.311 C 206.004 141.144 206.23 140.855 206.335 140.517 L 206.335 140.515 C 206.454 140.131 206.572 139.746 206.692 139.362 C 206.951 138.523 206.936 137.595 206.919 136.726 C 206.892 135.376 206.778 134.028 206.646 132.685 C 206.347 129.651 206.006 126.618 205.605 123.595 C 205.208 120.595 204.822 117.595 204.445 114.592 C 203.91 110.337 203.339 106.085 202.761 101.835 C 202.228 97.919 201.693 93.998 201.251 90.07 C 201.199 89.61 201.147 89.151 201.095 88.691 C 201.72 88.493 202.378 88.385 203.021 88.267 C 204.389 88.017 205.768 87.812 207.145 87.621 C 210.116 87.209 213.085 86.764 216.029 86.19 C 218.117 85.782 220.216 85.422 222.324 85.126 C 224.129 84.872 225.943 84.661 227.761 84.529 C 228.849 84.45 229.962 84.485 231.022 84.76 C 231.429 84.866 231.918 85.008 232.22 85.325 C 232.467 85.584 232.698 85.888 232.798 86.238 C 232.854 86.433 232.921 86.853 232.966 87.116 C 233.09 87.842 233.196 88.57 233.3 89.299 C 233.677 91.932 234.005 94.575 234.326 97.216 C 234.456 98.283 234.586 99.349 234.716 100.416 C 233.927 100.548 233.141 100.71 232.366 100.893 C 232.357 100.895 232.351 100.898 232.343 100.9 C 232.337 100.902 232.33 100.903 232.324 100.903 C 229.622 101.579 226.871 102.064 224.098 102.33 C 221.291 102.6 218.48 102.83 215.666 103.015 C 213.221 103.175 210.766 103.41 208.364 103.905 C 207.427 104.098 206.473 104.358 205.639 104.84 C 204.833 105.306 204.151 106.047 204.016 106.984 C 203.999 107.073 203.99 107.161 203.988 107.252 C 203.954 108.518 204.799 109.474 205.781 110.151 C 207.438 111.485 209.18 112.714 210.921 113.935 C 211.214 114.141 211.617 114.069 211.822 113.776 C 212.028 113.483 211.96 113.08 211.666 112.875 C 210.698 112.195 209.754 111.468 208.898 110.649 C 208.329 110.105 207.776 109.51 207.371 108.83 C 207.333 108.748 207.293 108.663 207.261 108.575 C 207.756 108.527 208.266 108.547 208.756 108.565 C 211.082 108.646 213.406 108.74 215.731 108.84 C 218.677 108.966 221.632 108.947 224.576 108.795 C 227.662 108.637 230.736 108.279 233.779 107.746 C 233.786 107.745 233.792 107.743 233.799 107.743 C 233.805 107.742 233.814 107.74 233.821 107.74 C 234.41 107.629 234.999 107.505 235.584 107.369 C 235.76 108.755 235.932 110.14 236.118 111.525 C 236.119 111.536 236.119 111.547 236.119 111.557 L 236.121 111.557 C 236.459 114.074 236.853 116.588 237.384 119.072 C 237.812 121.07 238.34 123.051 239.044 124.971 C 239.056 125.002 239.063 125.033 239.075 125.064 C 239.689 126.721 240.442 128.365 241.516 129.779 C 242.215 130.699 242.992 131.625 244.003 132.192 C 244.07 132.231 244.139 132.264 244.208 132.3 C 244.27 132.331 244.331 132.364 244.395 132.391 C 244.549 132.46 244.709 132.524 244.873 132.572 C 245.004 132.611 245.132 132.649 245.263 132.688 C 245.342 132.711 245.42 132.715 245.499 132.733 C 245.636 132.765 245.772 132.797 245.911 132.813 C 246.03 132.827 246.147 132.826 246.266 132.829 C 246.392 132.832 246.517 132.836 246.643 132.826 C 246.77 132.816 246.893 132.79 247.018 132.767 C 247.129 132.747 247.24 132.731 247.348 132.701 C 247.479 132.665 247.603 132.615 247.728 132.565 C 247.831 132.525 247.935 132.487 248.034 132.438 C 248.144 132.383 248.247 132.318 248.352 132.252 C 248.456 132.187 248.561 132.124 248.659 132.048 C 248.759 131.971 248.85 131.883 248.942 131.796 C 249.027 131.715 249.112 131.636 249.191 131.547 C 249.281 131.444 249.36 131.329 249.44 131.215 C 249.487 131.147 249.545 131.09 249.589 131.018 C 249.608 130.985 249.622 130.95 249.641 130.917 C 249.68 130.849 249.711 130.778 249.745 130.708 C 249.819 130.557 249.881 130.405 249.933 130.248 C 249.947 130.208 249.969 130.173 249.982 130.131 C 249.99 130.103 249.991 130.072 249.999 130.044 C 250.034 129.915 250.058 129.785 250.079 129.655 C 250.09 129.581 250.108 129.509 250.115 129.435 C 250.129 129.302 250.128 129.171 250.127 129.038 C 250.127 128.964 250.137 128.89 250.13 128.816 C 250.119 128.616 250.088 128.417 250.044 128.222 C 250.034 128.172 250.015 128.124 250.001 128.075 C 249.962 127.928 249.921 127.782 249.864 127.64 C 249.857 127.622 249.855 127.605 249.848 127.589 C 249.795 127.463 249.742 127.338 249.69 127.213 C 249.441 126.616 249.179 126.027 248.921 125.434 C 248.433 124.314 248.018 123.158 247.62 122.004 C 247.082 120.447 246.696 118.84 246.38 117.225 C 245.933 114.951 245.596 112.655 245.304 110.356 C 245.01 108.043 244.726 105.729 244.439 103.415 C 244.635 103.239 244.823 103.058 245.001 102.865 C 245.413 102.418 245.385 101.721 244.938 101.31 C 244.867 101.245 244.79 101.19 244.705 101.145 C 244.516 101.046 244.321 100.959 244.124 100.877 C 243.927 99.283 243.725 97.69 243.529 96.097 C 243.528 96.095 243.529 96.092 243.528 96.09 C 243.194 93.381 242.851 90.675 242.452 87.975 C 242.249 86.601 242.076 85.181 241.69 83.84 C 241.678 83.792 241.672 83.744 241.657 83.696 C 241.648 83.665 241.638 83.634 241.629 83.603 C 241.577 83.436 241.514 83.275 241.445 83.118 C 240.945 81.743 240.182 80.48 239.224 79.374 C 239.13 79.251 239.028 79.133 238.921 79.017 C 237.443 77.428 235.487 76.387 233.407 75.82 C 233.253 75.778 233.098 75.745 232.944 75.719 C 231.547 75.383 230.113 75.218 228.676 75.218 L 228.677 75.22 Z  M 730.879 62.96 C 730.538 62.974 730.192 63.113 729.92 63.379 C 729.554 63.737 729.366 64.232 729.24 64.718 C 728.913 65.978 728.882 67.324 728.852 68.618 C 728.762 72.451 728.942 76.292 729.24 80.113 C 729.61 84.852 729.97 89.589 730.324 94.329 C 730.41 95.476 730.505 96.621 730.594 97.767 C 730.396 97.74 730.191 97.767 730.007 97.854 C 726.541 99.477 723.178 101.321 719.948 103.373 C 718.226 104.431 716.444 105.401 714.578 106.182 C 713.552 106.612 712.412 106.937 711.288 106.819 C 711.277 106.818 711.265 106.818 711.253 106.818 C 710.218 106.702 709.256 106.256 708.4 105.678 C 707.12 104.814 706.049 103.669 705.137 102.431 C 704.016 100.909 703.224 99.168 702.675 97.365 C 701.986 95.102 701.595 92.757 701.416 90.401 C 701.216 87.771 701.098 85.135 701.077 82.498 C 701.058 80.105 701.064 77.713 701.108 75.32 C 701.146 73.27 701.089 71.212 700.844 69.175 C 700.733 68.248 700.622 67.322 700.511 66.396 C 700.486 66.193 700.447 65.999 700.347 65.817 C 700.278 65.692 700.188 65.579 700.081 65.485 C 700.012 65.437 699.943 65.388 699.874 65.339 C 699.664 65.221 699.423 65.168 699.183 65.186 C 698.657 65.227 698.301 65.575 698.126 66.02 C 698.083 66.112 698.05 66.207 698.03 66.309 C 697.855 67.225 697.677 68.14 697.502 69.056 C 697.128 71.017 696.824 72.993 696.558 74.972 C 696.231 77.409 695.988 79.86 695.793 82.311 C 695.575 85.045 695.422 87.783 695.325 90.525 C 695.224 93.371 695.393 96.234 695.928 99.033 C 696.44 101.714 697.353 104.329 698.754 106.678 C 700.07 108.883 701.792 110.863 703.929 112.305 C 705.861 113.609 708.081 114.477 710.411 114.675 C 710.429 114.676 710.447 114.678 710.466 114.68 C 710.514 114.685 710.563 114.688 710.611 114.692 C 713.005 114.854 715.38 114.273 717.552 113.288 C 717.595 113.27 717.64 113.253 717.683 113.233 C 719.93 112.195 722.036 110.868 724.024 109.397 C 724.037 109.388 724.052 109.376 724.065 109.367 C 724.07 109.364 724.072 109.36 724.074 109.358 C 727.061 107.193 729.407 104.191 730.827 100.792 C 731.013 103.014 731.213 105.236 731.436 107.454 C 731.596 109.04 731.791 110.626 732.063 112.197 C 732.277 113.426 732.532 114.651 732.926 115.836 C 733.596 117.856 734.615 119.991 736.624 120.973 C 736.762 121.04 736.903 121.095 737.045 121.146 C 737.558 121.336 738.103 121.438 738.651 121.432 C 738.797 121.431 738.944 121.426 739.088 121.408 C 739.233 121.393 739.376 121.37 739.518 121.338 C 740.897 121.029 742.07 120.1 742.613 118.785 C 742.912 118.063 743.002 117.265 742.882 116.493 C 742.774 115.796 742.494 115.144 742.141 114.537 C 741.909 114.14 741.469 113.912 741.011 113.955 C 740.852 113.97 740.697 113.983 740.544 113.98 C 740.4 113.713 740.27 113.436 740.155 113.155 C 739.821 112.343 739.589 111.486 739.374 110.636 C 739.024 109.257 738.745 107.86 738.491 106.46 C 737.723 102.228 737.135 97.962 736.591 93.696 C 735.986 88.956 735.343 84.221 734.63 79.496 C 734.069 75.773 733.491 72.052 732.875 68.337 C 732.825 68.033 732.774 67.729 732.722 67.425 C 732.757 67.479 732.795 67.53 732.83 67.584 C 733.045 67.92 733.491 68.018 733.828 67.803 C 734.164 67.587 734.265 67.14 734.05 66.804 C 733.39 65.772 732.711 64.741 732.115 63.671 C 732.108 63.658 732.097 63.646 732.088 63.633 C 731.835 63.179 731.366 62.943 730.881 62.962 L 730.879 62.96 Z  M 150.182 81.441 C 148.047 81.49 145.916 81.683 143.806 82.014 C 143.771 82.019 143.738 82.029 143.703 82.036 C 140.995 82.467 138.32 83.12 135.734 84.037 C 133.239 84.922 130.86 86.164 128.798 87.834 C 126.983 89.305 125.381 91.053 124.191 93.069 C 123.227 94.705 122.383 96.419 121.761 98.215 C 121.251 99.686 120.886 101.304 121.148 102.862 C 121.329 103.941 121.722 104.992 122.371 105.879 C 122.373 105.883 122.373 105.888 122.373 105.892 C 123.285 107.326 124.278 108.709 125.28 110.08 C 125.519 110.406 125.976 110.475 126.303 110.237 C 126.629 109.998 126.701 109.541 126.463 109.214 C 125.574 107.997 124.663 106.623 124.326 105.129 C 124.226 104.347 124.244 103.552 124.328 102.77 C 124.441 101.727 124.93 100.719 125.414 99.805 C 126.17 98.378 127.102 97.05 128.116 95.796 C 129.219 94.434 130.581 93.3 132.055 92.361 C 133.74 91.288 135.625 90.561 137.558 90.077 C 139.871 89.497 142.235 89.136 144.612 88.955 C 147.046 88.769 149.497 88.766 151.931 88.963 C 154.007 89.13 156.026 89.721 157.874 90.68 C 159.672 91.613 161.263 92.907 162.518 94.5 C 163.791 96.116 164.718 97.979 165.265 99.961 C 165.9 102.265 166.273 104.636 166.41 107.021 C 166.54 109.292 166.559 111.579 166.353 113.846 C 166.238 115.108 165.972 116.431 165.283 117.515 C 164.783 118.301 164.049 118.871 163.204 119.249 C 161.745 119.901 160.146 120.205 158.563 120.36 C 156.578 120.554 154.581 120.665 152.586 120.639 C 151.308 120.621 149.996 120.613 148.732 120.398 C 148.611 120.377 148.492 120.356 148.372 120.333 C 148.326 120.323 148.294 120.311 148.255 120.301 C 147.901 120.111 147.522 119.969 147.126 119.886 C 145.534 119.55 143.845 120.164 142.829 121.439 C 142.58 121.751 142.376 122.098 142.221 122.466 L 142.219 122.466 C 142.107 122.729 142.034 123.006 141.976 123.285 C 141.975 123.289 141.974 123.294 141.974 123.298 C 141.952 123.406 141.922 123.513 141.909 123.622 C 141.892 123.754 141.889 123.885 141.883 124.016 C 141.883 124.025 141.884 124.036 141.884 124.045 C 141.868 124.517 141.926 124.98 142.059 125.433 C 142.069 125.463 142.065 125.495 142.075 125.526 C 142.092 125.582 142.117 125.633 142.137 125.688 C 142.156 125.738 142.166 125.789 142.186 125.838 C 142.203 125.879 142.224 125.917 142.241 125.956 C 142.271 126.026 142.303 126.095 142.336 126.163 C 142.375 126.24 142.416 126.315 142.458 126.389 C 143.047 127.433 144.018 128.212 145.144 128.658 C 145.816 128.925 146.526 129.089 147.237 129.209 C 148.947 129.5 150.704 129.531 152.434 129.531 C 152.445 129.531 152.456 129.533 152.466 129.533 C 152.486 129.533 152.51 129.531 152.531 129.531 C 154.834 129.53 157.135 129.375 159.423 129.115 C 159.447 129.113 159.47 129.11 159.494 129.107 C 161.986 128.822 164.464 128.225 166.735 127.142 C 166.779 127.123 166.823 127.104 166.866 127.083 C 169.158 125.967 171.115 124.247 172.446 122.068 C 172.467 122.035 172.487 122.003 172.508 121.969 C 173.84 119.742 174.476 117.172 174.671 114.6 C 174.672 114.575 174.676 114.548 174.677 114.523 C 174.869 111.87 174.795 109.201 174.575 106.552 C 174.573 106.516 174.571 106.48 174.57 106.443 C 174.324 103.529 173.795 100.64 172.965 97.835 L 172.943 97.758 C 172.063 94.806 170.629 92.032 168.709 89.622 C 168.704 89.616 168.697 89.609 168.693 89.6 C 166.729 87.142 164.242 85.142 161.436 83.725 C 161.399 83.706 161.362 83.693 161.325 83.676 C 158.593 82.315 155.59 81.55 152.539 81.45 C 152.466 81.443 152.39 81.443 152.317 81.441 C 151.605 81.425 150.895 81.425 150.183 81.442 L 150.182 81.441 Z  M 273.244 79.126 C 272.783 79.149 272.387 79.459 272.252 79.9 C 271.772 81.476 271.653 83.135 271.825 84.768 C 271.267 84.928 270.95 85.472 270.879 86.033 C 270.841 86.332 270.854 86.633 270.887 86.932 C 270.968 87.699 271.156 88.458 271.355 89.202 C 272.056 91.805 272.912 94.367 273.823 96.904 C 273.994 97.381 274.169 97.855 274.343 98.331 C 274.507 99.309 274.672 100.287 274.823 101.267 C 275.225 103.883 275.635 106.499 276.063 109.111 C 276.395 111.143 276.754 113.172 277.198 115.182 C 277.521 116.643 277.882 118.099 278.346 119.522 C 278.71 120.637 279.127 121.766 279.771 122.753 C 279.843 122.861 279.921 122.965 280.002 123.062 C 280.909 124.265 282.288 125.113 283.813 124.983 C 283.818 124.983 283.822 124.983 283.826 124.983 C 283.887 124.979 283.948 124.971 284.01 124.963 C 284.101 124.949 284.193 124.936 284.282 124.917 C 284.298 124.914 284.31 124.91 284.324 124.907 C 284.394 124.89 284.463 124.873 284.532 124.853 C 284.571 124.841 284.609 124.831 284.647 124.818 C 284.738 124.788 284.827 124.752 284.915 124.714 C 284.919 124.713 284.924 124.71 284.928 124.708 C 286.059 124.213 286.89 123.123 286.944 121.835 C 286.974 121.138 286.774 120.447 286.371 119.878 C 286.223 119.668 286.05 119.484 285.86 119.314 C 285.77 119.194 285.684 119.069 285.602 118.944 C 285.212 118.347 284.913 117.685 284.608 117.043 C 285.093 117.01 285.571 116.885 286.006 116.648 C 286.704 116.268 287.248 115.652 287.563 114.925 C 287.651 114.722 287.732 114.515 287.795 114.304 C 288.15 113.099 287.821 111.764 286.871 110.905 C 286.658 110.713 286.419 110.55 286.162 110.421 C 285.916 110.296 285.655 110.206 285.385 110.148 C 285.304 110.008 285.225 109.869 285.145 109.729 C 284.305 108.245 283.513 106.732 282.726 105.219 C 281.441 102.75 280.168 100.272 278.935 97.777 C 278.934 97.775 278.933 97.773 278.932 97.771 C 278.46 95.86 277.973 93.955 277.455 92.057 C 276.823 89.744 276.158 87.439 275.389 85.169 C 274.842 83.553 274.482 81.87 274.395 80.164 C 274.364 79.56 273.85 79.097 273.246 79.127 L 273.244 79.126 Z  M 783.97 67.836 C 782.935 67.892 781.904 68.173 780.955 68.627 C 779.183 69.476 777.623 70.726 776.228 72.096 C 774.91 73.39 773.653 74.746 772.49 76.181 C 771.368 77.564 770.356 79.104 769.866 80.832 C 769.221 83.103 769.927 85.428 771.272 87.296 C 771.822 88.058 772.546 88.681 773.286 89.251 C 774.064 89.849 774.879 90.395 775.705 90.924 C 778.245 92.552 780.886 94.022 783.533 95.467 C 788.571 98.216 793.605 101.009 798.448 104.094 C 801.375 105.958 804.254 107.945 806.859 110.245 C 807.689 110.978 808.496 111.747 809.196 112.607 C 809.428 112.892 809.677 113.204 809.862 113.534 C 809.419 113.99 808.913 114.385 808.392 114.746 C 807.505 115.36 806.559 115.892 805.599 116.382 C 803.052 117.682 800.234 118.42 797.434 118.935 C 793.655 119.63 789.821 120.004 785.984 120.166 C 782.31 120.322 778.617 120.315 774.954 119.968 C 772.286 119.716 769.607 119.405 766.986 118.833 C 766.971 118.829 766.956 118.827 766.941 118.825 C 765.33 118.473 763.713 118.096 762.154 117.552 C 761.589 117.354 761.022 117.156 760.456 116.958 C 760.454 116.957 760.452 116.956 760.45 116.956 C 760.441 116.952 760.432 116.952 760.424 116.948 C 758.29 116.202 755.956 117.327 755.211 119.46 C 754.592 121.229 755.262 123.153 756.762 124.179 L 756.764 124.181 C 756.79 124.2 756.822 124.213 756.849 124.231 C 757.018 124.34 757.188 124.447 757.376 124.533 C 757.365 124.528 757.374 124.531 757.408 124.547 C 757.422 124.553 757.437 124.56 757.451 124.566 L 757.453 124.568 C 757.455 124.569 757.457 124.57 757.459 124.57 C 757.987 124.81 758.514 125.052 759.041 125.292 C 760.939 126.157 762.957 126.753 764.972 127.274 C 767.929 128.039 770.968 128.491 773.998 128.855 C 778.091 129.347 782.23 129.414 786.345 129.261 C 790.615 129.102 794.881 128.692 799.085 127.918 C 802.758 127.243 806.411 126.219 809.747 124.513 L 809.75 124.513 C 812.271 123.224 814.766 121.667 816.651 119.521 C 816.662 119.508 816.67 119.498 816.682 119.485 C 816.793 119.358 816.893 119.222 816.988 119.087 C 817.877 117.96 818.54 116.655 818.788 115.234 C 819.039 113.798 818.845 112.332 818.326 110.979 C 818.299 110.896 818.277 110.812 818.245 110.73 C 818.212 110.642 818.174 110.553 818.135 110.468 C 818.072 110.33 818.003 110.199 817.928 110.071 C 816.684 107.606 814.605 105.585 812.537 103.808 C 812.521 103.795 812.506 103.781 812.491 103.768 C 809.53 101.229 806.286 99.029 802.976 96.975 C 802.963 96.966 802.948 96.956 802.934 96.947 C 797.907 93.831 792.687 91.026 787.457 88.27 C 787.439 88.26 787.422 88.251 787.404 88.242 C 784.968 86.959 782.535 85.654 780.177 84.229 C 779.494 83.816 778.814 83.396 778.161 82.935 C 777.928 82.77 777.701 82.599 777.496 82.404 C 777.535 82.326 777.572 82.25 777.613 82.176 C 777.859 81.723 778.156 81.296 778.469 80.887 C 779.394 79.675 780.421 78.545 781.505 77.475 L 781.512 77.468 L 781.514 77.468 C 782.487 76.508 783.5 75.571 784.608 74.767 C 784.767 74.652 784.948 74.528 785.138 74.431 C 785.253 74.976 785.348 75.53 785.339 76.082 C 785.222 77.062 784.694 77.972 784.133 78.76 C 783.817 79.202 783.919 79.817 784.362 80.133 C 784.684 80.363 785.115 80.377 785.452 80.169 C 786.703 79.395 787.862 78.373 788.499 77.024 C 788.503 77.018 788.508 77.011 788.512 77.004 C 788.531 76.968 788.545 76.93 788.564 76.893 L 788.564 76.891 C 789.049 75.936 789.34 74.883 789.567 73.842 C 789.773 72.897 789.781 71.903 789.453 70.983 C 789.097 69.984 788.366 69.19 787.465 68.656 C 787.323 68.559 787.174 68.471 787.014 68.398 C 786.041 67.952 785.001 67.781 783.966 67.836 L 783.97 67.836 Z  M 132.05 101.01 C 131.153 101.051 130.462 101.647 130.154 102.43 C 130.022 102.532 129.897 102.645 129.789 102.778 C 129.493 103.14 129.333 103.573 129.293 104.025 L 129.293 104.027 C 129.281 104.155 129.276 104.284 129.283 104.414 C 129.355 105.492 129.429 106.569 129.5 107.647 C 129.635 109.673 129.937 111.689 130.319 113.685 C 130.907 118.919 131.642 124.134 132.437 129.34 C 133.054 133.381 133.676 137.42 134.265 141.465 C 134.588 143.676 134.963 145.882 135.402 148.074 C 135.551 148.816 135.699 149.557 135.866 150.295 C 135.923 150.547 135.981 150.799 136.05 151.048 C 136.325 152.03 136.882 152.892 137.767 153.458 C 138.351 153.833 139.023 154.028 139.713 154.055 C 139.754 154.056 139.794 154.058 139.835 154.059 C 139.9 154.059 139.964 154.064 140.029 154.06 C 140.042 154.071 140.052 154.084 140.065 154.095 C 140.096 154.12 140.129 154.142 140.16 154.166 C 140.232 154.222 140.302 154.277 140.377 154.328 L 140.38 154.33 C 140.475 154.395 140.574 154.454 140.674 154.51 C 140.739 154.545 140.804 154.576 140.87 154.608 C 141.149 154.743 141.441 154.85 141.752 154.917 C 141.88 154.945 142.01 154.966 142.14 154.981 C 142.272 154.995 142.407 155.004 142.541 155.006 C 142.549 155.006 142.558 155.005 142.566 155.005 C 142.693 155.006 142.819 155 142.946 154.988 C 143.062 154.979 143.174 154.96 143.287 154.941 C 143.289 154.94 143.293 154.938 143.295 154.938 C 143.423 154.915 143.55 154.886 143.673 154.851 C 143.675 154.85 143.678 154.851 143.68 154.851 C 143.76 154.827 143.838 154.799 143.916 154.77 C 143.962 154.754 144.008 154.743 144.054 154.725 C 144.062 154.723 144.069 154.718 144.076 154.716 C 144.193 154.668 144.309 154.614 144.42 154.555 L 144.422 154.555 C 144.535 154.496 144.644 154.429 144.749 154.36 C 144.751 154.358 144.755 154.355 144.758 154.353 C 145.075 154.143 145.354 153.892 145.592 153.609 C 145.599 153.6 145.607 153.591 145.614 153.583 C 145.639 153.552 145.661 153.519 145.686 153.488 C 145.738 153.42 145.793 153.348 145.841 153.277 C 145.905 153.183 145.965 153.085 146.02 152.986 C 146.027 152.975 146.033 152.963 146.039 152.953 C 146.056 152.923 146.067 152.892 146.082 152.862 C 146.18 152.669 146.268 152.468 146.334 152.259 C 146.346 152.223 146.352 152.186 146.363 152.149 C 146.387 152.065 146.412 151.982 146.431 151.896 C 146.457 151.772 146.477 151.643 146.492 151.517 C 146.506 151.385 146.515 151.248 146.516 151.113 C 146.522 150.638 146.526 150.161 146.53 149.685 C 146.532 149.643 146.539 149.602 146.54 149.559 C 146.541 149.251 146.551 148.94 146.525 148.632 C 146.461 147.852 146.168 147.12 145.696 146.52 C 145.357 144.816 144.99 143.115 144.606 141.421 L 144.588 141.354 C 143.909 138.364 143.145 135.396 142.341 132.437 C 142.336 132.417 142.333 132.397 142.326 132.376 C 141.435 129.102 140.484 125.846 139.479 122.605 C 139.47 122.573 139.464 122.541 139.454 122.509 C 138.569 119.66 137.694 116.806 136.839 113.947 C 136.737 113.483 136.643 113.017 136.538 112.553 C 136.023 110.278 135.539 107.988 134.97 105.723 C 135.037 105.484 135.039 105.227 134.951 104.986 C 134.765 104.483 134.563 103.979 134.383 103.47 C 134.317 103.224 134.252 102.979 134.186 102.734 C 134.045 102.209 133.81 101.742 133.349 101.405 C 133.111 101.232 132.842 101.112 132.553 101.052 C 132.388 101.018 132.218 101.004 132.049 101.011 L 132.05 101.01 Z " fill="rgb(12,12,14)"/></g></g><path d=" M 869.62 78.24 C 869.48 78.37 869.34 78.5 869.18 78.61 C 868.96 78.77 868.71 78.9 868.45 78.99 C 868.19 79.08 867.92 79.12 867.64 79.12 C 867.36 79.12 867.09 79.08 866.83 78.99 C 866.5 78.89 866.2 78.74 865.91 78.54 C 865.63 78.35 865.38 78.12 865.18 77.85 C 864.96 77.56 864.79 77.25 864.67 76.92 C 864.53 76.55 864.44 76.17 864.4 75.78 C 864.35 75.16 864.34 74.52 864.38 73.89 C 864.41 73.44 864.5 72.98 864.64 72.54 C 864.77 72.13 864.97 71.74 865.21 71.39 C 865.43 71.07 865.71 70.81 866.04 70.62 C 866.17 70.54 866.3 70.48 866.44 70.43 C 866.6 70.38 866.77 70.34 866.93 70.32 C 867.26 70.29 867.6 70.31 867.92 70.37 C 868.45 70.48 868.96 70.61 869.48 70.78 C 869.88 70.91 870.28 71.09 870.65 71.31 C 870.99 71.51 871.31 71.76 871.6 72.05 C 871.88 72.34 872.12 72.66 872.31 73.01 C 872.51 73.36 872.67 73.73 872.78 74.12 C 872.87 74.38 872.95 74.65 873.03 74.91 C 873.09 75.14 873.14 75.36 873.19 75.59 C 873.26 75.94 873.3 76.3 873.3 76.65 C 873.31 76.97 873.26 77.28 873.17 77.57 C 873.08 77.85 872.93 78.1 872.73 78.31 C 872.51 78.54 872.22 78.71 871.91 78.8 C 871.69 78.86 871.46 78.88 871.23 78.86 C 871.04 78.85 870.86 78.81 870.67 78.75 C 870.44 78.67 870.2 78.58 869.98 78.46 C 869.85 78.4 869.73 78.32 869.62 78.24 Z  M 863.48 152.21 C 863.58 152.16 863.67 152.12 863.77 152.08 C 863.96 152 864.16 151.92 864.35 151.86 C 864.67 151.76 864.99 151.69 865.32 151.66 C 865.64 151.63 865.96 151.67 866.27 151.77 C 866.68 151.9 867.03 152.18 867.25 152.55 C 867.42 152.85 867.52 153.19 867.52 153.53 C 867.52 153.71 867.51 153.89 867.47 154.07 C 867.44 154.26 867.39 154.44 867.33 154.63 C 867.16 155.17 866.92 155.69 866.64 156.19 C 866.32 156.73 865.96 157.25 865.55 157.73 C 865 158.41 864.5 159.13 864.05 159.88 C 863.83 160.25 863.65 160.65 863.51 161.06 C 863.34 161.59 863.11 162.11 862.83 162.59 C 862.59 162.98 862.29 163.34 861.93 163.63 C 861.71 163.81 861.47 163.96 861.22 164.07 C 860.96 164.19 860.69 164.28 860.41 164.32 C 860.13 164.37 859.83 164.38 859.54 164.35 C 859.24 164.32 858.94 164.26 858.65 164.17 C 858.24 164.03 857.86 163.81 857.54 163.51 C 857.22 163.22 856.95 162.86 856.75 162.47 C 856.6 162.16 856.48 161.84 856.39 161.5 C 856.29 161.1 856.22 160.68 856.18 160.27 C 856.13 159.84 856.11 159.42 856.1 158.99 C 856.09 158.24 856.09 157.49 856.11 156.75 C 856.13 156.13 856.15 155.52 856.17 154.9 C 856.21 154.05 856.26 153.2 856.31 152.35 C 856.46 149.96 856.63 147.57 856.84 145.18 C 857.22 140.9 857.63 136.61 858.07 132.34 C 858.29 130.42 858.52 128.5 858.79 126.59 C 859.38 122.28 860 117.97 860.64 113.67 C 861.11 110.55 861.59 107.45 862.1 104.34 C 862.29 103.14 862.51 101.94 862.74 100.74 C 862.83 100.28 862.93 99.81 863.04 99.34 C 863.09 99.13 863.15 98.92 863.21 98.71 C 863.33 98.35 863.48 98 863.67 97.67 C 863.85 97.38 864.07 97.11 864.33 96.89 C 864.5 96.75 864.68 96.63 864.88 96.53 C 865.09 96.43 865.3 96.36 865.52 96.32 C 865.75 96.28 865.98 96.27 866.21 96.29 C 866.43 96.31 866.65 96.36 866.87 96.43 C 867.15 96.52 867.42 96.64 867.67 96.8 C 867.92 96.96 868.14 97.16 868.33 97.39 C 868.52 97.62 868.66 97.87 868.77 98.15 C 868.87 98.42 868.94 98.71 868.97 99 C 869.01 99.39 869.02 99.78 869 100.17 C 868.95 101.47 868.87 102.76 868.78 104.05 C 868.54 106.33 868.28 108.6 867.98 110.87 C 867.61 113.75 867.21 116.62 866.78 119.5 C 866.19 123.68 865.68 127.87 865.23 132.07 C 864.66 137.41 864.16 142.76 863.73 148.12 L 863.48 152.21 Z  M 907.57 113.55 C 907.41 113.68 907.26 113.83 907.12 113.98 C 906.93 114.18 906.77 114.39 906.63 114.62 C 906.53 114.79 906.45 114.97 906.39 115.16 C 906.36 115.24 906.34 115.32 906.33 115.41 L 906.33 115.52 C 906.36 115.66 906.39 115.8 906.42 115.93 C 906.46 116.07 906.51 116.21 906.56 116.35 C 906.64 116.58 906.73 116.81 906.83 117.04 C 907.11 117.74 907.42 118.42 907.76 119.09 C 908.45 120.48 909.16 121.86 909.9 123.22 C 910.38 124.12 910.84 125.03 911.29 125.95 C 911.64 126.68 911.99 127.42 912.31 128.16 C 912.74 129.15 913.14 130.15 913.49 131.16 C 913.74 131.87 913.94 132.58 914.11 133.31 C 914.4 134.6 914.52 135.91 914.47 137.23 C 914.43 138.49 914.21 139.74 913.82 140.94 C 913.53 141.84 913.16 142.7 912.71 143.51 C 912.39 144.09 911.97 144.6 911.47 145.03 C 910.99 145.46 910.44 145.8 909.85 146.06 C 909 146.42 908.12 146.7 907.22 146.91 C 906.17 147.13 905.09 147.19 904.02 147.08 C 902.54 146.93 901.09 146.63 899.67 146.17 C 898.3 145.73 896.97 145.15 895.71 144.45 C 894.63 143.86 893.63 143.14 892.73 142.31 C 891.59 141.27 890.55 140.11 889.64 138.86 C 888.94 137.89 888.37 136.84 887.95 135.72 C 887.73 135.13 887.55 134.53 887.43 133.92 C 887.32 133.33 887.25 132.74 887.24 132.14 C 887.22 131.54 887.26 130.94 887.35 130.35 C 887.44 129.73 887.58 129.12 887.77 128.53 C 887.93 128.03 888.14 127.54 888.38 127.07 C 888.63 126.58 888.91 126.12 889.23 125.69 C 889.58 125.22 889.96 124.78 890.37 124.38 C 890.81 123.94 891.28 123.53 891.78 123.16 C 891.95 123.02 892.13 122.89 892.31 122.77 C 892.49 122.65 892.67 122.55 892.86 122.47 C 893.14 122.34 893.44 122.26 893.75 122.23 C 894.07 122.19 894.4 122.23 894.71 122.33 C 895.12 122.46 895.47 122.72 895.72 123.08 C 895.94 123.4 896.08 123.77 896.11 124.17 C 896.13 124.4 896.12 124.64 896.08 124.87 C 896.03 125.12 895.97 125.38 895.89 125.63 C 895.84 125.78 895.78 125.92 895.72 126.06 C 895.49 126.53 895.26 126.99 895.02 127.46 C 894.73 128.07 894.46 128.68 894.18 129.29 C 894.17 129.31 894.16 129.34 894.15 129.37 C 894.06 129.65 894 129.95 893.98 130.24 C 893.96 130.6 893.97 130.96 894.03 131.32 C 894.14 132.06 894.39 132.78 894.74 133.45 C 895.27 134.42 895.92 135.33 896.68 136.14 C 897.45 136.96 898.31 137.69 899.25 138.31 C 900.04 138.83 900.9 139.25 901.81 139.54 C 902.09 139.63 902.38 139.71 902.67 139.78 C 902.78 139.8 902.89 139.82 903.01 139.82 C 903.68 139.93 904.36 139.98 905.04 139.98 C 905.38 139.98 905.73 139.93 906.06 139.84 C 906.23 139.8 906.4 139.73 906.56 139.65 C 906.66 139.6 906.74 139.54 906.82 139.47 C 906.89 139.41 906.95 139.33 907 139.26 C 907.06 139.16 907.11 139.05 907.15 138.93 C 907.33 138.38 907.41 137.8 907.41 137.21 C 907.39 136.39 907.28 135.58 907.06 134.79 C 907 134.57 906.93 134.35 906.86 134.13 C 906.76 133.83 906.65 133.53 906.54 133.23 C 906.22 132.37 905.88 131.52 905.5 130.69 C 904.85 129.23 904.16 127.78 903.45 126.34 C 902.81 125.09 902.21 123.83 901.64 122.54 C 901.23 121.62 900.87 120.69 900.54 119.74 C 900.33 119.15 900.15 118.54 899.99 117.94 C 899.86 117.46 899.76 116.98 899.68 116.49 C 899.56 115.82 899.52 115.13 899.53 114.45 C 899.54 113.92 899.63 113.4 899.79 112.9 C 899.86 112.7 899.93 112.51 900.01 112.32 C 900.11 112.12 900.21 111.91 900.32 111.72 C 900.62 111.18 900.98 110.67 901.38 110.19 C 901.98 109.49 902.61 108.83 903.29 108.21 C 903.81 107.81 904.38 107.47 904.98 107.21 C 905.74 106.88 906.52 106.6 907.33 106.4 C 908.17 106.18 909.03 106.07 909.9 106.07 C 910.68 106.08 911.45 106.2 912.19 106.44 C 912.64 106.58 913.06 106.79 913.46 107.05 C 913.92 107.35 914.35 107.69 914.74 108.08 C 914.99 108.3 915.19 108.58 915.32 108.89 C 915.45 109.22 915.5 109.58 915.47 109.94 C 915.45 110.18 915.39 110.43 915.3 110.66 C 915.21 110.9 915.1 111.13 914.96 111.35 C 914.69 111.8 914.35 112.2 913.95 112.54 C 913.53 112.9 913.05 113.19 912.54 113.4 C 912.43 113.43 912.33 113.48 912.23 113.54 C 912.18 113.57 912.13 113.61 912.08 113.66 C 912.04 113.71 912 113.76 911.96 113.81 C 911.91 113.9 911.87 113.99 911.84 114.09 C 911.74 114.41 911.6 114.73 911.42 115.03 C 911.24 115.35 910.96 115.62 910.63 115.79 C 910.31 115.96 909.95 116.02 909.59 115.98 C 909.28 115.94 908.98 115.82 908.73 115.63 C 908.58 115.53 908.45 115.41 908.34 115.27 C 908.22 115.13 908.11 114.98 908.02 114.82 C 907.8 114.42 907.65 113.99 907.57 113.55 Z  M 830.94 134.54 L 831.18 134.62 C 831.49 134.72 831.82 134.72 832.13 134.61 C 832.48 134.49 832.8 134.28 833.04 134 C 833.28 133.74 833.49 133.44 833.65 133.13 C 833.76 132.92 833.86 132.7 833.95 132.49 C 834.06 132.2 834.17 131.91 834.26 131.61 C 834.38 131.24 834.47 130.85 834.51 130.45 C 834.56 130.04 834.57 129.62 834.54 129.21 C 834.51 128.75 834.44 128.3 834.32 127.86 C 834.2 127.35 834.03 126.85 833.84 126.36 C 833.67 125.96 833.49 125.57 833.28 125.18 C 833.11 124.87 832.92 124.57 832.71 124.29 C 832.43 123.91 832.09 123.57 831.72 123.28 C 831.38 123.01 831 122.8 830.59 122.67 C 830.32 122.59 830.05 122.54 829.77 122.54 C 829.49 122.55 829.21 122.59 828.94 122.69 C 828.69 122.78 828.45 122.9 828.23 123.06 C 828.09 123.16 827.97 123.27 827.85 123.38" fill-rule="evenodd" fill="rgb(0,0,0)"/></svg>