<?xml version="1.0" encoding="UTF-8" standalone="no"?><!-- Generator: Gravit.io --><svg xmlns="http://www.w3.org/2000/svg" xmlns:xlink="http://www.w3.org/1999/xlink" style="isolation:isolate" viewBox="0 0 493.047 512" width="493.047pt" height="512pt"><ellipse vector-effect="non-scaling-stroke" cx="243.57046716334335" cy="253.05469244927733" rx="238.1187136727408" ry="247.60293895867477" fill="rgb(224,189,242)"/><path d=" M 233.892 0.006 C 228.193 0.047 222.49 0.476 216.863 1.395 C 213.129 2.006 209.392 2.607 205.638 3.08 C 201.878 3.554 198.099 3.883 194.324 4.204 C 193.167 4.302 192.087 4.632 191.111 5.127 C 191.047 5.14 190.983 5.15 190.919 5.162 C 189.932 5.347 188.945 5.533 187.951 5.678 C 187.003 5.817 186.063 6.001 185.13 6.219 C 185.124 6.22 185.116 6.22 185.111 6.222 C 183.744 6.541 182.416 7.012 181.107 7.515 C 179.803 8.018 178.501 8.593 177.33 9.368 C 177.117 9.498 176.909 9.639 176.707 9.794 C 176.479 9.968 176.238 10.124 175.988 10.265 C 175.475 10.555 174.95 10.818 174.42 11.074 C 173.576 11.483 172.74 11.913 171.918 12.365 C 171.728 12.47 171.546 12.559 171.341 12.629 C 171.307 12.64 171.276 12.657 171.242 12.669 C 170.187 13.02 169.18 13.514 168.215 14.061 C 167.868 14.258 167.512 14.44 167.158 14.626 C 165.677 15.11 164.187 15.569 162.718 16.09 C 159.664 17.171 156.678 18.437 153.75 19.822 C 153.747 19.823 153.745 19.823 153.742 19.824 C 153.74 19.825 153.738 19.826 153.736 19.827 C 150.747 21.241 147.799 22.747 144.907 24.35 C 144.901 24.353 144.896 24.357 144.891 24.361 C 142.75 25.547 140.581 26.683 138.369 27.731 C 138.231 27.784 138.091 27.832 137.953 27.885 C 137.861 27.917 137.77 27.951 137.679 27.986 C 137.02 28.243 136.353 28.514 135.672 28.71 C 134.772 28.97 133.889 29.287 133.018 29.634 C 132.993 29.644 132.968 29.646 132.944 29.655 C 132.918 29.666 132.892 29.677 132.866 29.687 C 132.481 29.843 132.113 29.899 131.7 30.041 C 131.684 30.047 131.671 30.057 131.655 30.063 C 130.855 30.302 130.068 30.587 129.302 30.917 C 129.279 30.923 129.256 30.931 129.233 30.936 C 127.94 31.219 126.82 31.817 125.836 32.573 C 125.831 32.576 125.825 32.576 125.82 32.578 C 125.749 32.613 125.68 32.648 125.61 32.685 C 124.98 33.017 124.341 33.346 123.68 33.614 C 122.593 34.055 121.537 34.571 120.515 35.147 C 120.496 35.158 120.475 35.166 120.456 35.176 C 120.169 35.339 119.895 35.522 119.615 35.696 C 118.245 35.802 116.884 36.123 115.641 36.907 C 114.098 37.879 112.602 38.928 111.121 39.989 C 109.067 41.46 107.042 42.97 105.027 44.493 L 105.027 44.496 C 105.025 44.497 105.022 44.499 105.019 44.502 C 103.193 45.882 101.356 47.25 99.482 48.566 C 98.5 49.256 97.512 49.958 96.466 50.55 C 95.715 50.974 95.157 51.579 94.592 52.173 C 94.136 52.48 93.675 52.779 93.229 53.1 C 93.217 53.108 93.204 53.115 93.192 53.124 C 93.168 53.141 93.144 53.157 93.12 53.174 C 92.536 53.597 91.954 54.033 91.337 54.407 C 90.353 55.001 89.315 55.521 88.299 56.057 C 86.599 56.956 84.893 57.888 83.34 59.028 C 82.166 59.89 81.024 60.793 79.887 61.703 C 78.983 62.428 78.074 63.149 77.18 63.886 C 76.92 64.101 76.677 64.33 76.448 64.568 C 75.709 65.26 75.009 65.994 74.345 66.756 C 73.94 67.221 73.53 67.695 73.073 68.111 C 72.098 68.995 71.212 69.975 70.371 70.986 C 70.119 71.288 69.865 71.588 69.607 71.885 C 69.604 71.89 69.6 71.892 69.596 71.896 C 68.728 72.271 67.896 72.757 67.157 73.43 C 64.122 76.197 61.099 78.981 58.147 81.836 C 56.286 83.635 54.415 85.45 52.74 87.426 C 49.812 90.881 47.111 94.535 44.429 98.181 L 44.432 98.181 C 43.675 99.211 42.956 100.276 42.215 101.322 C 41.534 101.869 40.937 102.546 40.49 103.358 C 40.407 103.509 40.33 103.665 40.258 103.822 C 40.072 104.23 39.853 104.623 39.662 105.03 C 38.419 106.926 37.215 108.846 36.14 110.839 C 35.418 112.177 34.831 113.584 34.154 114.946 C 34.13 114.982 34.11 115.022 34.085 115.058 C 33.105 116.49 32.348 118.071 31.841 119.727 C 31.235 121.035 30.548 122.304 29.959 123.619 C 27.367 129.405 24.872 135.236 22.423 141.084 C 21.29 143.789 20.163 146.496 19.063 149.214 C 18.396 150.863 17.729 152.514 17.131 154.189 C 17.028 154.476 16.951 154.772 16.851 155.06 C 16.488 155.135 16.194 155.424 16.149 155.813 C 16.118 156.077 16.218 156.323 16.388 156.508 C 15.915 157.94 15.422 159.366 15.009 160.817 C 14.089 164.052 13.409 167.356 12.749 170.651 C 12.083 173.977 11.44 177.322 11.061 180.694 C 10.784 183.161 10.57 185.635 10.401 188.111 C 10.224 190.711 9.976 193.307 9.685 195.897 C 9.399 198.447 9.012 200.985 8.49 203.497 C 7.804 206.797 7.081 210.091 6.35 213.381 C 5.133 218.859 4.509 224.467 4.042 230.053 C 3.533 236.127 2.981 242.198 2.375 248.264 C 1.751 254.517 1.213 260.78 0.738 267.047 C 0.273 273.191 -0.018 279.352 0.001 285.516 C 0.015 290.158 0.09 294.81 0.403 299.443 C 0.733 304.346 0.831 309.266 0.919 314.177 C 0.973 317.16 1.071 320.144 1.305 323.119 C 1.483 325.382 1.726 327.658 2.226 329.875 C 2.951 333.084 3.953 336.227 5.205 339.269 C 6.776 343.087 8.592 346.806 10.431 350.5 C 12.052 353.758 13.672 357.038 15.02 360.421 C 15.623 361.936 16.147 363.482 16.66 365.029 C 17.469 367.471 18.229 369.928 18.973 372.39 C 19.74 374.927 20.52 377.463 21.337 379.984 C 21.884 381.672 22.441 383.358 23.075 385.015 C 23.079 385.026 23.082 385.038 23.086 385.05 C 23.986 387.4 25.01 389.707 26.208 391.921 C 27.311 393.959 28.533 395.931 29.861 397.83 C 31.741 400.519 33.792 403.093 35.834 405.659 C 38.557 409.08 41.274 412.504 43.988 415.932 C 46.243 418.781 48.514 421.636 50.976 424.312 C 53.494 427.049 56.177 429.641 58.85 432.226 C 62.507 435.763 66.235 439.228 70.017 442.632 C 73.356 445.637 76.649 448.698 79.837 451.863 C 82.219 454.229 84.626 456.597 87.221 458.731 C 89.043 460.229 90.939 461.636 92.899 462.948 C 95.314 464.564 97.795 466.079 100.286 467.574 C 102.738 469.046 105.17 470.558 107.535 472.166 C 109.893 473.77 112.292 475.315 114.722 476.809 C 117.031 478.228 119.227 479.824 121.345 481.513 C 123.795 483.466 126.351 485.394 129.182 486.765 C 130.488 487.397 131.833 487.949 133.178 488.492 C 135.155 489.291 137.146 490.052 139.141 490.806 C 143.251 492.358 147.373 493.885 151.516 495.35 C 155.386 496.718 159.271 498.038 163.168 499.329 C 167.419 500.737 171.716 502.01 176.052 503.131 C 180.15 504.19 184.282 505.116 188.449 505.864 C 189.989 506.141 191.529 506.431 193.059 506.761 C 193.998 506.965 194.937 507.177 195.86 507.448 C 197.452 507.916 199.032 508.426 200.595 508.984 C 202.575 509.691 204.588 510.303 206.625 510.824 C 209.069 511.449 211.58 511.803 214.1 511.915 C 216.459 512.02 218.82 512.021 221.18 511.955 C 225.096 511.846 229.01 511.442 232.904 511.047 C 237.977 510.533 243.054 510.065 248.136 509.642 C 254.817 509.085 261.471 508.184 268.101 507.195 C 273.883 506.333 279.672 505.476 285.486 504.858 C 290.031 504.376 294.547 503.604 299.004 502.593 C 302.034 501.906 305.068 501.213 308.126 500.658 C 310.421 500.241 312.7 499.747 314.962 499.18 C 318.314 498.34 321.627 497.329 324.932 496.321 C 328.375 495.271 331.82 494.203 335.196 492.949 C 337.608 492.053 339.996 491.09 342.354 490.063 C 345.639 488.632 348.859 487.052 352.068 485.46 C 355.333 483.841 358.598 482.196 361.733 480.336 C 364.712 478.569 367.624 476.684 370.523 474.791 C 373.947 472.556 377.417 470.397 380.937 468.317 C 384.816 466.025 388.621 463.611 392.365 461.106 C 395.592 458.946 398.803 456.726 401.78 454.227 C 404.157 452.232 406.439 450.125 408.654 447.953 C 411.332 445.326 413.875 442.561 416.341 439.735 C 418.419 437.356 420.437 434.924 422.456 432.495 C 425.878 428.379 429.276 424.241 432.667 420.101 C 436.041 415.982 439.41 411.861 442.764 407.728 C 444.699 405.343 446.638 402.96 448.536 400.546 C 450.843 397.61 453.113 394.645 455.337 391.647 C 458.246 387.725 460.912 383.621 463.525 379.5 C 464.943 377.264 466.333 375.015 467.662 372.725 C 468.679 370.973 469.668 369.198 470.542 367.369 L 470.542 367.366 C 471.659 365.03 472.739 362.661 473.564 360.203 C 474.126 358.528 474.784 356.885 475.464 355.254 C 476.739 352.201 477.916 349.106 479.079 346.009 C 480.228 342.951 481.37 339.881 482.353 336.764 C 483.043 334.579 483.672 332.374 484.233 330.152 C 485.161 326.479 485.951 322.771 486.756 319.07 C 487.646 314.983 488.524 310.89 489.248 306.769 C 489.86 303.286 490.426 299.795 490.978 296.302 C 491.542 292.736 492.072 289.163 492.493 285.577 L 492.493 285.574 C 492.885 282.238 493.053 278.878 493.047 275.52 C 493.047 272.474 492.991 269.429 492.869 266.386 C 492.742 263.225 492.526 260.066 492.267 256.912 C 491.926 252.775 491.325 248.661 490.606 244.574 C 490.028 241.293 489.47 237.999 489.091 234.687 C 488.563 230.08 488.134 225.462 487.691 220.845 C 487.108 214.782 486.756 208.69 486.748 202.597 C 486.748 199.972 486.721 197.346 486.626 194.723 C 486.559 192.872 486.47 191.013 486.229 189.175 C 485.808 185.967 484.984 182.818 484.03 179.731 C 483.141 176.852 482.185 173.986 481.017 171.207 C 480.266 169.422 479.378 167.694 478.491 165.974 C 477.106 163.29 475.669 160.632 474.221 157.982 C 471.4 152.821 468.631 147.625 466.062 142.332 C 463.976 138.035 461.826 133.769 459.596 129.544 C 458.176 126.856 456.733 124.159 455.518 121.369 C 454.639 119.351 453.914 117.266 453.236 115.172 C 452.39 112.557 451.497 109.956 450.508 107.391 C 449.859 105.709 449.063 104.085 448.229 102.488 C 447.164 100.447 446.022 98.444 444.854 96.461 C 443.759 94.603 442.654 92.753 441.5 90.932 C 440.694 89.661 439.873 88.389 438.939 87.208 C 437.509 85.401 436.017 83.643 434.52 81.892 C 432.637 79.689 430.81 77.436 429.023 75.154 C 427.314 72.971 425.573 70.797 423.651 68.795 C 421.059 66.095 418.325 63.527 415.625 60.937 C 412.59 58.025 409.546 55.095 406.314 52.4 C 404.899 51.22 403.421 50.118 401.929 49.038 C 399.912 47.576 397.861 46.163 395.799 44.765 C 393.807 43.415 391.804 42.08 389.759 40.812 C 388.31 39.914 386.836 39.021 385.273 38.331 C 382.906 37.286 380.478 36.377 378.051 35.48 C 375.197 34.425 372.319 33.426 369.41 32.531 C 366.887 31.754 364.423 30.793 361.994 29.762 L 361.994 29.762 C 359.928 28.885 357.821 28.11 355.704 27.366 C 352.903 26.383 350.077 25.464 347.247 24.571 C 342.016 22.921 336.772 21.307 331.48 19.868 C 329.948 19.451 328.419 19.009 326.92 18.489 C 326.227 18.248 325.511 18.008 324.862 17.661 C 323.62 16.997 322.302 16.484 320.994 15.957 C 320.474 15.661 319.918 15.412 319.325 15.222 C 318.116 14.836 316.869 14.561 315.63 14.291 C 313.77 13.885 311.901 13.518 310.032 13.157 C 306.244 12.425 302.483 11.527 298.801 10.37 C 298.725 10.346 298.648 10.329 298.572 10.306 C 298.219 10.155 297.874 9.988 297.515 9.853 C 297.49 9.844 297.469 9.828 297.443 9.819 C 296.342 9.408 295.238 9.004 294.129 8.613 C 292.739 8.122 291.3 7.735 289.828 7.601 C 289.726 7.592 289.526 7.57 289.463 7.556 L 289.46 7.556 C 288.931 7.435 288.408 7.277 287.887 7.127 C 287.103 6.902 286.307 6.707 285.51 6.531 C 285.46 6.517 285.417 6.493 285.366 6.48 C 285.242 6.451 285.116 6.425 284.991 6.401 C 284.368 6.28 283.752 6.115 283.138 5.959 C 282.177 5.715 281.211 5.491 280.236 5.312 C 280.205 5.305 280.177 5.291 280.146 5.285 C 280.1 5.276 280.053 5.269 280.007 5.261 L 280.005 5.261 L 280.002 5.261 C 279.003 5.088 277.996 4.967 276.989 4.851 C 276.979 4.85 276.971 4.847 276.962 4.846 C 276.903 4.839 276.843 4.83 276.784 4.825 C 275.684 4.699 274.588 4.556 273.493 4.396 C 273.483 4.395 273.472 4.392 273.462 4.391 C 272.398 4.235 271.33 4.088 270.259 3.994 C 269.491 3.926 268.726 3.85 267.959 3.773 C 266.598 3.636 265.226 3.603 263.857 3.597 C 263.068 3.335 262.269 3.186 261.472 3.153 C 260.236 2.357 258.866 1.755 257.293 1.67 C 254.353 1.511 251.423 1.194 248.511 0.77 C 243.681 0.068 238.766 -0.029 233.894 0.006 L 233.892 0.006 Z  M 242.943 20.33 C 244.808 20.329 246.675 20.305 248.541 20.341 C 249.078 20.352 249.616 20.378 250.151 20.416 C 251.686 20.523 253.227 20.539 254.765 20.567 C 256.191 20.594 257.621 20.619 259.048 20.668 C 259.396 20.681 259.745 20.677 260.094 20.684 C 261.254 20.98 262.43 21.221 263.597 21.43 C 266.457 21.941 269.335 22.349 272.214 22.742 C 275.038 23.128 277.863 23.525 280.679 23.967 C 282.231 24.21 283.789 24.451 285.324 24.787 C 288.103 25.393 290.836 26.226 293.547 27.078 C 297.863 28.435 302.27 29.495 306.711 30.353 C 308.441 30.687 310.171 31.028 311.894 31.404 C 312.588 31.556 313.336 31.693 313.999 31.905 C 314.901 32.192 315.758 32.655 316.589 33.1 C 316.589 33.101 316.589 33.101 316.589 33.103 L 316.589 33.103 C 318.051 33.885 319.604 34.492 321.168 35.035 C 323.046 35.687 324.955 36.244 326.873 36.765 C 331.94 38.144 336.961 39.695 341.969 41.275 C 344.621 42.112 347.267 42.97 349.891 43.892 C 351.656 44.512 353.417 45.154 355.14 45.885 C 358.122 47.152 361.154 48.316 364.252 49.269 C 366.851 50.069 369.419 50.964 371.969 51.907 C 374.057 52.679 376.153 53.451 378.19 54.351 C 378.431 54.457 378.674 54.6 378.906 54.731 C 379.453 55.04 379.989 55.367 380.522 55.698 C 382.365 56.84 384.169 58.046 385.963 59.262 C 387.875 60.558 389.778 61.868 391.649 63.223 C 392.818 64.069 393.983 64.927 395.091 65.85 C 398.011 68.285 400.751 70.945 403.493 73.575 C 406.019 75.999 408.582 78.399 411.007 80.925 L 411.007 80.925 C 411.007 80.928 411.007 80.931 411.007 80.933 C 412.518 82.508 413.875 84.238 415.219 85.954 C 417.16 88.433 419.144 90.876 421.189 93.269 C 422.543 94.853 423.898 96.44 425.19 98.074 C 425.745 98.775 426.212 99.552 426.689 100.305 C 427.742 101.966 428.752 103.657 429.75 105.352 C 430.766 107.076 431.758 108.814 432.684 110.588 C 433.212 111.6 433.739 112.625 434.151 113.692 C 435.024 115.956 435.81 118.254 436.557 120.562 C 436.847 121.458 437.226 122.322 437.537 123.211 C 437.294 123.377 437.055 123.548 436.821 123.725 C 435.247 124.913 433.811 126.285 432.42 127.678 C 429.308 130.794 426.125 133.841 422.845 136.782 C 419.35 139.916 415.603 142.763 411.774 145.473 C 407.031 148.831 402.184 152.04 397.277 155.152 C 391.93 158.543 386.482 161.774 380.948 164.85 L 380.948 164.853 C 380.948 164.854 380.948 164.854 380.935 164.855 C 373.238 169.178 365.682 173.796 358.531 178.98 C 358.218 179.207 358.15 179.643 358.377 179.957 C 358.56 180.209 358.887 180.313 359.181 180.207 C 367.513 177.211 375.457 173.175 383.093 168.715 C 383.107 168.707 383.119 168.699 383.133 168.691 L 383.133 168.689 C 383.133 168.688 383.133 168.687 383.133 168.686 C 388.65 165.43 394.093 162.047 399.446 158.528 C 404.347 155.305 409.165 151.953 413.842 148.409 C 413.858 148.399 413.872 148.387 413.887 148.375 C 417.712 145.475 421.443 142.418 424.881 139.063 C 424.897 139.049 424.911 139.033 424.926 139.018 L 424.926 139.018 C 428.101 135.915 431.126 132.659 434.046 129.315 C 434.065 129.296 434.081 129.276 434.099 129.256 C 435.338 127.836 436.607 126.428 437.996 125.152 C 438.056 125.096 438.121 125.044 438.182 124.989 C 438.603 126.113 438.952 127.263 439.431 128.362 C 440.821 131.553 442.455 134.643 444.079 137.719 C 446.217 141.769 448.276 145.86 450.276 149.98 C 452.968 155.527 455.867 160.974 458.823 166.383 C 460.205 168.91 461.576 171.442 462.896 174.002 C 463.573 175.314 464.269 176.632 464.842 177.995 C 465.788 180.243 466.548 182.569 467.267 184.897 C 467.928 187.038 468.543 189.227 468.835 191.454 C 469.004 192.744 469.046 194.057 469.093 195.356 C 469.181 197.776 469.202 200.2 469.205 202.621 C 469.219 209.255 469.591 215.885 470.225 222.487 C 470.226 222.498 470.224 222.508 470.225 222.519 C 470.226 222.529 470.225 222.537 470.225 222.546 C 470.678 227.259 471.118 231.979 471.657 236.684 C 471.657 236.685 471.657 236.686 471.657 236.689 C 472.076 240.346 472.683 243.984 473.321 247.608 C 473.947 251.166 474.477 254.748 474.774 258.35 C 475.014 261.258 475.214 264.171 475.33 267.086 C 475.444 269.906 475.488 272.729 475.493 275.551 C 475.493 278.217 475.373 280.884 475.062 283.532 C 474.667 286.887 474.167 290.231 473.64 293.568 C 473.104 296.962 472.555 300.352 471.96 303.736 C 471.277 307.625 470.444 311.488 469.605 315.345 C 468.841 318.857 468.094 322.379 467.214 325.863 C 466.736 327.756 466.199 329.634 465.612 331.496 C 464.723 334.313 463.685 337.084 462.646 339.849 C 461.557 342.748 460.459 345.647 459.265 348.506 C 458.423 350.523 457.616 352.558 456.92 354.631 C 456.323 356.411 455.508 358.126 454.7 359.817 C 454.027 361.224 453.26 362.584 452.477 363.932 C 451.264 366.023 449.99 368.08 448.695 370.121 C 446.309 373.882 443.885 377.632 441.23 381.211 C 439.103 384.079 436.934 386.914 434.727 389.721 C 432.886 392.064 431.004 394.377 429.126 396.69 C 425.789 400.804 422.436 404.904 419.08 409.002 C 415.716 413.11 412.346 417.215 408.951 421.298 C 407.022 423.619 405.093 425.943 403.108 428.216 C 400.938 430.702 398.705 433.138 396.349 435.449 C 396.349 435.452 396.349 435.456 396.336 435.46 C 394.448 437.312 392.505 439.11 390.479 440.811 C 387.988 442.901 385.281 444.743 382.581 446.55 C 382.488 446.612 382.391 446.666 382.299 446.728 C 382.189 446.364 381.989 446.032 381.676 445.788 C 381.154 445.382 380.47 445.255 379.823 445.243 C 378.724 445.222 377.61 445.701 376.624 446.132 C 374.95 446.863 373.345 447.758 371.768 448.677 C 368.107 450.809 364.435 452.923 360.75 455.015 C 356.652 457.341 352.408 459.409 348.122 461.364 C 344.856 462.853 341.516 464.178 338.171 465.477 C 333.124 467.435 328.038 469.3 322.945 471.133 C 314.138 474.303 305.328 477.48 296.421 480.357 C 296.416 480.358 296.414 480.358 296.41 480.36 C 296.408 480.36 296.406 480.363 296.404 480.363 C 287.68 483.145 279.014 486.114 270.397 489.211 C 268.758 489.449 267.111 489.627 265.475 489.871 C 259.219 490.804 252.942 491.662 246.638 492.187 C 241.453 492.619 236.269 493.097 231.092 493.622 C 227.623 493.974 224.137 494.35 220.649 494.447 C 218.711 494.501 216.768 494.504 214.83 494.418 C 213.513 494.359 212.201 494.183 210.922 493.856 C 210.154 493.66 209.389 493.446 208.63 493.215 C 208.245 493.097 207.863 492.977 207.48 492.85 C 207.202 492.757 206.916 492.68 206.637 492.584 C 206.569 492.557 206.512 492.515 206.442 492.49 C 204.565 491.82 202.666 491.205 200.754 490.643 C 197.727 489.754 194.602 489.182 191.501 488.625 C 187.767 487.955 184.062 487.123 180.389 486.174 C 176.433 485.151 172.511 483.987 168.631 482.702 C 164.845 481.448 161.068 480.166 157.307 478.837 C 153.282 477.414 149.28 475.929 145.286 474.421 C 143.417 473.715 141.548 473 139.696 472.251 C 138.712 471.854 137.723 471.46 136.767 470.998 C 136.211 470.728 135.688 470.376 135.178 470.029 C 134.16 469.335 133.181 468.584 132.218 467.817 C 129.543 465.684 126.764 463.677 123.849 461.886 C 121.649 460.534 119.475 459.137 117.34 457.685 C 114.702 455.89 111.991 454.2 109.256 452.558 C 107.011 451.211 104.771 449.848 102.595 448.392 C 101.112 447.399 99.678 446.337 98.299 445.203 C 96.127 443.418 94.124 441.413 92.131 439.434 C 88.74 436.067 85.24 432.811 81.688 429.614 C 78.062 426.351 74.489 423.029 70.982 419.637 C 68.554 417.289 66.109 414.942 63.821 412.455 C 61.653 410.099 59.663 407.572 57.677 405.063 C 54.954 401.622 52.225 398.183 49.491 394.75 C 47.679 392.473 45.85 390.194 44.181 387.808 C 44.178 387.804 44.175 387.798 44.173 387.794 C 43.227 386.441 42.355 385.037 41.569 383.586 C 40.733 382.039 40.026 380.424 39.397 378.783 C 38.868 377.402 38.41 375.992 37.954 374.585 C 37.173 372.173 36.428 369.75 35.694 367.323 C 34.905 364.714 34.098 362.107 33.24 359.518 C 32.619 357.645 31.979 355.776 31.249 353.942 L 31.249 353.939 C 29.722 350.106 27.906 346.386 26.068 342.695 C 24.416 339.374 22.769 336.035 21.357 332.603 C 20.479 330.471 19.775 328.267 19.267 326.017 C 18.952 324.621 18.836 323.172 18.724 321.747 C 18.518 319.124 18.433 316.49 18.386 313.86 C 18.292 308.661 18.182 303.453 17.832 298.263 C 17.545 294.005 17.483 289.732 17.47 285.465 C 17.452 279.76 17.726 274.056 18.157 268.369 C 18.621 262.242 19.149 256.119 19.76 250.004 C 20.374 243.846 20.936 237.681 21.453 231.514 C 21.854 226.717 22.358 221.885 23.404 217.179 C 24.152 213.811 24.892 210.44 25.595 207.061 C 26.228 204.015 26.701 200.939 27.048 197.848 C 27.367 195.005 27.636 192.154 27.831 189.3 C 27.982 187.079 28.173 184.86 28.422 182.648 C 28.745 179.773 29.311 176.921 29.878 174.087 C 30.446 171.248 31.02 168.395 31.813 165.608 C 32.342 163.748 32.927 161.904 33.578 160.082 C 33.759 159.577 33.97 159.082 34.164 158.581 C 34.89 158.58 35.618 158.596 36.344 158.57 C 39.348 158.463 42.343 158.053 45.309 157.582 C 49.608 156.9 53.864 155.96 58.092 154.934 C 63.635 153.588 69.1 151.931 74.509 150.126 C 74.513 150.125 74.517 150.125 74.522 150.123 L 74.522 150.121 C 81.23 147.882 87.853 145.395 94.423 142.782 C 102.048 139.748 109.644 136.639 117.215 133.475 L 117.218 133.475 C 125.244 130.122 133.293 126.822 141.362 123.575 C 149.53 120.289 157.793 117.24 166.135 114.426 C 174.295 111.674 182.441 108.879 190.569 106.033 L 190.572 106.033 L 190.575 106.03 C 196.01 104.138 201.45 102.15 206.645 99.66 C 208.387 98.825 210.115 97.931 211.721 96.854 C 212.667 96.221 213.659 95.505 214.325 94.565 C 214.55 94.247 214.475 93.808 214.157 93.583 C 213.989 93.464 213.776 93.423 213.577 93.473 C 212.439 93.759 211.317 94.105 210.196 94.45 C 208.524 94.965 206.857 95.5 205.194 96.042 C 199.78 97.808 194.389 99.643 189.001 101.489 C 180.86 104.26 172.713 107.021 164.564 109.77 C 156.133 112.614 147.782 115.702 139.534 119.039 C 131.451 122.309 123.39 125.634 115.355 129.016 C 115.353 129.017 115.351 129.019 115.349 129.019 C 107.807 132.194 100.247 135.332 92.666 138.416 C 86.206 141.045 79.695 143.557 73.104 145.84 C 73.099 145.841 73.097 145.841 73.093 145.843 C 73.086 145.844 73.076 145.85 73.069 145.854 C 67.777 147.686 62.443 149.405 57.043 150.89 C 52.946 152.017 48.822 153.07 44.652 153.893 C 41.853 154.445 39.026 154.951 36.179 155.179 C 36.168 155.179 36.157 155.178 36.147 155.179 C 35.928 155.196 35.709 155.203 35.489 155.219 C 36.49 152.755 37.508 150.3 38.535 147.848 C 40.928 142.132 43.367 136.434 45.9 130.779 C 47.658 126.855 49.466 122.942 51.509 119.157 C 53.517 115.436 55.996 111.957 58.497 108.557 C 59.586 107.076 60.757 105.655 61.867 104.186 C 61.889 104.168 61.911 104.15 61.934 104.132 C 62.004 104.077 62.073 104.022 62.141 103.965 C 62.294 103.837 62.441 103.702 62.586 103.563 C 62.633 103.518 62.684 103.478 62.73 103.432 C 62.755 103.407 62.776 103.378 62.801 103.352 C 62.916 103.234 63.025 103.109 63.134 102.982 C 63.216 102.888 63.302 102.795 63.379 102.698 C 63.395 102.678 63.411 102.659 63.427 102.639 C 63.543 102.489 63.659 102.339 63.776 102.189 L 63.778 102.186 C 63.848 102.111 63.919 102.04 63.991 101.968 C 64.604 101.36 65.186 100.721 65.743 100.062 C 65.793 100.002 65.843 99.943 65.897 99.886 C 66.83 99.1 67.659 98.189 68.466 97.278 C 69.295 96.342 70.107 95.386 70.851 94.381 C 71.122 94.016 71.483 93.696 71.815 93.386 C 72.491 92.753 73.182 92.133 73.897 91.544 C 74.764 90.828 75.617 90.088 76.401 89.281 C 76.895 88.774 77.421 88.297 77.943 87.82 C 78.541 87.272 79.146 86.732 79.777 86.222 C 80.499 85.639 81.215 85.041 81.867 84.378 C 82.545 83.687 83.164 82.938 83.783 82.195 L 83.783 82.192 C 84.103 81.808 84.429 81.417 84.8 81.079 C 85.749 80.218 86.62 79.273 87.462 78.308 C 87.476 78.293 87.491 78.279 87.505 78.263 C 87.73 78.004 87.957 77.747 88.194 77.499 C 88.245 77.446 88.296 77.393 88.348 77.342 C 89.154 76.679 89.972 76.029 90.787 75.377 C 91.733 74.62 92.682 73.864 93.659 73.147 L 93.662 73.147 C 94.605 72.454 95.644 71.878 96.657 71.297 C 97.837 70.618 99.027 69.945 100.178 69.218 C 100.194 69.208 100.211 69.2 100.226 69.191 C 100.293 69.15 100.36 69.108 100.426 69.066 C 101.345 68.476 102.237 67.847 103.128 67.216 C 104.569 66.196 106.004 65.168 107.438 64.138 C 108.862 63.116 110.279 62.085 111.668 61.013 C 111.687 60.999 111.707 60.988 111.726 60.973 C 111.751 60.954 111.776 60.934 111.801 60.915 C 112.403 60.448 113.023 60.006 113.64 59.56 C 114.183 59.173 114.74 58.806 115.28 58.415 C 115.336 58.375 115.394 58.336 115.45 58.295 C 115.876 58.008 116.297 57.712 116.733 57.441 C 117.436 57.005 118.143 56.578 118.855 56.158 C 119.737 55.637 120.616 55.111 121.493 54.582 C 122.377 54.049 123.243 53.479 124.065 52.852 C 124.125 52.81 124.186 52.773 124.246 52.729 C 124.358 52.646 124.468 52.56 124.576 52.471 C 125.079 52.055 125.606 51.669 126.133 51.284 C 126.218 51.222 126.306 51.159 126.391 51.097 C 126.685 50.9 126.968 50.685 127.254 50.475 C 127.41 50.37 127.563 50.26 127.712 50.144 C 127.624 50.212 127.733 50.132 127.765 50.113 C 127.886 50.034 128.011 49.958 128.135 49.884 C 128.559 49.632 128.993 49.394 129.428 49.162 C 129.715 49.009 130 48.853 130.286 48.699 C 130.784 48.506 131.278 48.306 131.766 48.087 C 132.15 48.055 132.534 48.036 132.921 47.951 C 132.991 47.936 133.062 47.92 133.131 47.903 C 134.933 47.461 136.717 46.953 138.487 46.399 C 140.858 45.657 143.159 44.701 145.411 43.657 C 147.488 42.694 149.512 41.624 151.534 40.551 C 151.875 40.406 152.209 40.245 152.559 40.125 C 153.174 39.913 153.789 39.704 154.406 39.496 C 155.183 39.235 155.951 38.946 156.709 38.634 C 157.307 38.388 157.95 38.226 158.572 38.051 C 159.771 37.713 160.972 37.362 162.128 36.896 L 162.131 36.896 C 162.765 36.64 163.394 36.378 164.024 36.11 C 164.624 35.855 165.234 35.618 165.845 35.389 C 166.857 35.009 167.874 34.644 168.893 34.282 C 170.147 33.835 171.396 33.371 172.619 32.844 C 173.174 32.605 173.735 32.371 174.304 32.168 C 175.368 31.788 176.449 31.455 177.525 31.114 C 178.784 30.715 180.044 30.318 181.297 29.903 C 182.062 29.649 182.823 29.388 183.581 29.117 C 184.515 28.784 185.434 28.411 186.345 28.021 C 186.938 27.766 187.545 27.543 188.16 27.345 C 189.467 26.922 190.833 26.646 192.172 26.344 C 194.112 25.906 196.053 25.473 197.996 25.047 C 199.797 24.653 201.594 24.235 203.387 23.804 C 204.909 23.438 206.434 23.092 207.971 22.79 C 209.224 22.543 210.482 22.318 211.745 22.122 C 213.043 21.92 214.349 21.766 215.656 21.635 C 216.636 21.536 217.618 21.425 218.603 21.379 C 219.897 21.318 221.186 21.132 222.465 20.929 C 223.18 20.816 223.896 20.69 224.616 20.612 C 224.925 20.579 225.243 20.583 225.553 20.58 C 226.665 20.572 227.777 20.53 228.888 20.485 C 228.96 20.483 229.033 20.481 229.104 20.479 C 230.503 20.421 231.902 20.401 233.302 20.402 C 234.598 20.403 235.896 20.403 237.191 20.365 C 239.091 20.307 240.998 20.332 242.899 20.33 L 242.943 20.33 Z  M 371.314 63.425 C 370.934 63.374 370.543 63.548 370.335 63.899 C 370.084 64.324 370.185 64.871 370.572 65.177 C 371.984 66.292 373.357 67.503 374.48 68.917 C 375.131 69.737 375.753 70.676 375.981 71.714 C 376.195 72.995 376.203 74.304 376.005 75.588 C 375.89 76.337 375.621 77.063 375.332 77.76 C 374.869 78.878 374.305 79.955 373.711 81.007 C 371.975 84.081 369.894 86.958 367.737 89.747 C 364.96 93.337 361.913 96.713 358.713 99.929 C 354.67 103.993 350.257 107.684 345.739 111.205 C 339.652 115.948 333.361 120.43 326.998 124.792 C 319.325 130.052 311.353 134.867 303.208 139.358 C 294.669 144.067 285.893 148.349 276.91 152.144 C 268.266 155.796 259.467 159.087 250.527 161.94 C 242.397 164.534 234.198 166.92 225.914 168.976 C 218.305 170.864 210.72 172.853 203.165 174.949 C 203.147 174.953 203.13 174.96 203.112 174.965 C 203.107 174.966 203.101 174.966 203.096 174.968 C 203.089 174.97 203.082 174.973 203.075 174.976 C 197.807 176.411 192.574 177.996 187.436 179.845 C 183.313 181.328 179.237 182.976 175.329 184.961 C 174.9 185.179 174.728 185.704 174.946 186.132 C 175.11 186.456 175.46 186.642 175.821 186.601 C 180.154 186.107 184.458 185.369 188.735 184.522 C 194.075 183.464 199.376 182.226 204.653 180.891 C 204.657 180.89 204.663 180.889 204.667 180.888 C 204.668 180.888 204.67 180.885 204.672 180.885 C 212.27 179.003 219.867 177.127 227.467 175.255 C 235.894 173.18 244.233 170.759 252.5 168.121 C 261.627 165.209 270.61 161.847 279.432 158.112 L 279.434 158.109 C 288.621 154.221 297.596 149.84 306.331 145.023 C 314.659 140.431 322.801 135.49 330.619 130.073 C 330.619 130.069 330.633 130.067 330.633 130.062 C 337.076 125.598 343.441 121.012 349.591 116.151 C 349.591 116.147 349.605 116.141 349.608 116.137 C 354.294 112.434 358.858 108.539 363.027 104.254 C 363.027 104.249 363.04 104.245 363.046 104.238 C 363.06 104.229 363.061 104.221 363.069 104.212 C 366.394 100.79 369.508 97.144 372.242 93.231 C 372.272 93.193 372.3 93.153 372.327 93.114 C 374.497 89.994 376.558 86.762 378.183 83.32 C 378.793 82.029 379.348 80.707 379.759 79.338 C 380.057 78.347 380.257 77.316 380.302 76.279 C 380.302 76.27 380.316 76.263 380.316 76.253 C 380.332 76.144 380.339 76.033 380.34 75.923 C 380.34 74.165 379.985 72.421 379.292 70.806 C 379.292 70.792 379.278 70.778 379.278 70.764 C 379.278 70.753 379.264 70.743 379.261 70.732 C 379.261 70.722 379.261 70.712 379.248 70.703 C 379.248 70.697 379.234 70.693 379.234 70.687 C 378.652 69.265 377.635 68.057 376.516 67.024 C 375.058 65.676 373.387 64.561 371.682 63.553 C 371.565 63.483 371.439 63.442 371.312 63.425 L 371.314 63.425 Z  M 351.895 207.622 C 351.778 207.582 351.645 207.585 351.525 207.644 C 348.971 208.892 346.377 210.055 343.774 211.197 C 340.152 212.786 336.505 214.322 332.851 215.835 C 332.851 215.835 332.851 215.836 332.851 215.837 C 327.793 217.9 322.73 219.953 317.662 221.994 C 310.277 224.969 302.8 227.719 295.331 230.473 C 285.312 234.167 275.43 238.227 265.716 242.659 C 256.305 246.953 246.843 251.134 237.326 255.187 C 230.869 257.936 224.414 260.688 217.963 263.45 C 214.803 264.802 211.639 266.146 208.494 267.53 C 208.3 267.615 208.214 267.84 208.3 268.034 C 208.364 268.179 208.51 268.271 208.67 268.262 C 210.038 268.186 211.404 267.786 212.713 267.408 C 214.746 266.82 216.746 266.126 218.735 265.406 C 225.351 263.01 231.851 260.291 238.324 257.535 C 247.861 253.473 257.335 249.264 266.749 244.925 L 266.752 244.922 C 276.394 240.477 286.173 236.321 296.06 232.448 C 296.067 232.447 296.071 232.441 296.079 232.44 C 303.502 229.532 310.933 226.625 318.266 223.495 C 318.266 223.494 318.28 223.491 318.283 223.49 C 323.31 221.345 328.324 219.164 333.323 216.955 C 333.323 216.954 333.323 216.954 333.337 216.952 L 333.337 216.949 L 333.337 216.949 C 339.583 214.23 345.837 211.501 351.96 208.511 C 352.199 208.394 352.298 208.104 352.181 207.864 C 352.122 207.744 352.021 207.662 351.904 207.622 L 351.895 207.622 Z  M 328.768 284.226 C 328.63 284.196 328.481 284.214 328.35 284.288 C 313.439 292.666 298.277 300.598 282.995 308.275 C 282.994 308.276 282.991 308.276 282.989 308.277 C 271.767 313.9 260.358 319.147 248.802 324.044 C 236.92 329.08 224.85 333.666 212.633 337.82 C 201.025 341.767 189.296 345.375 177.431 348.471 C 167.088 351.171 156.687 353.661 146.216 355.818 C 137.35 357.644 128.425 359.229 119.445 360.389 C 119.441 360.389 119.435 360.391 119.431 360.391 C 112.075 361.341 104.683 362.073 97.27 362.372 L 97.267 362.372 C 91.54 362.602 85.795 362.685 80.068 362.375 C 75.66 362.136 71.255 361.648 66.931 360.737 C 66.922 360.736 66.912 360.736 66.902 360.732 C 63.378 359.988 59.863 359.192 56.379 358.278 C 56.375 358.277 56.373 358.278 56.368 358.278 C 53.7 357.577 51.04 356.839 48.404 356.026 C 46.748 355.515 45.004 354.904 43.61 353.843 C 42.879 353.287 42.081 352.609 41.73 351.732 C 41.339 350.754 41.294 349.636 41.31 348.596 C 41.385 346.461 41.926 344.369 42.843 342.441 C 42.988 342.136 42.857 341.77 42.55 341.624 C 42.265 341.488 41.925 341.59 41.762 341.861 C 40.559 343.868 39.768 346.105 39.489 348.431 C 39.488 348.434 39.483 348.435 39.483 348.439 C 39.303 349.738 39.202 351.087 39.43 352.387 C 39.686 353.842 40.633 355.082 41.663 356.092 C 43.209 357.607 45.254 358.575 47.248 359.348 C 49.886 360.37 52.567 361.278 55.264 362.132 C 58.782 363.247 62.363 364.15 65.962 364.962 C 65.967 364.963 65.97 364.966 65.976 364.967 L 65.976 364.965 C 70.514 365.989 75.145 366.582 79.783 366.913 C 85.655 367.333 91.554 367.326 97.435 367.153 C 104.999 366.93 112.544 366.239 120.051 365.311 C 129.171 364.183 138.232 362.594 147.23 360.74 C 157.785 358.567 168.264 356.024 178.679 353.257 C 178.683 353.256 178.689 353.256 178.693 353.255 C 190.653 350.076 202.469 346.363 214.156 342.295 L 214.172 342.29 C 226.459 338.013 238.588 333.282 250.513 328.08 C 250.52 328.076 250.528 328.073 250.534 328.069 C 262.117 323.015 273.558 317.641 284.823 311.914 C 284.825 311.913 284.826 311.909 284.829 311.908 C 300.163 304.132 315.101 295.442 328.991 285.286 C 329.256 285.092 329.313 284.72 329.119 284.455 C 329.031 284.334 328.906 284.256 328.768 284.226 L 328.768 284.226 Z  M 462.027 297.64 C 461.837 297.676 461.663 297.782 461.543 297.952 C 457.001 304.367 452.473 310.797 448.1 317.328 L 448.1 317.331 C 448.098 317.332 448.1 317.335 448.1 317.336 C 445.775 320.758 443.121 323.947 440.281 326.952 C 436.946 330.48 433.174 333.578 429.221 336.386 C 424.636 339.642 419.719 342.415 414.633 344.805 C 409.112 347.4 403.526 349.858 397.886 352.185 C 392.243 354.513 386.577 356.781 380.884 358.986 C 380.871 358.989 380.871 358.994 380.862 358.997 C 372.391 362.283 363.997 365.772 355.693 369.461 C 355.45 369.569 355.34 369.856 355.448 370.1 C 355.544 370.316 355.784 370.431 356.013 370.371 C 364.842 368.084 373.539 365.282 382.039 361.973 L 382.039 361.973 L 382.039 361.973 C 387.747 359.748 393.43 357.456 399.086 355.105 L 399.086 355.102 C 404.761 352.743 410.383 350.258 415.942 347.641 C 415.942 347.639 415.956 347.64 415.956 347.638 L 415.956 347.635 C 421.206 345.163 426.269 342.273 430.969 338.864 C 430.969 338.86 430.983 338.857 430.983 338.853 C 435.056 335.898 438.912 332.598 442.251 328.823 C 442.265 328.812 442.273 328.8 442.284 328.788 C 445.102 325.596 447.714 322.207 449.961 318.587 C 449.961 318.578 449.975 318.57 449.977 318.561 C 449.979 318.558 449.977 318.558 449.977 318.555 C 449.977 318.553 449.979 318.55 449.977 318.547 C 454.153 311.909 458.47 305.36 462.8 298.822 C 463.035 298.468 462.938 297.989 462.585 297.754 C 462.411 297.64 462.207 297.604 462.018 297.64 L 462.027 297.64 Z  M 306.772 401.575 C 301.031 403.207 295.313 404.922 289.599 406.643 C 280.586 409.358 271.588 412.119 262.591 414.887 C 262.587 414.889 262.581 414.886 262.577 414.887 L 262.577 414.89 C 253.615 417.648 244.654 420.413 235.702 423.204 C 230.112 424.946 224.522 426.688 218.95 428.485 C 211.736 430.811 204.51 433.096 197.263 435.316 C 190.887 437.268 184.467 439.083 178 440.714 C 172.524 442.096 167.018 443.374 161.467 444.42 C 161.463 444.42 161.46 444.424 161.456 444.425 C 157.198 445.227 152.927 445.973 148.636 446.581 C 145.452 447.033 142.249 447.396 139.034 447.529 C 135.086 447.692 131.137 447.843 127.188 447.995 C 125 448.079 122.808 448.125 120.618 448.069 C 119.089 448.03 117.55 447.952 116.037 447.715 C 115.592 447.646 115.178 447.949 115.108 448.394 C 115.046 448.793 115.284 449.179 115.67 449.299 C 117.222 449.784 118.841 450.051 120.451 450.258 C 122.685 450.544 124.936 450.691 127.186 450.782 C 131.146 450.943 135.107 451.095 139.071 451.144 C 139.075 451.144 139.079 451.147 139.085 451.147 L 139.085 451.144 C 142.431 451.185 145.779 450.962 149.107 450.633 C 149.113 450.632 149.118 450.636 149.123 450.636 L 149.123 450.633 C 153.522 450.198 157.897 449.54 162.252 448.793 C 167.918 447.822 173.536 446.578 179.119 445.213 C 185.678 443.609 192.183 441.791 198.639 439.815 L 198.642 439.815 C 205.909 437.589 213.16 435.303 220.398 432.984 C 234.884 428.342 249.437 423.911 263.978 419.445 C 273.02 416.668 282.032 413.748 290.872 410.373 C 294.204 409.1 297.515 407.759 300.758 406.271 C 303 405.242 305.218 404.147 307.336 402.879 C 307.676 402.676 307.787 402.237 307.584 401.897 C 307.417 401.619 307.084 401.486 306.772 401.575 L 306.772 401.575 Z  M 380.304 447.066 C 380.66 447.044 381.039 447.094 381.121 447.481 C 381.122 447.486 381.121 447.489 381.121 447.494 C 378.127 449.468 375.11 451.412 372.023 453.236 C 368.278 455.449 364.585 457.748 360.943 460.126 C 358.254 461.882 355.555 463.632 352.792 465.271 C 350.034 466.908 347.151 468.343 344.279 469.767 C 341.33 471.23 338.375 472.69 335.356 474.005 C 333.292 474.904 331.203 475.748 329.093 476.531 C 326.043 477.664 322.926 478.62 319.816 479.569 C 316.793 480.491 313.764 481.422 310.698 482.191 C 308.811 482.664 306.908 483.079 304.994 483.426 C 301.686 484.026 298.404 484.77 295.126 485.513 C 291.336 486.372 287.499 487.03 283.634 487.44 C 282.826 487.526 282.026 487.671 281.219 487.765 C 286.637 486.419 292.026 484.963 297.37 483.349 C 301.102 482.236 304.796 480.996 308.478 479.728 C 313.697 477.931 318.89 476.058 324.072 474.157 C 324.072 474.156 324.086 474.156 324.086 474.154 C 329.193 472.28 334.289 470.371 339.347 468.367 C 342.734 467.025 346.117 465.657 349.42 464.116 C 349.42 464.115 349.42 464.112 349.434 464.11 C 353.777 462.084 358.073 459.927 362.198 457.482 C 362.211 457.478 362.211 457.475 362.22 457.471 L 362.22 457.468 C 365.867 455.306 369.471 453.069 373.035 450.774 C 373.052 450.764 373.065 450.754 373.08 450.744 C 374.549 449.798 376.038 448.865 377.59 448.058 C 378.09 447.798 378.601 447.548 379.128 447.345 C 379.399 447.241 379.68 447.137 379.969 447.1 C 380.07 447.086 380.186 447.073 380.305 447.065 L 380.304 447.066 Z " fill="rgb(26,28,34)"/></svg>