<?xml version="1.0" encoding="UTF-8" standalone="no"?><!-- Generator: Gravit.io --><svg xmlns="http://www.w3.org/2000/svg" xmlns:xlink="http://www.w3.org/1999/xlink" style="isolation:isolate" viewBox="0 0 512 328.183" width="512pt" height="328.183pt"><ellipse vector-effect="non-scaling-stroke" cx="250.67021468418406" cy="164.32184827539274" rx="152.71109929370976" ry="157.33288388762622" fill="rgb(46,126,169)"/><path d=" M 96.418 199.755 L 70.228 211.117 L 6.872 261.187 L 4.368 278.711 L 61.755 287.184 L 146.103 280.059 L 295.733 231.915 L 423.216 166.44 L 485.418 105.202 L 506.601 79.204 L 506.408 63.413 L 480.796 57.058 L 404.922 67.265 L 378.154 73.62 L 394.523 108.861 L 317.493 153.538 L 243.16 188.201 L 108.551 230.182 L 96.418 199.755 Z " fill="rgb(147,182,75)"/><path d=" M 242.933 0.002 C 239.28 0.029 235.624 0.304 232.018 0.893 C 229.624 1.284 227.229 1.67 224.822 1.973 C 222.413 2.277 219.99 2.488 217.571 2.693 C 216.829 2.756 216.137 2.968 215.511 3.285 C 215.47 3.293 215.429 3.3 215.388 3.307 C 214.756 3.426 214.123 3.547 213.486 3.64 C 212.875 3.73 212.268 3.846 211.667 3.987 C 210.791 4.191 209.937 4.493 209.099 4.816 C 208.266 5.136 207.436 5.505 206.688 5.998 C 206.548 6.083 206.411 6.175 206.278 6.276 C 206.132 6.388 205.978 6.488 205.818 6.578 C 205.489 6.764 205.152 6.934 204.813 7.099 C 204.271 7.361 203.736 7.635 203.209 7.925 C 203.087 7.992 202.97 8.049 202.838 8.094 C 202.817 8.101 202.797 8.112 202.775 8.119 C 202.099 8.344 201.454 8.661 200.835 9.012 C 200.614 9.137 200.388 9.255 200.163 9.373 C 199.212 9.684 198.255 9.978 197.312 10.312 C 195.354 11.005 193.44 11.816 191.563 12.704 C 191.562 12.705 191.56 12.705 191.558 12.706 C 191.557 12.706 191.555 12.707 191.555 12.707 C 191.548 12.711 191.543 12.716 191.536 12.719 C 189.643 13.615 187.778 14.569 185.946 15.583 C 185.942 15.585 185.937 15.585 185.932 15.588 C 185.92 15.595 185.907 15.601 185.895 15.608 C 184.519 16.37 183.126 17.1 181.704 17.774 C 181.557 17.83 181.409 17.88 181.262 17.937 C 180.84 18.102 180.412 18.276 179.976 18.402 C 179.399 18.568 178.832 18.771 178.274 18.994 C 178.259 19 178.243 19.001 178.227 19.007 C 178.211 19.013 178.193 19.021 178.177 19.028 C 177.93 19.127 177.694 19.164 177.43 19.255 C 177.42 19.258 177.411 19.265 177.401 19.268 C 176.888 19.422 176.384 19.604 175.893 19.816 C 175.878 19.819 175.863 19.825 175.848 19.828 C 175.02 20.01 174.303 20.393 173.673 20.877 C 173.669 20.879 173.665 20.879 173.661 20.881 C 173.615 20.903 173.571 20.925 173.526 20.949 C 173.122 21.162 172.712 21.373 172.289 21.545 C 171.579 21.832 170.889 22.17 170.222 22.548 C 170.218 22.55 170.215 22.554 170.21 22.557 C 170.032 22.658 169.86 22.771 169.685 22.879 C 168.806 22.947 167.933 23.154 167.136 23.657 C 166.147 24.28 165.188 24.951 164.238 25.631 C 162.955 26.55 161.691 27.495 160.432 28.447 C 160.431 28.447 160.429 28.448 160.428 28.448 C 160.396 28.471 160.364 28.496 160.333 28.52 C 159.161 29.406 157.981 30.284 156.779 31.129 C 156.149 31.571 155.516 32.021 154.845 32.4 C 154.363 32.673 154.005 33.061 153.642 33.443 C 153.351 33.638 153.057 33.829 152.772 34.033 C 152.763 34.039 152.755 34.044 152.747 34.05 C 152.731 34.061 152.716 34.072 152.7 34.082 C 152.326 34.353 151.953 34.633 151.557 34.872 C 151.552 34.876 151.547 34.879 151.542 34.883 C 150.916 35.26 150.256 35.589 149.61 35.93 C 148.533 36.5 147.454 37.091 146.467 37.811 C 146.456 37.819 146.443 37.826 146.432 37.835 C 145.679 38.387 144.947 38.966 144.218 39.549 C 143.639 40.014 143.056 40.476 142.483 40.949 C 142.316 41.086 142.161 41.233 142.014 41.385 C 141.54 41.829 141.092 42.3 140.666 42.788 C 140.406 43.086 140.144 43.39 139.85 43.657 C 139.226 44.224 138.658 44.852 138.119 45.499 C 137.957 45.693 137.794 45.886 137.629 46.076 C 137.626 46.079 137.624 46.082 137.622 46.085 C 137.066 46.325 136.532 46.637 136.059 47.068 C 134.113 48.841 132.177 50.626 130.285 52.456 C 129.092 53.609 127.891 54.771 126.818 56.038 C 124.941 58.252 123.211 60.594 121.492 62.931 C 121.007 63.591 120.546 64.274 120.071 64.944 C 119.634 65.295 119.252 65.73 118.965 66.251 C 118.912 66.348 118.863 66.446 118.817 66.547 C 118.698 66.807 118.558 67.058 118.436 67.318 C 117.639 68.534 116.867 69.766 116.177 71.044 C 115.715 71.901 115.339 72.802 114.906 73.674 C 114.889 73.698 114.877 73.725 114.86 73.749 C 114.23 74.669 113.745 75.685 113.42 76.748 C 113.032 77.585 112.593 78.396 112.217 79.236 C 110.555 82.945 108.955 86.683 107.385 90.431 C 106.659 92.165 105.936 93.9 105.231 95.642 C 104.804 96.699 104.376 97.758 103.993 98.831 C 103.492 100.232 103.04 101.649 102.633 103.08 C 102.043 105.153 101.607 107.271 101.184 109.383 C 100.757 111.515 100.345 113.659 100.102 115.821 C 99.925 117.402 99.787 118.987 99.679 120.575 C 99.565 122.241 99.406 123.905 99.22 125.565 C 99.037 127.2 98.789 128.826 98.454 130.437 L 98.454 130.439 L 98.454 130.44 C 98.014 132.555 97.551 134.664 97.082 136.772 C 96.302 140.284 95.902 143.879 95.603 147.459 C 95.277 151.352 94.924 155.244 94.536 159.132 C 94.136 163.14 93.79 167.154 93.485 171.171 C 93.187 175.109 93.001 179.061 93.013 183.011 C 93.022 185.987 93.07 188.967 93.27 191.937 C 93.323 192.717 93.316 193.501 93.352 194.283 C 93.089 194.398 92.825 194.511 92.564 194.629 C 92.025 194.873 91.499 195.14 90.98 195.424 C 90.967 195.431 90.954 195.436 90.941 195.443 C 90.379 195.753 89.827 196.083 89.284 196.424 C 88.516 196.907 87.733 197.365 86.952 197.825 C 85.962 198.409 84.966 198.983 83.962 199.543 C 82.744 200.224 81.519 200.893 80.294 201.56 C 79.362 202.068 78.425 202.567 77.504 203.094 C 77.493 203.1 77.481 203.105 77.47 203.111 C 77.091 203.329 76.726 203.571 76.393 203.85 C 76.341 203.893 76.287 203.936 76.236 203.981 C 76.202 204.013 76.169 204.045 76.136 204.077 C 76.068 204.142 76.003 204.21 75.939 204.28 C 74.91 204.858 73.877 205.429 72.87 206.043 C 72.862 206.047 72.854 206.049 72.846 206.053 C 72.83 206.062 72.814 206.072 72.798 206.082 C 71.981 206.581 71.182 207.109 70.403 207.665 C 69.192 208.529 68.056 209.501 66.925 210.465 C 65.836 211.394 64.748 212.324 63.652 213.245 C 62.904 213.874 62.143 214.487 61.371 215.088 C 61.369 215.089 61.365 215.091 61.362 215.093 C 60.566 215.713 59.751 216.308 58.919 216.879 C 57.617 217.775 56.266 218.601 54.919 219.427 C 53.566 220.257 52.208 221.083 50.879 221.952 C 50.126 222.444 49.398 222.976 48.668 223.502 C 47.343 224.454 46.027 225.419 44.712 226.385 C 42.288 228.166 39.861 229.946 37.491 231.799 C 36.095 232.891 34.682 233.965 33.248 235.007 C 31.749 236.097 30.201 237.115 28.632 238.101 C 27.502 238.81 26.357 239.508 25.257 240.264 C 25.249 240.269 25.239 240.272 25.23 240.278 C 25.191 240.303 25.154 240.328 25.116 240.355 C 24.674 240.662 24.239 240.979 23.814 241.31 C 23.196 241.791 22.62 242.327 22.053 242.865 C 21.42 243.464 20.752 244.031 20.074 244.578 C 20.07 244.578 20.068 244.586 20.065 244.586 C 19.281 245.218 18.499 245.854 17.727 246.501 C 16.506 247.524 15.365 248.648 14.224 249.758 C 13.143 250.81 12.061 251.864 10.938 252.872 L 10.938 252.872 C 9.975 253.736 9.05 254.64 8.141 255.559 C 7.214 256.498 6.305 257.47 5.522 258.535 C 4.961 259.298 4.436 260.089 3.969 260.914 C 3.304 262.089 2.751 263.33 2.197 264.56 C 1.671 265.726 1.126 266.895 0.695 268.101 C 0.344 269.084 0.142 270.117 0.057 271.157 C -0.019 272.086 -0.022 273.023 0.067 273.952 C 0.165 274.962 0.382 275.969 0.789 276.902 C 0.792 276.91 0.796 276.914 0.799 276.921 C 1.082 277.567 1.414 278.192 1.768 278.801 C 2.162 279.478 2.587 280.144 3.106 280.733 C 3.837 281.564 4.779 282.205 5.686 282.828 C 6.452 283.354 7.224 283.886 8.046 284.321 C 8.057 284.33 8.065 284.336 8.076 284.342 C 8.086 284.351 8.094 284.351 8.104 284.356 C 8.6 284.615 9.109 284.853 9.624 285.073 C 9.628 285.073 9.631 285.073 9.634 285.081 L 9.636 285.081 C 10.652 285.513 11.749 285.755 12.825 285.982 C 14.139 286.259 15.462 286.487 16.791 286.687 L 16.792 286.687 L 16.794 286.687 C 18.372 286.925 19.955 287.123 21.541 287.298 C 22.153 287.365 22.769 287.404 23.382 287.463 C 24.304 287.709 25.23 287.937 26.163 288.134 C 29.564 288.85 33.004 289.38 36.437 289.914 C 39.956 290.46 43.486 291.002 47.033 291.337 C 49.524 291.572 52.025 291.709 54.527 291.755 C 57.11 291.802 59.694 291.819 62.277 291.812 C 64.984 291.803 67.691 291.757 70.397 291.672 L 70.399 291.672 C 73.029 291.59 75.661 291.512 78.292 291.437 L 78.296 291.437 L 78.297 291.437 C 81.987 291.331 85.675 291.188 89.363 291.044 L 89.366 291.044 C 92.989 290.903 96.615 290.763 100.232 290.512 L 100.234 290.512 C 102.627 290.346 105.017 290.158 107.407 289.947 C 109.843 289.732 112.278 289.482 114.708 289.2 C 117.121 288.92 119.53 288.606 121.934 288.255 C 124.256 287.915 126.571 287.533 128.88 287.12 C 129.223 287.135 129.565 287.141 129.906 287.17 L 129.908 287.17 C 130.706 287.235 131.509 287.263 132.31 287.24 L 132.312 287.24 C 133.021 287.219 133.73 287.169 134.435 287.088 C 135.511 286.963 136.575 286.72 137.629 286.473 C 138.273 286.323 138.914 286.155 139.555 285.991 C 139.578 286.029 139.598 286.069 139.623 286.107 C 139.624 286.107 139.626 286.107 139.627 286.115 C 139.643 286.14 139.661 286.162 139.678 286.185 C 139.853 286.433 140.061 286.659 140.277 286.871 C 140.335 286.928 140.398 286.986 140.449 287.049 C 140.668 287.316 140.923 287.553 141.21 287.746 C 141.234 287.763 141.255 287.782 141.28 287.798 L 141.282 287.798 C 141.334 287.831 141.387 287.858 141.441 287.887 C 141.605 288.049 141.769 288.211 141.934 288.373 C 142.168 288.603 142.406 288.829 142.645 289.054 C 142.88 289.274 143.112 289.496 143.341 289.721 C 143.548 289.924 143.756 290.127 143.976 290.315 C 144.238 290.538 144.527 290.731 144.816 290.919 L 144.817 290.919 C 144.824 290.928 144.831 290.928 144.838 290.933 C 145.041 291.065 145.244 291.199 145.449 291.329 C 145.368 291.278 145.522 291.393 145.541 291.411 C 145.681 291.534 145.821 291.658 145.959 291.783 C 146.036 291.853 146.114 291.923 146.191 291.993 C 146.209 292.008 146.228 292.021 146.246 292.037 C 146.265 292.054 146.282 292.071 146.302 292.087 C 146.314 292.097 146.327 292.105 146.34 292.114 C 146.372 292.139 146.405 292.161 146.438 292.184 C 146.445 292.193 146.451 292.194 146.457 292.198 C 146.474 292.209 146.49 292.222 146.507 292.232 C 146.553 292.262 146.601 292.288 146.648 292.314 C 146.649 292.315 146.651 292.314 146.652 292.314 C 146.669 292.323 146.686 292.332 146.703 292.339 C 146.746 292.361 146.789 292.382 146.833 292.401 C 146.871 292.417 146.91 292.432 146.949 292.447 C 146.973 292.456 146.996 292.464 147.02 292.472 C 147.036 292.481 147.05 292.485 147.065 292.489 C 147.067 292.49 147.069 292.489 147.072 292.489 C 147.102 292.498 147.132 292.505 147.162 292.512 C 147.184 292.521 147.205 292.525 147.227 292.529 C 147.234 292.529 147.242 292.529 147.249 292.538 C 147.397 292.696 147.546 292.853 147.698 293.007 C 147.71 293.019 147.722 293.032 147.734 293.045 L 147.734 293.045 C 147.741 293.053 147.749 293.058 147.756 293.065 C 147.972 293.282 148.198 293.493 148.45 293.667 C 148.513 293.711 148.577 293.752 148.643 293.79 L 148.645 293.79 C 148.652 293.79 148.66 293.799 148.667 293.8 C 148.677 293.809 148.688 293.812 148.698 293.817 C 148.776 293.889 148.837 293.972 148.92 294.041 C 150.087 295 151.303 295.901 152.559 296.742 C 154.107 297.778 155.698 298.749 157.294 299.707 C 158.866 300.65 160.424 301.621 161.94 302.652 C 163.452 303.68 164.99 304.669 166.547 305.626 C 168.027 306.536 169.435 307.559 170.793 308.641 C 172.363 309.893 174.001 311.129 175.816 312.008 C 176.653 312.413 177.515 312.767 178.377 313.115 C 179.644 313.627 180.921 314.115 182.199 314.598 C 184.834 315.593 187.476 316.572 190.132 317.51 C 192.612 318.387 195.104 319.234 197.602 320.061 C 200.327 320.964 203.079 321.782 205.859 322.5 C 208.485 323.179 211.134 323.771 213.805 324.25 C 214.792 324.428 215.779 324.613 216.76 324.825 C 217.362 324.956 217.964 325.092 218.555 325.266 C 219.576 325.566 220.589 325.892 221.591 326.25 C 222.859 326.703 224.15 327.095 225.455 327.429 C 227.022 327.83 228.631 328.057 230.247 328.129 C 231.759 328.196 233.274 328.197 234.787 328.154 C 237.297 328.084 239.804 327.825 242.3 327.572 C 245.552 327.242 248.806 326.943 252.063 326.671 C 256.346 326.314 260.611 325.737 264.86 325.103 C 268.567 324.551 272.279 324.001 276.006 323.605 C 278.919 323.296 281.812 322.803 284.669 322.155 C 286.611 321.714 288.556 321.268 290.516 320.913 C 291.987 320.646 293.448 320.329 294.898 319.966 C 297.047 319.427 299.17 318.779 301.288 318.133 C 303.495 317.46 305.703 316.775 307.868 315.971 C 309.413 315.397 310.944 314.78 312.456 314.122 C 314.561 313.205 316.625 312.191 318.682 311.171 C 320.775 310.134 322.868 309.079 324.877 307.887 C 326.787 306.754 328.653 305.548 330.512 304.334 C 332.706 302.902 334.931 301.516 337.187 300.183 C 339.673 298.714 342.112 297.167 344.512 295.561 C 346.58 294.176 348.639 292.753 350.547 291.151 C 352.071 289.873 353.533 288.522 354.953 287.13 C 356.669 285.446 358.299 283.674 359.88 281.862 C 361.212 280.337 362.505 278.778 363.8 277.221 C 365.993 274.583 368.171 271.931 370.345 269.277 C 372.507 266.637 374.667 263.995 376.817 261.346 C 378.057 259.818 379.3 258.29 380.516 256.742 C 381.995 254.861 383.45 252.96 384.876 251.038 C 386.74 248.525 388.449 245.896 390.124 243.254 L 390.124 243.254 C 391.033 241.822 391.926 240.379 392.778 238.912 C 393.429 237.788 394.062 236.651 394.622 235.479 C 395.338 233.981 396.03 232.461 396.559 230.885 C 396.919 229.811 397.341 228.758 397.777 227.713 C 398.594 225.756 399.348 223.772 400.094 221.787 C 400.831 219.827 401.563 217.861 402.193 215.863 C 402.635 214.462 403.038 213.047 403.398 211.623 C 403.992 209.269 404.499 206.892 405.015 204.52 C 405.585 201.9 406.148 199.276 406.612 196.635 C 407.004 194.402 407.367 192.165 407.721 189.926 C 408.083 187.64 408.422 185.35 408.692 183.051 C 408.828 181.896 408.513 180.833 408.016 179.872 C 408.121 179.433 408.198 178.985 408.208 178.535 C 408.21 178.503 408.211 178.473 408.211 178.441 C 408.211 178.42 408.208 178.4 408.208 178.379 C 408.748 178.036 409.281 177.68 409.82 177.333 C 410.828 176.738 411.836 176.139 412.852 175.557 C 414.089 174.849 415.323 174.137 416.539 173.394 C 416.541 173.393 416.544 173.393 416.546 173.392 C 416.551 173.39 416.554 173.386 416.558 173.383 L 416.56 173.383 C 417.343 172.904 418.132 172.436 418.927 171.977 C 419.746 171.504 420.574 171.049 421.411 170.607 L 421.413 170.607 L 421.413 170.605 C 422.296 170.139 423.184 169.682 424.075 169.232 C 424.077 169.231 424.077 169.227 424.08 169.226 C 425.351 168.584 426.626 167.95 427.9 167.314 C 430.045 166.243 432.111 165.019 434.144 163.751 C 434.147 163.748 434.151 163.748 434.156 163.746 C 434.168 163.738 434.181 163.73 434.193 163.722 L 434.195 163.722 C 435.149 163.126 436.101 162.526 437.044 161.912 C 437.665 161.507 438.287 161.1 438.882 160.657 C 439.651 160.086 440.393 159.479 441.102 158.835 L 441.104 158.835 C 441.766 158.233 442.403 157.601 443.01 156.943 C 443.011 156.941 443.014 156.94 443.017 156.938 C 443.024 156.928 443.034 156.919 443.042 156.91 C 443.781 156.106 444.495 155.282 445.209 154.457 C 445.233 154.43 445.257 154.404 445.281 154.376 C 446.141 153.383 446.983 152.375 447.799 151.346 C 447.802 151.343 447.805 151.343 447.808 151.339 C 447.837 151.305 447.864 151.27 447.892 151.235 L 447.892 151.233 C 448.578 150.365 449.26 149.495 449.934 148.617 C 450.254 148.202 450.583 147.795 450.907 147.382 C 454.484 144.55 458.008 141.647 461.436 138.636 L 461.44 138.632 C 464.985 135.519 468.362 132.214 471.531 128.719 C 474.654 125.273 477.686 121.746 480.632 118.148 C 481.087 117.593 481.21 116.896 481.083 116.242 C 481.429 115.9 481.783 115.564 482.111 115.205 C 482.673 114.591 483.221 113.965 483.756 113.328 C 484.726 112.174 485.734 111.051 486.735 109.924 C 487.949 108.558 489.137 107.17 490.312 105.771 C 490.674 105.473 491.029 105.17 491.392 104.873 C 491.396 104.87 491.402 104.865 491.407 104.861 C 492.393 104.055 493.38 103.247 494.395 102.476 C 495.136 101.913 495.869 101.34 496.594 100.758 C 497.355 100.147 498.098 99.514 498.814 98.852 C 499.541 98.18 500.232 97.467 500.877 96.715 C 501.45 96.048 502.002 95.364 502.534 94.664 L 502.536 94.664 C 503.05 93.988 503.545 93.297 504.02 92.593 C 504.022 92.59 504.025 92.589 504.027 92.586 C 504.034 92.576 504.042 92.563 504.049 92.552 C 504.524 91.848 504.976 91.132 505.406 90.4 C 505.41 90.393 505.413 90.387 505.418 90.38 C 505.822 89.69 506.203 88.985 506.556 88.267 C 506.558 88.264 506.561 88.262 506.563 88.259 C 506.577 88.232 506.591 88.206 506.604 88.179 C 506.958 87.452 507.278 86.708 507.546 85.945 C 507.828 85.14 508.089 84.324 508.346 83.51 C 508.347 83.508 508.347 83.506 508.348 83.503 C 508.538 82.903 508.726 82.296 508.976 81.717 C 509.186 81.228 509.408 80.744 509.636 80.263 C 509.945 79.613 510.225 78.949 510.481 78.277 C 510.482 78.272 510.488 78.27 510.489 78.265 C 510.496 78.247 510.503 78.228 510.51 78.21 C 510.757 77.555 510.948 76.881 511.11 76.2 C 511.117 76.177 511.135 76.162 511.141 76.139 C 511.16 76.068 511.177 75.998 511.192 75.927 C 511.389 75.023 511.522 74.104 511.658 73.189 C 511.671 73.122 511.682 73.056 511.692 72.989 C 511.887 71.681 512.019 70.358 511.998 69.034 C 511.977 67.7 511.798 66.343 511.235 65.121 L 511.235 65.12 C 511.234 65.118 511.232 65.116 511.232 65.114 C 510.829 64.243 510.297 63.433 509.646 62.727 C 509.005 62.031 508.254 61.441 507.447 60.949 C 506.587 60.425 505.666 60.004 504.743 59.606 C 503.736 59.173 502.715 58.776 501.685 58.403 C 501.682 58.403 501.681 58.401 501.678 58.4 C 501.64 58.386 501.603 58.371 501.565 58.357 C 500.941 58.134 500.309 57.911 499.709 57.629 C 499.012 57.301 498.311 56.978 497.61 56.658 C 497.591 56.648 497.57 56.64 497.55 56.631 C 496.973 56.366 496.392 56.098 495.841 55.781 C 495.152 55.384 494.437 55.032 493.701 54.731 C 492.917 54.411 492.109 54.151 491.292 53.928 C 489.927 53.555 488.493 53.467 487.084 53.471 C 485.894 53.473 484.703 53.506 483.514 53.578 C 483.512 53.578 483.509 53.576 483.506 53.576 C 483.467 53.577 483.428 53.579 483.39 53.582 C 482.211 53.656 481.035 53.758 479.859 53.87 C 479.857 53.87 479.854 53.868 479.851 53.868 C 479.815 53.871 479.781 53.875 479.745 53.878 C 478.675 53.981 477.606 54.096 476.542 54.249 C 476.536 54.249 476.531 54.246 476.525 54.247 C 476.481 54.253 476.436 54.258 476.392 54.264 C 475.223 54.436 474.049 54.585 472.877 54.735 C 472.874 54.735 472.872 54.737 472.868 54.738 C 471.108 54.964 469.351 55.231 467.601 55.527 C 467.556 55.533 467.511 55.54 467.466 55.547 C 465.52 55.877 463.575 56.218 461.632 56.567 C 461.63 56.568 461.628 56.57 461.625 56.571 C 460.128 56.84 458.63 57.106 457.124 57.323 C 457.122 57.324 457.119 57.323 457.115 57.323 C 455.938 57.493 454.758 57.654 453.578 57.81 C 452.319 57.976 451.057 58.116 449.792 58.233 C 448.447 58.357 447.1 58.472 445.753 58.578 C 444.371 58.686 442.988 58.809 441.609 58.948 C 439.706 59.139 437.801 59.308 435.896 59.475 C 433.917 59.649 431.938 59.826 429.962 60.033 C 427.74 60.266 425.525 60.561 423.31 60.854 C 423.309 60.854 423.307 60.854 423.305 60.854 C 423.285 60.856 423.265 60.858 423.246 60.861 C 420.379 61.239 417.518 61.666 414.668 62.151 C 414.619 62.158 414.57 62.165 414.521 62.173 C 411.864 62.627 409.214 63.131 406.575 63.68 C 406.519 63.689 406.463 63.699 406.408 63.71 C 403.73 64.269 401.052 64.826 398.373 65.377 C 396.389 65.786 394.406 66.196 392.418 66.585 C 391.266 66.811 390.117 67.055 388.978 67.343 C 388.757 67.399 388.54 67.472 388.319 67.531 C 388.15 67.47 387.972 67.429 387.785 67.415 C 387.716 67.409 387.645 67.406 387.574 67.408 C 387.475 67.409 387.377 67.412 387.279 67.413 C 387.031 67.416 386.783 67.43 386.538 67.464 C 386.398 67.484 386.174 67.487 386.009 67.493 C 385.621 67.507 385.233 67.534 384.847 67.575 C 384.4 67.623 383.956 67.696 383.515 67.776 C 383.065 67.858 382.616 67.949 382.173 68.063 C 381.95 68.121 381.725 68.175 381.501 68.232 C 381.138 67.371 380.752 66.52 380.32 65.693 C 379.638 64.385 378.907 63.101 378.159 61.83 C 377.457 60.639 376.747 59.453 376.007 58.286 C 375.491 57.471 374.964 56.656 374.365 55.899 C 373.449 54.741 372.492 53.614 371.533 52.491 C 370.326 51.079 369.155 49.635 368.009 48.173 C 366.914 46.773 365.798 45.379 364.566 44.096 C 362.905 42.366 361.152 40.72 359.422 39.059 C 357.476 37.193 355.525 35.315 353.453 33.587 C 352.546 32.831 351.599 32.126 350.643 31.434 C 349.35 30.497 348.035 29.59 346.713 28.694 C 345.437 27.829 344.153 26.972 342.842 26.16 C 341.913 25.584 340.968 25.012 339.967 24.57 C 338.449 23.9 336.893 23.317 335.337 22.742 C 333.508 22.066 331.663 21.425 329.799 20.852 C 328.182 20.354 326.602 19.74 325.045 19.079 C 323.721 18.516 322.369 18.018 321.011 17.541 C 319.216 16.911 317.407 16.322 315.592 15.75 C 312.24 14.692 308.877 13.658 305.484 12.735 C 304.503 12.468 303.524 12.185 302.563 11.851 C 302.119 11.697 301.658 11.543 301.242 11.32 C 300.447 10.894 299.602 10.566 298.763 10.228 C 298.429 10.039 298.074 9.879 297.693 9.757 C 296.918 9.51 296.119 9.333 295.325 9.16 C 294.133 8.9 292.936 8.665 291.738 8.433 C 289.31 7.964 286.898 7.388 284.538 6.647 C 284.491 6.632 284.443 6.622 284.396 6.607 C 284.153 6.504 283.915 6.387 283.668 6.295 C 282.961 6.032 282.254 5.772 281.543 5.521 C 280.652 5.206 279.731 4.958 278.788 4.872 C 278.722 4.866 278.591 4.852 278.552 4.843 C 278.213 4.766 277.876 4.665 277.542 4.569 C 277.038 4.423 276.528 4.297 276.015 4.185 C 275.984 4.177 275.957 4.161 275.926 4.154 C 275.846 4.135 275.768 4.118 275.687 4.103 C 275.288 4.025 274.892 3.919 274.498 3.819 C 273.875 3.661 273.25 3.515 272.618 3.4 C 272.605 3.397 272.593 3.392 272.58 3.389 C 272.55 3.383 272.521 3.377 272.491 3.372 C 271.851 3.261 271.202 3.184 270.556 3.11 C 270.55 3.109 270.545 3.107 270.539 3.106 C 270.502 3.102 270.463 3.097 270.425 3.092 C 269.72 3.012 269.018 2.92 268.316 2.818 C 268.309 2.817 268.302 2.815 268.296 2.814 C 267.614 2.715 266.931 2.621 266.245 2.56 L 266.243 2.56 C 265.751 2.517 265.26 2.468 264.769 2.418 C 263.896 2.331 263.017 2.31 262.139 2.306 C 261.633 2.137 261.122 2.042 260.61 2.021 C 259.818 1.511 258.94 1.125 257.932 1.07 C 256.047 0.968 254.169 0.765 252.303 0.494 C 249.207 0.044 246.057 -0.019 242.933 0.004 L 242.933 0.002 Z  M 248.734 13.03 C 249.93 13.029 251.127 13.014 252.323 13.037 C 252.667 13.044 253.012 13.061 253.355 13.085 C 254.338 13.153 255.327 13.164 256.312 13.182 C 257.227 13.199 258.143 13.215 259.057 13.247 C 259.281 13.255 259.504 13.252 259.728 13.257 C 260.472 13.446 261.225 13.601 261.973 13.735 C 263.807 14.062 265.652 14.324 267.497 14.576 C 269.307 14.823 271.117 15.078 272.923 15.361 C 273.918 15.517 274.916 15.671 275.9 15.886 C 277.681 16.275 279.433 16.809 281.171 17.356 C 283.937 18.225 286.762 18.905 289.608 19.454 C 290.718 19.669 291.827 19.887 292.931 20.128 C 293.376 20.225 293.855 20.315 294.28 20.451 C 294.86 20.636 295.412 20.933 295.946 21.219 C 296.883 21.72 297.878 22.108 298.88 22.456 C 300.084 22.873 301.308 23.23 302.537 23.565 C 305.356 24.332 308.147 25.2 310.935 26.073 C 310.739 26.19 310.547 26.313 310.35 26.43 C 308.928 27.275 307.475 28.068 306.02 28.852 C 303.879 30.007 301.682 31.055 299.467 32.06 C 296.635 33.347 293.774 34.567 290.898 35.753 C 290.898 35.753 290.894 35.754 290.893 35.754 C 287.656 37.089 284.39 38.352 281.101 39.554 C 277.918 40.718 274.722 41.85 271.511 42.935 C 271.509 42.935 271.507 42.935 271.504 42.936 C 268.724 43.875 265.939 44.799 263.145 45.699 C 260.833 46.443 258.521 47.184 256.206 47.919 C 254.401 48.491 252.604 49.091 250.836 49.77 C 250.062 50.067 249.304 50.44 248.644 50.946 C 248.36 51.163 248.092 51.405 247.871 51.686 C 247.712 51.887 247.564 52.118 247.504 52.37 C 247.465 52.533 247.511 52.703 247.627 52.824 C 247.83 53.036 248.119 53.163 248.394 53.251 C 248.721 53.355 249.064 53.405 249.406 53.425 C 250.256 53.474 251.11 53.335 251.928 53.113 C 253.733 52.623 255.53 52.104 257.323 51.577 C 259.672 50.886 262.008 50.157 264.338 49.407 C 267.147 48.502 269.951 47.579 272.75 46.646 C 276 45.562 279.232 44.423 282.45 43.247 C 285.789 42.026 289.102 40.736 292.383 39.365 C 292.385 39.364 292.389 39.362 292.391 39.362 C 295.305 38.143 298.204 36.888 301.071 35.563 C 303.354 34.509 305.615 33.399 307.804 32.161 C 307.816 32.155 307.827 32.149 307.838 32.142 C 309.359 31.281 310.876 30.39 312.287 29.356 C 313.136 28.733 313.981 28.095 314.757 27.382 C 314.78 27.36 314.804 27.34 314.827 27.318 C 315.649 27.589 316.475 27.846 317.291 28.132 C 318.423 28.53 319.553 28.942 320.658 29.41 C 322.569 30.222 324.511 30.968 326.497 31.579 C 328.162 32.092 329.809 32.666 331.443 33.27 C 332.781 33.765 334.125 34.26 335.431 34.836 C 335.585 34.904 335.741 34.996 335.89 35.08 C 336.24 35.278 336.583 35.488 336.926 35.7 C 338.106 36.432 339.263 37.205 340.413 37.985 C 341.639 38.815 342.859 39.655 344.058 40.523 C 344.807 41.066 345.554 41.615 346.264 42.208 C 348.136 43.768 349.892 45.473 351.649 47.159 C 353.268 48.713 354.913 50.251 356.468 51.87 C 357.438 52.881 358.308 53.992 359.17 55.093 C 360.415 56.682 361.686 58.248 362.998 59.782 C 363.865 60.798 364.733 61.815 365.562 62.862 C 365.917 63.311 366.219 63.811 366.525 64.294 C 367.199 65.359 367.845 66.441 368.485 67.527 C 369.136 68.632 369.774 69.746 370.367 70.883 C 370.706 71.532 371.042 72.189 371.306 72.873 C 371.865 74.325 372.369 75.797 372.848 77.277 C 373.395 78.967 373.99 80.647 374.699 82.276 C 375.59 84.322 376.638 86.302 377.679 88.274 C 379.049 90.87 380.369 93.493 381.651 96.133 C 383.376 99.689 385.234 103.18 387.13 106.647 C 387.29 106.941 387.484 107.205 387.686 107.458 C 387.167 107.781 386.639 108.092 386.159 108.47 C 385.638 108.879 385.166 109.344 384.705 109.819 C 384.642 109.876 384.571 109.919 384.511 109.98 C 384.459 110.032 384.408 110.086 384.359 110.14 C 384.098 110.429 383.816 110.696 383.523 110.951 C 383.612 110.873 383.39 111.045 383.369 111.06 C 383.161 111.205 382.948 111.343 382.734 111.48 C 381.95 111.983 381.151 112.462 380.349 112.937 C 379.81 113.255 379.274 113.579 378.735 113.897 C 377.169 114.576 375.619 115.288 374.123 116.104 C 372.337 117.077 370.596 118.142 368.941 119.325 C 367.477 120.371 366.035 121.446 364.615 122.552 C 364.613 122.553 364.611 122.553 364.608 122.555 C 364.604 122.559 364.599 122.564 364.595 122.567 C 363.196 123.657 361.756 124.693 360.29 125.69 C 358.542 126.877 356.741 127.983 354.918 129.049 C 352.674 130.362 350.389 131.604 348.081 132.8 C 345.428 134.175 342.754 135.509 340.067 136.815 C 340.066 136.815 340.064 136.815 340.063 136.816 C 340.061 136.817 340.06 136.819 340.058 136.82 C 336.001 138.791 331.989 140.855 327.981 142.923 C 327.98 142.924 327.978 142.924 327.977 142.925 C 327.976 142.926 327.973 142.927 327.972 142.927 C 324.026 144.963 320.078 146.998 316.118 149.008 C 316.115 149.009 316.112 149.012 316.11 149.013 C 313.156 150.512 310.222 152.049 307.3 153.61 L 307.293 153.613 C 304.233 155.248 301.145 156.83 298.048 158.395 C 297.495 158.595 296.937 158.783 296.392 159.004 C 296.383 159.007 296.374 159.007 296.366 159.011 C 296.358 159.014 296.351 159.018 296.344 159.021 C 295.558 159.341 294.785 159.693 294.015 160.048 C 294.013 160.049 294.01 160.049 294.008 160.05 C 294 160.053 293.991 160.059 293.982 160.062 C 293.068 160.483 292.151 160.895 291.228 161.297 C 291.227 161.298 291.223 161.298 291.221 161.299 C 289.719 161.954 288.237 162.654 286.756 163.355 C 285.232 164.076 283.704 164.791 282.159 165.466 C 282.157 165.467 282.155 165.466 282.152 165.467 L 282.15 165.469 C 280.862 166.031 279.589 166.633 278.345 167.29 C 277.329 167.827 276.308 168.355 275.281 168.871 C 275.278 168.873 275.275 168.873 275.272 168.875 C 275.26 168.881 275.25 168.888 275.238 168.894 C 274.292 169.37 273.343 169.839 272.389 170.298 C 272.381 170.301 272.371 170.306 272.363 170.31 C 271.687 170.635 271.028 170.989 270.365 171.339 C 265.795 173.331 261.199 175.259 256.568 177.103 C 256.565 177.104 256.563 177.105 256.561 177.106 C 249.252 180.016 241.846 182.686 234.444 185.346 C 230.241 186.856 226.034 188.355 221.816 189.822 C 218.964 190.813 216.107 191.794 213.233 192.719 C 208.949 194.097 204.67 195.489 200.397 196.901 C 196.585 198.16 192.781 199.444 188.992 200.769 C 188.297 201.012 187.595 201.232 186.9 201.472 C 186.752 201.502 186.602 201.526 186.454 201.557 C 185.484 201.766 184.536 202.079 183.595 202.388 C 182.508 202.745 181.415 203.08 180.317 203.4 C 180.314 203.401 180.313 203.401 180.31 203.402 C 180.306 203.403 180.305 203.404 180.301 203.405 C 178.942 203.801 177.598 204.247 176.271 204.738 C 176.266 204.74 176.261 204.743 176.256 204.745 C 175.098 205.173 173.941 205.604 172.787 206.04 C 171.756 206.429 170.725 206.813 169.691 207.194 C 168.534 207.619 167.369 208.027 166.202 208.427 C 164.988 208.843 163.778 209.276 162.593 209.772 C 161.956 210.038 161.324 210.316 160.701 210.616 C 160.684 210.624 160.666 210.626 160.648 210.633 C 160.577 210.665 160.507 210.699 160.437 210.734 C 160.302 210.802 160.084 210.882 159.921 210.946 C 159.531 211.098 159.137 211.24 158.742 211.381 C 158.528 211.457 158.328 211.569 158.116 211.65 C 156.038 212.424 153.947 213.171 151.88 213.973 C 151.873 213.975 151.868 213.977 151.863 213.98 C 148.724 215.197 145.559 216.342 142.377 217.442 C 141.857 217.559 141.333 217.661 140.809 217.759 C 139.521 218.001 138.235 218.255 136.956 218.544 C 136.052 218.748 135.144 218.94 134.233 219.112 C 132.999 219.346 131.777 219.646 130.563 219.965 C 129.186 220.327 127.8 220.652 126.41 220.957 C 125.213 221.218 124.011 221.475 122.828 221.798 C 122.116 221.992 121.41 222.206 120.709 222.441 C 119.926 222.703 119.121 222.908 118.322 223.115 C 117.671 223.284 117.008 223.482 116.341 223.576 C 115.874 223.641 115.404 223.68 114.933 223.712 L 114.932 223.712 C 114.104 223.769 113.279 223.864 112.466 224.026 C 112.455 224.028 112.444 224.026 112.434 224.028 C 112.426 224.022 112.417 224.017 112.41 224.011 C 112.377 223.986 112.345 223.96 112.311 223.937 L 112.309 223.936 C 112.262 223.905 112.214 223.877 112.164 223.85 L 112.164 223.849 L 112.162 223.849 C 112.157 223.84 112.152 223.832 112.147 223.823 C 111.988 223.549 111.822 223.28 111.637 223.023 C 111.631 223.016 111.626 223.009 111.621 223.002 C 111.392 222.61 111.171 222.211 110.975 221.801 C 110.755 221.342 110.514 220.893 110.258 220.453 C 110.252 220.442 110.249 220.431 110.243 220.421 C 110.24 220.416 110.236 220.413 110.234 220.407 C 110.092 220.165 109.948 219.923 109.809 219.68 C 109.783 219.635 109.757 219.589 109.73 219.544 C 109.724 219.532 109.717 219.522 109.71 219.511 C 109.695 219.486 109.679 219.461 109.662 219.436 C 109.648 219.415 109.633 219.395 109.618 219.375 C 109.613 219.37 109.61 219.363 109.606 219.358 C 108.597 217.328 107.59 215.289 106.727 213.193 C 106.165 211.826 105.713 210.414 105.388 208.972 C 105.186 208.076 105.112 207.148 105.04 206.235 C 104.926 204.79 104.886 203.339 104.854 201.891 C 105.145 201.954 105.441 202.004 105.738 202.029 C 106.885 202.126 108.039 202.145 109.19 202.153 C 109.196 202.153 109.202 202.155 109.208 202.155 L 109.208 202.153 C 111.069 202.166 112.93 201.913 114.759 201.592 C 117.222 201.159 119.67 200.643 122.11 200.097 C 124.986 199.453 127.85 198.758 130.704 198.019 C 133.725 197.237 136.727 196.388 139.712 195.48 C 142.8 194.54 145.88 193.57 148.95 192.569 C 151.995 191.576 155.035 190.568 158.07 189.542 C 161.179 188.491 164.293 187.45 167.41 186.42 C 169.042 185.88 170.675 185.344 172.31 184.812 C 173.158 184.537 174.006 184.262 174.854 183.988 C 175.604 183.746 176.412 183.545 177.151 183.246 C 177.167 183.241 177.184 183.241 177.201 183.236 C 180.492 182.183 183.78 181.118 187.065 180.043 C 187.067 180.042 187.071 180.041 187.073 180.04 C 190.216 179.011 193.355 177.972 196.489 176.917 L 196.49 176.917 C 199.161 176.018 201.816 175.071 204.438 174.037 C 204.461 174.029 204.481 174.022 204.503 174.013 C 206.711 173.141 208.902 172.223 211.062 171.239 C 212.923 170.391 214.767 169.508 216.584 168.57 L 216.585 168.57 C 216.603 168.561 216.621 168.552 216.638 168.543 C 216.645 168.539 216.65 168.534 216.657 168.531 C 217.906 167.895 219.143 167.155 220.15 166.169 C 220.557 165.771 220.932 165.324 221.192 164.815 C 221.374 164.458 221.52 164.038 221.464 163.632 C 221.427 163.369 221.2 163.177 220.935 163.185 C 220.592 163.196 220.247 163.279 219.918 163.368 C 219.485 163.484 219.062 163.629 218.641 163.784 C 217.417 164.235 216.224 164.774 215.046 165.333 C 215.045 165.334 215.043 165.336 215.041 165.337 C 213.242 166.172 211.408 166.929 209.555 167.637 C 207.384 168.466 205.202 169.268 203.013 170.049 C 200.385 170.988 197.745 171.894 195.1 172.783 C 191.979 173.832 188.85 174.858 185.717 175.87 C 182.432 176.93 179.146 177.986 175.858 179.038 C 172.576 180.089 169.299 181.159 166.03 182.248 C 166.029 182.248 166.025 182.25 166.024 182.25 C 162.9 183.29 159.78 184.339 156.664 185.401 C 153.648 186.428 150.624 187.436 147.596 188.426 C 144.549 189.423 141.497 190.403 138.439 191.366 C 135.519 192.286 132.582 193.151 129.627 193.953 C 126.825 194.713 124.011 195.436 121.186 196.11 C 118.808 196.677 116.423 197.222 114.025 197.705 C 112.414 198.03 110.779 198.312 109.135 198.388 C 108.045 198.438 106.954 198.484 105.862 198.499 C 105.481 198.504 105.101 198.469 104.724 198.41 C 104.715 198.046 104.696 197.682 104.687 197.318 C 104.736 197.285 104.784 197.248 104.833 197.215 C 105.003 197.105 105.051 196.879 104.941 196.709 C 104.876 196.609 104.771 196.568 104.659 196.56 C 104.605 194.767 104.589 192.972 104.468 191.182 C 104.284 188.452 104.244 185.713 104.236 182.978 C 104.224 179.322 104.4 175.666 104.676 172.02 C 104.974 168.093 105.312 164.168 105.704 160.249 C 106.098 156.301 106.458 152.35 106.789 148.397 C 107.046 145.322 107.369 142.225 108.039 139.208 C 108.519 137.049 108.994 134.888 109.444 132.723 C 109.849 130.77 110.153 128.799 110.375 126.817 C 110.537 125.371 110.66 123.919 110.775 122.468 C 111.592 122.589 112.421 122.648 113.233 122.688 C 115.338 122.792 117.453 122.666 119.548 122.47 C 121.225 122.313 122.893 122.057 124.555 121.791 C 127.074 121.386 129.585 120.93 132.093 120.46 C 134.621 119.985 137.15 119.524 139.686 119.096 C 141.426 118.803 143.169 118.521 144.919 118.296 C 147.19 118.005 149.472 117.756 151.761 117.673 C 151.762 117.673 151.764 117.673 151.765 117.673 C 153.88 117.597 156.102 116.931 157.704 115.499 C 157.969 115.263 157.992 114.858 157.756 114.593 C 157.697 114.527 157.625 114.473 157.544 114.436 C 155.708 113.596 153.617 113.321 151.613 113.39 C 149.194 113.474 146.78 113.723 144.378 114.022 C 142.568 114.247 140.766 114.538 138.968 114.843 C 136.406 115.276 133.852 115.747 131.3 116.233 C 131.298 116.233 131.294 116.235 131.293 116.235 C 128.821 116.706 126.346 117.162 123.863 117.576 C 122.299 117.837 120.731 118.091 119.154 118.262 C 119.145 118.263 119.135 118.265 119.125 118.265 C 117.216 118.471 115.29 118.627 113.368 118.595 C 112.699 118.583 112.032 118.561 111.365 118.506 C 111.287 118.5 111.209 118.491 111.131 118.484 C 111.176 118.014 111.203 117.543 111.256 117.074 C 111.463 115.232 111.827 113.404 112.191 111.587 C 112.555 109.767 112.922 107.939 113.43 106.153 C 113.769 104.96 114.144 103.778 114.561 102.61 C 114.893 101.682 115.268 100.767 115.637 99.853 C 116.325 98.153 117.03 96.46 117.738 94.768 C 119.272 91.104 120.835 87.452 122.459 83.827 C 123.586 81.312 124.745 78.804 126.054 76.378 C 127.342 73.993 128.93 71.765 130.533 69.585 C 131.232 68.635 131.983 67.722 132.695 66.78 C 132.708 66.77 132.72 66.759 132.733 66.749 C 132.782 66.711 132.83 66.672 132.878 66.631 C 132.971 66.553 133.061 66.471 133.149 66.386 C 133.181 66.355 133.216 66.33 133.246 66.299 C 133.263 66.282 133.276 66.264 133.292 66.247 C 133.372 66.166 133.448 66.079 133.523 65.991 C 133.566 65.941 133.611 65.891 133.652 65.84 C 133.666 65.823 133.682 65.808 133.695 65.79 C 133.769 65.695 133.843 65.599 133.917 65.503 C 133.962 65.455 134.008 65.407 134.055 65.36 C 134.192 65.224 134.322 65.083 134.442 64.937 C 134.69 64.674 134.945 64.415 135.178 64.138 C 135.21 64.1 135.242 64.062 135.277 64.026 C 135.875 63.522 136.406 62.938 136.923 62.354 C 137.455 61.754 137.975 61.141 138.452 60.497 C 138.626 60.263 138.857 60.058 139.07 59.859 C 139.503 59.453 139.946 59.056 140.404 58.678 C 140.96 58.22 141.507 57.745 142.01 57.228 C 142.326 56.903 142.663 56.597 142.998 56.291 C 143.381 55.94 143.769 55.594 144.173 55.267 C 144.636 54.893 145.095 54.51 145.513 54.085 C 145.948 53.642 146.345 53.162 146.741 52.686 C 146.947 52.439 147.155 52.187 147.393 51.971 C 148.011 51.41 148.579 50.794 149.127 50.166 C 149.271 50 149.417 49.835 149.569 49.676 C 149.601 49.642 149.634 49.608 149.668 49.575 C 150.184 49.15 150.709 48.734 151.231 48.316 C 151.838 47.83 152.447 47.346 153.073 46.886 C 153.678 46.442 154.346 46.073 154.995 45.7 C 155.751 45.265 156.512 44.834 157.25 44.368 C 157.261 44.362 157.271 44.357 157.281 44.351 C 157.324 44.325 157.367 44.298 157.409 44.27 C 157.998 43.892 158.57 43.489 159.141 43.085 C 160.064 42.431 160.984 41.772 161.904 41.112 C 162.829 40.448 163.753 39.78 164.654 39.083 C 164.67 39.071 164.686 39.06 164.702 39.047 C 165.095 38.743 165.498 38.453 165.901 38.162 C 166.242 37.919 166.591 37.689 166.93 37.444 C 166.963 37.42 166.998 37.398 167.031 37.374 C 167.307 37.187 167.579 36.995 167.862 36.819 L 167.864 36.819 C 168.314 36.54 168.766 36.266 169.222 35.997 C 169.787 35.663 170.351 35.325 170.913 34.986 C 171.479 34.645 172.035 34.279 172.561 33.877 C 172.6 33.85 172.639 33.827 172.677 33.799 C 172.749 33.746 172.82 33.691 172.889 33.633 C 173.211 33.366 173.549 33.119 173.887 32.872 C 173.942 32.832 173.999 32.793 174.054 32.753 C 174.243 32.626 174.423 32.488 174.605 32.354 C 174.706 32.287 174.804 32.216 174.899 32.142 C 174.843 32.186 174.915 32.134 174.935 32.122 C 175.012 32.071 175.09 32.022 175.17 31.975 C 175.442 31.813 175.72 31.663 175.999 31.514 C 176.185 31.415 176.369 31.314 176.554 31.214 C 176.871 31.091 177.187 30.963 177.497 30.823 C 177.744 30.803 177.99 30.791 178.238 30.736 C 178.283 30.727 178.328 30.716 178.373 30.705 C 179.528 30.422 180.671 30.096 181.806 29.741 C 183.325 29.266 184.8 28.653 186.244 27.984 C 187.572 27.368 188.866 26.682 190.16 25.996 C 190.381 25.902 190.598 25.798 190.825 25.72 C 191.22 25.584 191.614 25.45 192.009 25.317 C 192.507 25.15 192.999 24.964 193.485 24.764 C 193.869 24.606 194.281 24.503 194.68 24.39 C 195.448 24.174 196.22 23.949 196.961 23.65 C 197.368 23.486 197.773 23.318 198.176 23.147 C 198.561 22.983 198.95 22.831 199.341 22.684 C 199.99 22.441 200.642 22.206 201.295 21.974 C 202.099 21.688 202.901 21.391 203.686 21.053 C 204.041 20.9 204.399 20.75 204.764 20.62 C 205.445 20.376 206.139 20.164 206.828 19.946 C 207.636 19.69 208.443 19.434 209.246 19.167 C 209.736 19.005 210.224 18.838 210.71 18.664 C 211.308 18.45 211.898 18.213 212.481 17.963 C 212.862 17.799 213.251 17.655 213.645 17.528 C 214.483 17.257 215.359 17.08 216.217 16.886 C 217.46 16.606 218.704 16.328 219.95 16.055 C 221.104 15.802 222.256 15.535 223.405 15.258 C 224.381 15.024 225.359 14.802 226.343 14.608 C 227.147 14.45 227.953 14.306 228.763 14.18 C 229.595 14.051 230.432 13.952 231.269 13.868 C 231.898 13.805 232.529 13.734 233.16 13.704 C 233.99 13.665 234.814 13.546 235.634 13.416 C 236.092 13.343 236.552 13.262 237.013 13.213 C 237.211 13.191 237.414 13.195 237.613 13.194 C 238.326 13.189 239.039 13.16 239.751 13.131 C 239.797 13.13 239.844 13.128 239.89 13.127 C 240.786 13.09 241.685 13.077 242.582 13.078 C 243.413 13.078 244.243 13.079 245.073 13.054 C 246.291 13.017 247.513 13.033 248.732 13.032 L 248.734 13.03 Z  M 353.722 52.201 C 353.522 52.195 353.331 52.258 353.144 52.333 C 353.068 52.35 352.994 52.374 352.925 52.411 C 352.573 52.603 352.251 52.846 351.96 53.121 C 351.94 53.136 351.92 53.15 351.902 53.167 C 351.899 53.17 351.896 53.173 351.893 53.176 C 351.891 53.177 351.889 53.179 351.888 53.181 C 351.886 53.183 351.885 53.185 351.882 53.188 C 351.416 53.634 351.25 54.27 351.214 54.906 C 350.753 55.252 350.273 55.575 349.797 55.887 C 348.34 56.845 346.804 57.685 345.259 58.491 C 343.065 59.635 340.826 60.693 338.573 61.714 C 335.58 63.071 332.541 64.324 329.486 65.531 C 325.523 67.097 321.575 68.703 317.636 70.328 C 313.016 72.232 308.399 74.142 303.784 76.057 C 303.778 76.06 303.772 76.062 303.767 76.064 C 299.237 77.944 294.693 79.791 290.128 81.588 C 290.113 81.594 290.096 81.6 290.081 81.606 C 286.151 83.153 282.189 84.625 278.188 85.976 C 278.183 85.977 278.178 85.98 278.174 85.981 C 274.474 87.23 270.837 88.669 267.288 90.3 C 267.116 90.379 267.042 90.584 267.121 90.756 C 267.185 90.895 267.333 90.974 267.484 90.95 C 271.359 90.346 275.184 89.427 278.915 88.218 C 282.966 86.905 286.999 85.53 291.017 84.12 C 295.69 82.48 300.318 80.716 304.913 78.873 C 309.56 77.009 314.199 75.128 318.828 73.22 C 322.754 71.602 326.683 69.994 330.622 68.41 C 330.625 68.409 330.628 68.407 330.631 68.406 C 333.723 67.163 336.796 65.864 339.811 64.441 C 339.818 64.438 339.824 64.433 339.831 64.431 C 342.11 63.354 344.369 62.234 346.574 61.013 C 346.584 61.008 346.595 61.001 346.605 60.996 L 346.607 60.996 C 348.202 60.112 349.78 59.181 351.26 58.112 C 351.277 58.101 351.293 58.09 351.309 58.078 C 352.242 57.402 353.187 56.68 353.946 55.804 C 353.974 55.776 354.001 55.748 354.026 55.718 C 354.567 55.075 355.084 54.241 354.934 53.362 C 354.846 52.851 354.517 52.386 354 52.243 C 353.908 52.217 353.815 52.205 353.722 52.202 L 353.722 52.201 Z  M 468.283 64.734 C 469.315 64.776 470.348 64.814 471.38 64.86 C 473.202 64.941 475.024 65.017 476.846 65.089 C 478.636 65.159 480.426 65.227 482.216 65.29 C 483.918 65.351 485.62 65.429 487.32 65.532 C 488.781 65.621 490.242 65.737 491.696 65.903 C 492.836 66.032 493.973 66.215 495.088 66.486 C 495.963 66.699 496.829 66.965 497.655 67.327 C 498.315 67.617 498.962 67.945 499.566 68.341 C 500.129 68.711 500.682 69.098 501.216 69.51 C 501.573 69.785 501.907 70.09 502.233 70.402 C 502.19 70.723 502.187 71.048 502.127 71.363 C 501.982 72.119 501.848 72.882 501.651 73.627 C 501.557 73.983 501.437 74.333 501.303 74.676 L 501.301 74.678 C 501.134 75.107 500.946 75.526 500.741 75.937 C 500.453 76.518 500.172 77.102 499.904 77.692 L 499.904 77.693 C 499.903 77.694 499.903 77.696 499.902 77.697 C 499.489 78.603 499.17 79.551 498.869 80.498 C 498.641 81.217 498.411 81.937 498.161 82.648 C 498.031 83.02 497.866 83.381 497.687 83.732 C 497.415 84.265 497.124 84.787 496.819 85.302 C 496.489 85.856 496.14 86.398 495.776 86.929 C 495.387 87.497 494.984 88.056 494.568 88.603 C 494.154 89.147 493.724 89.679 493.28 90.197 C 492.874 90.67 492.442 91.119 491.99 91.547 C 491.463 92.044 490.912 92.516 490.347 92.97 C 489.712 93.479 489.068 93.975 488.412 94.456 C 487.27 95.293 486.168 96.185 485.069 97.077 C 483.991 97.951 482.912 98.829 481.865 99.74 C 481.853 99.751 481.84 99.759 481.829 99.769 C 481.147 100.363 480.475 100.968 479.815 101.587 C 479.146 102.213 478.502 102.867 477.894 103.554 C 477.328 104.193 476.79 104.856 476.283 105.543 C 475.883 106.086 475.481 106.628 475.077 107.168 C 474.558 107.861 473.985 108.515 473.415 109.166 C 473.414 109.167 473.412 109.167 473.412 109.168 L 473.41 109.169 L 473.41 109.171 C 472.878 109.779 472.348 110.401 471.765 110.961 C 471.01 111.686 470.307 112.467 469.612 113.247 C 468.992 113.943 468.372 114.637 467.742 115.322 C 467.741 115.323 467.739 115.325 467.738 115.326 C 467.737 115.327 467.737 115.329 467.736 115.329 C 467.066 116.058 466.352 116.748 465.644 117.44 C 465.643 117.441 465.64 117.443 465.639 117.443 C 464.313 118.739 462.962 120.01 461.607 121.276 C 460.464 122.343 459.31 123.402 458.2 124.504 C 457.506 125.193 456.772 125.841 456.041 126.49 C 455.2 127.237 454.36 127.984 453.526 128.739 C 452.902 129.304 452.288 129.884 451.69 130.478 C 451.688 130.48 451.688 130.482 451.685 130.485 C 450.671 131.493 449.726 132.573 448.779 133.643 C 447.38 135.224 446.029 136.848 444.713 138.499 C 443.71 139.758 442.706 141.017 441.736 142.301 C 441.734 142.303 441.732 142.304 441.73 142.306 C 441.721 142.319 441.711 142.332 441.701 142.345 C 441.098 143.144 440.474 143.926 439.833 144.695 C 439.055 145.628 438.253 146.542 437.439 147.444 C 436.737 148.222 436.033 149 435.318 149.768 C 434.907 150.209 434.475 150.631 434.028 151.037 C 433.572 151.452 433.093 151.843 432.598 152.211 C 432.189 152.516 431.753 152.789 431.324 153.064 C 430.435 153.634 429.536 154.188 428.636 154.74 C 426.851 155.833 425.042 156.896 423.168 157.832 C 421.875 158.477 420.584 159.122 419.296 159.777 C 419.293 159.778 419.289 159.779 419.286 159.782 C 418.345 160.26 417.407 160.746 416.474 161.238 C 415.534 161.733 414.598 162.24 413.672 162.761 C 412.782 163.262 411.899 163.778 411.026 164.309 C 409.887 165.001 408.73 165.662 407.572 166.322 C 406.026 167.205 404.487 168.098 402.955 169.005 C 402.954 169.005 402.951 169.005 402.95 169.006 C 401.86 169.652 400.77 170.298 399.672 170.929 C 398.937 171.351 398.192 171.756 397.44 172.146 C 396.645 172.559 395.843 172.958 395.034 173.344 C 393.758 173.952 392.495 174.586 391.233 175.222 C 389.633 176.029 388.051 176.872 386.496 177.761 C 385.151 178.529 383.797 179.279 382.432 180.008 L 382.43 180.008 C 382.428 180.009 382.428 180.011 382.426 180.012 C 380.69 180.939 378.96 181.879 377.232 182.822 C 375.933 183.532 374.638 184.248 373.328 184.94 C 372.457 185.4 371.59 185.87 370.725 186.341 C 369.691 186.902 368.652 187.452 367.605 187.989 C 366.434 188.59 365.283 189.232 364.157 189.914 C 363.083 190.564 362.018 191.228 360.959 191.903 C 360.958 191.904 360.956 191.904 360.954 191.905 C 360.944 191.912 360.934 191.919 360.923 191.925 C 359.784 192.652 358.648 193.384 357.514 194.12 C 356.295 194.911 355.063 195.682 353.824 196.44 L 353.822 196.442 L 353.82 196.444 C 352.27 197.392 350.704 198.313 349.131 199.223 C 347.957 199.903 346.787 200.593 345.592 201.237 C 345.589 201.239 345.585 201.239 345.582 201.242 C 344.666 201.735 343.729 202.189 342.794 202.646 C 342.782 202.652 342.771 202.657 342.76 202.663 C 341.393 203.331 340.011 203.968 338.619 204.581 C 337.416 205.11 336.214 205.641 335.032 206.216 C 333.415 207.002 331.843 207.887 330.266 208.751 C 330.262 208.754 330.259 208.756 330.255 208.758 C 328.733 209.592 327.203 210.417 325.707 211.297 C 325.705 211.298 325.704 211.298 325.702 211.299 C 325.679 211.312 325.656 211.325 325.634 211.338 C 324.552 211.977 323.485 212.637 322.417 213.299 C 322.416 213.3 322.415 213.302 322.412 213.304 C 321.397 213.933 320.38 214.56 319.355 215.172 C 318.729 215.545 318.095 215.902 317.45 216.24 C 316.434 216.774 315.376 217.234 314.328 217.699 L 314.326 217.701 C 312.313 218.594 310.28 219.443 308.245 220.284 C 306.066 221.185 303.879 222.071 301.679 222.919 C 300.207 223.486 298.735 224.054 297.267 224.63 C 295.72 225.237 294.183 225.871 292.648 226.505 C 291.217 227.096 289.786 227.687 288.338 228.234 C 287.426 228.578 286.51 228.909 285.589 229.225 C 283.744 229.858 281.87 230.412 280.006 230.983 C 278.039 231.585 276.07 232.182 274.11 232.807 L 274.11 232.809 C 273.09 233.134 272.074 233.479 271.066 233.843 C 271.064 233.843 271.062 233.843 271.059 233.844 C 271.019 233.858 270.978 233.872 270.938 233.887 C 269.556 234.387 268.158 234.84 266.76 235.293 C 265.355 235.748 263.949 236.207 262.566 236.723 C 262.56 236.725 262.555 236.723 262.55 236.725 C 262.487 236.746 262.426 236.768 262.364 236.791 C 261.454 237.135 260.545 237.487 259.639 237.842 C 258.153 238.425 256.696 239.082 255.242 239.74 C 253.869 240.36 252.495 240.981 251.116 241.589 C 250.222 241.984 249.323 242.372 248.422 242.753 C 248.416 242.753 248.41 242.762 248.403 242.762 C 247.095 243.314 245.796 243.886 244.498 244.461 C 243.329 244.979 242.159 245.498 240.979 245.988 C 240.978 245.989 240.977 245.988 240.976 245.988 C 240.215 246.304 239.45 246.615 238.684 246.918 C 237.619 247.34 236.53 247.702 235.444 248.065 C 235.44 248.065 235.437 248.065 235.432 248.074 C 234.055 248.534 232.673 248.979 231.282 249.398 C 229.84 249.831 228.378 250.198 226.912 250.543 C 225.229 250.938 223.552 251.371 221.898 251.879 C 221.892 251.879 221.885 251.879 221.879 251.879 C 221.851 251.887 221.823 251.895 221.795 251.904 C 220.413 252.331 219.031 252.76 217.649 253.189 C 217.646 253.19 217.643 253.189 217.64 253.189 C 216.116 253.662 214.598 254.16 213.088 254.675 C 211.474 255.225 209.862 255.78 208.251 256.335 C 206.531 256.928 204.807 257.508 203.081 258.081 C 201.369 258.648 199.652 259.2 197.929 259.732 C 196.66 260.125 195.391 260.515 194.116 260.884 C 192.751 261.279 191.391 261.689 190.031 262.099 C 188.348 262.606 186.664 263.107 184.977 263.597 C 183.858 263.922 182.739 264.249 181.614 264.549 C 181.02 264.708 180.422 264.853 179.82 264.981 C 178.322 265.299 176.828 265.635 175.333 265.967 C 173.428 266.391 171.523 266.815 169.618 267.242 C 169.584 267.251 169.549 267.256 169.514 267.264 C 168.434 267.506 167.35 267.741 166.276 268.011 C 165.745 268.145 165.216 268.283 164.687 268.426 C 163.776 268.672 162.879 268.973 161.985 269.274 C 160.393 269.809 158.774 270.264 157.159 270.721 L 157.122 270.731 C 155.398 271.219 153.673 271.706 151.952 272.202 C 151.062 272.459 150.173 272.721 149.295 273.012 C 149.29 273.012 149.285 273.013 149.279 273.012 C 149.257 273.021 149.234 273.029 149.211 273.036 C 148.453 273.29 147.679 273.498 146.908 273.708 C 146.903 273.708 146.899 273.708 146.894 273.708 C 145.876 273.986 144.852 274.244 143.821 274.471 C 143.02 274.648 142.217 274.81 141.414 274.973 C 140.389 274.318 139.105 274.115 137.881 274.164 C 137.776 274.164 137.674 274.15 137.568 274.155 C 136.504 274.209 135.442 274.29 134.382 274.396 C 132.548 274.578 130.735 275.04 128.956 275.505 C 127.599 275.859 126.231 276.234 124.844 276.455 C 124.12 276.571 123.389 276.654 122.656 276.686 C 121.792 276.722 120.927 276.753 120.063 276.779 C 119.108 276.809 118.156 276.85 117.203 276.899 L 117.201 276.899 C 116.162 276.952 115.124 277.022 114.087 277.105 C 113.001 277.193 111.915 277.275 110.828 277.353 C 109.721 277.432 108.612 277.49 107.503 277.528 C 106.297 277.569 105.091 277.619 103.885 277.673 C 102.699 277.728 101.512 277.795 100.328 277.877 C 100.299 277.877 100.27 277.877 100.241 277.885 C 99.035 277.969 97.83 278.068 96.627 278.182 C 94.738 278.361 92.849 278.545 90.96 278.73 C 89.168 278.905 87.371 279.091 85.572 279.174 C 84.513 279.222 83.453 279.257 82.393 279.274 C 81.283 279.292 80.173 279.335 79.066 279.397 C 79.06 279.397 79.054 279.397 79.049 279.397 C 79.032 279.398 79.014 279.397 78.997 279.397 C 77.884 279.46 76.771 279.537 75.66 279.629 C 75.64 279.629 75.619 279.629 75.598 279.638 C 74.541 279.726 73.481 279.798 72.421 279.855 C 70.885 279.936 69.342 279.923 67.804 279.91 C 66.294 279.898 64.779 279.89 63.272 279.781 C 62.216 279.704 61.159 279.622 60.104 279.533 C 60.101 279.533 60.098 279.533 60.095 279.533 C 60.091 279.533 60.087 279.534 60.083 279.533 C 59.128 279.453 58.166 279.433 57.208 279.416 C 55.731 279.389 54.255 279.388 52.778 279.392 L 52.777 279.392 C 52.765 279.392 52.754 279.392 52.742 279.392 C 50.411 279.401 48.078 279.418 45.747 279.37 C 44.653 279.348 43.561 279.294 42.471 279.205 C 40.87 279.074 39.272 278.887 37.678 278.698 C 36.047 278.505 34.415 278.312 32.781 278.157 C 32.774 278.156 32.769 278.157 32.764 278.157 C 32.759 278.157 32.754 278.157 32.75 278.157 C 31.177 278.009 29.6 277.899 28.023 277.79 C 28.017 277.79 28.011 277.79 28.005 277.79 C 26.214 277.667 24.425 277.521 22.64 277.335 C 22.631 277.335 22.621 277.335 22.611 277.335 C 21.141 277.181 19.673 277.012 18.209 276.812 C 17.028 276.651 15.849 276.477 14.673 276.277 C 14.316 276.215 13.958 276.151 13.604 276.072 C 13.506 276.05 13.407 276.026 13.31 276 C 13.252 275.985 13.289 276 13.32 276.009 C 13.095 275.922 12.875 275.824 12.662 275.71 C 12.069 275.396 11.496 275.041 10.921 274.695 C 10.591 274.496 10.261 274.296 9.937 274.086 C 9.89 274.056 9.843 274.023 9.797 273.992 C 9.733 273.912 9.669 273.832 9.609 273.748 L 9.609 273.748 C 9.47 273.554 9.332 273.352 9.224 273.137 C 9.205 273.06 9.192 272.981 9.181 272.902 C 9.13 272.532 9.127 272.157 9.147 271.784 C 9.162 271.5 9.192 271.213 9.275 270.94 C 9.581 269.926 9.977 268.934 10.35 267.943 C 10.586 267.317 10.828 266.692 11.092 266.077 C 11.219 265.78 11.345 265.478 11.505 265.196 C 11.825 264.631 12.179 264.083 12.547 263.548 C 13.074 262.784 13.696 262.082 14.315 261.393 C 15.022 260.606 15.751 259.834 16.533 259.12 C 16.54 259.111 16.547 259.108 16.554 259.101 C 17.746 258.016 18.882 256.868 20.014 255.721 C 20.034 255.702 20.054 255.681 20.074 255.661 C 21.113 254.608 22.152 253.555 23.201 252.512 C 23.823 251.894 24.479 251.311 25.148 250.746 C 25.95 250.069 26.726 249.359 27.459 248.608 C 27.463 248.608 27.468 248.599 27.472 248.597 C 27.517 248.554 27.561 248.51 27.604 248.466 C 27.982 248.072 28.362 247.671 28.772 247.309 L 28.774 247.309 C 28.979 247.129 29.202 246.969 29.431 246.821 C 30.522 246.119 31.641 245.457 32.75 244.784 C 34.48 243.733 36.189 242.644 37.85 241.487 C 39.362 240.434 40.863 239.365 42.356 238.286 C 44.771 236.542 47.172 234.778 49.572 233.014 C 50.868 232.062 52.163 231.111 53.466 230.169 C 54.093 229.716 54.719 229.256 55.362 228.823 C 55.376 228.814 55.39 228.803 55.404 228.794 C 56.643 227.962 57.901 227.16 59.158 226.356 C 59.181 226.342 59.202 226.328 59.225 226.313 C 60.651 225.399 62.079 224.482 63.461 223.501 C 63.479 223.489 63.497 223.478 63.514 223.465 C 64.44 222.807 65.344 222.116 66.227 221.401 C 66.233 221.395 66.241 221.394 66.248 221.389 C 66.27 221.371 66.294 221.354 66.316 221.336 C 67.132 220.672 67.939 219.996 68.735 219.309 C 68.75 219.297 68.764 219.285 68.778 219.273 C 69.862 218.336 70.927 217.377 71.991 216.418 C 72.018 216.396 72.043 216.372 72.069 216.348 C 72.99 215.518 73.914 214.668 74.917 213.936 C 75.516 213.498 76.137 213.09 76.775 212.712 C 77.742 212.141 78.713 211.576 79.683 211.011 C 79.92 210.972 80.154 210.916 80.386 210.851 C 80.399 210.847 80.412 210.845 80.425 210.842 L 80.425 210.84 C 80.867 210.713 81.305 210.567 81.737 210.412 C 82.207 210.243 82.674 210.064 83.14 209.886 C 83.143 209.886 83.147 209.887 83.15 209.886 C 83.158 209.886 83.166 209.886 83.174 209.885 C 83.219 209.882 83.265 209.882 83.31 209.878 C 83.311 209.878 83.313 209.878 83.314 209.878 C 83.355 209.874 83.395 209.866 83.435 209.861 C 83.506 209.851 83.576 209.842 83.647 209.828 C 83.687 209.82 83.726 209.812 83.766 209.803 C 83.826 209.789 83.885 209.773 83.944 209.757 C 84 209.74 84.055 209.723 84.111 209.704 C 84.15 209.69 84.189 209.676 84.229 209.661 C 84.284 209.64 84.339 209.618 84.392 209.594 C 84.441 209.573 84.488 209.55 84.536 209.526 C 84.585 209.502 84.635 209.478 84.682 209.451 C 84.689 209.448 84.695 209.444 84.701 209.441 C 84.866 209.347 85.032 209.253 85.198 209.159 C 85.431 209.027 85.66 208.887 85.89 208.751 C 86.026 208.687 86.162 208.624 86.297 208.557 C 86.896 208.257 87.496 207.956 88.095 207.656 C 88.702 207.352 89.307 207.041 89.907 206.723 C 90.458 206.43 91.004 206.128 91.545 205.818 C 91.874 205.63 92.212 205.455 92.559 205.303 C 92.941 205.136 93.325 204.973 93.712 204.817 C 93.72 204.813 93.728 204.812 93.736 204.808 C 93.74 204.806 93.744 204.805 93.748 204.803 C 93.784 205.577 93.788 206.352 93.849 207.125 C 93.963 208.576 94.116 210.034 94.437 211.456 C 94.902 213.513 95.544 215.527 96.347 217.477 L 96.347 217.479 C 97.354 219.926 98.519 222.308 99.698 224.676 C 99.941 225.164 100.262 225.581 100.614 225.963 C 100.442 226.003 100.269 226.035 100.097 226.077 C 99.731 226.165 99.362 226.244 98.991 226.314 C 98.229 226.045 97.414 225.91 96.596 225.944 C 96.154 225.962 95.737 226.051 95.331 226.171 C 95.123 226.228 94.928 226.307 94.727 226.387 C 94.614 226.437 94.506 226.491 94.398 226.548 C 94.16 226.663 93.906 226.745 93.686 226.894 C 92.689 227.57 91.934 228.573 91.559 229.718 C 91.3 230.507 91.287 231.327 91.378 232.141 C 91.402 232.577 91.463 233.015 91.603 233.45 C 91.604 233.452 91.606 233.457 91.607 233.46 L 91.607 233.462 L 91.607 233.463 C 91.742 233.881 91.938 234.259 92.161 234.615 C 92.285 234.825 92.428 235.012 92.577 235.204 C 92.613 235.246 92.65 235.287 92.687 235.328 C 93.544 236.367 94.721 237.13 96.101 237.297 C 97.055 237.413 97.986 237.179 98.843 236.767 C 98.923 236.762 99.001 236.774 99.082 236.765 C 100.232 236.639 101.369 236.362 102.493 236.096 C 103.504 235.857 104.517 235.623 105.538 235.431 C 106.22 235.302 106.908 235.213 107.6 235.156 C 108.796 235.059 109.986 234.849 111.133 234.491 C 111.377 234.415 111.63 234.351 111.886 234.34 C 112.749 234.306 113.613 234.219 114.461 234.05 C 114.877 233.967 115.299 233.917 115.722 233.878 C 115.731 233.877 115.74 233.877 115.749 233.876 L 115.749 233.875 C 116.41 233.814 117.07 233.739 117.726 233.639 C 117.736 233.638 117.745 233.639 117.754 233.637 C 117.781 233.634 117.808 233.629 117.836 233.625 C 118.863 233.464 119.876 233.193 120.881 232.929 C 121.901 232.661 122.923 232.387 123.924 232.052 C 124.463 231.872 125.006 231.702 125.553 231.545 C 126.546 231.261 127.556 231.035 128.561 230.801 C 128.575 230.799 128.589 230.794 128.602 230.791 C 128.61 230.789 128.618 230.788 128.626 230.786 L 128.628 230.786 C 130.128 230.437 131.624 230.063 133.109 229.65 C 133.133 229.643 133.158 229.638 133.182 229.631 C 134.127 229.367 135.08 229.117 136.047 228.943 C 137.089 228.756 138.125 228.54 139.157 228.305 C 139.161 228.304 139.164 228.304 139.168 228.303 C 140.323 228.04 141.484 227.811 142.648 227.593 C 143.789 227.38 144.945 227.177 146.058 226.841 L 146.059 226.841 C 146.868 226.597 147.661 226.308 148.453 226.015 C 149.388 225.67 150.344 225.381 151.303 225.113 C 152.219 224.856 153.139 224.605 154.043 224.309 C 154.559 224.14 155.071 223.962 155.58 223.777 C 156.716 223.363 157.804 222.807 158.886 222.273 C 158.886 222.272 158.89 222.273 158.891 222.272 C 159.952 221.748 161.034 221.255 162.146 220.85 L 162.148 220.85 C 163.014 220.535 163.888 220.226 164.731 219.852 C 165.314 219.593 165.904 219.347 166.492 219.101 C 167.472 218.691 168.472 218.328 169.473 217.975 C 169.486 217.971 169.499 217.966 169.512 217.961 C 170.732 217.532 171.95 217.097 173.162 216.648 L 173.164 216.648 C 173.168 216.646 173.172 216.644 173.176 216.642 C 174.231 216.251 175.285 215.852 176.336 215.448 L 176.365 215.438 C 177.49 215.005 178.617 214.58 179.747 214.16 C 179.75 214.159 179.755 214.157 179.757 214.156 C 180.856 213.748 181.97 213.374 183.096 213.049 L 183.096 213.051 C 184.313 212.699 185.522 212.328 186.726 211.933 C 186.73 211.931 186.733 211.929 186.738 211.928 C 187.338 211.73 187.947 211.511 188.567 211.377 L 188.574 211.375 C 189.301 211.217 190.036 211.086 190.768 210.952 C 191.685 210.783 192.601 210.61 193.508 210.397 C 194.533 210.156 195.545 209.854 196.554 209.553 C 197.607 209.238 198.661 208.918 199.69 208.532 C 200.48 208.236 201.277 207.962 202.076 207.689 C 202.091 207.685 202.105 207.68 202.12 207.674 C 203.261 207.285 204.408 206.913 205.558 206.553 C 206.567 206.237 207.575 205.92 208.58 205.591 C 209.324 205.346 210.064 205.091 210.8 204.823 L 210.802 204.823 C 211.515 204.563 212.226 204.291 212.929 204.005 C 213.812 203.647 214.706 203.311 215.598 202.976 C 216.495 202.64 217.392 202.305 218.301 202 C 218.911 201.796 219.526 201.598 220.142 201.412 C 220.837 201.201 221.529 200.98 222.217 200.746 C 222.222 200.745 222.227 200.741 222.232 200.739 C 223.161 200.423 224.086 200.094 225.01 199.763 C 225.011 199.763 225.012 199.762 225.013 199.762 C 226.053 199.39 227.1 199.037 228.155 198.712 C 229.311 198.357 230.469 198.007 231.629 197.661 C 231.638 197.659 231.648 197.655 231.658 197.652 C 232.806 197.31 233.951 196.952 235.079 196.545 C 235.087 196.542 235.094 196.539 235.101 196.536 C 235.119 196.53 235.138 196.526 235.156 196.519 L 235.156 196.518 C 236.041 196.196 236.933 195.894 237.828 195.6 C 239.027 195.205 240.211 194.765 241.382 194.293 C 242.617 193.794 243.845 193.278 245.067 192.748 C 245.071 192.747 245.074 192.746 245.078 192.743 C 246.38 192.179 247.673 191.594 248.959 190.992 C 248.963 190.991 248.967 190.991 248.971 190.989 C 248.987 190.982 249.002 190.974 249.018 190.967 L 249.019 190.967 C 249.939 190.536 250.86 190.105 251.797 189.713 C 252.468 189.432 253.144 189.163 253.824 188.906 C 254.988 188.465 256.148 188.011 257.307 187.558 C 259.25 186.797 261.184 186.008 263.113 185.213 C 263.123 185.21 263.132 185.205 263.142 185.201 C 264.758 184.536 266.373 183.866 268.005 183.241 C 269.054 182.839 270.091 182.409 271.116 181.947 C 271.12 181.946 271.125 181.944 271.129 181.942 C 271.145 181.935 271.16 181.929 271.175 181.922 C 272.202 181.457 273.212 180.953 274.199 180.408 C 274.202 180.406 274.207 180.404 274.211 180.401 C 274.98 179.976 275.765 179.58 276.562 179.21 C 277.594 178.732 278.617 178.239 279.637 177.736 C 280.753 177.185 281.86 176.618 282.959 176.035 C 282.962 176.034 282.965 176.031 282.968 176.03 L 282.97 176.03 C 283.991 175.487 285.037 174.992 286.097 174.53 C 287.738 173.814 289.362 173.056 290.979 172.289 C 290.98 172.289 290.981 172.289 290.982 172.288 L 290.984 172.288 C 292.397 171.617 293.81 170.946 295.233 170.296 C 296.173 169.867 297.114 169.437 298.055 169.01 C 298.06 169.007 298.065 169.007 298.07 169.005 L 298.07 169.003 C 298.717 168.709 299.366 168.414 300.026 168.15 L 300.028 168.15 C 301.041 167.743 302.078 167.39 303.107 167.025 C 303.112 167.023 303.116 167.023 303.121 167.022 L 303.121 167.02 C 304.613 166.491 306.1 165.94 307.551 165.305 C 308.914 164.708 310.278 164.107 311.641 163.507 C 311.646 163.504 311.651 163.504 311.656 163.501 L 311.656 163.5 C 313.086 162.869 314.514 162.23 315.925 161.558 C 317.054 161.02 318.172 160.463 319.283 159.889 C 319.288 159.887 319.293 159.885 319.298 159.882 C 319.32 159.871 319.341 159.859 319.363 159.848 C 320.529 159.245 321.723 158.696 322.926 158.172 L 322.928 158.172 C 324.48 157.498 326.021 156.797 327.555 156.082 C 327.56 156.08 327.567 156.08 327.572 156.077 C 327.591 156.069 327.61 156.058 327.629 156.05 C 328.831 155.489 330.036 154.929 331.227 154.343 L 331.234 154.34 C 331.906 154.01 332.582 153.685 333.263 153.373 C 333.266 153.371 333.271 153.371 333.275 153.369 L 333.275 153.367 C 334.194 152.945 335.118 152.532 336.041 152.12 C 337.107 151.643 338.188 151.198 339.283 150.791 C 340.183 150.456 341.084 150.117 341.967 149.735 C 341.98 149.729 341.993 149.728 342.006 149.723 C 342.022 149.716 342.038 149.707 342.054 149.7 C 342.641 149.444 343.222 149.172 343.796 148.888 C 343.798 148.887 343.8 148.886 343.803 148.885 C 343.82 148.876 343.837 148.869 343.854 148.861 C 343.858 148.859 343.862 148.857 343.866 148.854 C 344.57 148.505 345.281 148.17 345.992 147.837 C 347.098 147.318 348.213 146.816 349.33 146.32 C 350.615 145.749 351.879 145.117 353.083 144.387 C 353.119 144.367 353.157 144.357 353.193 144.336 C 353.204 144.329 353.215 144.321 353.227 144.313 C 354.369 143.61 355.473 142.843 356.564 142.063 C 356.569 142.06 356.574 142.058 356.578 142.056 C 356.62 142.028 356.663 141.999 356.704 141.969 C 357.7 141.255 358.699 140.546 359.712 139.858 C 360.891 139.058 362.05 138.228 363.207 137.396 C 363.211 137.392 363.217 137.391 363.222 137.386 C 364.347 136.577 365.494 135.77 366.524 134.84 C 366.851 134.544 367.185 134.256 367.517 133.965 C 368.55 133.479 369.583 132.994 370.607 132.49 C 371.906 131.851 373.166 131.123 374.426 130.41 C 375.659 129.714 376.889 129.01 378.151 128.365 C 379.18 127.838 380.218 127.326 381.256 126.815 C 382.252 126.325 383.272 125.845 384.206 125.24 C 384.617 124.974 385.011 124.679 385.402 124.386 C 386.01 123.93 386.611 123.465 387.211 122.998 C 388.227 122.207 389.249 121.421 390.236 120.592 C 391.016 119.938 391.777 119.262 392.538 118.586 C 393.135 118.055 393.727 117.518 394.341 117.008 C 394.96 116.495 395.638 116.043 396.292 115.578 C 397.286 114.869 398.273 114.147 399.204 113.356 C 399.826 112.829 400.439 112.292 401.04 111.742 C 401.689 111.149 402.409 110.629 403.119 110.112 C 403.6 109.762 404.08 109.408 404.549 109.041 C 404.922 108.748 405.292 108.448 405.625 108.109 L 405.627 108.109 C 406.112 107.616 406.547 107.071 406.968 106.522 L 406.968 106.521 C 407.335 106.043 407.732 105.587 408.145 105.149 C 408.714 104.546 409.263 103.923 409.77 103.267 C 410.068 102.88 410.338 102.468 410.546 102.025 C 410.995 101.068 411.118 99.969 410.765 98.958 C 410.724 98.844 410.678 98.732 410.626 98.622 L 410.628 98.622 C 410.565 98.488 410.494 98.357 410.415 98.231 C 410.295 98.072 410.175 97.911 410.055 97.752 C 410.003 97.694 409.941 97.648 409.886 97.593 C 409.861 97.569 409.84 97.542 409.814 97.518 L 409.777 97.489 C 409.63 97.357 409.474 97.238 409.307 97.133 L 409.251 97.09 C 409.237 97.081 409.221 97.075 409.207 97.066 C 409.119 97.014 409.029 96.969 408.937 96.925 C 408.871 96.893 408.802 96.865 408.734 96.838 C 408.641 96.8 408.549 96.76 408.453 96.73 C 408.312 96.687 408.168 96.654 408.023 96.629 C 407.991 96.624 407.962 96.612 407.93 96.607 C 407.869 96.598 407.809 96.605 407.748 96.598 C 407.695 96.594 407.644 96.584 407.591 96.581 C 407.557 96.58 407.524 96.588 407.49 96.587 C 407.31 96.583 407.131 96.593 406.954 96.616 C 406.91 96.622 406.867 96.628 406.823 96.636 C 406.269 96.729 405.735 96.927 405.246 97.221 C 404.933 97.41 404.636 97.624 404.347 97.848 C 403.632 98.4 402.973 99.022 402.353 99.678 L 402.353 99.68 C 402.321 99.714 402.293 99.75 402.262 99.784 C 401.856 100.221 401.471 100.676 401.116 101.154 L 401.114 101.154 C 401.005 101.116 400.893 101.089 400.779 101.073 C 400.754 101.069 400.728 101.066 400.703 101.064 C 400.662 101.059 400.621 101.055 400.58 101.054 C 400.574 101.053 400.567 101.054 400.561 101.054 C 400.516 101.053 400.471 101.053 400.426 101.055 C 400.407 101.056 400.389 101.057 400.37 101.059 C 400.333 101.061 400.297 101.066 400.261 101.071 C 400.241 101.073 400.221 101.078 400.201 101.081 C 400.168 101.087 400.135 101.092 400.102 101.1 C 400.076 101.106 400.049 101.113 400.023 101.12 C 399.994 101.129 399.964 101.138 399.935 101.147 C 399.915 101.155 399.895 101.161 399.875 101.168 C 399.831 101.184 399.788 101.204 399.745 101.224 C 399.741 101.226 399.736 101.229 399.732 101.231 C 399.692 101.25 399.651 101.27 399.612 101.293 C 399.596 101.302 399.58 101.312 399.564 101.322 C 399.528 101.344 399.492 101.368 399.457 101.393 C 399.446 101.401 399.435 101.409 399.425 101.417 C 399.413 101.426 399.4 101.433 399.389 101.443 C 399.374 101.454 399.359 101.467 399.344 101.478 C 398.586 101.076 397.716 100.947 396.858 101.038 C 395.093 97.806 393.358 94.554 391.75 91.241 C 390.413 88.486 389.036 85.752 387.607 83.044 C 386.697 81.32 385.77 79.592 384.991 77.804 C 384.717 77.175 384.516 76.518 384.281 75.874 C 385.166 75.815 386.05 75.707 386.916 75.562 C 388.127 75.359 389.338 75.157 390.55 74.961 C 391.624 74.788 392.698 74.623 393.773 74.463 C 395.829 74.156 397.876 73.779 399.921 73.407 C 399.924 73.406 399.926 73.407 399.93 73.407 L 399.93 73.405 C 402.605 72.917 405.283 72.449 407.965 72.001 C 410.585 71.563 413.21 71.166 415.843 70.808 C 418.676 70.423 421.514 70.066 424.354 69.73 C 426.534 69.471 428.715 69.211 430.899 68.982 C 432.825 68.78 434.753 68.59 436.68 68.402 L 436.722 68.399 C 438.583 68.217 440.445 68.037 442.312 67.931 C 443.663 67.855 445.015 67.78 446.366 67.704 C 447.791 67.624 449.213 67.518 450.634 67.387 C 452.017 67.259 453.398 67.101 454.773 66.909 C 454.774 66.909 454.776 66.909 454.777 66.909 C 454.789 66.907 454.802 66.905 454.814 66.904 C 456.016 66.735 457.215 66.558 458.413 66.368 C 458.414 66.368 458.416 66.368 458.416 66.368 C 458.438 66.364 458.46 66.361 458.481 66.358 C 460.069 66.106 461.652 65.827 463.235 65.546 C 464.912 65.248 466.596 64.986 468.282 64.744 L 468.283 64.734 Z  M 216.18 69.37 C 216.085 69.362 215.989 69.388 215.907 69.448 C 215.061 70.072 214.172 70.639 213.24 71.126 C 212.452 71.517 211.634 71.849 210.815 72.17 C 209.581 72.654 208.325 73.085 207.065 73.497 C 205.429 74.033 203.776 74.519 202.117 74.98 C 200.082 75.545 198.04 76.083 195.995 76.606 C 193.573 77.226 191.151 77.839 188.727 78.449 C 185.96 79.146 183.204 79.895 180.46 80.679 C 177.527 81.518 174.592 82.347 171.653 83.163 C 168.885 83.933 166.114 84.694 163.34 85.44 C 161.005 86.068 158.672 86.702 156.342 87.347 C 154.277 87.92 152.262 88.7 150.382 89.733 C 150.222 89.821 150.163 90.021 150.251 90.181 C 150.308 90.286 150.418 90.353 150.537 90.354 C 152.679 90.376 154.821 90.127 156.914 89.68 C 159.288 89.172 161.652 88.615 164.008 88.033 C 166.814 87.34 169.607 86.598 172.391 85.824 C 175.348 85.002 178.293 84.135 181.221 83.22 C 183.91 82.379 186.608 81.567 189.318 80.797 C 189.33 80.794 189.34 80.79 189.352 80.787 L 189.354 80.787 C 191.763 80.102 194.17 79.407 196.571 78.695 C 198.597 78.094 200.617 77.471 202.625 76.813 C 202.639 76.809 202.654 76.804 202.668 76.799 C 204.317 76.258 205.956 75.683 207.573 75.054 C 207.588 75.049 207.604 75.044 207.618 75.038 C 208.868 74.55 210.111 74.042 211.327 73.475 C 211.341 73.469 211.355 73.464 211.368 73.458 C 212.208 73.066 213.045 72.649 213.822 72.141 L 213.824 72.141 C 213.826 72.139 213.83 72.137 213.832 72.136 C 213.834 72.134 213.835 72.132 213.838 72.13 C 214.775 71.54 215.639 70.839 216.431 70.066 C 216.592 69.909 216.595 69.651 216.438 69.491 C 216.367 69.418 216.275 69.377 216.18 69.37 L 216.18 69.37 Z  M 404.699 86.221 C 404.693 86.221 404.687 86.223 404.681 86.223 C 403.271 86.214 401.802 86.273 400.447 86.701 C 400.234 86.768 400.115 86.996 400.183 87.209 C 400.243 87.4 400.434 87.518 400.632 87.487 C 401.94 87.284 403.303 87.419 404.606 87.591 C 406.216 87.805 407.818 88.082 409.402 88.443 C 410.905 88.786 412.397 89.18 413.872 89.625 C 415.172 90.018 416.449 90.495 417.659 91.113 C 418.561 91.574 419.449 92.101 420.211 92.773 C 420.646 93.157 421.003 93.638 421.133 94.212 C 421.285 94.886 421.303 95.583 421.22 96.268 C 421.132 96.988 420.931 97.693 420.621 98.35 C 419.936 99.767 419.255 101.187 418.577 102.607 C 418.479 102.811 418.565 103.055 418.769 103.153 C 418.884 103.207 419.018 103.206 419.131 103.149 C 420.72 102.349 422.268 101.211 423.117 99.609 C 423.617 98.68 423.936 97.661 424.064 96.614 C 424.187 95.606 424.131 94.579 423.87 93.596 C 423.865 93.574 423.86 93.552 423.854 93.531 C 423.55 92.428 422.867 91.48 421.993 90.755 C 421.98 90.743 421.967 90.732 421.953 90.721 C 421.008 89.949 419.917 89.366 418.802 88.878 C 418.778 88.866 418.755 88.854 418.73 88.844 C 417.351 88.246 415.903 87.81 414.439 87.477 C 412.888 87.124 411.323 86.832 409.75 86.596 C 408.079 86.347 406.389 86.232 404.699 86.221 L 404.699 86.221 Z  M 327.304 109.657 C 327.251 109.64 327.193 109.64 327.138 109.661 C 323.578 110.999 320.099 112.549 316.67 114.194 C 316.668 114.195 316.667 114.197 316.665 114.198 C 314.013 115.438 311.418 116.8 308.877 118.255 C 306.281 119.742 303.666 121.194 301.03 122.608 C 298.498 123.967 295.936 125.272 293.345 126.514 C 290.938 127.667 288.504 128.761 286.035 129.776 C 286.033 129.777 286.031 129.777 286.028 129.778 C 286.024 129.78 286.019 129.783 286.015 129.785 C 283.795 130.698 281.575 131.613 279.357 132.53 C 279.344 132.535 279.33 132.54 279.318 132.546 C 277.274 133.391 275.246 134.272 273.235 135.192 C 270.977 136.225 268.769 137.368 266.592 138.56 C 265.592 139.107 264.588 139.646 263.563 140.146 C 262.974 140.433 262.372 140.729 261.744 140.924 C 261.621 140.962 261.553 141.092 261.591 141.215 C 261.629 141.339 261.759 141.407 261.883 141.369 C 262.529 141.169 263.164 140.933 263.799 140.698 C 264.875 140.3 265.947 139.886 267.017 139.47 C 269.315 138.575 271.613 137.676 273.907 136.77 C 275.946 135.965 277.996 135.187 280.055 134.433 C 282.329 133.599 284.59 132.73 286.842 131.839 C 289.367 130.841 291.867 129.78 294.345 128.671 C 297.011 127.477 299.63 126.18 302.204 124.799 C 304.86 123.374 307.472 121.865 310.036 120.279 C 310.048 120.272 310.059 120.266 310.07 120.259 C 312.519 118.743 315.006 117.289 317.538 115.918 C 320.904 114.14 324.213 112.239 327.368 110.106 C 327.484 110.028 327.515 109.872 327.437 109.757 C 327.404 109.708 327.356 109.674 327.304 109.658 L 327.304 109.657 Z  M 441.528 121.009 C 441.426 121.025 441.334 121.079 441.27 121.161 C 440.962 121.555 440.613 121.919 440.265 122.279 C 439.755 122.806 439.232 123.32 438.702 123.828 C 436.983 125.478 435.215 127.077 433.44 128.667 C 430.631 131.18 427.652 133.498 424.571 135.668 C 421.072 138.131 417.589 140.618 414.116 143.119 C 414.116 143.12 414.114 143.12 414.113 143.121 C 414.106 143.125 414.099 143.131 414.092 143.136 C 410.438 145.769 406.748 148.351 403.024 150.883 L 403.022 150.885 C 403.016 150.889 403.01 150.894 403.003 150.898 C 399.292 153.421 395.557 155.908 391.798 158.36 C 391.795 158.361 391.795 158.362 391.793 158.363 C 388.003 160.835 384.283 163.413 380.635 166.089 C 377.285 168.548 373.885 170.944 370.411 173.227 C 367.458 175.167 364.491 177.086 361.504 178.974 C 359.103 180.491 356.739 182.08 354.505 183.838 L 354.504 183.84 C 354.499 183.843 354.494 183.848 354.49 183.85 C 354.489 183.851 354.488 183.853 354.486 183.854 C 353.185 184.855 351.887 185.859 350.601 186.881 C 349.795 187.521 348.992 188.164 348.214 188.838 C 348.071 188.962 348.056 189.179 348.18 189.322 C 348.304 189.466 348.52 189.481 348.663 189.356 L 348.663 189.358 C 349.43 188.693 350.243 188.077 351.055 187.468 C 352.363 186.485 353.691 185.528 355.024 184.579 C 357.337 182.971 359.743 181.499 362.177 180.081 C 365.236 178.298 368.281 176.492 371.319 174.672 C 374.92 172.515 378.414 170.18 381.835 167.75 C 385.494 165.15 389.211 162.634 392.985 160.205 C 396.769 157.77 400.544 155.323 404.313 152.868 C 408.113 150.392 411.88 147.866 415.611 145.288 C 419.139 142.85 422.656 140.399 426.163 137.931 C 429.331 135.7 432.391 133.306 435.267 130.708 L 435.271 130.706 L 435.271 130.704 L 435.273 130.704 C 437.108 129.049 438.922 127.303 440.385 125.301 C 440.899 124.596 441.379 123.845 441.704 123.031 C 441.912 122.508 442.079 121.916 441.992 121.349 C 441.958 121.127 441.75 120.975 441.528 121.009 L 441.528 121.009 Z  M 236.045 124.565 C 229.475 126.628 222.887 128.633 216.289 130.605 C 211.36 132.064 206.421 133.493 201.475 134.897 C 196.377 136.343 191.314 137.916 186.294 139.616 C 181.583 141.212 176.885 142.845 172.205 144.532 C 168.214 145.971 164.227 147.424 160.251 148.905 C 157.141 150.064 154.025 151.206 150.896 152.313 C 148.613 153.119 146.319 153.899 144 154.597 C 142.51 155.046 141.011 155.487 139.489 155.816 C 139.48 155.817 139.471 155.819 139.462 155.821 C 138.635 155.999 137.784 156.163 136.935 156.169 C 136.409 156.173 135.878 156.171 135.355 156.114 C 134.667 156.042 133.968 156.171 133.305 156.345 C 132.704 156.503 132.064 156.725 131.599 157.157 C 131.431 157.313 131.42 157.577 131.577 157.746 C 131.683 157.86 131.845 157.904 131.995 157.862 C 132.427 157.739 132.925 157.83 133.355 157.914 C 133.757 157.994 134.206 158.09 134.553 158.322 C 135.238 158.783 136.096 158.925 136.906 158.947 C 137.946 158.975 138.991 158.83 140.013 158.652 C 141.652 158.366 143.261 157.906 144.852 157.427 L 144.854 157.427 C 147.21 156.717 149.547 155.948 151.878 155.161 C 155.04 154.092 158.188 152.984 161.33 151.859 C 165.32 150.43 169.309 148.995 173.296 147.557 C 177.956 145.877 182.621 144.208 187.287 142.546 C 187.295 142.543 187.302 142.54 187.31 142.537 C 192.258 140.775 197.247 139.128 202.27 137.592 C 207.19 136.088 212.104 134.566 217.013 133.026 C 217.017 133.025 217.02 133.024 217.025 133.023 C 223.651 130.964 230.176 128.468 236.321 125.229 C 236.497 125.136 236.564 124.917 236.471 124.741 C 236.39 124.586 236.211 124.512 236.045 124.565 L 236.045 124.565 Z  M 372.068 144.256 C 371.981 144.244 371.891 144.266 371.816 144.324 C 371.215 144.785 370.565 145.185 369.925 145.588 C 368.757 146.324 367.573 147.033 366.386 147.738 C 363.633 149.375 360.827 150.926 357.959 152.354 C 354.905 153.874 351.815 155.324 348.709 156.737 C 344.811 158.51 340.986 160.444 337.205 162.455 C 332.784 164.807 328.357 167.149 323.927 169.485 C 319.251 171.95 314.533 174.336 309.778 176.646 C 305.322 178.812 300.864 180.976 296.405 183.135 C 292.549 185.001 288.698 186.875 284.853 188.762 C 281.72 190.3 278.575 191.815 275.404 193.272 C 272.962 194.394 270.519 195.517 268.078 196.642 C 267.081 197.102 266.101 197.602 265.162 198.173 C 264.429 198.619 263.714 199.109 263.076 199.684 C 262.958 199.79 262.949 199.971 263.055 200.089 C 263.117 200.158 263.209 200.192 263.301 200.181 C 264.151 200.08 264.987 199.878 265.807 199.64 C 266.858 199.335 267.888 198.96 268.903 198.551 C 271.411 197.541 273.887 196.449 276.344 195.32 C 279.532 193.855 282.676 192.29 285.797 190.685 C 285.803 190.683 285.809 190.678 285.815 190.675 C 289.615 188.721 293.42 186.774 297.225 184.831 C 297.231 184.829 297.238 184.824 297.244 184.821 C 301.653 182.57 306.086 180.371 310.536 178.204 C 315.305 175.882 320.038 173.483 324.731 171.01 C 329.163 168.674 333.581 166.306 337.973 163.897 C 337.976 163.896 337.979 163.894 337.982 163.893 L 337.982 163.891 C 341.706 161.849 345.472 159.879 349.312 158.063 C 349.315 158.062 349.32 158.058 349.322 158.057 C 352.418 156.593 355.494 155.084 358.526 153.491 C 358.529 153.489 358.534 153.487 358.538 153.486 C 361.396 151.984 364.167 150.316 366.861 148.536 C 366.867 148.533 366.874 148.528 366.88 148.524 C 368.036 147.76 369.191 146.994 370.335 146.212 C 370.975 145.775 371.619 145.34 372.234 144.868 C 372.385 144.752 372.413 144.537 372.297 144.387 C 372.24 144.311 372.156 144.267 372.069 144.255 L 372.068 144.256 Z  M 397.05 185.23 C 396.908 186.21 396.788 187.193 396.634 188.17 C 396.29 190.346 395.937 192.519 395.555 194.688 C 395.117 197.181 394.583 199.657 394.045 202.13 C 393.556 204.38 393.077 206.638 392.513 208.871 C 392.207 210.084 391.863 211.288 391.486 212.482 C 390.916 214.287 390.251 216.064 389.585 217.836 C 389.558 217.909 389.527 217.981 389.5 218.054 C 389.134 218.489 388.756 218.915 388.37 219.332 C 387.4 220.382 386.354 221.358 385.263 222.281 C 383.96 223.384 382.595 224.414 381.2 225.398 C 379.44 226.641 377.606 227.778 375.747 228.867 C 373.446 230.216 371.075 231.445 368.671 232.6 C 366.149 233.812 363.613 234.995 361.058 236.136 C 361.055 236.137 361.053 236.137 361.051 236.138 L 361.049 236.139 C 358.72 237.18 356.393 238.228 354.072 239.286 C 354.061 239.29 354.052 239.295 354.041 239.299 C 354.038 239.3 354.035 239.301 354.032 239.303 C 354.031 239.303 354.03 239.304 354.029 239.305 C 350.966 240.677 347.941 242.143 345.009 243.779 C 344.821 243.884 344.754 244.122 344.859 244.311 C 344.936 244.447 345.084 244.525 345.24 244.509 C 348.648 244.155 351.973 243.14 355.124 241.821 C 355.127 241.821 355.13 241.819 355.133 241.818 L 355.135 241.818 C 357.513 240.84 359.875 239.822 362.224 238.777 C 364.809 237.628 367.375 236.436 369.925 235.211 C 372.4 234.023 374.838 232.749 377.199 231.346 C 377.201 231.346 377.204 231.342 377.208 231.341 C 379.125 230.202 381.003 228.984 382.765 227.615 C 382.782 227.602 382.799 227.589 382.816 227.575 C 384.207 226.491 385.557 225.354 386.831 224.134 C 386.851 224.117 386.869 224.1 386.887 224.083 C 387.03 223.945 387.17 223.804 387.311 223.665 C 386.812 224.867 386.329 226.077 385.915 227.311 C 385.532 228.452 385.01 229.551 384.492 230.635 C 384.061 231.537 383.568 232.409 383.067 233.273 C 382.289 234.613 381.472 235.931 380.642 237.24 C 379.114 239.651 377.559 242.054 375.858 244.348 C 374.494 246.187 373.104 248.004 371.689 249.803 C 370.509 251.305 369.303 252.789 368.099 254.272 C 365.96 256.908 363.811 259.537 361.66 262.164 C 359.503 264.797 357.343 267.426 355.167 270.043 C 353.931 271.531 352.694 273.021 351.422 274.478 L 351.424 274.478 C 350.033 276.071 348.602 277.633 347.092 279.114 C 345.879 280.303 344.632 281.458 343.331 282.55 L 343.331 282.55 C 343.329 282.55 343.327 282.55 343.326 282.55 C 341.73 283.889 339.997 285.067 338.268 286.224 C 338.265 286.224 338.263 286.233 338.26 286.233 C 336.037 287.72 333.778 289.152 331.475 290.512 C 329.075 291.93 326.708 293.404 324.374 294.928 C 322.65 296.054 320.92 297.176 319.149 298.226 C 317.381 299.275 315.535 300.195 313.694 301.108 C 311.804 302.046 309.908 302.982 307.973 303.825 C 306.65 304.401 305.31 304.941 303.958 305.444 C 302.003 306.17 300.006 306.782 298.012 307.391 C 296.074 307.982 294.133 308.579 292.168 309.071 C 290.958 309.375 289.738 309.64 288.511 309.863 C 286.391 310.248 284.287 310.724 282.186 311.201 C 279.756 311.752 277.297 312.173 274.82 312.436 C 270.936 312.849 267.067 313.418 263.205 313.994 C 259.196 314.592 255.172 315.142 251.131 315.479 C 247.807 315.756 244.485 316.062 241.167 316.398 C 238.943 316.624 236.709 316.866 234.473 316.929 C 233.23 316.964 231.985 316.964 230.743 316.908 C 229.899 316.87 229.057 316.758 228.238 316.548 C 227.745 316.422 227.257 316.285 226.771 316.137 C 226.523 316.062 226.277 315.984 226.032 315.903 C 225.853 315.844 225.67 315.794 225.491 315.732 C 225.447 315.716 225.411 315.689 225.366 315.673 C 224.17 315.245 222.959 314.856 221.74 314.497 C 221.733 314.497 221.727 314.488 221.72 314.488 C 219.78 313.918 217.777 313.552 215.789 313.195 C 213.396 312.765 211.021 312.232 208.667 311.624 C 206.131 310.968 203.617 310.222 201.13 309.399 C 198.703 308.595 196.282 307.773 193.872 306.921 C 191.291 306.009 188.726 305.057 186.166 304.09 C 184.968 303.638 183.772 303.181 182.584 302.701 C 181.954 302.447 181.318 302.192 180.706 301.896 C 180.349 301.723 180.016 301.498 179.689 301.275 C 179.036 300.831 178.407 300.349 177.79 299.857 C 176.075 298.49 174.294 297.205 172.425 296.057 C 171.161 295.28 169.915 294.47 168.683 293.641 C 170.961 292.959 173.232 292.259 175.49 291.513 C 177.987 290.688 180.467 289.808 182.934 288.896 C 185.775 287.846 188.617 286.799 191.461 285.756 C 194.562 284.619 197.649 283.442 200.721 282.228 C 203.57 281.101 206.437 280.016 209.329 279.004 C 209.331 279.004 209.333 279.004 209.336 279.004 C 211.755 278.158 214.194 277.364 216.661 276.667 C 219.864 275.763 223.029 274.47 225.744 272.517 C 225.969 272.355 226.02 272.041 225.858 271.816 C 225.756 271.674 225.587 271.595 225.413 271.608 C 222.14 271.856 218.904 272.552 215.75 273.442 C 213.219 274.156 210.714 274.961 208.229 275.819 C 205.286 276.834 202.371 277.926 199.474 279.064 C 196.424 280.262 193.361 281.427 190.285 282.555 C 187.44 283.599 184.597 284.647 181.757 285.705 C 181.756 285.706 181.754 285.705 181.754 285.705 C 181.753 285.706 181.75 285.705 181.748 285.705 C 179.315 286.612 176.874 287.496 174.42 288.343 C 171.792 289.25 169.179 290.2 166.573 291.167 C 166.2 291.305 165.83 291.449 165.458 291.588 C 164.661 291.087 163.879 290.56 163.071 290.075 C 161.633 289.212 160.197 288.34 158.802 287.406 C 157.851 286.77 156.932 286.087 156.048 285.361 C 155.985 285.309 155.913 285.276 155.849 285.227 C 155.823 285.159 155.795 285.092 155.763 285.026 C 155.746 284.99 155.724 284.957 155.705 284.922 C 155.704 284.922 155.704 284.922 155.703 284.913 C 155.703 284.913 155.701 284.905 155.7 284.905 C 155.693 284.892 155.687 284.879 155.68 284.867 C 155.673 284.856 155.667 284.844 155.661 284.833 L 155.659 284.833 C 155.642 284.804 155.624 284.776 155.606 284.747 C 155.587 284.718 155.565 284.69 155.545 284.66 C 155.522 284.628 155.5 284.598 155.476 284.568 C 155.446 284.529 155.414 284.492 155.381 284.455 C 155.368 284.441 155.357 284.425 155.343 284.411 C 155.336 284.402 155.33 284.397 155.323 284.391 C 155.31 284.377 155.299 284.363 155.285 284.349 C 155.249 284.313 155.212 284.279 155.173 284.245 C 155.169 284.245 155.166 284.237 155.162 284.237 C 155.111 284.192 155.056 284.15 155 284.11 C 154.991 284.102 154.981 284.096 154.971 284.089 C 154.888 284.03 154.806 283.968 154.722 283.909 C 154.596 283.818 154.474 283.718 154.355 283.617 C 154.098 283.398 153.838 283.182 153.577 282.967 C 153.448 282.86 153.319 282.753 153.187 282.649 C 153.732 282.483 154.279 282.316 154.826 282.156 C 154.831 282.156 154.836 282.156 154.84 282.156 C 156.527 281.665 158.222 281.199 159.916 280.733 C 161.717 280.238 163.524 279.74 165.291 279.133 C 165.295 279.133 165.299 279.132 165.303 279.133 C 165.316 279.124 165.329 279.123 165.342 279.119 C 165.425 279.09 165.508 279.064 165.591 279.035 C 165.629 279.025 165.668 279.017 165.706 279.008 C 168.065 278.401 170.428 277.811 172.795 277.237 C 173.089 277.165 173.382 277.088 173.676 277.017 C 174.984 276.73 176.293 276.449 177.595 276.138 C 177.623 276.129 177.651 276.126 177.679 276.119 C 179.064 275.787 180.451 275.426 181.852 275.165 C 182.609 275.024 183.363 274.868 184.113 274.699 C 185.385 274.412 186.641 274.048 187.894 273.689 C 187.897 273.688 187.899 273.689 187.901 273.689 C 189.625 273.194 191.344 272.685 193.061 272.167 C 193.064 272.166 193.065 272.167 193.068 272.167 L 193.07 272.167 C 194.392 271.768 195.715 271.369 197.042 270.984 C 198.358 270.603 199.673 270.214 200.987 269.824 C 202.801 269.286 204.606 268.719 206.403 268.126 C 208.173 267.543 209.939 266.944 211.697 266.326 C 211.707 266.326 211.717 266.317 211.726 266.316 C 213.284 265.768 214.848 265.239 216.42 264.734 C 217.174 264.492 217.931 264.259 218.686 264.021 C 219.051 263.917 219.412 263.801 219.77 263.678 C 220.11 263.572 220.45 263.462 220.79 263.357 C 222.147 262.938 223.505 262.53 224.868 262.134 C 226.354 261.701 227.856 261.325 229.363 260.972 C 231.038 260.578 232.707 260.153 234.353 259.653 C 234.359 259.653 234.364 259.652 234.369 259.653 C 234.375 259.653 234.378 259.653 234.384 259.644 C 235.867 259.193 237.344 258.717 238.815 258.229 C 240.096 257.805 241.379 257.375 242.634 256.878 C 243.475 256.545 244.312 256.201 245.144 255.844 C 245.147 255.844 245.148 255.844 245.151 255.835 C 246.381 255.308 247.601 254.759 248.821 254.209 C 248.832 254.2 248.842 254.2 248.852 254.195 C 250.074 253.645 251.297 253.096 252.534 252.579 C 253.502 252.175 254.465 251.76 255.425 251.337 C 256.59 250.823 257.745 250.286 258.9 249.749 C 259.038 249.7 259.177 249.651 259.315 249.602 C 259.91 249.388 260.502 249.166 261.091 248.936 C 261.863 248.636 262.623 248.304 263.379 247.965 C 263.941 247.714 264.502 247.457 265.074 247.228 C 265.56 247.034 266.048 246.843 266.536 246.653 C 267.003 246.472 267.471 246.29 267.944 246.123 C 268.451 245.944 268.967 245.788 269.481 245.63 C 270.104 245.437 270.727 245.242 271.343 245.027 C 271.757 244.882 272.169 244.733 272.58 244.58 C 272.657 244.551 272.734 244.519 272.812 244.49 C 273.36 244.313 273.911 244.146 274.457 243.963 C 275.425 243.638 276.394 243.319 277.368 243.009 C 279.296 242.394 281.231 241.796 283.164 241.193 C 285.13 240.58 287.105 239.982 289.049 239.301 C 289.06 239.297 289.072 239.292 289.083 239.289 C 290.092 238.935 291.097 238.567 292.096 238.187 C 292.102 238.184 292.108 238.182 292.113 238.18 C 293.654 237.592 295.177 236.956 296.698 236.32 C 296.701 236.319 296.704 236.319 296.707 236.318 C 296.714 236.316 296.72 236.312 296.727 236.309 L 296.727 236.308 C 298.203 235.691 299.679 235.075 301.165 234.484 C 302.602 233.912 304.043 233.344 305.482 232.777 C 305.495 232.773 305.508 232.767 305.52 232.762 C 307.784 231.87 310.036 230.947 312.284 230.011 C 314.397 229.132 316.507 228.243 318.597 227.31 C 318.6 227.309 318.606 227.306 318.609 227.305 C 319.862 226.746 321.119 226.183 322.335 225.546 C 323.142 225.123 323.939 224.679 324.724 224.217 C 325.806 223.58 326.877 222.925 327.947 222.27 L 327.947 222.272 C 328.941 221.664 329.934 221.055 330.945 220.478 C 331.08 220.401 331.218 220.331 331.353 220.255 C 337.53 217.5 343.659 214.64 349.692 211.585 C 356.592 208.091 363.415 204.441 370.14 200.62 C 376.468 197.026 382.796 193.432 389.123 189.837 C 391.781 188.326 394.421 186.783 397.05 185.223 L 397.05 185.23 Z  M 305.904 201.891 C 299.737 203.929 293.769 206.544 287.967 209.453 C 283.568 211.659 279.128 213.784 274.661 215.85 C 269.811 218.093 264.881 220.167 259.897 222.095 C 254.685 224.11 249.479 226.137 244.277 228.178 C 239.254 230.148 234.196 232.032 229.098 233.802 C 229.097 233.802 229.095 233.803 229.093 233.803 C 224.57 235.374 220.022 236.877 215.441 238.267 L 215.439 238.269 C 211.511 239.461 207.587 240.67 203.671 241.905 C 203.665 241.908 203.658 241.908 203.652 241.91 C 200.238 242.987 196.839 244.113 193.466 245.311 C 190.591 246.332 187.744 247.447 184.972 248.722 C 184.961 248.73 184.951 248.73 184.941 248.736 C 182.62 249.804 180.336 250.956 178.121 252.232 C 178.12 252.232 178.118 252.232 178.117 252.232 C 178.108 252.24 178.098 252.241 178.088 252.247 C 175.362 253.76 172.588 255.202 169.722 256.436 C 169.54 256.514 169.455 256.726 169.533 256.908 C 169.612 257.091 169.823 257.176 170.006 257.098 C 172.886 255.857 175.733 254.537 178.564 253.189 C 178.567 253.189 178.571 253.189 178.573 253.189 L 178.575 253.189 C 180.884 252.135 183.218 251.137 185.566 250.173 C 188.357 249.028 191.2 248.014 194.066 247.073 C 197.447 245.964 200.847 244.915 204.26 243.908 C 208.199 242.746 212.143 241.595 216.088 240.449 L 216.089 240.449 C 220.72 239.105 225.31 237.624 229.871 236.061 C 235.009 234.3 240.104 232.413 245.16 230.43 C 250.358 228.391 255.553 226.343 260.745 224.287 C 260.747 224.287 260.75 224.285 260.754 224.284 C 265.761 222.301 270.73 220.218 275.646 218.017 C 280.165 215.993 284.648 213.885 289.075 211.666 C 294.854 208.768 300.582 205.762 306.204 202.568 C 306.382 202.467 306.443 202.241 306.342 202.063 C 306.255 201.909 306.071 201.839 305.904 201.894 L 305.904 201.891 Z  M 91.513 219.233 C 91.024 219.239 90.536 219.29 90.056 219.389 C 89.268 219.543 88.493 219.771 87.727 220.011 C 86.465 220.407 85.221 220.858 83.98 221.315 C 82.005 222.042 80.088 222.927 78.196 223.845 C 75.627 225.092 73.133 226.491 70.686 227.961 C 68.08 229.527 65.549 231.221 63.136 233.073 C 61.207 234.554 59.307 236.106 57.62 237.863 C 57.01 238.497 56.424 239.158 55.908 239.871 C 55.497 240.439 55.123 241.048 54.888 241.712 C 54.681 242.295 54.574 242.924 54.678 243.539 C 54.788 244.189 55.137 244.771 55.65 245.183 C 56.307 245.708 57.221 245.866 58.029 245.991 C 59.263 246.183 60.516 246.254 61.762 246.305 C 61.766 246.306 61.769 246.305 61.773 246.305 C 61.78 246.306 61.786 246.305 61.793 246.305 C 64.093 246.4 66.395 246.492 68.697 246.542 C 68.701 246.543 68.705 246.542 68.709 246.542 C 69.81 246.6 70.914 246.649 72.017 246.631 C 72.373 246.622 72.728 246.614 73.082 246.574 C 73.279 246.551 73.505 246.529 73.683 246.432 C 73.782 246.378 73.839 246.267 73.826 246.154 C 73.793 245.862 73.498 245.642 73.27 245.499 C 72.959 245.303 72.611 245.164 72.265 245.046 C 71.196 244.683 70.066 244.498 68.951 244.343 C 68.94 244.343 68.929 244.343 68.919 244.335 C 68.918 244.334 68.916 244.335 68.915 244.335 C 66.608 243.946 64.256 243.801 61.923 243.669 C 60.766 243.604 59.601 243.525 58.457 243.333 C 58.14 243.28 57.819 243.219 57.512 243.12 C 57.487 243.111 57.378 243.058 57.338 243.046 C 57.326 243.016 57.332 242.957 57.334 242.934 C 57.347 242.812 57.381 242.693 57.42 242.577 C 57.566 242.14 57.813 241.733 58.065 241.35 C 58.486 240.71 58.967 240.111 59.466 239.53 C 60.959 237.788 62.704 236.263 64.477 234.815 C 64.486 234.808 64.494 234.801 64.503 234.795 C 66.79 232.929 69.205 231.22 71.701 229.645 C 71.708 229.642 71.714 229.638 71.72 229.633 C 74.082 228.143 76.489 226.719 78.97 225.436 C 78.977 225.432 78.984 225.429 78.991 225.425 C 80.814 224.483 82.657 223.566 84.555 222.781 C 85.758 222.282 86.964 221.788 88.182 221.329 L 88.184 221.329 C 88.891 221.062 89.605 220.801 90.336 220.607 L 90.338 220.607 C 91.181 220.393 92.049 220.29 92.917 220.269 C 93.178 220.263 93.383 220.046 93.376 219.786 C 93.37 219.558 93.203 219.367 92.977 219.332 C 92.493 219.258 92.003 219.22 91.513 219.226 L 91.513 219.233 Z  M 185.207 222.683 C 183.7 222.7 182.195 222.836 180.699 223.02 C 178.774 223.256 176.861 223.579 174.956 223.943 C 170.56 224.783 166.183 225.72 161.824 226.733 C 161.824 226.733 161.821 226.734 161.819 226.734 C 157.103 227.83 152.405 228.996 147.72 230.219 C 147.717 230.219 147.715 230.22 147.713 230.22 C 143.086 231.428 138.469 232.677 133.868 233.981 C 133.866 233.982 133.864 233.984 133.861 233.984 C 129.679 235.17 125.49 236.327 121.291 237.45 C 117.576 238.443 113.847 239.388 110.099 240.253 C 110.098 240.254 110.096 240.253 110.094 240.253 C 110.088 240.254 110.084 240.256 110.079 240.257 C 106.98 240.972 103.869 241.636 100.737 242.187 C 98.293 242.617 95.843 243.022 93.386 243.371 C 91.608 243.624 89.818 243.839 88.022 243.91 C 87.035 243.936 86.047 243.944 85.061 243.886 C 84.44 243.85 83.803 243.799 83.2 243.634 C 82.997 243.579 82.788 243.698 82.732 243.9 C 82.68 244.089 82.781 244.286 82.964 244.356 C 83.607 244.599 84.302 244.704 84.981 244.784 C 85.99 244.903 87.011 244.945 88.027 244.961 C 88.029 244.961 88.031 244.961 88.034 244.961 C 89.873 245.014 91.718 244.883 93.547 244.7 C 96.037 244.451 98.519 244.106 100.991 243.719 C 104.162 243.223 107.313 242.614 110.453 241.95 C 114.244 241.148 118.017 240.256 121.774 239.307 C 125.999 238.239 130.216 237.141 134.428 236.02 L 134.429 236.02 C 139.039 234.794 143.657 233.595 148.279 232.417 C 152.954 231.225 157.642 230.085 162.344 229.011 C 166.679 228.021 171.031 227.099 175.399 226.267 C 177.315 225.903 179.221 225.474 181.093 224.928 C 182.548 224.503 183.993 224.011 185.364 223.36 C 185.541 223.275 185.617 223.063 185.533 222.885 C 185.473 222.76 185.346 222.682 185.207 222.684 L 185.207 222.683 Z  M 133.966 260.133 C 132.624 260.156 131.283 260.25 129.946 260.355 C 128.609 260.425 127.276 260.571 125.948 260.729 C 123.933 260.968 121.925 261.249 119.918 261.544 C 116.26 262.081 112.6 262.614 108.933 263.09 C 106.053 263.464 103.172 263.818 100.289 264.162 C 97.09 264.543 93.886 264.893 90.681 265.214 C 87.281 265.556 83.879 265.875 80.475 266.175 C 77.14 266.469 73.798 266.711 70.454 266.885 C 67.364 267.046 64.271 267.142 61.177 267.156 C 58.296 267.17 55.414 267.156 52.533 267.105 C 48.788 267.038 45.045 266.86 41.304 266.67 C 41.292 266.669 41.28 266.669 41.268 266.67 C 37.965 266.501 34.659 266.315 31.351 266.246 C 29.744 266.213 28.136 266.166 26.531 266.088 C 25.284 266.027 24.037 265.963 22.791 265.888 C 21.928 265.836 21.065 265.777 20.206 265.687 C 19.775 265.641 19.322 265.595 18.907 265.458 C 18.859 265.434 18.831 265.362 18.815 265.317 C 18.713 265.031 18.729 264.699 18.752 264.402 C 18.773 264.134 18.571 263.899 18.303 263.878 C 18.078 263.861 17.873 264 17.803 264.214 C 17.662 264.649 17.552 265.112 17.581 265.572 C 17.61 266.02 17.805 266.441 18.163 266.716 C 18.173 266.724 18.179 266.735 18.189 266.743 C 18.194 266.743 18.199 266.752 18.204 266.753 C 18.209 266.753 18.213 266.762 18.218 266.765 C 18.223 266.765 18.23 266.765 18.235 266.774 C 18.714 267.122 19.306 267.312 19.87 267.467 C 20.745 267.708 21.639 267.884 22.533 268.044 C 23.787 268.268 25.05 268.445 26.314 268.603 C 27.94 268.807 29.57 268.964 31.203 269.1 C 34.49 269.373 37.78 269.611 41.07 269.852 C 44.865 270.131 48.669 270.389 52.475 270.456 C 55.379 270.508 58.284 270.527 61.189 270.521 C 64.336 270.512 67.483 270.425 70.627 270.27 C 74.013 270.103 77.397 269.863 80.774 269.565 C 84.191 269.264 87.606 268.939 91.018 268.588 C 91.019 268.588 91.023 268.588 91.024 268.588 C 94.248 268.255 97.47 267.9 100.688 267.516 C 103.583 267.171 106.474 266.799 109.361 266.39 C 109.368 266.389 109.373 266.389 109.38 266.39 C 113.053 265.869 116.717 265.282 120.379 264.689 C 120.387 264.689 120.393 264.689 120.401 264.689 C 123.69 264.157 126.982 263.633 130.258 263.029 C 131.629 262.813 133.017 262.552 134.324 262.076 C 134.787 261.908 135.248 261.71 135.657 261.433 C 135.918 261.257 136.203 261.026 136.312 260.718 C 136.376 260.539 136.282 260.34 136.102 260.276 C 136.098 260.276 136.093 260.276 136.089 260.276 C 135.812 260.192 135.51 260.176 135.223 260.16 C 134.804 260.138 134.385 260.138 133.966 260.145 L 133.966 260.133 Z  M 304.689 290.879 C 304.621 290.879 304.554 290.892 304.492 290.923 C 301.656 292.369 298.812 293.807 295.971 295.244 C 295.969 295.244 295.968 295.244 295.966 295.244 C 293.463 296.506 290.939 297.728 288.402 298.921 C 288.398 298.921 288.393 298.921 288.388 298.929 C 285.746 300.171 283.073 301.348 280.37 302.451 C 277.949 303.439 275.494 304.351 272.994 305.12 C 270.898 305.765 268.804 306.417 266.713 307.08 C 264.987 307.629 263.27 308.211 261.574 308.848 C 261.553 308.857 261.532 308.862 261.511 308.87 C 260.206 309.361 258.896 309.842 257.574 310.288 C 256.551 310.633 255.523 310.961 254.486 311.262 C 253.618 311.515 252.754 311.792 251.908 312.112 C 251.887 312.121 251.865 312.126 251.845 312.134 L 251.845 312.134 C 251.842 312.134 251.84 312.134 251.838 312.143 C 251.179 312.394 250.524 312.661 249.887 312.967 C 249.887 312.967 249.885 312.967 249.884 312.967 C 248.951 313.395 248.049 313.889 247.166 314.41 C 246.942 314.542 246.866 314.833 246.999 315.057 C 247.117 315.258 247.366 315.341 247.582 315.253 C 248.515 314.875 249.451 314.506 250.394 314.156 L 250.396 314.156 C 251.028 313.935 251.671 313.741 252.315 313.559 C 253.17 313.317 254.035 313.113 254.904 312.927 C 255.985 312.696 257.06 312.439 258.13 312.161 C 259.508 311.804 260.872 311.398 262.231 310.977 C 263.948 310.446 265.679 309.959 267.416 309.498 C 269.541 308.933 271.658 308.339 273.77 307.728 C 276.369 306.977 278.916 306.049 281.42 305.027 C 284.167 303.906 286.881 302.703 289.559 301.424 C 289.561 301.424 289.563 301.424 289.566 301.424 C 292.122 300.202 294.667 298.95 297.189 297.659 L 297.191 297.659 L 297.193 297.659 L 297.195 297.659 C 298.901 296.789 300.567 295.808 302.074 294.621 C 303.194 293.739 304.269 292.726 305.016 291.501 C 305.131 291.312 305.072 291.066 304.883 290.95 C 304.824 290.914 304.756 290.893 304.689 290.891 L 304.689 290.879 Z " fill="rgb(12,12,14)"/></svg>