<?xml version="1.0" encoding="UTF-8" standalone="no"?><!-- Generator: Gravit.io --><svg xmlns="http://www.w3.org/2000/svg" xmlns:xlink="http://www.w3.org/1999/xlink" style="isolation:isolate" viewBox="0 0 512 247.476" width="512pt" height="247.476pt"><g><path d=" M 510.413 177.019 L 508.227 120.178 L 499.788 91.336 L 479.501 63.852 L 455.055 50.3 L 415.041 45.428 L 390.11 51.071 L 345.951 72.691 L 311.328 96.479 L 278.07 115.326 L 222 135.742 L 194 136.738 L 173.906 131.88 L 149.838 115.108 L 133.318 94.458 L 125.207 73.787 L 124.149 61.042 L 130.194 43.747 L 139.939 27.61 L 154.199 12.81 L 166.767 1.457 L 148.738 2.518 L 114.121 7.066 L 83 13.917 L 52.181 27.609 L 24.648 45.057 L 3.63 64.474 L 20.083 60.445 L 38.501 59.982 L 68.081 67.22 L 85.004 79.574 L 97.339 95.733 L 108.911 121.316 L 118 146.454 L 135.158 169.171 L 158.903 188.29 L 211 216.033 L 258.382 231.794 L 298.568 240.521 L 353.897 246.423 L 382.743 245.081 L 423.58 237.052 L 449.773 228.45 L 470.909 213.537 L 482.647 198.934 L 488.315 187.964 L 490.066 179.037 L 510.413 177.019 Z " fill="rgb(176,176,171)"/><path d=" M 359.834 199.845 L 345 185.182 L 333.238 166.627 L 318 127.128 L 310.976 91.215 L 304.535 49.044 L 296.676 91.754 L 294.874 130.797 L 296.244 158.858 L 300.954 190.121 L 304.265 196.718 L 359.834 199.845 Z " fill="rgb(139,139,137)"/><path d=" M 325.834 85.323 L 329.022 59.562 L 332.502 49.948 L 343.587 74.731 L 325.834 85.323 Z " fill="rgb(101,102,102)"/><path d=" M 417.115 126.673 L 415.041 123.293 L 411.465 121.6 L 408.853 125.943 L 411.534 136.738 L 418 143 L 423.184 140.556 L 424.044 134.376 L 422 130.043 L 419.195 129.1 L 417.115 126.673 Z " fill="rgb(46,126,169)"/><path d=" M 365 62.209 Q 369.684 65.734 370.163 65.68 Q 370.641 65.625 382.743 62.931 L 388.259 52.383 L 365 62.209 Z " fill="rgb(63,65,68)"/><path d=" M 167.074 0.005 C 166.971 0.004 166.868 0.014 166.767 0.03 C 166.536 0.069 166.309 0.131 166.085 0.195 C 165.926 0.241 165.765 0.287 165.602 0.315 C 165.5 0.333 165.398 0.348 165.295 0.362 C 165.291 0.362 165.287 0.363 165.282 0.363 C 165.021 0.258 164.738 0.21 164.457 0.212 C 164.092 0.216 163.702 0.202 163.34 0.281 C 163.299 0.289 163.258 0.299 163.217 0.31 C 163.121 0.338 163.024 0.36 162.927 0.382 C 162.871 0.394 162.814 0.404 162.757 0.414 C 162.691 0.408 162.625 0.401 162.559 0.395 C 162.545 0.393 162.532 0.393 162.519 0.392 C 162.498 0.391 162.477 0.389 162.456 0.389 C 162.441 0.389 162.426 0.391 162.411 0.391 C 162.39 0.392 162.369 0.392 162.347 0.394 C 162.287 0.399 162.227 0.41 162.17 0.425 C 162.167 0.426 162.164 0.428 162.161 0.428 C 162.131 0.437 162.102 0.446 162.073 0.457 C 162.069 0.458 162.065 0.46 162.061 0.461 C 162.049 0.466 162.036 0.47 162.025 0.475 C 162.021 0.477 162.016 0.479 162.012 0.481 C 162.011 0.481 162.01 0.482 162.01 0.482 C 161.991 0.49 161.973 0.498 161.955 0.507 C 161.933 0.509 161.912 0.511 161.89 0.512 C 161.431 0.542 160.968 0.545 160.508 0.553 C 159.966 0.562 159.424 0.572 158.882 0.595 C 158.494 0.611 158.107 0.635 157.72 0.666 C 157.714 0.667 157.708 0.668 157.702 0.669 C 157.159 0.712 156.613 0.736 156.068 0.761 C 155.445 0.789 154.823 0.816 154.199 0.835 C 153.834 0.846 153.465 0.853 153.102 0.893 C 153.089 0.894 153.077 0.894 153.064 0.895 C 152.841 0.921 152.62 0.959 152.401 1.009 C 152.391 1.011 152.382 1.014 152.373 1.017 C 152.166 1.064 151.963 1.118 151.76 1.178 C 151.576 1.232 151.391 1.281 151.205 1.325 C 151.201 1.326 151.196 1.327 151.192 1.328 C 150.741 1.378 150.288 1.428 149.838 1.479 C 147.273 1.771 144.712 2.096 142.152 2.427 C 137.974 2.966 133.792 3.49 129.622 4.092 C 127.549 4.391 125.475 4.676 123.398 4.949 C 121.112 5.251 118.83 5.582 116.551 5.933 C 113.997 6.326 111.45 6.768 108.911 7.247 C 106.23 7.752 103.554 8.286 100.885 8.848 C 98.277 9.397 95.671 9.953 93.067 10.519 C 90.561 11.064 88.071 11.677 85.601 12.367 C 83.069 13.074 80.561 13.869 78.077 14.731 C 75.352 15.676 72.645 16.672 69.952 17.703 C 66.887 18.877 63.881 20.199 60.921 21.615 C 57.625 23.192 54.402 24.917 51.242 26.752 C 51.24 26.753 51.237 26.752 51.234 26.754 C 51.234 26.754 51.233 26.756 51.232 26.756 C 47.905 28.688 44.629 30.704 41.402 32.798 C 38.431 34.726 35.467 36.666 32.515 38.624 C 32.515 38.625 32.513 38.624 32.512 38.625 C 32.511 38.625 32.511 38.627 32.51 38.627 C 29.734 40.468 27.043 42.434 24.432 44.502 L 24.432 44.503 C 24.431 44.504 24.43 44.504 24.429 44.505 C 21.739 46.636 19.115 48.849 16.559 51.138 C 14.136 53.309 11.704 55.471 9.262 57.621 L 9.261 57.622 C 9.26 57.624 9.258 57.625 9.256 57.627 C 7.235 59.407 5.263 61.263 3.488 63.293 C 3.389 63.406 3.319 63.534 3.272 63.669 C 3.113 63.734 2.955 63.8 2.795 63.865 C 2.54 63.968 2.295 64.093 2.054 64.227 C 2.045 64.232 2.036 64.234 2.027 64.238 C 2.017 64.244 2.007 64.249 1.998 64.255 C 1.844 64.342 1.689 64.428 1.53 64.506 C 1.395 64.573 1.258 64.637 1.12 64.701 C 0.988 64.762 0.86 64.832 0.741 64.916 C 0.591 65.021 0.457 65.147 0.346 65.292 C -0.04 65.796 -0.112 66.495 0.177 67.066 C 0.239 67.188 0.315 67.302 0.405 67.405 C 0.495 67.509 0.598 67.601 0.712 67.679 C 1.025 67.896 1.403 67.99 1.777 67.964 L 1.778 67.964 C 1.783 67.964 1.789 67.963 1.794 67.962 C 1.797 67.962 1.8 67.961 1.803 67.961 C 1.807 67.961 1.812 67.96 1.816 67.96 C 1.822 67.96 1.827 67.959 1.833 67.958 C 1.906 67.95 1.98 67.946 2.052 67.929 C 2.061 67.926 2.07 67.923 2.079 67.92 C 2.098 67.916 2.117 67.911 2.136 67.905 C 2.154 67.901 2.17 67.892 2.188 67.887 C 2.204 67.881 2.22 67.875 2.237 67.869 C 2.258 67.861 2.281 67.855 2.302 67.846 C 2.35 67.827 2.398 67.81 2.443 67.787 C 2.45 67.784 2.456 67.779 2.462 67.776 C 2.495 67.759 2.525 67.738 2.557 67.718 C 2.67 67.666 2.785 67.616 2.901 67.569 C 3.151 67.468 3.393 67.347 3.63 67.22 C 3.773 67.143 3.919 67.07 4.07 67.008 C 4.316 66.909 4.559 66.801 4.8 66.692 C 4.816 66.685 4.832 66.678 4.848 66.671 C 5.124 66.546 5.4 66.423 5.679 66.304 L 5.679 66.304 C 5.962 66.183 6.242 66.058 6.52 65.928 C 6.83 65.783 7.138 65.635 7.445 65.484 L 7.446 65.484 C 7.767 65.327 8.088 65.173 8.412 65.023 C 8.63 64.922 8.849 64.82 9.072 64.73 C 9.214 64.672 9.357 64.618 9.502 64.567 C 9.742 64.483 9.984 64.401 10.226 64.32 C 10.466 64.239 10.707 64.158 10.95 64.086 C 11.13 64.033 11.311 63.984 11.493 63.937 C 11.672 63.89 11.852 63.846 12.033 63.806 C 12.319 63.742 12.604 63.674 12.889 63.606 C 13.27 63.514 13.65 63.416 14.029 63.313 C 14.375 63.218 14.724 63.132 15.074 63.054 C 15.475 62.964 15.878 62.878 16.281 62.796 C 16.704 62.709 17.126 62.621 17.549 62.53 C 17.913 62.452 18.279 62.377 18.644 62.305 C 18.9 62.255 19.156 62.207 19.414 62.174 C 19.637 62.146 19.86 62.121 20.083 62.101 C 20.335 62.077 20.585 62.056 20.837 62.038 C 21.216 62.009 21.594 61.975 21.973 61.941 C 22.413 61.9 22.853 61.867 23.294 61.842 C 23.665 61.821 24.037 61.799 24.407 61.761 L 24.407 61.762 C 24.412 61.761 24.416 61.758 24.421 61.758 C 24.674 61.732 24.927 61.701 25.178 61.663 C 25.44 61.622 25.701 61.575 25.961 61.525 C 25.965 61.524 25.97 61.524 25.975 61.524 C 26.127 61.494 26.282 61.464 26.437 61.453 C 26.618 61.439 26.8 61.43 26.981 61.424 C 27.356 61.409 27.731 61.411 28.106 61.411 C 28.627 61.411 29.148 61.409 29.669 61.405 C 30.191 61.401 30.715 61.4 31.237 61.4 C 31.737 61.401 32.236 61.404 32.735 61.415 C 33.062 61.423 33.389 61.43 33.717 61.432 C 33.9 61.433 34.085 61.436 34.268 61.442 C 34.593 61.454 34.918 61.473 35.242 61.491 C 35.595 61.511 35.948 61.529 36.302 61.532 C 36.306 61.532 36.309 61.533 36.312 61.533 C 36.32 61.533 36.328 61.533 36.335 61.533 C 36.634 61.535 36.934 61.537 37.232 61.539 C 37.555 61.541 37.878 61.555 38.199 61.583 C 38.548 61.614 38.896 61.648 39.244 61.684 C 39.625 61.723 40.007 61.767 40.388 61.814 C 40.965 61.886 41.542 61.95 42.119 62.013 L 42.12 62.013 C 42.655 62.071 43.19 62.13 43.722 62.209 C 44.139 62.271 44.557 62.332 44.974 62.39 C 45.263 62.43 45.553 62.47 45.84 62.524 C 45.844 62.525 45.848 62.526 45.852 62.527 C 46.205 62.595 46.56 62.654 46.916 62.714 C 46.92 62.714 46.924 62.715 46.927 62.716 C 47.396 62.795 47.865 62.87 48.336 62.938 C 48.655 62.984 48.974 63.03 49.291 63.084 C 49.536 63.126 49.779 63.18 50.021 63.236 C 50.022 63.236 50.023 63.237 50.024 63.237 C 50.028 63.237 50.033 63.238 50.036 63.239 C 50.26 63.291 50.484 63.342 50.703 63.408 C 50.897 63.467 51.092 63.518 51.287 63.568 C 51.289 63.569 51.29 63.569 51.29 63.569 C 51.304 63.573 51.317 63.576 51.33 63.58 C 51.625 63.654 51.917 63.738 52.21 63.82 C 52.51 63.905 52.811 63.989 53.109 64.083 C 53.548 64.222 53.985 64.363 54.423 64.505 C 54.96 64.678 55.5 64.848 56.046 64.989 C 56.052 64.991 56.056 64.994 56.062 64.995 C 56.068 64.997 56.075 64.997 56.081 65 C 56.421 65.087 56.76 65.18 57.096 65.28 C 57.419 65.376 57.741 65.472 58.062 65.571 C 58.074 65.575 58.087 65.579 58.1 65.583 C 58.428 65.684 58.759 65.779 59.092 65.863 C 59.279 65.91 59.467 65.957 59.652 66.011 C 59.855 66.071 60.054 66.144 60.253 66.215 C 60.494 66.299 60.734 66.382 60.976 66.461 L 60.977 66.462 C 61 66.469 61.023 66.478 61.046 66.485 C 61.306 66.569 61.568 66.649 61.83 66.729 L 61.83 66.73 C 61.839 66.732 61.849 66.736 61.857 66.738 C 62.27 66.865 62.681 66.995 63.093 67.125 C 63.408 67.224 63.726 67.322 64.047 67.403 C 64.048 67.403 64.05 67.403 64.05 67.403 C 64.098 67.416 64.145 67.433 64.193 67.444 C 64.435 67.5 64.679 67.552 64.922 67.604 C 65.154 67.654 65.387 67.705 65.621 67.746 C 65.654 67.751 65.687 67.751 65.719 67.755 C 66.879 68.221 68.033 68.702 69.172 69.216 C 70.423 69.78 71.616 70.467 72.749 71.24 C 74.536 72.46 76.229 73.823 77.909 75.182 C 78.864 75.954 79.815 76.73 80.754 77.52 C 81.113 77.821 81.469 78.125 81.822 78.432 C 82.06 78.639 82.295 78.866 82.543 79.067 C 82.547 79.071 82.545 79.078 82.55 79.082 C 83.39 79.856 84.208 80.655 84.997 81.482 L 85.004 81.489 C 85.385 81.889 85.758 82.295 86.125 82.707 C 86.313 82.919 86.5 83.132 86.684 83.347 C 86.847 83.537 87.009 83.737 87.18 83.923 C 87.184 83.929 87.18 83.937 87.185 83.943 C 87.889 84.793 88.572 85.659 89.236 86.539 C 90.251 87.886 91.158 89.316 92.063 90.737 C 92.995 92.201 93.928 93.668 94.798 95.17 C 95.667 96.67 96.503 98.188 97.338 99.706 C 97.339 99.706 97.338 99.707 97.338 99.708 L 97.339 99.708 C 98.417 101.668 99.479 103.636 100.522 105.614 L 100.522 105.615 C 100.523 105.618 100.526 105.621 100.527 105.623 C 101.297 107.086 102.069 108.547 102.85 110.004 L 102.85 110.005 C 103.371 110.978 103.868 111.963 104.343 112.959 C 104.862 114.044 105.321 115.156 105.74 116.283 C 106.219 117.571 106.666 118.87 107.088 120.178 C 107.088 120.179 107.088 120.18 107.088 120.18 L 107.089 120.181 C 107.536 121.568 107.963 122.962 108.371 124.361 C 109.005 126.533 109.675 128.695 110.344 130.856 C 111.038 133.099 111.735 135.342 112.479 137.568 C 112.988 139.094 113.533 140.608 114.121 142.105 C 114.705 143.591 115.375 145.043 116.122 146.454 C 116.122 146.455 116.122 146.456 116.123 146.457 C 116.888 147.904 117.761 149.296 118.728 150.617 C 119.711 151.959 120.719 153.283 121.744 154.593 C 122.847 156.002 123.933 157.425 125.005 158.858 C 126.139 160.374 127.302 161.868 128.492 163.34 C 129.649 164.77 130.853 166.16 132.115 167.497 C 133.361 168.816 134.652 170.093 135.979 171.33 C 137.411 172.666 138.893 173.945 140.412 175.18 L 140.413 175.181 C 140.414 175.181 140.415 175.181 140.416 175.182 C 142.026 176.49 143.627 177.812 145.218 179.144 L 145.219 179.145 C 146.931 180.579 148.657 181.996 150.393 183.4 C 152.142 184.815 153.934 186.176 155.777 187.467 C 157.582 188.731 159.437 189.923 161.332 191.048 C 163.285 192.207 165.255 193.336 167.238 194.441 L 167.239 194.441 L 167.24 194.441 C 169.214 195.541 171.18 196.658 173.133 197.792 C 175.082 198.924 177.012 200.085 178.927 201.273 C 178.927 201.273 178.928 201.274 178.929 201.274 C 180.986 202.55 183.068 203.788 185.166 204.996 C 187.35 206.254 189.57 207.453 191.821 208.589 C 193.978 209.677 196.159 210.72 198.366 211.705 C 201.749 213.214 205.178 214.621 208.603 216.033 C 212.149 217.495 215.695 218.958 219.234 220.437 L 219.235 220.438 L 219.235 220.438 C 221.716 221.476 224.222 222.455 226.746 223.383 C 229.323 224.33 231.906 225.258 234.496 226.168 C 237.066 227.071 239.655 227.919 242.263 228.706 C 244.908 229.505 247.565 230.27 250.228 231.008 L 250.229 231.009 C 250.23 231.009 250.23 231.009 250.231 231.009 C 252.942 231.76 255.659 232.492 258.381 233.201 L 258.382 233.201 C 261.117 233.914 263.862 234.582 266.618 235.208 C 266.619 235.208 266.62 235.209 266.621 235.209 C 266.622 235.209 266.622 235.208 266.624 235.209 C 269.42 235.844 272.22 236.458 275.025 237.052 C 275.026 237.052 275.026 237.052 275.027 237.052 C 277.809 237.641 280.597 238.202 283.391 238.732 C 286.189 239.263 288.988 239.786 291.789 240.302 L 291.789 240.302 C 294.598 240.819 297.412 241.313 300.229 241.78 C 302.974 242.235 305.724 242.652 308.481 243.029 C 311.268 243.41 314.058 243.765 316.851 244.097 C 319.591 244.424 322.332 244.751 325.071 245.081 C 325.072 245.081 325.074 245.081 325.075 245.081 C 327.725 245.4 330.381 245.668 333.041 245.884 C 335.621 246.094 338.203 246.276 340.787 246.423 C 343.219 246.561 345.65 246.714 348.08 246.884 C 350.487 247.053 352.895 247.19 355.306 247.299 C 357.728 247.408 360.155 247.467 362.58 247.475 C 364.932 247.482 367.283 247.458 369.634 247.397 C 369.636 247.397 369.638 247.397 369.64 247.397 C 371.974 247.336 374.306 247.189 376.63 246.965 C 376.631 246.965 376.632 246.966 376.632 246.965 L 376.636 246.965 C 378.998 246.736 381.353 246.443 383.699 246.09 C 383.701 246.09 383.701 246.09 383.703 246.09 L 383.703 246.09 C 385.973 245.748 388.24 245.387 390.502 245.001 C 393.778 244.443 397.047 243.849 400.316 243.255 L 400.317 243.255 C 402.209 242.912 404.1 242.561 405.986 242.189 C 407.285 241.933 408.583 241.669 409.873 241.369 C 411.83 240.914 413.781 240.429 415.722 239.91 C 417.668 239.391 419.603 238.831 421.527 238.237 C 421.528 238.236 421.529 238.237 421.529 238.237 C 423.355 237.672 425.187 237.125 427.026 236.605 C 428.692 236.134 430.364 235.678 432.04 235.242 C 433.644 234.825 435.248 234.409 436.853 233.996 C 436.855 233.995 436.856 233.995 436.859 233.995 C 438.49 233.575 440.107 233.101 441.708 232.576 C 441.709 232.576 441.709 232.576 441.71 232.576 L 441.711 232.575 L 441.712 232.575 C 443.306 232.052 444.879 231.459 446.419 230.793 L 446.419 230.792 C 446.42 230.792 446.422 230.791 446.423 230.791 C 447.958 230.127 449.452 229.37 450.896 228.525 C 452.304 227.702 453.691 226.839 455.05 225.937 C 455.052 225.936 455.054 225.935 455.055 225.934 C 456.952 224.675 458.863 223.437 460.776 222.201 L 460.781 222.199 C 461.861 221.5 462.938 220.795 464.004 220.076 C 464.733 219.583 465.458 219.086 466.165 218.562 C 466.166 218.561 466.167 218.561 466.168 218.561 L 466.173 218.556 C 467.234 217.768 468.277 216.954 469.297 216.114 C 469.298 216.114 469.299 216.114 469.299 216.113 L 469.299 216.113 C 470.297 215.291 471.259 214.428 472.181 213.522 C 472.182 213.521 472.183 213.522 472.184 213.521 L 472.189 213.516 C 473.444 212.282 474.617 210.964 475.78 209.643 C 476.878 208.397 477.983 207.146 478.996 205.828 C 478.999 205.824 479 205.821 479.004 205.817 C 479.648 204.977 480.276 204.123 480.883 203.256 C 480.885 203.252 480.889 203.248 480.891 203.244 C 481.531 202.33 482.12 201.38 482.666 200.407 C 482.667 200.407 482.668 200.407 482.669 200.407 C 482.671 200.403 482.674 200.398 482.676 200.394 C 483.059 199.712 483.41 199.012 483.756 198.311 C 484.272 197.268 484.769 196.215 485.261 195.16 C 485.715 194.185 486.17 193.21 486.635 192.24 C 486.858 191.776 487.075 191.304 487.326 190.854 C 487.698 190.186 488.009 189.483 488.315 188.783 C 488.61 188.109 488.91 187.426 489.115 186.718 C 489.115 186.717 489.116 186.715 489.116 186.713 L 489.117 186.713 L 489.117 186.712 C 489.117 186.711 489.116 186.71 489.117 186.709 C 489.421 185.668 489.591 184.582 489.765 183.513 C 489.794 183.333 489.672 183.162 489.491 183.133 C 489.322 183.106 489.161 183.212 489.119 183.378 C 488.858 184.41 488.599 185.447 488.287 186.465 C 488.207 186.724 488.089 186.972 487.967 187.214 C 487.782 187.581 487.576 187.938 487.362 188.29 C 486.986 188.91 486.606 189.535 486.178 190.121 C 485.851 190.568 485.584 191.064 485.309 191.544 C 484.77 192.485 484.249 193.436 483.73 194.389 C 482.815 196.068 481.905 197.752 480.944 199.406 C 480.415 200.319 479.846 201.208 479.229 202.064 C 478.624 202.903 478.001 203.729 477.361 204.541 C 476.355 205.816 475.275 207.036 474.202 208.255 C 473.074 209.536 471.935 210.817 470.711 212.008 C 469.827 212.869 468.903 213.691 467.95 214.475 L 467.949 214.476 C 466.957 215.292 465.94 216.079 464.904 216.839 C 464.218 217.342 463.512 217.818 462.804 218.29 C 461.746 218.996 460.677 219.687 459.605 220.372 C 457.677 221.603 455.749 222.836 453.837 224.09 C 452.504 224.964 451.149 225.802 449.773 226.606 C 448.408 227.404 446.994 228.116 445.54 228.737 C 444.056 229.37 442.543 229.935 441.009 230.435 C 439.454 230.941 437.882 231.396 436.296 231.794 C 434.684 232.2 433.073 232.609 431.463 233.022 C 429.769 233.457 428.08 233.915 426.397 234.391 C 424.541 234.916 422.691 235.464 420.847 236.03 C 418.949 236.613 417.041 237.162 415.123 237.674 C 413.206 238.185 411.281 238.666 409.349 239.117 C 409.349 239.118 409.348 239.117 409.347 239.117 L 409.347 239.118 L 409.346 239.118 C 408.083 239.413 406.81 239.669 405.538 239.919 C 403.663 240.288 401.784 240.634 399.903 240.972 L 399.903 240.972 C 396.641 241.558 393.38 242.144 390.11 242.685 C 387.86 243.057 385.607 243.408 383.35 243.74 C 381.043 244.079 378.727 244.359 376.406 244.577 C 374.136 244.79 371.859 244.924 369.58 244.972 C 367.249 245.021 364.918 245.038 362.587 245.028 C 360.196 245.017 357.805 244.956 355.416 244.843 C 353.027 244.731 350.638 244.59 348.251 244.419 C 345.81 244.245 343.368 244.09 340.925 243.951 C 338.361 243.805 335.798 243.627 333.238 243.421 C 330.611 243.209 327.988 242.941 325.372 242.618 C 322.631 242.28 319.889 241.945 317.147 241.612 C 314.37 241.274 311.597 240.912 308.827 240.521 C 306.095 240.135 303.366 239.714 300.644 239.261 C 297.843 238.794 295.047 238.298 292.255 237.777 C 289.46 237.256 286.665 236.728 283.873 236.192 C 281.098 235.66 278.33 235.097 275.567 234.506 C 272.776 233.908 269.99 233.289 267.208 232.648 C 264.478 232.019 261.758 231.352 259.048 230.642 C 256.339 229.933 253.635 229.202 250.939 228.45 C 248.295 227.713 245.66 226.947 243.034 226.149 C 240.465 225.369 237.914 224.531 235.382 223.64 C 232.804 222.734 230.232 221.809 227.667 220.867 C 225.18 219.952 222.711 218.988 220.267 217.964 C 216.725 216.481 213.178 215.008 209.632 213.537 C 206.234 212.126 202.831 210.722 199.474 209.216 C 197.309 208.245 195.17 207.218 193.053 206.146 C 190.848 205.029 188.674 203.851 186.533 202.616 C 184.462 201.421 182.408 200.197 180.378 198.934 C 178.442 197.73 176.491 196.55 174.523 195.399 C 172.558 194.25 170.581 193.12 168.595 192.008 C 166.634 190.91 164.686 189.79 162.754 188.643 C 160.918 187.554 159.12 186.401 157.368 185.182 L 157.367 185.182 C 155.574 183.935 153.832 182.615 152.133 181.243 L 152.132 181.243 L 152.131 181.243 C 150.407 179.85 148.694 178.443 146.996 177.019 C 145.395 175.678 143.787 174.345 142.17 173.024 C 141.417 172.409 140.672 171.783 139.939 171.145 C 139.572 170.825 139.207 170.502 138.846 170.176 C 138.531 169.893 138.22 169.576 137.887 169.307 C 137.881 169.303 137.884 169.294 137.879 169.289 C 136.595 168.091 135.345 166.856 134.139 165.58 C 132.924 164.296 131.762 162.963 130.646 161.593 C 130.645 161.592 130.644 161.592 130.643 161.59 C 129.47 160.151 128.324 158.689 127.205 157.208 C 127.203 157.206 127.202 157.205 127.202 157.203 L 127.201 157.203 L 127.2 157.202 C 126.111 155.76 125.01 154.327 123.892 152.908 L 123.89 152.905 C 122.88 151.623 121.892 150.323 120.93 149.004 L 120.929 149.004 L 120.929 149.004 C 120.043 147.788 119.245 146.509 118.545 145.177 C 117.849 143.854 117.223 142.493 116.676 141.101 C 116.106 139.648 115.577 138.179 115.083 136.698 C 114.347 134.49 113.657 132.267 112.969 130.043 C 112.305 127.896 111.64 125.748 111.007 123.591 L 111.006 123.589 C 110.588 122.167 110.153 120.751 109.699 119.34 C 109.265 117.992 108.806 116.653 108.313 115.326 C 107.866 114.122 107.375 112.933 106.821 111.774 C 106.328 110.74 105.813 109.717 105.273 108.707 C 104.497 107.257 103.74 105.796 102.984 104.336 C 101.944 102.331 100.879 100.339 99.794 98.358 C 98.951 96.819 98.106 95.28 97.223 93.763 C 97.223 93.762 97.222 93.761 97.222 93.761 L 97.222 93.761 L 97.221 93.76 C 96.329 92.227 95.378 90.729 94.425 89.234 C 94.424 89.233 94.425 89.232 94.425 89.232 L 94.424 89.232 C 93.479 87.749 92.529 86.258 91.469 84.854 L 91.468 84.854 L 91.468 84.853 L 91.467 84.852 C 90.778 83.939 90.068 83.04 89.338 82.159 C 88.601 81.268 87.834 80.401 87.042 79.558 C 86.213 78.676 85.351 77.827 84.461 77.007 C 83.846 76.441 83.208 75.899 82.569 75.362 C 81.616 74.56 80.651 73.772 79.683 72.988 C 78.68 72.177 77.67 71.376 76.643 70.598 C 75.884 70.023 75.116 69.459 74.324 68.931 C 74.319 68.928 74.316 68.925 74.311 68.922 C 73.041 68.076 71.7 67.331 70.301 66.721 C 70.299 66.721 70.3 66.718 70.298 66.718 C 70.293 66.716 70.286 66.713 70.281 66.71 C 69.785 66.494 69.265 66.342 68.76 66.147 C 68.55 65.97 68.312 65.82 68.081 65.68 C 67.834 65.529 67.587 65.37 67.327 65.242 C 67.086 65.123 66.824 65.058 66.561 65.012 C 66.411 64.985 66.26 64.967 66.109 64.95 C 66.106 64.949 66.104 64.948 66.102 64.947 C 66.062 64.941 66.023 64.936 65.984 64.932 C 65.998 64.934 65.903 64.916 65.883 64.912 C 65.777 64.89 65.671 64.864 65.566 64.838 C 65.367 64.787 65.167 64.738 64.972 64.672 C 64.671 64.57 64.377 64.448 64.081 64.332 C 63.648 64.161 63.212 63.996 62.769 63.852 C 62.542 63.778 62.314 63.703 62.09 63.619 C 61.32 63.259 60.546 62.905 59.751 62.604 C 59.176 62.387 58.579 62.17 57.967 62.08 C 57.923 62.074 57.916 62.137 57.876 62.148 C 57.555 62.038 57.233 61.932 56.906 61.844 C 56.408 61.71 55.917 61.552 55.425 61.393 L 55.425 61.393 L 55.424 61.393 C 54.997 61.256 54.569 61.122 54.146 60.973 C 53.812 60.855 53.473 60.751 53.135 60.648 C 52.818 60.552 52.501 60.456 52.182 60.367 L 52.181 60.367 C 52.016 60.321 51.85 60.272 51.687 60.22 C 51.394 60.127 51.095 60.054 50.797 59.982 C 50.484 59.908 50.17 59.837 49.853 59.783 C 49.515 59.725 49.176 59.672 48.838 59.618 C 48.39 59.547 47.943 59.471 47.496 59.393 C 47.162 59.334 46.829 59.277 46.496 59.21 C 46.149 59.141 45.798 59.088 45.448 59.038 C 45.04 58.979 44.631 58.918 44.224 58.857 C 43.647 58.769 43.068 58.702 42.488 58.637 C 41.94 58.576 41.391 58.513 40.845 58.433 C 40.442 58.373 40.04 58.317 39.636 58.266 C 39.258 58.218 38.88 58.178 38.501 58.144 C 38.085 58.107 37.669 58.09 37.252 58.089 L 37.244 58.089 C 36.956 58.089 36.668 58.088 36.38 58.082 C 36.064 58.076 35.749 58.057 35.435 58.039 C 35.087 58.019 34.738 57.999 34.389 57.986 C 34.169 57.978 33.949 57.973 33.728 57.972 C 33.422 57.971 33.115 57.964 32.808 57.957 C 32.284 57.946 31.761 57.941 31.237 57.941 C 30.705 57.94 30.172 57.941 29.639 57.946 C 29.635 57.946 29.632 57.946 29.629 57.946 C 29.12 57.95 28.612 57.951 28.103 57.951 C 27.685 57.951 27.265 57.951 26.847 57.966 C 26.622 57.975 26.398 57.986 26.174 58.003 C 25.886 58.024 25.599 58.073 25.316 58.127 C 25.094 58.17 24.871 58.21 24.648 58.244 C 24.45 58.275 24.252 58.3 24.053 58.32 C 23.735 58.353 23.415 58.371 23.096 58.389 C 22.616 58.416 22.137 58.452 21.658 58.495 C 21.297 58.528 20.935 58.56 20.574 58.588 C 20.301 58.608 20.029 58.631 19.757 58.657 C 19.496 58.681 19.235 58.71 18.975 58.743 C 18.639 58.786 18.306 58.846 17.974 58.911 C 17.59 58.987 17.206 59.066 16.823 59.148 C 16.411 59.236 15.997 59.323 15.584 59.408 C 15.161 59.494 14.738 59.584 14.316 59.678 C 13.913 59.769 13.513 59.868 13.115 59.976 C 12.771 60.07 12.425 60.159 12.078 60.243 C 11.812 60.306 11.546 60.37 11.279 60.429 C 11.06 60.478 10.839 60.532 10.622 60.588 C 10.407 60.644 10.193 60.704 9.98 60.767 C 9.976 60.769 9.972 60.768 9.968 60.769 L 9.968 60.77 C 9.682 60.855 9.399 60.947 9.117 61.042 C 9.045 61.067 8.974 61.095 8.901 61.119 C 9.531 60.54 10.157 59.955 10.801 59.393 C 13.263 57.248 15.708 55.084 18.14 52.905 C 20.661 50.647 23.246 48.46 25.893 46.35 C 25.893 46.349 25.895 46.348 25.896 46.347 C 28.446 44.314 31.081 42.385 33.805 40.59 C 36.755 38.646 39.723 36.729 42.701 34.829 C 42.703 34.828 42.705 34.829 42.706 34.828 L 42.706 34.827 C 45.916 32.778 49.171 30.797 52.468 28.892 C 55.578 27.094 58.749 25.402 61.989 23.852 C 64.89 22.464 67.834 21.168 70.835 20.012 C 73.501 18.985 76.181 17.989 78.875 17.038 C 78.877 17.037 78.878 17.037 78.881 17.036 C 81.311 16.178 83.764 15.384 86.241 14.673 C 86.244 14.672 86.247 14.671 86.249 14.671 C 88.669 13.976 91.111 13.358 93.568 12.81 L 93.569 12.81 C 96.161 12.232 98.756 11.669 101.354 11.12 C 101.356 11.12 101.357 11.12 101.359 11.12 L 101.36 11.119 C 104.014 10.558 106.674 10.021 109.338 9.506 C 111.849 9.021 114.364 8.562 116.887 8.14 L 116.901 8.137 C 119.155 7.76 121.412 7.402 123.674 7.069 C 123.679 7.068 123.684 7.067 123.69 7.066 C 125.765 6.761 127.838 6.445 129.909 6.118 C 129.91 6.118 129.911 6.118 129.912 6.118 C 129.916 6.117 129.92 6.116 129.924 6.116 C 134.074 5.461 138.225 4.812 142.375 4.162 C 142.382 4.161 142.389 4.16 142.396 4.159 L 142.396 4.158 C 144.848 3.774 147.302 3.4 149.755 3.021 C 149.937 3.05 150.119 3.083 150.299 3.117 C 150.702 3.191 151.125 3.258 151.535 3.209 C 151.745 3.184 151.955 3.157 152.165 3.131 C 152.351 3.107 152.538 3.086 152.725 3.069 C 152.889 3.054 153.053 3.045 153.217 3.04 C 153.562 3.029 153.907 3.021 154.252 3.014 C 154.876 3 155.501 2.982 156.125 2.962 C 156.133 2.962 156.141 2.963 156.15 2.962 L 156.15 2.962 C 156.696 2.944 157.244 2.927 157.791 2.935 C 158.161 2.94 158.532 2.948 158.903 2.956 C 159.437 2.967 159.972 2.976 160.506 2.984 C 160.992 2.992 161.478 3 161.964 3.001 C 162.223 3.002 162.483 2.997 162.742 2.982 C 162.934 2.97 163.126 2.957 163.319 2.94 C 163.474 2.926 163.63 2.908 163.785 2.881 C 163.785 2.881 163.777 2.882 163.788 2.881 C 163.832 2.878 163.877 2.877 163.921 2.876 C 163.974 2.873 164.027 2.873 164.08 2.872 C 164.034 2.912 163.988 2.95 163.943 2.989 C 163.551 3.328 163.158 3.677 162.823 4.074 C 162.638 4.294 162.455 4.515 162.271 4.735 C 162.009 4.881 161.758 5.047 161.517 5.217 C 161.105 5.507 160.714 5.831 160.325 6.152 C 159.665 6.696 159.014 7.25 158.366 7.808 C 157.079 8.916 155.784 10.018 154.463 11.086 C 153.313 12.014 152.178 12.96 151.051 13.917 L 151.05 13.917 L 151.05 13.918 C 149.693 15.07 148.398 16.294 147.143 17.554 C 145.675 19.029 144.304 20.599 143.009 22.227 C 143.009 22.228 143.009 22.229 143.009 22.229 C 143.007 22.231 143.006 22.233 143.005 22.234 C 141.62 23.976 140.301 25.77 139.048 27.609 L 139.048 27.61 C 137.1 30.468 135.21 33.365 133.318 36.26 C 133.317 36.261 133.316 36.261 133.315 36.262 C 133.315 36.263 133.315 36.264 133.315 36.265 C 132.255 37.885 131.204 39.51 130.194 41.162 C 129.606 42.123 129.007 43.091 128.519 44.108 C 128.519 44.109 128.518 44.11 128.518 44.111 C 128.517 44.112 128.517 44.113 128.516 44.116 C 127.889 45.422 127.346 46.77 126.877 48.14 C 126.877 48.141 126.876 48.143 126.876 48.144 C 126.876 48.146 126.875 48.148 126.874 48.151 C 126.411 49.503 125.98 50.866 125.587 52.241 C 125.586 52.244 125.585 52.247 125.584 52.25 C 125.049 54.119 124.588 56.008 124.132 57.897 C 124.129 57.909 124.125 57.921 124.123 57.934 C 123.883 58.926 123.648 59.92 123.437 60.919 C 123.328 61.437 123.211 61.963 123.161 62.492 C 123.161 62.494 123.161 62.495 123.161 62.497 C 123.157 62.519 123.153 62.542 123.151 62.565 C 123.151 62.568 123.151 62.571 123.151 62.574 C 123.151 62.576 123.15 62.578 123.15 62.579 C 123.15 62.581 123.15 62.582 123.15 62.583 C 123.09 63.215 123.118 63.856 123.15 64.489 C 123.2 65.492 123.29 66.494 123.39 67.494 C 123.409 67.685 123.534 67.833 123.697 67.907 C 123.704 68.596 123.688 69.287 123.753 69.972 C 123.852 71.002 123.99 72.027 124.149 73.049 C 124.33 74.204 124.551 75.353 124.805 76.494 C 125.073 77.701 125.38 78.897 125.719 80.086 C 126.07 81.316 126.467 82.532 126.908 83.733 C 127.362 84.969 127.869 86.185 128.423 87.378 C 129.04 88.707 129.68 90.025 130.334 91.336 C 131.074 92.823 131.858 94.288 132.678 95.733 C 133.544 97.26 134.507 98.732 135.551 100.144 C 136.24 101.077 136.975 101.976 137.715 102.869 C 138.79 104.165 139.89 105.442 140.997 106.711 C 142.965 108.967 144.94 111.221 147.007 113.386 C 148.451 114.899 149.921 116.388 151.414 117.852 C 152.935 119.344 154.531 120.759 156.194 122.091 L 156.195 122.091 C 157.922 123.473 159.73 124.753 161.593 125.943 C 163.569 127.205 165.581 128.41 167.618 129.57 C 167.619 129.571 167.619 129.572 167.62 129.573 L 167.621 129.573 C 169.688 130.75 171.782 131.877 173.906 132.948 C 176.11 134.06 178.408 134.982 180.757 135.742 C 183.2 136.532 185.704 137.138 188.238 137.557 L 188.238 137.557 C 190.763 137.975 193.311 138.241 195.867 138.351 C 198.467 138.463 201.069 138.505 203.671 138.489 C 206.439 138.472 209.207 138.297 211.958 137.987 C 214.761 137.67 217.553 137.253 220.327 136.738 C 223.188 136.207 226.027 135.552 228.836 134.794 C 228.838 134.793 228.84 134.794 228.842 134.794 L 228.843 134.793 C 231.698 134.023 234.531 133.173 237.337 132.242 C 240.134 131.315 242.923 130.367 245.706 129.398 C 248.496 128.426 251.29 127.462 254.086 126.505 C 256.838 125.563 259.578 124.585 262.302 123.565 C 264.976 122.565 267.628 121.51 270.258 120.401 C 272.916 119.281 275.522 118.04 278.07 116.687 C 280.609 115.339 283.125 113.947 285.618 112.514 C 288.025 111.13 290.465 109.803 292.939 108.542 C 293.115 108.452 293.258 108.327 293.384 108.189 C 293.6 108.109 293.813 108.02 294.019 107.917 C 294.006 108.118 293.991 108.318 293.978 108.519 C 293.767 111.761 293.575 115.009 293.514 118.258 L 293.514 118.259 C 293.514 118.26 293.514 118.261 293.514 118.262 C 293.464 120.997 293.449 123.732 293.453 126.467 L 293.453 126.468 L 293.453 126.469 C 293.457 129.411 293.47 132.355 293.495 135.298 L 293.495 135.301 C 293.519 138.218 293.565 141.134 293.63 144.051 C 293.691 146.771 293.796 149.492 293.985 152.207 L 293.985 152.208 C 294.196 155.231 294.52 158.247 294.874 161.257 C 295.203 164.05 295.542 166.844 295.979 169.623 C 295.979 169.624 295.979 169.624 295.979 169.625 C 295.979 169.63 295.98 169.635 295.981 169.639 C 296.509 172.989 297.123 176.324 297.729 179.66 L 297.729 179.661 C 297.729 179.667 297.731 179.674 297.732 179.68 C 298.078 181.587 298.429 183.495 298.799 185.398 C 299.002 186.442 299.199 187.49 299.456 188.522 C 299.727 189.617 300.041 190.702 300.428 191.762 C 300.723 192.569 301.07 193.367 301.519 194.102 C 301.532 194.127 301.543 194.153 301.558 194.177 L 301.558 194.178 C 301.562 194.185 301.567 194.191 301.571 194.198 C 301.572 194.2 301.573 194.202 301.574 194.204 C 301.575 194.205 301.575 194.205 301.576 194.206 C 301.895 194.739 302.271 195.235 302.669 195.71 C 303.171 196.309 303.71 196.876 304.265 197.426 C 304.499 197.658 304.877 197.657 305.109 197.423 C 305.295 197.236 305.336 196.949 305.21 196.718 C 304.588 195.575 303.973 194.421 303.452 193.228 C 303.168 192.519 302.96 191.78 302.773 191.04 C 302.517 190.025 302.314 188.996 302.14 187.964 C 301.647 185.031 301.153 182.1 300.659 179.168 C 300.099 175.84 299.532 172.51 299.038 169.171 C 298.632 166.422 298.318 163.659 298.012 160.898 C 297.683 157.933 297.38 154.964 297.177 151.987 C 296.994 149.322 296.893 146.651 296.836 143.98 C 296.773 141.078 296.729 138.176 296.707 135.274 C 296.685 132.338 296.676 129.4 296.676 126.464 C 296.675 123.751 296.694 121.037 296.751 118.325 C 296.819 115.123 297.01 111.923 297.219 108.728 C 297.419 105.65 297.624 102.571 297.907 99.5 C 297.907 99.496 297.907 99.492 297.907 99.488 C 298.098 97.42 298.315 95.354 298.568 93.293 L 298.568 93.292 L 298.568 93.292 C 298.822 91.23 299.104 89.173 299.411 87.119 C 299.723 85.021 300.074 82.928 300.463 80.844 C 300.808 78.997 301.167 77.154 301.558 75.317 C 302.053 72.994 302.482 70.657 302.905 68.321 L 302.905 68.318 C 303.334 65.949 303.758 63.578 304.136 61.2 C 304.377 59.686 304.607 58.171 304.833 56.655 C 305.179 59.544 305.55 62.43 305.97 65.31 C 306.844 71.3 307.592 77.308 308.336 83.315 C 308.336 83.316 308.336 83.316 308.336 83.317 C 308.336 83.319 308.337 83.32 308.337 83.322 C 309.119 89.636 309.93 95.953 310.976 102.23 C 311.739 106.802 312.667 111.348 313.77 115.851 C 313.771 115.852 313.77 115.855 313.77 115.856 L 313.771 115.856 C 314.808 120.087 315.91 124.301 317.098 128.492 C 318.183 132.317 319.371 136.112 320.7 139.859 C 321.937 143.345 323.263 146.801 324.685 150.216 C 325.941 153.23 327.235 156.227 328.607 159.189 C 329.749 161.653 330.861 164.131 331.929 166.627 C 332.842 168.761 333.79 170.881 334.81 172.965 C 335.645 174.671 336.561 176.34 337.605 177.927 C 337.606 177.928 337.606 177.929 337.606 177.93 C 337.609 177.933 337.611 177.937 337.613 177.941 C 338.544 179.354 339.537 180.725 340.59 182.048 C 340.591 182.049 340.592 182.051 340.593 182.052 C 340.598 182.058 340.603 182.064 340.608 182.07 C 341.575 183.284 342.559 184.483 343.569 185.662 C 343.57 185.662 343.57 185.664 343.571 185.665 C 343.576 185.671 343.582 185.677 343.587 185.683 C 344.491 186.738 345.416 187.774 346.366 188.787 C 346.375 188.797 346.384 188.808 346.394 188.818 C 347.941 190.466 349.522 192.084 351.099 193.704 C 351.107 193.713 351.116 193.722 351.124 193.731 C 352.041 194.673 352.962 195.613 353.897 196.538 C 354.39 197.027 354.886 197.517 355.409 197.974 C 355.441 198.008 355.475 198.04 355.51 198.07 C 356.099 198.574 356.713 199.055 357.372 199.465 C 357.853 199.765 358.359 200.036 358.892 200.233 C 358.906 200.239 358.919 200.247 358.933 200.253 C 358.938 200.254 358.944 200.254 358.948 200.256 C 358.955 200.258 358.961 200.263 358.968 200.265 C 358.977 200.268 358.985 200.266 358.994 200.268 C 359.415 200.429 359.858 200.536 360.3 200.622 C 360.925 200.745 361.557 200.832 362.189 200.905 C 362.496 200.94 362.773 200.72 362.808 200.413 C 362.836 200.177 362.71 199.949 362.495 199.845 C 361.598 199.414 360.689 198.988 359.834 198.477 C 359.441 198.22 359.073 197.926 358.716 197.623 C 358.205 197.189 357.731 196.712 357.272 196.224 C 355.894 194.756 354.534 193.272 353.169 191.792 C 351.641 190.136 350.107 188.482 348.612 186.795 C 347.708 185.775 346.822 184.737 345.951 183.688 C 344.978 182.515 344.03 181.323 343.098 180.116 C 342.115 178.843 341.186 177.529 340.311 176.178 C 339.349 174.692 338.503 173.13 337.727 171.539 C 336.733 169.501 335.807 167.431 334.915 165.347 C 333.834 162.82 332.707 160.314 331.547 157.823 C 331.546 157.821 331.545 157.821 331.544 157.819 C 330.185 154.902 328.907 151.947 327.67 148.977 C 327.669 148.975 327.669 148.974 327.669 148.972 C 326.269 145.611 324.962 142.21 323.74 138.781 C 323.74 138.78 323.739 138.778 323.739 138.778 C 322.429 135.098 321.244 131.375 320.154 127.624 C 320.153 127.621 320.153 127.619 320.151 127.615 C 318.947 123.471 317.833 119.302 316.789 115.115 C 316.788 115.113 316.787 115.111 316.786 115.108 C 315.683 110.686 314.747 106.221 313.964 101.731 C 313.964 101.727 313.962 101.722 313.962 101.719 C 313.696 100.189 313.483 98.651 313.251 97.116 C 313.261 97.11 313.27 97.103 313.28 97.097 C 313.288 97.097 313.296 97.096 313.305 97.095 C 313.318 97.093 313.331 97.093 313.344 97.092 C 313.384 97.087 313.425 97.081 313.465 97.073 C 313.466 97.073 313.469 97.072 313.47 97.072 C 313.48 97.07 313.49 97.067 313.5 97.064 C 313.522 97.059 313.543 97.055 313.564 97.049 C 313.571 97.047 313.578 97.044 313.586 97.042 C 313.605 97.036 313.624 97.031 313.643 97.024 C 313.83 96.963 314.006 96.867 314.162 96.745 C 314.287 96.657 314.412 96.569 314.538 96.48 L 314.538 96.479 C 314.681 96.379 314.821 96.276 314.96 96.171 C 317.298 94.541 319.623 92.889 321.929 91.215 L 321.93 91.215 L 321.93 91.215 C 324.264 89.521 326.631 87.875 329.032 86.278 L 329.033 86.278 C 332.606 83.901 336.229 81.598 339.851 79.298 C 343.458 77.007 347.065 74.715 350.689 72.451 C 353.023 70.994 355.39 69.589 357.792 68.247 C 360.097 66.959 362.419 65.7 364.758 64.474 C 365.22 64.232 365.691 64.01 366.154 63.771 C 366.4 64.205 366.701 64.606 367.076 64.937 C 367.628 65.425 368.299 65.766 368.989 66.017 C 369.872 66.339 370.817 66.474 371.751 66.537 C 372.859 66.612 373.975 66.559 375.075 66.408 C 375.768 66.314 376.452 66.156 377.128 65.976 C 377.551 65.864 377.972 65.741 378.39 65.612 C 378.818 65.479 379.284 65.363 379.7 65.183 C 381.201 64.671 382.702 64.16 384.205 63.651 C 384.213 63.649 384.221 63.646 384.229 63.643 C 385.193 63.321 386.138 62.879 386.93 62.234 C 387.517 61.756 388.077 61.125 388.259 60.37 C 388.312 60.151 388.177 59.93 387.957 59.877 C 387.907 59.865 387.855 59.863 387.804 59.87 C 387.175 59.96 386.553 60.105 385.937 60.263 C 385.082 60.481 384.236 60.732 383.394 60.996 C 383.39 60.998 383.386 60.998 383.381 60.999 C 383.38 61 383.377 61.001 383.376 61.002 C 382.682 61.215 381.991 61.437 381.3 61.664 C 380.88 61.802 380.459 61.941 380.039 62.082 C 379.619 62.223 379.163 62.339 378.752 62.516 C 377.974 62.782 377.19 63.033 376.396 63.248 C 375.83 63.401 375.257 63.539 374.677 63.626 C 373.76 63.763 372.83 63.827 371.903 63.787 C 371.215 63.757 370.51 63.693 369.85 63.485 C 369.4 63.343 368.949 63.174 368.543 62.931 C 368.435 62.866 368.33 62.796 368.224 62.729 C 369.336 62.169 370.437 61.59 371.558 61.049 C 373.757 59.989 375.979 58.977 378.224 58.02 C 380.357 57.11 382.5 56.224 384.655 55.366 C 385.155 55.167 385.666 54.997 386.168 54.803 C 385.65 55.344 385.116 55.869 384.566 56.378 C 384.087 56.82 383.596 57.252 383.081 57.653 C 383.081 57.654 383.08 57.654 383.079 57.654 C 383.077 57.655 383.074 57.658 383.072 57.659 C 382.622 58.01 382.152 58.334 381.667 58.634 C 381.129 58.966 380.576 59.271 380.013 59.557 C 380.01 59.559 380.007 59.561 380.005 59.562 C 379.516 59.8 379.043 60.074 378.606 60.398 C 378.247 60.665 377.905 60.968 377.632 61.323 C 377.54 61.443 377.561 61.613 377.681 61.705 C 377.714 61.731 377.752 61.748 377.793 61.757 C 378.243 61.849 378.714 61.835 379.167 61.773 C 379.723 61.697 380.266 61.541 380.789 61.339 C 380.795 61.336 380.802 61.334 380.808 61.331 C 380.812 61.33 380.815 61.328 380.818 61.327 C 381.48 61.083 382.129 60.794 382.743 60.445 C 383.313 60.12 383.862 59.758 384.384 59.36 C 384.956 58.922 385.5 58.448 386.029 57.959 C 386.619 57.415 387.18 56.839 387.712 56.238 C 387.722 56.228 387.732 56.217 387.741 56.206 C 388.248 55.633 388.721 55.024 389.11 54.363 C 389.258 54.113 389.417 53.839 389.533 53.553 C 389.931 53.411 390.321 53.249 390.721 53.111 L 390.722 53.111 C 392.727 52.421 394.748 51.776 396.782 51.175 C 398.76 50.59 400.755 50.061 402.765 49.6 C 404.594 49.182 406.437 48.823 408.293 48.549 C 410 48.298 411.716 48.114 413.438 48.009 C 413.439 48.008 413.44 48.009 413.441 48.009 L 413.441 48.009 C 415.166 47.903 416.893 47.846 418.62 47.833 L 418.623 47.833 L 418.624 47.833 C 420.385 47.821 422.147 47.851 423.907 47.926 C 426.555 48.038 429.197 48.312 431.832 48.584 C 434.528 48.863 437.225 49.145 439.912 49.489 C 441.745 49.724 443.574 49.994 445.396 50.3 C 447.151 50.595 448.893 50.969 450.612 51.429 C 452.307 51.884 453.98 52.424 455.622 53.045 C 457.281 53.671 458.923 54.341 460.547 55.054 C 462.099 55.736 463.63 56.464 465.134 57.247 C 466.55 57.984 467.956 58.738 469.351 59.514 C 470.644 60.234 471.907 61.012 473.13 61.846 C 474.392 62.707 475.614 63.623 476.802 64.583 C 478.052 65.593 479.258 66.658 480.419 67.769 C 481.607 68.906 482.737 70.102 483.809 71.349 L 483.809 71.35 C 484.917 72.639 485.989 73.959 487.027 75.305 C 488.056 76.641 489.07 77.991 490.064 79.354 C 490.064 79.354 490.065 79.355 490.066 79.356 C 491.007 80.646 491.92 81.956 492.804 83.286 C 493.68 84.605 494.521 85.947 495.328 87.31 C 496.178 88.746 496.938 90.235 497.63 91.754 C 498.376 93.392 499.096 95.043 499.788 96.706 C 500.459 98.317 501.11 99.936 501.739 101.565 C 502.348 103.144 502.897 104.747 503.39 106.367 C 503.919 108.105 504.341 109.875 504.685 111.658 C 505.06 113.596 505.37 115.546 505.62 117.505 C 505.865 119.431 506.084 121.36 506.27 123.293 C 506.45 125.156 506.592 127.022 506.697 128.89 C 506.808 130.867 506.894 132.846 506.963 134.825 C 507.059 137.591 507.098 140.359 507.129 143.126 C 507.157 145.668 507.186 148.211 507.192 150.754 L 507.192 150.757 C 507.196 152.391 507.206 154.024 507.222 155.658 L 507.222 155.659 C 507.238 157.214 507.268 158.771 507.32 160.326 L 507.32 160.327 C 507.366 161.682 507.424 163.038 507.497 164.392 C 507.497 164.395 507.495 164.396 507.496 164.398 C 507.496 164.398 507.497 164.399 507.497 164.4 C 507.563 165.629 507.646 166.857 507.751 168.083 L 507.751 168.084 L 507.751 168.084 C 507.876 169.544 508.045 170.999 508.227 172.452 C 508.311 173.125 508.417 173.795 508.509 174.467 C 508.461 174.462 508.413 174.457 508.364 174.454 C 508.143 174.442 507.921 174.449 507.7 174.454 C 507.688 174.454 507.677 174.453 507.665 174.454 C 507.319 174.461 506.972 174.471 506.627 174.484 C 506.378 174.493 506.121 174.494 505.872 174.531 C 505.827 174.535 505.783 174.542 505.738 174.552 C 505.617 174.578 505.499 174.615 505.382 174.655 C 505.378 174.656 505.373 174.657 505.369 174.658 C 505.366 174.658 505.366 174.659 505.363 174.66 C 505.269 174.693 505.159 174.713 505.059 174.736 C 505.058 174.736 505.056 174.737 505.055 174.737 C 504.879 174.777 504.703 174.817 504.531 174.872 C 504.489 174.886 504.447 174.901 504.408 174.919 C 504.344 174.942 504.28 174.962 504.218 174.989 C 504.214 174.991 504.21 174.993 504.206 174.995 C 504.163 175.013 504.12 175.029 504.077 175.046 C 503.679 175.149 503.285 175.265 502.899 175.403 C 502.608 175.507 502.313 175.602 502.019 175.7 C 501.917 175.717 501.816 175.733 501.714 175.754 C 501.712 175.754 501.709 175.755 501.706 175.755 C 501.687 175.759 501.669 175.761 501.65 175.765 C 501.492 175.799 501.337 175.841 501.182 175.884 C 501.18 175.885 501.179 175.885 501.179 175.885 C 501.173 175.887 501.167 175.888 501.161 175.89 C 501.01 175.931 500.86 175.979 500.714 176.035 C 500.668 176.049 500.623 176.066 500.579 176.085 C 500.502 176.119 500.426 176.159 500.35 176.197 C 500.156 176.248 499.965 176.311 499.769 176.356 C 499.17 176.494 498.562 176.599 497.956 176.7 C 496.997 176.861 496.036 177.004 495.074 177.141 C 493.151 177.415 491.23 177.695 489.312 177.998 C 487.618 178.266 485.937 178.62 484.271 179.029 C 482.441 179.479 480.617 179.952 478.797 180.444 C 476.908 180.954 475.008 181.422 473.1 181.852 C 471.154 182.291 469.177 182.585 467.19 182.757 C 465.057 182.943 462.917 183.035 460.776 183.047 C 458.589 183.06 456.401 182.996 454.219 182.853 C 451.998 182.708 449.78 182.509 447.568 182.263 C 445.232 182.003 442.903 181.684 440.582 181.317 C 438.28 180.954 435.984 180.54 433.703 180.065 C 431.448 179.596 429.216 179.02 427.009 178.364 C 427.007 178.363 427.004 178.362 427.001 178.361 C 424.708 177.679 422.421 176.976 420.141 176.253 C 417.421 175.371 414.692 174.496 411.927 173.763 C 411.725 173.709 411.518 173.83 411.465 174.032 C 411.432 174.156 411.464 174.287 411.55 174.382 C 412.413 175.333 413.504 176.071 414.616 176.7 C 416.099 177.539 417.682 178.195 419.288 178.757 L 419.288 178.758 C 419.291 178.759 419.294 178.76 419.297 178.76 C 421.578 179.574 423.88 180.331 426.197 181.035 C 428.481 181.73 430.792 182.333 433.129 182.82 C 435.455 183.304 437.796 183.724 440.143 184.093 C 442.508 184.465 444.883 184.787 447.263 185.043 L 447.264 185.043 C 449.517 185.285 451.775 185.476 454.037 185.612 C 454.039 185.612 454.042 185.612 454.045 185.612 C 456.293 185.747 458.545 185.8 460.797 185.776 C 463.009 185.752 465.22 185.651 467.424 185.459 C 469.532 185.276 471.63 184.961 473.694 184.492 C 473.694 184.492 473.695 184.492 473.696 184.492 C 475.64 184.051 477.575 183.569 479.498 183.046 C 479.499 183.046 479.5 183.047 479.501 183.046 C 481.299 182.558 483.102 182.085 484.911 181.633 C 484.912 181.633 484.914 181.632 484.915 181.632 C 486.505 181.235 488.108 180.887 489.724 180.615 C 489.728 180.614 489.733 180.613 489.737 180.613 C 491.635 180.294 493.537 180 495.44 179.712 C 495.443 179.712 495.447 179.712 495.45 179.711 C 496.432 179.563 497.413 179.409 498.391 179.237 C 498.728 179.178 499.062 179.103 499.398 179.037 C 499.49 179.03 499.582 179.022 499.673 179.008 C 499.839 178.983 500.003 178.939 500.165 178.894 L 500.166 178.894 C 500.196 178.886 500.224 178.875 500.254 178.867 C 500.283 178.86 500.313 178.856 500.343 178.849 C 500.346 178.849 500.348 178.849 500.351 178.849 C 501.022 178.689 501.683 178.491 502.34 178.28 C 502.452 178.265 502.564 178.249 502.675 178.23 C 502.79 178.21 502.905 178.189 503.021 178.176 C 503.121 178.164 503.221 178.154 503.322 178.144 C 503.426 178.135 503.532 178.126 503.636 178.119 C 503.764 178.109 503.894 178.114 504.022 178.116 C 504.237 178.121 504.453 178.123 504.668 178.123 C 504.676 178.124 504.684 178.124 504.692 178.124 L 504.692 178.123 L 504.693 178.123 C 504.885 178.124 505.077 178.126 505.269 178.131 C 505.391 178.133 505.515 178.136 505.637 178.147 C 505.679 178.151 505.72 178.158 505.762 178.168 C 505.886 178.198 506.011 178.224 506.136 178.246 C 506.275 178.271 506.415 178.286 506.555 178.294 C 506.563 178.295 506.57 178.297 506.578 178.297 C 506.587 178.298 506.597 178.298 506.606 178.298 C 506.72 178.304 506.833 178.306 506.947 178.309 C 506.949 178.309 506.953 178.309 506.955 178.309 C 506.958 178.31 506.962 178.309 506.966 178.309 C 507.059 178.311 507.153 178.315 507.246 178.321 C 507.247 178.321 507.248 178.321 507.248 178.321 C 507.249 178.321 507.251 178.321 507.252 178.321 C 507.34 178.327 507.429 178.335 507.517 178.344 C 507.52 178.345 507.523 178.345 507.526 178.345 C 507.529 178.346 507.533 178.345 507.535 178.345 C 507.687 178.362 507.838 178.384 507.989 178.406 C 508.176 178.433 508.364 178.46 508.553 178.474 C 508.677 178.483 508.801 178.487 508.925 178.491 C 508.945 178.499 508.965 178.505 508.985 178.512 C 509.03 178.529 509.076 178.542 509.122 178.553 C 509.267 178.592 509.417 178.61 509.564 178.602 C 509.611 178.601 509.656 178.595 509.702 178.588 C 509.708 178.59 509.713 178.591 509.718 178.593 C 509.847 178.626 509.975 178.658 510.105 178.685 C 510.124 178.689 510.142 178.692 510.161 178.695 C 510.163 178.695 510.163 178.695 510.164 178.695 C 510.304 178.73 510.444 178.74 510.581 178.73 C 510.717 178.724 510.854 178.698 510.996 178.642 C 511.261 178.536 511.486 178.348 511.638 178.107 C 511.78 177.882 511.852 177.621 511.846 177.356 C 511.846 177.349 511.844 177.342 511.844 177.335 C 512.027 176.844 512.028 176.267 511.955 175.77 C 511.773 174.531 511.619 173.288 511.464 172.046 C 511.288 170.635 511.125 169.221 511.005 167.804 C 510.904 166.612 510.824 165.417 510.761 164.222 C 510.69 162.887 510.636 161.55 510.592 160.214 C 510.541 158.684 510.512 157.155 510.498 155.625 C 510.484 154 510.477 152.375 510.477 150.75 C 510.477 148.195 510.444 145.64 510.413 143.086 L 510.413 143.085 C 510.379 140.292 510.337 137.499 510.238 134.708 L 510.238 134.708 C 510.166 132.706 510.073 130.704 509.952 128.704 C 509.951 128.702 509.952 128.7 509.952 128.697 L 509.952 128.696 C 509.836 126.788 509.686 124.882 509.502 122.979 L 509.502 122.978 C 509.311 121.013 509.087 119.051 508.835 117.092 L 508.835 117.091 C 508.574 115.065 508.252 113.047 507.863 111.041 L 507.863 111.04 C 507.496 109.147 507.046 107.268 506.484 105.423 C 505.968 103.728 505.393 102.05 504.755 100.398 L 504.755 100.397 C 504.116 98.743 503.454 97.098 502.772 95.462 C 502.066 93.767 501.333 92.083 500.572 90.412 C 499.833 88.791 499.019 87.202 498.111 85.668 C 498.109 85.666 498.11 85.663 498.108 85.661 L 498.108 85.661 C 497.272 84.251 496.403 82.861 495.496 81.496 C 494.586 80.126 493.643 78.777 492.673 77.448 L 492.673 77.447 C 491.663 76.064 490.632 74.696 489.584 73.341 C 489.582 73.339 489.583 73.337 489.582 73.335 C 489.581 73.334 489.58 73.334 489.579 73.334 C 488.505 71.945 487.397 70.583 486.254 69.25 L 486.254 69.249 C 485.115 67.921 483.912 66.647 482.647 65.437 C 481.421 64.263 480.148 63.14 478.827 62.073 C 477.572 61.06 476.277 60.092 474.942 59.186 C 474.942 59.185 474.94 59.185 474.939 59.184 C 473.635 58.298 472.289 57.474 470.909 56.711 C 470.907 56.71 470.907 56.71 470.905 56.709 C 469.484 55.923 468.052 55.158 466.612 54.408 C 465.045 53.592 463.45 52.833 461.833 52.122 C 460.158 51.387 458.463 50.697 456.752 50.051 L 456.751 50.051 C 455.01 49.394 453.237 48.822 451.44 48.34 L 451.439 48.34 C 449.622 47.854 447.78 47.461 445.924 47.155 C 445.922 47.155 445.921 47.154 445.919 47.154 C 444.057 46.847 442.189 46.576 440.316 46.339 C 440.315 46.339 440.314 46.339 440.313 46.339 C 437.6 45.996 434.88 45.711 432.161 45.428 C 429.462 45.147 426.755 44.867 424.044 44.748 C 422.232 44.669 420.419 44.632 418.606 44.641 C 416.819 44.649 415.031 44.705 413.247 44.811 C 411.432 44.919 409.624 45.11 407.825 45.375 C 405.886 45.661 403.959 46.036 402.049 46.473 C 399.973 46.948 397.913 47.494 395.871 48.098 C 393.792 48.712 391.727 49.372 389.677 50.078 C 387.589 50.796 385.518 51.567 383.467 52.383 C 381.288 53.25 379.122 54.147 376.965 55.066 C 374.673 56.042 372.406 57.075 370.162 58.156 C 367.844 59.274 365.545 60.432 363.266 61.626 C 360.901 62.865 358.555 64.139 356.224 65.441 C 353.777 66.808 351.365 68.241 348.988 69.726 C 347.314 70.772 345.651 71.837 343.984 72.893 C 343.971 72.869 343.959 72.843 343.947 72.819 C 343.709 72.362 343.471 71.906 343.233 71.449 C 342.891 70.792 342.549 70.136 342.208 69.48 C 341.759 68.617 341.338 67.741 340.915 66.866 L 340.915 66.865 C 340.445 65.894 339.981 64.92 339.554 63.93 C 339.232 63.182 338.914 62.433 338.601 61.682 C 338.316 60.997 338.038 60.31 337.771 59.619 C 337.541 59.026 337.314 58.432 337.092 57.836 C 336.833 57.14 336.618 56.428 336.409 55.716 C 336.209 55.036 336.008 54.356 335.822 53.673 C 335.683 53.159 335.583 52.635 335.491 52.111 C 335.382 51.498 335.274 50.884 335.167 50.27 C 335.096 49.861 335.024 49.453 334.957 49.044 C 334.937 48.924 334.918 48.803 334.897 48.683 C 334.748 47.83 333.935 47.26 333.081 47.409 C 332.598 47.494 332.204 47.794 331.981 48.196 C 331.876 48.226 331.78 48.287 331.716 48.386 C 331.673 48.453 331.647 48.53 331.642 48.61 C 331.629 48.832 331.573 49.048 331.501 49.257 C 331.403 49.492 331.292 49.721 331.179 49.948 C 330.99 50.326 330.857 50.735 330.716 51.131 C 330.439 51.91 330.175 52.692 329.913 53.476 C 329.459 54.833 329.003 56.19 328.567 57.553 C 328.296 58.402 328.049 59.26 327.816 60.121 C 327.555 61.086 327.31 62.053 327.076 63.025 C 326.844 63.985 326.621 64.948 326.408 65.913 C 326.199 66.856 326.008 67.804 325.834 68.755 C 325.66 69.706 325.505 70.662 325.369 71.62 C 325.369 71.623 325.368 71.626 325.367 71.629 L 325.367 71.634 L 325.367 71.635 C 325.236 72.557 325.113 73.481 325.001 74.406 C 324.898 75.263 324.803 76.121 324.721 76.98 C 324.639 77.843 324.584 78.708 324.556 79.574 C 324.53 80.379 324.519 81.185 324.529 81.991 C 324.529 82.006 324.529 82.022 324.529 82.038 L 324.529 82.038 C 324.538 82.685 324.555 83.333 324.601 83.978 C 324.632 84.43 324.691 84.884 324.806 85.323 C 323.214 86.412 321.613 87.49 320.05 88.621 C 317.743 90.291 315.42 91.939 313.082 93.567 C 312.966 93.643 312.851 93.721 312.737 93.8 C 312.728 93.735 312.715 93.67 312.706 93.606 C 312.209 90.06 311.757 86.509 311.328 82.954 C 310.599 76.919 309.868 70.881 308.99 64.866 C 308.417 60.938 307.892 57.003 307.427 53.061 C 307.17 50.883 306.946 48.699 306.758 46.513 C 306.767 46.32 306.768 46.127 306.767 45.936 C 306.767 45.932 306.767 45.929 306.767 45.925 C 306.767 45.643 306.767 45.36 306.785 45.079 C 306.793 44.956 306.801 44.834 306.808 44.712 C 306.81 44.691 306.808 44.671 306.808 44.651 C 306.809 44.628 306.81 44.605 306.809 44.582 L 306.809 44.575 L 306.809 44.574 C 306.809 44.573 306.809 44.573 306.809 44.572 C 306.809 44.564 306.807 44.556 306.807 44.548 C 306.806 44.544 306.806 44.54 306.806 44.537 C 306.803 44.505 306.802 44.473 306.798 44.442 C 306.795 44.422 306.79 44.402 306.787 44.381 C 306.785 44.367 306.782 44.352 306.779 44.337 C 306.772 44.308 306.765 44.279 306.757 44.251 C 306.753 44.237 306.748 44.224 306.744 44.211 C 306.735 44.183 306.725 44.156 306.715 44.129 C 306.709 44.114 306.702 44.099 306.696 44.085 C 306.69 44.07 306.683 44.056 306.676 44.041 C 306.681 42.847 306.686 41.653 306.69 40.458 C 306.691 40.351 306.695 40.243 306.687 40.136 C 306.683 40.088 306.678 40.041 306.669 39.993 C 306.669 39.991 306.669 39.989 306.669 39.986 C 306.666 39.973 306.662 39.961 306.659 39.948 C 306.652 39.911 306.645 39.875 306.635 39.839 C 306.631 39.824 306.624 39.809 306.62 39.794 C 306.61 39.763 306.601 39.732 306.589 39.702 C 306.571 39.656 306.552 39.61 306.53 39.566 C 306.473 39.453 306.402 39.35 306.321 39.255 C 306.309 38.919 306.281 38.583 306.273 38.246 C 306.252 37.404 306.097 36.557 305.755 35.784 C 305.486 35.175 305.092 34.578 304.535 34.197 C 304.329 34.056 304.047 34.108 303.906 34.313 C 303.892 34.335 303.879 34.357 303.868 34.38 C 303.62 34.92 303.481 35.51 303.39 36.095 C 303.276 36.83 303.242 37.576 303.261 38.32 C 303.292 39.59 303.383 40.858 303.463 42.127 C 303.409 42.664 303.416 43.209 303.424 43.747 C 303.428 44.023 303.431 44.299 303.427 44.575 C 303.427 44.657 303.425 44.739 303.422 44.82 C 303.421 44.836 303.415 44.916 303.417 44.9 C 303.377 45.185 303.325 45.468 303.276 45.751 C 303.274 45.761 303.273 45.77 303.272 45.779 C 303.207 46.159 303.151 46.54 303.107 46.923 C 303.103 46.945 303.1 46.968 303.097 46.99 C 303.063 47.299 303.016 47.607 302.962 47.913 C 302.89 48.179 302.812 48.443 302.729 48.706 C 302.598 49.122 302.499 49.547 302.44 49.979 C 302.39 50.344 302.335 50.708 302.277 51.071 C 302.276 51.079 302.277 51.088 302.275 51.096 C 302.224 51.419 302.172 51.741 302.127 52.065 C 302.126 52.068 302.126 52.068 302.126 52.071 C 302.103 52.236 302.08 52.401 302.057 52.566 C 302.055 52.575 302.054 52.583 302.052 52.592 C 302.046 52.638 302.04 52.685 302.036 52.732 C 302.022 52.878 302.033 53.025 302.065 53.166 C 301.951 53.929 301.829 54.691 301.722 55.454 C 301.721 55.458 301.72 55.463 301.719 55.466 C 301.473 57.213 301.219 58.959 300.954 60.703 C 300.597 63.057 300.176 65.401 299.748 67.742 C 299.326 70.047 298.9 72.353 298.412 74.645 C 298.014 76.509 297.651 78.38 297.304 80.255 C 296.912 82.378 296.559 84.51 296.244 86.647 C 295.937 88.727 295.652 90.811 295.394 92.899 C 295.135 94.989 294.905 97.083 294.696 99.179 C 294.522 100.937 294.383 102.699 294.255 104.462 C 294.249 104.462 294.244 104.463 294.239 104.464 C 294.232 104.465 294.226 104.466 294.22 104.467 C 294.001 104.506 293.794 104.598 293.595 104.697 C 293.368 104.811 293.147 104.934 292.926 105.059 C 292.652 105.214 292.379 105.372 292.109 105.533 C 291.9 105.547 291.69 105.6 291.492 105.702 C 291.49 105.702 291.488 105.704 291.487 105.704 C 288.971 106.995 286.49 108.353 284.042 109.768 C 284.041 109.769 284.041 109.769 284.04 109.769 C 284.038 109.77 284.037 109.771 284.037 109.772 C 281.58 111.193 279.099 112.573 276.596 113.911 C 276.595 113.911 276.592 113.913 276.591 113.913 C 274.13 115.228 271.61 116.434 269.041 117.522 L 269.04 117.523 C 266.451 118.619 263.839 119.663 261.208 120.654 C 261.206 120.655 261.204 120.657 261.203 120.658 C 258.51 121.672 255.802 122.647 253.082 123.587 C 250.285 124.553 247.492 125.528 244.701 126.51 C 244.699 126.511 244.697 126.511 244.696 126.511 C 241.931 127.484 239.159 128.437 236.38 129.367 L 236.379 129.367 C 236.379 129.368 236.378 129.367 236.377 129.367 C 233.63 130.286 230.856 131.124 228.06 131.88 C 228.059 131.88 228.057 131.879 228.057 131.88 L 228.056 131.88 C 225.321 132.62 222.56 133.26 219.775 133.783 C 217.075 134.29 214.355 134.701 211.625 135.013 C 211.624 135.013 211.623 135.013 211.622 135.013 L 211.621 135.014 L 211.62 135.014 C 208.973 135.316 206.31 135.489 203.646 135.516 C 201.095 135.542 198.544 135.512 195.994 135.414 C 195.992 135.414 195.988 135.414 195.986 135.414 C 193.549 135.321 191.118 135.078 188.71 134.691 C 188.708 134.691 188.707 134.691 188.704 134.691 C 186.311 134.306 183.946 133.747 181.636 133.013 C 181.633 133.013 181.632 133.012 181.63 133.011 L 181.629 133.011 C 179.418 132.309 177.255 131.453 175.179 130.416 L 175.176 130.413 L 175.175 130.413 L 175.174 130.413 C 173.091 129.371 171.037 128.276 169.01 127.131 C 169.008 127.13 169.006 127.129 169.005 127.128 C 167.005 125.999 165.031 124.824 163.09 123.595 C 163.089 123.594 163.086 123.593 163.086 123.592 C 161.302 122.462 159.571 121.248 157.917 119.934 C 157.916 119.933 157.915 119.932 157.914 119.931 C 156.318 118.662 154.785 117.314 153.323 115.892 C 151.847 114.456 150.395 112.994 148.971 111.506 L 148.97 111.506 C 146.929 109.373 144.968 107.161 143.013 104.949 C 143.011 104.946 143.009 104.944 143.007 104.941 C 141.906 103.696 140.814 102.444 139.744 101.171 C 139.031 100.323 138.323 99.468 137.658 98.582 C 137.656 98.58 137.654 98.576 137.652 98.574 C 136.663 97.255 135.746 95.883 134.916 94.458 C 134.913 94.454 134.911 94.45 134.909 94.446 C 134.096 93.05 133.318 91.633 132.581 90.196 C 131.922 88.911 131.274 87.622 130.646 86.322 L 130.645 86.322 L 130.644 86.321 C 130.101 85.198 129.605 84.052 129.16 82.886 C 128.723 81.744 128.324 80.587 127.966 79.417 C 127.618 78.28 127.303 77.133 127.027 75.977 C 126.767 74.888 126.534 73.793 126.334 72.691 C 126.334 72.686 126.333 72.681 126.332 72.676 C 126.156 71.703 126.002 70.726 125.89 69.743 C 125.771 68.697 125.68 67.647 125.6 66.597 C 125.54 65.812 125.475 65.026 125.437 64.24 C 125.458 64.249 125.478 64.26 125.498 64.27 C 125.685 64.368 125.916 64.296 126.014 64.109 C 126.09 63.965 126.066 63.789 125.955 63.67 C 125.722 63.421 125.436 63.184 125.08 63.17 C 124.961 63.165 124.876 63.243 124.774 63.281 C 124.795 63.124 124.813 62.966 124.84 62.809 L 124.84 62.808 C 124.939 62.313 125.077 61.824 125.207 61.337 C 125.467 60.363 125.739 59.393 126.013 58.424 C 126.54 56.56 127.069 54.695 127.62 52.838 C 128.018 51.497 128.45 50.168 128.911 48.848 C 129.362 47.556 129.88 46.288 130.478 45.057 C 130.94 44.106 131.507 43.201 132.061 42.302 C 133.064 40.671 134.108 39.064 135.158 37.464 C 137.049 34.582 138.939 31.698 140.879 28.848 C 142.099 27.055 143.388 25.309 144.747 23.618 C 146 22.058 147.323 20.552 148.738 19.136 C 149.952 17.922 151.202 16.742 152.513 15.633 C 153.628 14.688 154.752 13.754 155.888 12.835 C 157.227 11.753 158.538 10.636 159.843 9.512 L 159.844 9.512 C 160.228 9.182 160.616 8.856 161.002 8.528 C 161.016 8.524 161.03 8.52 161.043 8.515 C 161.071 8.505 161.097 8.493 161.123 8.48 C 161.23 8.429 161.328 8.36 161.423 8.289 C 161.561 8.184 161.694 8.073 161.826 7.961 C 162.171 7.669 162.519 7.38 162.869 7.091 C 163.039 6.951 163.209 6.808 163.376 6.662 C 163.48 6.598 163.585 6.531 163.696 6.485 C 163.713 6.478 163.727 6.467 163.743 6.46 C 164.22 6.254 164.714 5.853 164.723 5.296 C 164.724 5.279 164.719 5.263 164.718 5.246 C 164.763 5.194 164.808 5.143 164.853 5.092 C 165.026 4.958 165.197 4.823 165.367 4.687 C 165.733 4.393 166.105 4.098 166.439 3.767 C 166.589 3.619 166.743 3.477 166.905 3.343 C 167.038 3.234 167.178 3.131 167.323 3.04 C 167.461 2.953 167.602 2.87 167.746 2.794 C 167.912 2.708 168.074 2.617 168.232 2.518 C 168.267 2.496 168.3 2.471 168.331 2.445 C 168.351 2.43 168.37 2.413 168.389 2.396 C 168.392 2.394 168.394 2.391 168.397 2.388 C 168.547 2.248 168.656 2.066 168.704 1.868 C 168.82 1.76 168.906 1.623 168.94 1.457 C 168.947 1.421 168.951 1.385 168.953 1.349 C 168.953 1.332 168.954 1.316 168.953 1.3 C 168.982 1.278 169.011 1.256 169.04 1.235 C 169.18 1.137 169.213 0.944 169.115 0.804 C 169.077 0.751 169.024 0.71 168.962 0.689 C 168.855 0.652 168.74 0.653 168.626 0.671 C 168.571 0.626 168.511 0.585 168.448 0.552 C 168.325 0.488 168.193 0.443 168.06 0.408 C 168.038 0.403 168.016 0.397 167.995 0.392 C 167.992 0.39 167.99 0.386 167.987 0.384 C 167.965 0.358 167.942 0.334 167.917 0.31 C 167.896 0.29 167.873 0.271 167.851 0.253 C 167.842 0.246 167.832 0.239 167.823 0.232 C 167.801 0.216 167.779 0.201 167.756 0.187 C 167.755 0.186 167.754 0.186 167.754 0.186 C 167.551 0.058 167.315 0.002 167.075 0 L 167.074 0.005 Z  M 332.255 53.218 C 332.326 53.652 332.403 54.086 332.502 54.514 C 332.673 55.248 332.887 55.971 333.099 56.694 C 333.334 57.49 333.577 58.287 333.877 59.062 C 333.88 59.07 333.884 59.078 333.888 59.086 C 334.117 59.677 334.354 60.267 334.594 60.854 C 334.598 60.865 334.603 60.876 334.607 60.887 C 334.9 61.6 335.203 62.307 335.515 63.012 C 335.844 63.759 336.179 64.502 336.519 65.244 C 336.524 65.256 336.529 65.267 336.534 65.278 C 336.998 66.289 337.515 67.277 338.039 68.259 C 338.039 68.259 338.039 68.261 338.039 68.262 C 338.049 68.281 338.06 68.3 338.07 68.319 C 338.545 69.209 339.018 70.101 339.531 70.97 C 339.924 71.638 340.353 72.284 340.792 72.922 C 340.99 73.21 341.188 73.499 341.387 73.787 C 341.455 73.992 341.561 74.182 341.7 74.346 C 340.514 75.099 339.322 75.845 338.137 76.6 L 338.137 76.6 C 338.136 76.6 338.135 76.601 338.134 76.602 C 334.499 78.918 330.862 81.236 327.271 83.62 C 327.23 83.648 327.19 83.678 327.149 83.706 C 327.17 83.155 327.188 82.603 327.2 82.052 C 327.217 81.256 327.239 80.461 327.265 79.666 C 327.292 78.856 327.337 78.048 327.403 77.241 C 327.404 77.236 327.403 77.229 327.404 77.224 C 327.473 76.391 327.556 75.561 327.65 74.731 C 327.651 74.728 327.651 74.725 327.651 74.722 L 327.651 74.721 C 327.754 73.818 327.873 72.917 328.004 72.017 C 328.139 71.09 328.293 70.164 328.464 69.242 C 328.635 68.323 328.821 67.407 329.022 66.494 C 329.233 65.541 329.449 64.59 329.668 63.64 C 329.887 62.694 330.115 61.75 330.357 60.81 L 330.357 60.809 C 330.359 60.804 330.36 60.801 330.362 60.796 L 330.361 60.796 C 330.573 59.975 330.794 59.157 331.033 58.343 C 331.036 58.334 331.038 58.325 331.041 58.315 C 331.203 57.766 331.339 57.208 331.473 56.651 C 331.679 55.794 331.873 54.934 332.063 54.073 C 332.126 53.788 332.19 53.503 332.255 53.218 L 332.255 53.218 Z  M 411.534 120.84 C 410.904 120.843 410.324 121.155 409.876 121.6 C 409.215 122.256 408.89 123.193 408.682 124.08 C 408.394 125.309 408.294 126.579 408.257 127.838 L 408.257 127.839 L 408.257 127.84 C 408.208 129.481 408.447 131.122 408.853 132.709 C 409.321 134.542 410.158 136.263 411.22 137.823 C 411.222 137.827 411.223 137.831 411.226 137.834 L 411.226 137.834 C 412.267 139.36 413.526 140.753 415.041 141.819 C 416.286 142.695 417.73 143.387 419.275 143.445 L 419.276 143.445 C 419.964 143.47 420.657 143.363 421.296 143.101 C 421.938 142.839 422.509 142.429 422.988 141.93 C 423.928 140.952 424.591 139.745 424.953 138.441 C 425.32 137.118 425.384 135.727 425.147 134.376 C 424.919 133.077 424.413 131.829 423.581 130.798 L 423.58 130.797 L 423.58 130.797 C 422.912 129.97 422.082 129.223 421.072 128.851 C 421.044 128.838 421.016 128.827 420.987 128.817 L 420.986 128.817 C 420.569 128.674 420.13 128.578 419.687 128.57 C 419.354 128.565 418.988 128.603 418.692 128.769 C 418.576 128.834 418.527 128.976 418.578 129.1 C 418.703 129.405 418.947 129.661 419.195 129.873 C 419.523 130.153 419.9 130.374 420.292 130.554 C 420.992 130.874 421.555 131.457 422.03 132.047 C 422.65 132.817 423.015 133.753 423.184 134.721 C 423.37 135.781 423.322 136.87 423.036 137.908 C 423.036 137.909 423.035 137.91 423.035 137.911 L 423.035 137.911 C 422.763 138.897 422.269 139.811 421.562 140.552 C 421.562 140.554 421.56 140.555 421.559 140.555 L 421.558 140.556 C 421.272 140.856 420.934 141.109 420.548 141.266 C 420.171 141.42 419.76 141.477 419.354 141.46 C 418.198 141.412 417.117 140.841 416.19 140.188 C 414.871 139.259 413.781 138.037 412.876 136.709 C 411.942 135.339 411.2 133.831 410.785 132.222 C 410.785 132.22 410.784 132.218 410.784 132.216 L 410.784 132.215 L 410.784 132.214 C 410.419 130.796 410.184 129.336 410.183 127.869 C 410.183 126.742 410.23 125.601 410.448 124.493 C 410.451 124.484 410.452 124.474 410.454 124.464 C 410.529 124.089 410.623 123.715 410.762 123.358 C 410.851 123.13 410.959 122.903 411.113 122.711 C 411.256 122.532 411.452 122.33 411.698 122.328 C 411.699 122.328 411.702 122.328 411.703 122.328 L 411.703 122.327 C 412.048 122.329 412.392 122.384 412.716 122.502 C 413.078 122.634 413.422 122.813 413.746 123.021 C 413.966 123.162 414.166 123.338 414.358 123.515 C 414.671 123.802 414.967 124.108 415.256 124.419 C 415.881 125.088 416.428 125.841 416.815 126.673 C 416.868 126.786 417.002 126.834 417.114 126.782 C 417.227 126.729 417.277 126.595 417.224 126.483 C 416.82 125.615 416.346 124.78 415.832 123.973 C 415.591 123.595 415.341 123.222 415.069 122.865 C 414.871 122.606 414.662 122.351 414.417 122.134 C 414.059 121.818 413.667 121.539 413.245 121.316 C 412.798 121.079 412.309 120.928 411.808 120.859 C 411.717 120.846 411.625 120.84 411.535 120.84 L 411.534 120.84 Z " fill="rgb(12,12,14)"/></g></svg>